<svg width="800" height="534" viewBox="0 0 800 534" fill="none" xmlns="http://www.w3.org/2000/svg">
<rect width="800" height="534" rx="30" fill="url(#paint0_linear_355_903)" fill-opacity="0.15"/>
<rect x="5" y="5" width="790" height="524" rx="25" stroke="white" stroke-opacity="0.1" stroke-width="10"/>
<rect x="1.5" y="1.5" width="797" height="531" rx="28.5" stroke="#616161" stroke-opacity="0.12" stroke-width="3"/>
<mask id="path-4-inside-1_355_903" fill="white">
<path d="M478.523 81.1807C497.775 81.1807 514.458 92.1721 522.642 108.222C531.266 93.6976 547.107 83.962 565.225 83.9619C585.735 83.9619 603.332 96.4376 610.839 114.215C619.727 101.011 634.812 92.3243 651.926 92.3242C679.26 92.3242 701.419 114.483 701.419 141.816C701.419 162.457 688.782 180.142 670.825 187.568C685.831 196.07 695.958 212.18 695.958 230.657C695.958 257.991 673.8 280.15 646.466 280.15C626.381 280.15 609.09 268.186 601.332 250.996C592.591 265.001 577.045 274.322 559.319 274.322C539.105 274.322 521.723 262.202 514.039 244.833C505.571 259.957 489.396 270.184 470.829 270.184C459.097 270.184 448.321 266.098 439.839 259.277C438.589 285.498 416.936 306.374 390.405 306.374C363.071 306.374 340.913 284.216 340.913 256.882C340.913 253.282 341.296 249.771 342.026 246.39C334.33 251.322 325.178 254.184 315.358 254.184C288.024 254.184 265.866 232.024 265.866 204.69C265.866 204.597 265.867 204.504 265.867 204.41C257.516 210.84 247.057 214.668 235.702 214.668C216.257 214.668 199.433 203.452 191.341 187.138C183.422 203.923 166.349 215.54 146.559 215.54C119.225 215.54 97.0656 193.382 97.0654 166.048C97.0654 138.714 119.225 116.556 146.559 116.556C166.003 116.556 182.825 127.771 190.918 144.084C198.837 127.299 215.912 115.683 235.702 115.683C263.036 115.683 285.194 137.841 285.194 165.175C285.194 165.268 285.193 165.361 285.192 165.454C293.543 159.024 304.004 155.198 315.358 155.198C327.412 155.198 338.457 159.51 347.041 166.671C347.026 166.174 347.019 165.675 347.019 165.175C347.019 137.841 369.177 115.683 396.511 115.683C408.996 115.683 420.399 120.307 429.106 127.935C430.527 101.874 452.108 81.1808 478.523 81.1807ZM423.318 206.782C419.772 209.072 415.916 210.922 411.825 212.252C415.253 213.9 418.46 215.934 421.395 218.294C421.584 214.316 422.243 210.46 423.318 206.782ZM364.827 203.194C364.842 203.691 364.851 204.19 364.851 204.69C364.851 208.291 364.465 211.801 363.735 215.183C367.243 212.935 371.052 211.116 375.09 209.804C371.39 208.024 367.947 205.797 364.827 203.194ZM606.312 161.054C600.3 169.986 591.453 176.851 581.06 180.358C591.395 185.42 599.707 193.977 604.452 204.49C609.892 195.774 617.968 188.874 627.565 184.905C618.101 179.543 610.577 171.155 606.312 161.054ZM521.105 155.903C515.203 165.844 505.922 173.539 494.842 177.407C504.227 182.625 511.738 190.805 516.109 200.687C522.052 190.074 531.788 181.872 543.484 177.925C533.85 173.206 525.973 165.451 521.105 155.903ZM445.928 167.912C445.717 171.769 445.065 175.509 444.021 179.081C447.275 176.98 450.792 175.253 454.511 173.955C451.433 172.244 448.557 170.216 445.928 167.912Z"/>
</mask>
<path d="M478.523 81.1807C497.775 81.1807 514.458 92.1721 522.642 108.222C531.266 93.6976 547.107 83.962 565.225 83.9619C585.735 83.9619 603.332 96.4376 610.839 114.215C619.727 101.011 634.812 92.3243 651.926 92.3242C679.26 92.3242 701.419 114.483 701.419 141.816C701.419 162.457 688.782 180.142 670.825 187.568C685.831 196.07 695.958 212.18 695.958 230.657C695.958 257.991 673.8 280.15 646.466 280.15C626.381 280.15 609.09 268.186 601.332 250.996C592.591 265.001 577.045 274.322 559.319 274.322C539.105 274.322 521.723 262.202 514.039 244.833C505.571 259.957 489.396 270.184 470.829 270.184C459.097 270.184 448.321 266.098 439.839 259.277C438.589 285.498 416.936 306.374 390.405 306.374C363.071 306.374 340.913 284.216 340.913 256.882C340.913 253.282 341.296 249.771 342.026 246.39C334.33 251.322 325.178 254.184 315.358 254.184C288.024 254.184 265.866 232.024 265.866 204.69C265.866 204.597 265.867 204.504 265.867 204.41C257.516 210.84 247.057 214.668 235.702 214.668C216.257 214.668 199.433 203.452 191.341 187.138C183.422 203.923 166.349 215.54 146.559 215.54C119.225 215.54 97.0656 193.382 97.0654 166.048C97.0654 138.714 119.225 116.556 146.559 116.556C166.003 116.556 182.825 127.771 190.918 144.084C198.837 127.299 215.912 115.683 235.702 115.683C263.036 115.683 285.194 137.841 285.194 165.175C285.194 165.268 285.193 165.361 285.192 165.454C293.543 159.024 304.004 155.198 315.358 155.198C327.412 155.198 338.457 159.51 347.041 166.671C347.026 166.174 347.019 165.675 347.019 165.175C347.019 137.841 369.177 115.683 396.511 115.683C408.996 115.683 420.399 120.307 429.106 127.935C430.527 101.874 452.108 81.1808 478.523 81.1807ZM423.318 206.782C419.772 209.072 415.916 210.922 411.825 212.252C415.253 213.9 418.46 215.934 421.395 218.294C421.584 214.316 422.243 210.46 423.318 206.782ZM364.827 203.194C364.842 203.691 364.851 204.19 364.851 204.69C364.851 208.291 364.465 211.801 363.735 215.183C367.243 212.935 371.052 211.116 375.09 209.804C371.39 208.024 367.947 205.797 364.827 203.194ZM606.312 161.054C600.3 169.986 591.453 176.851 581.06 180.358C591.395 185.42 599.707 193.977 604.452 204.49C609.892 195.774 617.968 188.874 627.565 184.905C618.101 179.543 610.577 171.155 606.312 161.054ZM521.105 155.903C515.203 165.844 505.922 173.539 494.842 177.407C504.227 182.625 511.738 190.805 516.109 200.687C522.052 190.074 531.788 181.872 543.484 177.925C533.85 173.206 525.973 165.451 521.105 155.903ZM445.928 167.912C445.717 171.769 445.065 175.509 444.021 179.081C447.275 176.98 450.792 175.253 454.511 173.955C451.433 172.244 448.557 170.216 445.928 167.912Z" fill="black" fill-opacity="0.15"/>
<path d="M478.523 81.1807L478.523 78.1807L478.523 78.1807L478.523 81.1807ZM522.642 108.222L519.969 109.584L522.442 114.434L525.221 109.753L522.642 108.222ZM565.225 83.9619L565.225 80.9619L565.225 80.9619L565.225 83.9619ZM610.839 114.215L608.075 115.382L610.232 120.489L613.328 115.89L610.839 114.215ZM651.926 92.3242L651.926 89.3242L651.926 89.3242L651.926 92.3242ZM701.419 141.816L704.419 141.816L704.419 141.816L701.419 141.816ZM670.825 187.568L669.679 184.796L663.995 187.147L669.346 190.179L670.825 187.568ZM695.958 230.657L698.958 230.657L698.958 230.657L695.958 230.657ZM646.466 280.15L646.466 283.15L646.466 283.15L646.466 280.15ZM601.332 250.996L604.066 249.762L601.758 244.647L598.787 249.408L601.332 250.996ZM559.319 274.322L559.319 277.322H559.319V274.322ZM514.039 244.833L516.783 243.619L514.354 238.13L511.421 243.367L514.039 244.833ZM470.829 270.184L470.829 273.184H470.829V270.184ZM439.839 259.277L441.719 256.939L437.123 253.244L436.842 259.135L439.839 259.277ZM390.405 306.374L390.405 309.374L390.405 309.374L390.405 306.374ZM340.913 256.882L337.913 256.882L337.913 256.882L340.913 256.882ZM342.026 246.39L344.959 247.023L346.481 239.972L340.408 243.864L342.026 246.39ZM315.358 254.184L315.358 257.184L315.358 257.184L315.358 254.184ZM265.866 204.69L262.866 204.69V204.69H265.866ZM265.867 204.41L268.867 204.427L268.901 198.288L264.037 202.033L265.867 204.41ZM235.702 214.668L235.702 217.668L235.702 217.668L235.702 214.668ZM191.341 187.138L194.028 185.805L191.273 180.25L188.628 185.858L191.341 187.138ZM146.559 215.54L146.559 218.54L146.559 218.54L146.559 215.54ZM97.0654 166.048L94.0654 166.048L94.0654 166.048L97.0654 166.048ZM146.559 116.556L146.559 113.556H146.559V116.556ZM190.918 144.084L188.23 145.417L190.986 150.971L193.631 145.364L190.918 144.084ZM235.702 115.683L235.702 112.683H235.702V115.683ZM285.194 165.175L288.194 165.175L288.194 165.175L285.194 165.175ZM285.192 165.454L282.192 165.438L282.159 171.576L287.023 167.831L285.192 165.454ZM315.358 155.198L315.358 152.198H315.358V155.198ZM347.041 166.671L345.119 168.975L350.237 173.244L350.04 166.582L347.041 166.671ZM347.019 165.175L344.019 165.175V165.175H347.019ZM396.511 115.683L396.511 112.683L396.511 112.683L396.511 115.683ZM429.106 127.935L427.13 130.191L431.766 134.253L432.102 128.098L429.106 127.935ZM423.318 206.782L426.198 207.624L428.457 199.894L421.691 204.262L423.318 206.782ZM411.825 212.252L410.898 209.399L403.78 211.713L410.525 214.956L411.825 212.252ZM421.395 218.294L419.515 220.632L424.11 224.327L424.391 218.437L421.395 218.294ZM364.827 203.194L366.749 200.891L361.631 196.621L361.828 203.283L364.827 203.194ZM364.851 204.69L367.851 204.69L367.851 204.69L364.851 204.69ZM363.735 215.183L360.803 214.55L359.281 221.601L365.354 217.708L363.735 215.183ZM375.09 209.804L376.017 212.657L383.134 210.343L376.39 207.1L375.09 209.804ZM606.312 161.054L609.075 159.887L606.919 154.779L603.823 159.379L606.312 161.054ZM581.06 180.358L580.1 177.516L573.194 179.847L579.74 183.053L581.06 180.358ZM604.452 204.49L601.718 205.724L604.026 210.839L606.997 206.079L604.452 204.49ZM627.565 184.905L628.712 187.678L634.396 185.327L629.044 182.295L627.565 184.905ZM521.105 155.903L523.778 154.541L521.305 149.691L518.526 154.372L521.105 155.903ZM494.842 177.407L493.853 174.575L487.539 176.779L493.384 180.029L494.842 177.407ZM516.109 200.687L513.366 201.9L515.794 207.389L518.727 202.152L516.109 200.687ZM543.484 177.925L544.444 180.767L551.35 178.437L544.804 175.231L543.484 177.925ZM445.928 167.912L447.905 165.656L443.268 161.594L442.932 167.749L445.928 167.912ZM444.021 179.081L441.142 178.24L438.883 185.969L445.649 181.601L444.021 179.081ZM454.511 173.955L455.5 176.787L461.814 174.583L455.969 171.333L454.511 173.955ZM478.523 81.1807V84.1807C496.603 84.1807 512.278 94.5002 519.969 109.584L522.642 108.222L525.314 106.859C516.638 89.8439 498.946 78.1807 478.523 78.1807V81.1807ZM522.642 108.222L525.221 109.753C533.328 96.1016 548.21 86.962 565.225 86.9619L565.225 83.9619L565.225 80.9619C546.005 80.962 529.205 91.2935 520.062 106.69L522.642 108.222ZM565.225 83.9619V86.9619C584.487 86.9619 601.021 98.6764 608.075 115.382L610.839 114.215L613.603 113.048C605.643 94.1988 586.983 80.9619 565.225 80.9619V83.9619ZM610.839 114.215L613.328 115.89C621.682 103.479 635.852 95.3243 651.926 95.3242L651.926 92.3242L651.926 89.3242C633.772 89.3243 617.772 98.5425 608.35 112.54L610.839 114.215ZM651.926 92.3242V95.3242C677.603 95.3242 698.419 116.14 698.419 141.816L701.419 141.816L704.419 141.816C704.419 112.826 680.916 89.3242 651.926 89.3242V92.3242ZM701.419 141.816H698.419C698.419 161.2 686.554 177.818 669.679 184.796L670.825 187.568L671.972 190.341C691.011 182.467 704.419 163.713 704.419 141.816H701.419ZM670.825 187.568L669.346 190.179C683.45 198.169 692.958 213.304 692.958 230.657L695.958 230.657L698.958 230.657C698.958 211.055 688.211 193.97 672.304 184.958L670.825 187.568ZM695.958 230.657H692.958C692.958 256.334 672.143 277.15 646.466 277.15L646.466 280.15L646.466 283.15C675.457 283.15 698.958 259.648 698.958 230.657H695.958ZM646.466 280.15V277.15C627.603 277.15 611.358 265.917 604.066 249.762L601.332 250.996L598.598 252.23C606.823 270.456 625.159 283.15 646.466 283.15V280.15ZM601.332 250.996L598.787 249.408C590.57 262.572 575.967 271.322 559.319 271.322V274.322V277.322C578.123 277.322 594.611 267.431 603.877 252.585L601.332 250.996ZM559.319 274.322L559.319 271.322C540.335 271.322 524.004 259.942 516.783 243.619L514.039 244.833L511.296 246.047C519.443 264.462 537.874 277.322 559.319 277.322L559.319 274.322ZM514.039 244.833L511.421 243.367C503.462 257.583 488.266 267.184 470.829 267.184V270.184V273.184C490.525 273.184 507.679 262.332 516.657 246.299L514.039 244.833ZM470.829 270.184L470.829 267.184C459.806 267.184 449.688 263.348 441.719 256.939L439.839 259.277L437.959 261.615C446.954 268.849 458.388 273.184 470.829 273.184L470.829 270.184ZM439.839 259.277L436.842 259.135C435.668 283.764 415.327 303.374 390.405 303.374L390.405 306.374L390.405 309.374C418.545 309.374 441.51 287.233 442.835 259.42L439.839 259.277ZM390.405 306.374V303.374C364.728 303.374 343.913 282.559 343.913 256.882L340.913 256.882L337.913 256.882C337.913 285.872 361.415 309.374 390.405 309.374V306.374ZM340.913 256.882H343.913C343.913 253.495 344.274 250.197 344.959 247.023L342.026 246.39L339.094 245.757C338.319 249.346 337.913 253.068 337.913 256.882H340.913ZM342.026 246.39L340.408 243.864C333.179 248.496 324.587 251.184 315.358 251.184L315.358 254.184L315.358 257.184C325.769 257.184 335.48 254.148 343.645 248.915L342.026 246.39ZM315.358 254.184V251.184C289.681 251.184 268.866 230.368 268.866 204.69H265.866H262.866C262.866 233.681 286.368 257.184 315.358 257.184V254.184ZM265.866 204.69L268.866 204.69C268.866 204.606 268.867 204.52 268.867 204.427L265.867 204.41L262.867 204.394C262.867 204.487 262.866 204.588 262.866 204.69L265.866 204.69ZM265.867 204.41L264.037 202.033C256.191 208.074 246.371 211.668 235.702 211.668L235.702 214.668L235.702 217.668C247.743 217.668 258.841 213.607 267.697 206.787L265.867 204.41ZM235.702 214.668V211.668C217.44 211.668 201.634 201.137 194.028 185.805L191.341 187.138L188.653 188.471C197.232 205.766 215.073 217.668 235.702 217.668V214.668ZM191.341 187.138L188.628 185.858C181.185 201.633 165.144 212.54 146.559 212.54L146.559 215.54L146.559 218.54C167.553 218.54 185.659 206.213 194.054 188.418L191.341 187.138ZM146.559 215.54V212.54C120.882 212.54 100.066 191.725 100.065 166.048L97.0654 166.048L94.0654 166.048C94.0656 195.039 117.568 218.54 146.559 218.54V215.54ZM97.0654 166.048H100.065C100.065 140.371 120.881 119.556 146.559 119.556V116.556V113.556C117.568 113.556 94.0654 137.057 94.0654 166.048H97.0654ZM146.559 116.556L146.559 119.556C164.82 119.556 180.625 130.085 188.23 145.417L190.918 144.084L193.605 142.751C185.026 125.456 167.187 113.556 146.559 113.556L146.559 116.556ZM190.918 144.084L193.631 145.364C201.073 129.589 217.116 118.683 235.702 118.683V115.683V112.683C214.708 112.683 196.6 125.009 188.205 142.804L190.918 144.084ZM235.702 115.683L235.702 118.683C261.379 118.683 282.194 139.498 282.194 165.175L285.194 165.175L288.194 165.175C288.194 136.184 264.693 112.683 235.702 112.683L235.702 115.683ZM285.194 165.175H282.194C282.194 165.266 282.193 165.296 282.192 165.438L285.192 165.454L288.192 165.471C288.193 165.427 288.194 165.27 288.194 165.175H285.194ZM285.192 165.454L287.023 167.831C294.868 161.791 304.689 158.198 315.358 158.198V155.198V152.198C303.318 152.198 292.219 156.258 283.362 163.077L285.192 165.454ZM315.358 155.198L315.358 158.198C326.683 158.198 337.054 162.246 345.119 168.975L347.041 166.671L348.963 164.367C339.86 156.773 328.14 152.198 315.358 152.198L315.358 155.198ZM347.041 166.671L350.04 166.582C350.026 166.114 350.019 165.644 350.019 165.175H347.019H344.019C344.019 165.706 344.027 166.235 344.042 166.76L347.041 166.671ZM347.019 165.175L350.019 165.175C350.019 139.498 370.834 118.683 396.511 118.683L396.511 115.683L396.511 112.683C367.52 112.683 344.019 136.184 344.019 165.175L347.019 165.175ZM396.511 115.683V118.683C408.241 118.683 418.948 123.024 427.13 130.191L429.106 127.935L431.083 125.678C421.85 117.59 409.751 112.683 396.511 112.683V115.683ZM429.106 127.935L432.102 128.098C433.437 103.62 453.711 84.1808 478.523 84.1807L478.523 81.1807L478.523 78.1807C450.506 78.1808 427.618 100.129 426.111 127.771L429.106 127.935ZM423.318 206.782L421.691 204.262C418.359 206.413 414.738 208.151 410.898 209.399L411.825 212.252L412.753 215.105C417.095 213.693 421.186 211.73 424.946 209.303L423.318 206.782ZM411.825 212.252L410.525 214.956C413.743 216.503 416.756 218.414 419.515 220.632L421.395 218.294L423.274 215.956C420.165 213.455 416.764 211.298 413.125 209.548L411.825 212.252ZM421.395 218.294L424.391 218.437C424.569 214.697 425.189 211.076 426.198 207.624L423.318 206.782L420.439 205.941C419.298 209.844 418.599 213.934 418.398 218.151L421.395 218.294ZM364.827 203.194L361.828 203.283C361.842 203.756 361.851 204.224 361.851 204.69L364.851 204.69L367.851 204.69C367.851 204.155 367.841 203.627 367.826 203.105L364.827 203.194ZM364.851 204.69H361.851C361.851 208.076 361.488 211.374 360.803 214.55L363.735 215.183L366.668 215.816C367.442 212.228 367.851 208.505 367.851 204.69H364.851ZM363.735 215.183L365.354 217.708C368.65 215.596 372.227 213.889 376.017 212.657L375.09 209.804L374.162 206.951C369.877 208.344 365.836 210.273 362.117 212.657L363.735 215.183ZM375.09 209.804L376.39 207.1C372.916 205.43 369.681 203.337 366.749 200.891L364.827 203.194L362.905 205.498C366.212 208.257 369.863 210.619 373.79 212.507L375.09 209.804ZM606.312 161.054L603.823 159.379C598.172 167.774 589.859 174.223 580.1 177.516L581.06 180.358L582.019 183.201C593.047 179.479 602.427 172.198 608.8 162.729L606.312 161.054ZM581.06 180.358L579.74 183.053C589.45 187.808 597.26 195.849 601.718 205.724L604.452 204.49L607.187 203.256C602.153 192.104 593.34 183.032 582.379 177.664L581.06 180.358ZM604.452 204.49L606.997 206.079C612.109 197.888 619.699 191.405 628.712 187.678L627.565 184.905L626.419 182.133C616.237 186.344 607.675 193.66 601.907 202.902L604.452 204.49ZM627.565 184.905L629.044 182.295C620.151 177.256 613.081 169.374 609.075 159.887L606.312 161.054L603.548 162.221C608.073 172.937 616.051 181.83 626.087 187.515L627.565 184.905ZM521.105 155.903L518.526 154.372C512.979 163.713 504.257 170.942 493.853 174.575L494.842 177.407L495.831 180.24C507.586 176.135 517.427 167.974 523.685 157.435L521.105 155.903ZM494.842 177.407L493.384 180.029C502.203 184.932 509.26 192.62 513.366 201.9L516.109 200.687L518.853 199.473C514.215 188.991 506.252 180.318 496.3 174.785L494.842 177.407ZM516.109 200.687L518.727 202.152C524.312 192.179 533.461 184.474 544.444 180.767L543.484 177.925L542.525 175.082C530.115 179.271 519.792 187.968 513.492 199.221L516.109 200.687ZM543.484 177.925L544.804 175.231C535.753 170.797 528.351 163.51 523.778 154.541L521.105 155.903L518.433 157.266C523.595 167.392 531.947 175.614 542.165 180.619L543.484 177.925ZM445.928 167.912L442.932 167.749C442.735 171.374 442.122 174.886 441.142 178.24L444.021 179.081L446.901 179.922C448.009 176.131 448.7 172.165 448.923 168.075L445.928 167.912ZM444.021 179.081L445.649 181.601C448.704 179.629 452.007 178.007 455.5 176.787L454.511 173.955L453.522 171.123C449.577 172.5 445.846 174.332 442.394 176.561L444.021 179.081ZM454.511 173.955L455.969 171.333C453.077 169.726 450.375 167.82 447.905 165.656L445.928 167.912L443.951 170.169C446.74 172.612 449.789 174.763 453.053 176.577L454.511 173.955Z" fill="white" fill-opacity="0.05" mask="url(#path-4-inside-1_355_903)"/>
<g filter="url(#filter0_d_355_903)">
<circle cx="27.7883" cy="506.463" r="8.60962" fill="url(#paint1_linear_355_903)" stroke="#383838" stroke-width="2"/>
</g>
<g filter="url(#filter1_d_355_903)">
<circle cx="27.7883" cy="265.831" r="8.60962" fill="url(#paint2_linear_355_903)" stroke="#383838" stroke-width="2"/>
</g>
<g filter="url(#filter2_d_355_903)">
<circle cx="27.7883" cy="25.2" r="8.60962" fill="url(#paint3_linear_355_903)" stroke="#383838" stroke-width="2"/>
</g>
<g filter="url(#filter3_d_355_903)">
<circle cx="346.187" cy="25.2" r="8.60962" fill="url(#paint4_linear_355_903)" stroke="#383838" stroke-width="2"/>
</g>
<g filter="url(#filter4_d_355_903)">
<circle cx="454.187" cy="25.2" r="8.60962" fill="url(#paint5_linear_355_903)" stroke="#383838" stroke-width="2"/>
</g>
<g filter="url(#filter5_d_355_903)">
<circle cx="402.187" cy="506.463" r="8.60962" fill="url(#paint6_linear_355_903)" stroke="#383838" stroke-width="2"/>
</g>
<g filter="url(#filter6_d_355_903)">
<circle cx="776.585" cy="506.463" r="8.60962" fill="url(#paint7_linear_355_903)" stroke="#383838" stroke-width="2"/>
</g>
<g filter="url(#filter7_d_355_903)">
<circle cx="776.585" cy="265.831" r="8.60962" fill="url(#paint8_linear_355_903)" stroke="#383838" stroke-width="2"/>
</g>
<g filter="url(#filter8_d_355_903)">
<circle cx="776.585" cy="25.2" r="8.60962" fill="url(#paint9_linear_355_903)" stroke="#383838" stroke-width="2"/>
</g>
<defs>
<filter id="filter0_d_355_903" x="12.1787" y="492.853" width="31.2192" height="32.2192" filterUnits="userSpaceOnUse" color-interpolation-filters="sRGB">
<feFlood flood-opacity="0" result="BackgroundImageFix"/>
<feColorMatrix in="SourceAlpha" type="matrix" values="0 0 0 0 0 0 0 0 0 0 0 0 0 0 0 0 0 0 127 0" result="hardAlpha"/>
<feOffset dy="2"/>
<feGaussianBlur stdDeviation="3"/>
<feComposite in2="hardAlpha" operator="out"/>
<feColorMatrix type="matrix" values="0 0 0 0 0 0 0 0 0 0 0 0 0 0 0 0 0 0 0.5 0"/>
<feBlend mode="normal" in2="BackgroundImageFix" result="effect1_dropShadow_355_903"/>
<feBlend mode="normal" in="SourceGraphic" in2="effect1_dropShadow_355_903" result="shape"/>
</filter>
<filter id="filter1_d_355_903" x="12.1787" y="252.222" width="31.2192" height="32.2192" filterUnits="userSpaceOnUse" color-interpolation-filters="sRGB">
<feFlood flood-opacity="0" result="BackgroundImageFix"/>
<feColorMatrix in="SourceAlpha" type="matrix" values="0 0 0 0 0 0 0 0 0 0 0 0 0 0 0 0 0 0 127 0" result="hardAlpha"/>
<feOffset dy="2"/>
<feGaussianBlur stdDeviation="3"/>
<feComposite in2="hardAlpha" operator="out"/>
<feColorMatrix type="matrix" values="0 0 0 0 0 0 0 0 0 0 0 0 0 0 0 0 0 0 0.5 0"/>
<feBlend mode="normal" in2="BackgroundImageFix" result="effect1_dropShadow_355_903"/>
<feBlend mode="normal" in="SourceGraphic" in2="effect1_dropShadow_355_903" result="shape"/>
</filter>
<filter id="filter2_d_355_903" x="12.1787" y="11.5903" width="31.2192" height="32.2192" filterUnits="userSpaceOnUse" color-interpolation-filters="sRGB">
<feFlood flood-opacity="0" result="BackgroundImageFix"/>
<feColorMatrix in="SourceAlpha" type="matrix" values="0 0 0 0 0 0 0 0 0 0 0 0 0 0 0 0 0 0 127 0" result="hardAlpha"/>
<feOffset dy="2"/>
<feGaussianBlur stdDeviation="3"/>
<feComposite in2="hardAlpha" operator="out"/>
<feColorMatrix type="matrix" values="0 0 0 0 0 0 0 0 0 0 0 0 0 0 0 0 0 0 0.5 0"/>
<feBlend mode="normal" in2="BackgroundImageFix" result="effect1_dropShadow_355_903"/>
<feBlend mode="normal" in="SourceGraphic" in2="effect1_dropShadow_355_903" result="shape"/>
</filter>
<filter id="filter3_d_355_903" x="330.577" y="11.5903" width="31.2192" height="32.2192" filterUnits="userSpaceOnUse" color-interpolation-filters="sRGB">
<feFlood flood-opacity="0" result="BackgroundImageFix"/>
<feColorMatrix in="SourceAlpha" type="matrix" values="0 0 0 0 0 0 0 0 0 0 0 0 0 0 0 0 0 0 127 0" result="hardAlpha"/>
<feOffset dy="2"/>
<feGaussianBlur stdDeviation="3"/>
<feComposite in2="hardAlpha" operator="out"/>
<feColorMatrix type="matrix" values="0 0 0 0 0 0 0 0 0 0 0 0 0 0 0 0 0 0 0.5 0"/>
<feBlend mode="normal" in2="BackgroundImageFix" result="effect1_dropShadow_355_903"/>
<feBlend mode="normal" in="SourceGraphic" in2="effect1_dropShadow_355_903" result="shape"/>
</filter>
<filter id="filter4_d_355_903" x="438.577" y="11.5903" width="31.2192" height="32.2192" filterUnits="userSpaceOnUse" color-interpolation-filters="sRGB">
<feFlood flood-opacity="0" result="BackgroundImageFix"/>
<feColorMatrix in="SourceAlpha" type="matrix" values="0 0 0 0 0 0 0 0 0 0 0 0 0 0 0 0 0 0 127 0" result="hardAlpha"/>
<feOffset dy="2"/>
<feGaussianBlur stdDeviation="3"/>
<feComposite in2="hardAlpha" operator="out"/>
<feColorMatrix type="matrix" values="0 0 0 0 0 0 0 0 0 0 0 0 0 0 0 0 0 0 0.5 0"/>
<feBlend mode="normal" in2="BackgroundImageFix" result="effect1_dropShadow_355_903"/>
<feBlend mode="normal" in="SourceGraphic" in2="effect1_dropShadow_355_903" result="shape"/>
</filter>
<filter id="filter5_d_355_903" x="386.577" y="492.853" width="31.2192" height="32.2192" filterUnits="userSpaceOnUse" color-interpolation-filters="sRGB">
<feFlood flood-opacity="0" result="BackgroundImageFix"/>
<feColorMatrix in="SourceAlpha" type="matrix" values="0 0 0 0 0 0 0 0 0 0 0 0 0 0 0 0 0 0 127 0" result="hardAlpha"/>
<feOffset dy="2"/>
<feGaussianBlur stdDeviation="3"/>
<feComposite in2="hardAlpha" operator="out"/>
<feColorMatrix type="matrix" values="0 0 0 0 0 0 0 0 0 0 0 0 0 0 0 0 0 0 0.5 0"/>
<feBlend mode="normal" in2="BackgroundImageFix" result="effect1_dropShadow_355_903"/>
<feBlend mode="normal" in="SourceGraphic" in2="effect1_dropShadow_355_903" result="shape"/>
</filter>
<filter id="filter6_d_355_903" x="760.976" y="492.853" width="31.2192" height="32.2192" filterUnits="userSpaceOnUse" color-interpolation-filters="sRGB">
<feFlood flood-opacity="0" result="BackgroundImageFix"/>
<feColorMatrix in="SourceAlpha" type="matrix" values="0 0 0 0 0 0 0 0 0 0 0 0 0 0 0 0 0 0 127 0" result="hardAlpha"/>
<feOffset dy="2"/>
<feGaussianBlur stdDeviation="3"/>
<feComposite in2="hardAlpha" operator="out"/>
<feColorMatrix type="matrix" values="0 0 0 0 0 0 0 0 0 0 0 0 0 0 0 0 0 0 0.5 0"/>
<feBlend mode="normal" in2="BackgroundImageFix" result="effect1_dropShadow_355_903"/>
<feBlend mode="normal" in="SourceGraphic" in2="effect1_dropShadow_355_903" result="shape"/>
</filter>
<filter id="filter7_d_355_903" x="760.976" y="252.222" width="31.2192" height="32.2192" filterUnits="userSpaceOnUse" color-interpolation-filters="sRGB">
<feFlood flood-opacity="0" result="BackgroundImageFix"/>
<feColorMatrix in="SourceAlpha" type="matrix" values="0 0 0 0 0 0 0 0 0 0 0 0 0 0 0 0 0 0 127 0" result="hardAlpha"/>
<feOffset dy="2"/>
<feGaussianBlur stdDeviation="3"/>
<feComposite in2="hardAlpha" operator="out"/>
<feColorMatrix type="matrix" values="0 0 0 0 0 0 0 0 0 0 0 0 0 0 0 0 0 0 0.5 0"/>
<feBlend mode="normal" in2="BackgroundImageFix" result="effect1_dropShadow_355_903"/>
<feBlend mode="normal" in="SourceGraphic" in2="effect1_dropShadow_355_903" result="shape"/>
</filter>
<filter id="filter8_d_355_903" x="760.976" y="11.5903" width="31.2192" height="32.2192" filterUnits="userSpaceOnUse" color-interpolation-filters="sRGB">
<feFlood flood-opacity="0" result="BackgroundImageFix"/>
<feColorMatrix in="SourceAlpha" type="matrix" values="0 0 0 0 0 0 0 0 0 0 0 0 0 0 0 0 0 0 127 0" result="hardAlpha"/>
<feOffset dy="2"/>
<feGaussianBlur stdDeviation="3"/>
<feComposite in2="hardAlpha" operator="out"/>
<feColorMatrix type="matrix" values="0 0 0 0 0 0 0 0 0 0 0 0 0 0 0 0 0 0 0.5 0"/>
<feBlend mode="normal" in2="BackgroundImageFix" result="effect1_dropShadow_355_903"/>
<feBlend mode="normal" in="SourceGraphic" in2="effect1_dropShadow_355_903" result="shape"/>
</filter>
<linearGradient id="paint0_linear_355_903" x1="400" y1="0" x2="400" y2="534" gradientUnits="userSpaceOnUse">
<stop stop-color="#999999"/>
<stop offset="1" stop-color="#B3B0B0"/>
</linearGradient>
<linearGradient id="paint1_linear_355_903" x1="27.7883" y1="496.853" x2="27.7883" y2="516.072" gradientUnits="userSpaceOnUse">
<stop stop-color="#9D9D9D"/>
<stop offset="1" stop-color="#B5B5B5"/>
</linearGradient>
<linearGradient id="paint2_linear_355_903" x1="27.7883" y1="256.222" x2="27.7883" y2="275.441" gradientUnits="userSpaceOnUse">
<stop stop-color="#9D9D9D"/>
<stop offset="1" stop-color="#B5B5B5"/>
</linearGradient>
<linearGradient id="paint3_linear_355_903" x1="27.7883" y1="15.5903" x2="27.7883" y2="34.8096" gradientUnits="userSpaceOnUse">
<stop stop-color="#9D9D9D"/>
<stop offset="1" stop-color="#B5B5B5"/>
</linearGradient>
<linearGradient id="paint4_linear_355_903" x1="346.187" y1="15.5903" x2="346.187" y2="34.8096" gradientUnits="userSpaceOnUse">
<stop stop-color="#9D9D9D"/>
<stop offset="1" stop-color="#B5B5B5"/>
</linearGradient>
<linearGradient id="paint5_linear_355_903" x1="454.187" y1="15.5903" x2="454.187" y2="34.8096" gradientUnits="userSpaceOnUse">
<stop stop-color="#9D9D9D"/>
<stop offset="1" stop-color="#B5B5B5"/>
</linearGradient>
<linearGradient id="paint6_linear_355_903" x1="402.187" y1="496.853" x2="402.187" y2="516.072" gradientUnits="userSpaceOnUse">
<stop stop-color="#9D9D9D"/>
<stop offset="1" stop-color="#B5B5B5"/>
</linearGradient>
<linearGradient id="paint7_linear_355_903" x1="776.585" y1="496.853" x2="776.585" y2="516.072" gradientUnits="userSpaceOnUse">
<stop stop-color="#9D9D9D"/>
<stop offset="1" stop-color="#B5B5B5"/>
</linearGradient>
<linearGradient id="paint8_linear_355_903" x1="776.585" y1="256.222" x2="776.585" y2="275.441" gradientUnits="userSpaceOnUse">
<stop stop-color="#9D9D9D"/>
<stop offset="1" stop-color="#B5B5B5"/>
</linearGradient>
<linearGradient id="paint9_linear_355_903" x1="776.585" y1="15.5903" x2="776.585" y2="34.8096" gradientUnits="userSpaceOnUse">
<stop stop-color="#9D9D9D"/>
<stop offset="1" stop-color="#B5B5B5"/>
</linearGradient>
</defs>
</svg>
