<svg width="800" height="534" viewBox="0 0 800 534" fill="none" xmlns="http://www.w3.org/2000/svg">
<rect width="800" height="534" rx="30" fill="url(#paint0_linear_355_903)" fill-opacity="0.15"/>
<rect x="5" y="5" width="790" height="524" rx="25" stroke="white" stroke-opacity="0.1" stroke-width="10"/>
<rect x="1.5" y="1.5" width="797" height="531" rx="28.5" stroke="white" stroke-opacity="0.1" stroke-width="3"/>
<mask id="path-4-inside-1_355_903" fill="white">
<path d="M478.523 75.0508C496.447 75.0508 512.39 83.529 522.562 96.6934C532.889 84.7194 548.172 77.1407 565.225 77.1406C584.602 77.1406 601.692 86.9278 611.824 101.828C622.077 91.5463 636.258 85.1837 651.926 85.1836C683.203 85.1836 708.559 110.539 708.56 141.816C708.56 161.223 698.796 178.348 683.916 188.553C695.511 198.874 702.815 213.912 702.815 230.657C702.815 261.778 677.587 287.008 646.466 287.008C627.456 287.008 610.644 277.594 600.438 263.174C590.176 274.175 575.551 281.054 559.319 281.054C540.359 281.054 523.591 271.668 513.407 257.29C503.111 269.258 487.855 276.837 470.829 276.837C461.48 276.837 452.665 274.55 444.911 270.508C439.781 291.096 423.293 307.189 402.486 311.75C406.713 320.22 409.092 329.774 409.092 339.883C409.092 374.728 380.844 402.976 345.998 402.977C311.152 402.977 282.904 374.728 282.904 339.883C282.904 307.728 306.958 281.192 338.054 277.285C335.712 271.282 334.374 264.777 334.244 257.976C328.338 260.069 321.982 261.209 315.358 261.209C287.941 261.209 265.084 241.686 259.929 215.783C252.595 219.3 244.379 221.271 235.702 221.271C217.58 221.271 201.465 212.678 191.21 199.345C180.997 212.995 164.702 221.832 146.343 221.832C115.415 221.832 90.3421 196.76 90.3418 165.832C90.3418 134.904 115.415 109.832 146.343 109.832C164.407 109.832 180.472 118.385 190.712 131.662C200.939 117.954 217.284 109.079 235.702 109.079C262.802 109.079 285.412 128.295 290.652 153.845C298.116 150.211 306.499 148.173 315.358 148.173C324.852 148.173 333.799 150.513 341.653 154.648C346.577 128.837 369.265 109.327 396.511 109.327C406.759 109.327 416.363 112.088 424.619 116.906C430.745 92.8458 452.556 75.0509 478.523 75.0508ZM604.913 173.402C601.898 176.398 598.547 179.055 594.919 181.311C598.81 184.497 602.266 188.194 605.184 192.301C607.969 189.304 611.077 186.612 614.452 184.278C610.83 181.079 607.62 177.424 604.913 173.402ZM520.292 167.403C516.599 171.6 512.283 175.235 507.489 178.165C510.93 181.133 514.006 184.511 516.643 188.225C520.368 183.886 524.743 180.121 529.617 177.082C526.138 174.239 523.005 170.989 520.292 167.403Z"/>
</mask>
<path d="M478.523 75.0508C496.447 75.0508 512.39 83.529 522.562 96.6934C532.889 84.7194 548.172 77.1407 565.225 77.1406C584.602 77.1406 601.692 86.9278 611.824 101.828C622.077 91.5463 636.258 85.1837 651.926 85.1836C683.203 85.1836 708.559 110.539 708.56 141.816C708.56 161.223 698.796 178.348 683.916 188.553C695.511 198.874 702.815 213.912 702.815 230.657C702.815 261.778 677.587 287.008 646.466 287.008C627.456 287.008 610.644 277.594 600.438 263.174C590.176 274.175 575.551 281.054 559.319 281.054C540.359 281.054 523.591 271.668 513.407 257.29C503.111 269.258 487.855 276.837 470.829 276.837C461.48 276.837 452.665 274.55 444.911 270.508C439.781 291.096 423.293 307.189 402.486 311.75C406.713 320.22 409.092 329.774 409.092 339.883C409.092 374.728 380.844 402.976 345.998 402.977C311.152 402.977 282.904 374.728 282.904 339.883C282.904 307.728 306.958 281.192 338.054 277.285C335.712 271.282 334.374 264.777 334.244 257.976C328.338 260.069 321.982 261.209 315.358 261.209C287.941 261.209 265.084 241.686 259.929 215.783C252.595 219.3 244.379 221.271 235.702 221.271C217.58 221.271 201.465 212.678 191.21 199.345C180.997 212.995 164.702 221.832 146.343 221.832C115.415 221.832 90.3421 196.76 90.3418 165.832C90.3418 134.904 115.415 109.832 146.343 109.832C164.407 109.832 180.472 118.385 190.712 131.662C200.939 117.954 217.284 109.079 235.702 109.079C262.802 109.079 285.412 128.295 290.652 153.845C298.116 150.211 306.499 148.173 315.358 148.173C324.852 148.173 333.799 150.513 341.653 154.648C346.577 128.837 369.265 109.327 396.511 109.327C406.759 109.327 416.363 112.088 424.619 116.906C430.745 92.8458 452.556 75.0509 478.523 75.0508ZM604.913 173.402C601.898 176.398 598.547 179.055 594.919 181.311C598.81 184.497 602.266 188.194 605.184 192.301C607.969 189.304 611.077 186.612 614.452 184.278C610.83 181.079 607.62 177.424 604.913 173.402ZM520.292 167.403C516.599 171.6 512.283 175.235 507.489 178.165C510.93 181.133 514.006 184.511 516.643 188.225C520.368 183.886 524.743 180.121 529.617 177.082C526.138 174.239 523.005 170.989 520.292 167.403Z" fill="black" fill-opacity="0.3"/>
<path d="M478.523 75.0508V72.0508V75.0508ZM522.562 96.6934L520.189 98.5277L522.435 101.435L524.834 98.6527L522.562 96.6934ZM565.225 77.1406V74.1406V77.1406ZM611.824 101.828L609.343 103.515L611.385 106.517L613.949 103.946L611.824 101.828ZM651.926 85.1836V82.1836V85.1836ZM708.56 141.816H711.56V141.816L708.56 141.816ZM683.916 188.553L682.219 186.079L679.059 188.246L681.921 190.794L683.916 188.553ZM702.815 230.657H705.815V230.657L702.815 230.657ZM646.466 287.008V290.008V287.008ZM600.438 263.174L602.887 261.441L600.758 258.433L598.245 261.127L600.438 263.174ZM559.319 281.054V284.054V281.054ZM513.407 257.29L515.855 255.556L513.637 252.424L511.133 255.333L513.407 257.29ZM470.829 276.837V279.837V276.837ZM444.911 270.508L446.298 267.848L442.921 266.087L442 269.782L444.911 270.508ZM402.486 311.75L401.844 308.82L398.083 309.644L399.802 313.089L402.486 311.75ZM409.092 339.883H412.092H409.092ZM345.998 402.977V405.977H345.998L345.998 402.977ZM282.904 339.883H279.904H282.904ZM338.054 277.285L338.428 280.262L342.248 279.782L340.849 276.195L338.054 277.285ZM334.244 257.976L337.244 257.918L337.164 253.758L333.242 255.148L334.244 257.976ZM315.358 261.209V264.209H315.358L315.358 261.209ZM259.929 215.783L262.871 215.198L262.117 211.407L258.631 213.078L259.929 215.783ZM235.702 221.271V224.271H235.702L235.702 221.271ZM191.21 199.345L193.588 197.516L191.177 194.381L188.808 197.548L191.21 199.345ZM146.343 221.832V224.832H146.343L146.343 221.832ZM90.3418 165.832H87.3418V165.832L90.3418 165.832ZM146.343 109.832L146.343 106.832H146.343V109.832ZM190.712 131.662L188.336 133.494L190.752 136.626L193.116 133.456L190.712 131.662ZM235.702 109.079L235.702 106.079H235.702V109.079ZM290.652 153.845L287.714 154.448L288.49 158.234L291.965 156.542L290.652 153.845ZM315.358 148.173L315.358 145.173H315.358V148.173ZM341.653 154.648L340.256 157.303L343.841 159.191L344.6 155.211L341.653 154.648ZM396.511 109.327V106.327V109.327ZM424.619 116.906L423.107 119.497L426.544 121.503L427.526 117.646L424.619 116.906ZM604.913 173.402L607.402 171.727L605.374 168.715L602.799 171.274L604.913 173.402ZM594.919 181.311L593.335 178.763L589.776 180.976L593.018 183.632L594.919 181.311ZM605.184 192.301L602.738 194.038L604.872 197.042L607.381 194.343L605.184 192.301ZM614.452 184.278L616.159 186.746L619.31 184.566L616.438 182.03L614.452 184.278ZM520.292 167.403L522.684 165.593L520.467 162.663L518.04 165.421L520.292 167.403ZM507.489 178.165L505.925 175.605L502.416 177.75L505.529 180.436L507.489 178.165ZM516.643 188.225L514.196 189.961L516.418 193.091L518.919 190.179L516.643 188.225ZM529.617 177.082L531.204 179.628L534.761 177.411L531.515 174.759L529.617 177.082ZM478.523 75.0508V78.0508C495.479 78.0508 510.56 86.0668 520.189 98.5277L522.562 96.6934L524.936 94.859C514.221 80.9912 497.416 72.0508 478.523 72.0508V75.0508ZM522.562 96.6934L524.834 98.6527C534.615 87.3114 549.081 80.1407 565.225 80.1406V77.1406V74.1406C547.263 74.1407 531.163 82.1274 520.291 94.7341L522.562 96.6934ZM565.225 77.1406V80.1406C583.567 80.1406 599.746 89.401 609.343 103.515L611.824 101.828L614.305 100.141C603.638 84.4547 585.637 74.1406 565.225 74.1406V77.1406ZM611.824 101.828L613.949 103.946C623.662 94.2059 637.088 88.1837 651.926 88.1836V85.1836V82.1836C635.429 82.1837 620.493 88.8867 609.7 99.7098L611.824 101.828ZM651.926 85.1836V88.1836C681.546 88.1836 705.559 112.196 705.56 141.816L708.56 141.816L711.56 141.816C711.559 108.882 684.86 82.1836 651.926 82.1836V85.1836ZM708.56 141.816H705.56C705.56 160.192 696.319 176.409 682.219 186.079L683.916 188.553L685.613 191.027C701.274 180.287 711.56 162.254 711.56 141.816H708.56ZM683.916 188.553L681.921 190.794C692.904 200.57 699.815 214.804 699.815 230.657L702.815 230.657L705.815 230.657C705.815 213.021 698.119 197.178 685.911 186.312L683.916 188.553ZM702.815 230.657H699.815C699.815 260.122 675.93 284.008 646.466 284.008V287.008V290.008C679.244 290.008 705.815 263.435 705.815 230.657H702.815ZM646.466 287.008V284.008C628.47 284.008 612.555 275.1 602.887 261.441L600.438 263.174L597.99 264.907C608.734 280.087 626.441 290.008 646.466 290.008V287.008ZM600.438 263.174L598.245 261.127C588.526 271.546 574.685 278.054 559.319 278.054V281.054V284.054C576.417 284.054 591.826 276.804 602.632 265.22L600.438 263.174ZM559.319 281.054V278.054C541.373 278.054 525.501 269.174 515.855 255.556L513.407 257.29L510.959 259.024C521.681 274.162 539.345 284.054 559.319 284.054V281.054ZM513.407 257.29L511.133 255.333C501.382 266.667 486.945 273.837 470.829 273.837V276.837V279.837C488.766 279.837 504.839 271.848 515.681 259.247L513.407 257.29ZM470.829 276.837V273.837C461.974 273.837 453.634 271.672 446.298 267.848L444.911 270.508L443.524 273.168C451.696 277.428 460.985 279.837 470.829 279.837V276.837ZM444.911 270.508L442 269.782C437.145 289.267 421.534 304.504 401.844 308.82L402.486 311.75L403.129 314.68C425.053 309.875 442.417 292.925 447.822 271.233L444.911 270.508ZM402.486 311.75L399.802 313.089C403.826 321.153 406.092 330.249 406.092 339.883H409.092H412.092C412.092 329.298 409.6 319.287 405.171 310.411L402.486 311.75ZM409.092 339.883H406.092C406.092 373.071 379.187 399.976 345.998 399.977L345.998 402.977L345.998 405.977C382.5 405.976 412.092 376.385 412.092 339.883H409.092ZM345.998 402.977V399.977C312.809 399.977 285.904 373.072 285.904 339.883H282.904H279.904C279.904 376.385 309.496 405.977 345.998 405.977V402.977ZM282.904 339.883H285.904C285.904 309.259 308.814 283.982 338.428 280.262L338.054 277.285L337.68 274.309C305.103 278.401 279.904 306.197 279.904 339.883H282.904ZM338.054 277.285L340.849 276.195C338.634 270.516 337.367 264.36 337.244 257.918L334.244 257.976L331.245 258.033C331.381 265.193 332.791 272.047 335.259 278.375L338.054 277.285ZM334.244 257.976L333.242 255.148C327.653 257.129 321.635 258.209 315.358 258.209L315.358 261.209L315.358 264.209C322.328 264.209 329.024 263.009 335.246 260.803L334.244 257.976ZM315.358 261.209V258.209C289.4 258.209 267.752 239.724 262.871 215.198L259.929 215.783L256.986 216.369C262.415 243.648 286.482 264.209 315.358 264.209V261.209ZM259.929 215.783L258.631 213.078C251.694 216.405 243.92 218.271 235.702 218.271L235.702 221.271L235.702 224.271C244.838 224.271 253.496 222.195 261.226 218.488L259.929 215.783ZM235.702 221.271V218.271C218.551 218.271 203.3 210.143 193.588 197.516L191.21 199.345L188.832 201.174C199.631 215.214 216.609 224.271 235.702 224.271V221.271ZM191.21 199.345L188.808 197.548C179.137 210.474 163.717 218.832 146.343 218.832L146.343 221.832L146.343 224.832C165.688 224.832 182.858 215.517 193.612 201.142L191.21 199.345ZM146.343 221.832V218.832C117.072 218.832 93.342 195.103 93.3418 165.832L90.3418 165.832L87.3418 165.832C87.3421 198.417 113.758 224.832 146.343 224.832V221.832ZM90.3418 165.832H93.3418C93.3418 136.561 117.072 112.832 146.343 112.832V109.832V106.832C113.758 106.832 87.3418 133.247 87.3418 165.832H90.3418ZM146.343 109.832L146.343 112.832C163.437 112.832 178.64 120.922 188.336 133.494L190.712 131.662L193.087 129.83C182.304 115.848 165.376 106.832 146.343 106.832L146.343 109.832ZM190.712 131.662L193.116 133.456C202.802 120.475 218.271 112.079 235.702 112.079V109.079V106.079C216.298 106.079 199.077 115.434 188.307 129.868L190.712 131.662ZM235.702 109.079L235.702 112.079C261.349 112.079 282.754 130.265 287.714 154.448L290.652 153.845L293.591 153.242C288.07 126.325 264.255 106.079 235.702 106.079L235.702 109.079ZM290.652 153.845L291.965 156.542C299.029 153.104 306.964 151.173 315.358 151.173V148.173V145.173C306.034 145.173 297.203 147.319 289.339 151.147L290.652 153.845ZM315.358 148.173L315.358 151.173C324.353 151.173 332.822 153.389 340.256 157.303L341.653 154.648L343.051 151.994C334.776 147.637 325.35 145.173 315.358 145.173L315.358 148.173ZM341.653 154.648L344.6 155.211C349.259 130.787 370.732 112.327 396.511 112.327V109.327V106.327C367.799 106.327 343.894 126.887 338.706 154.086L341.653 154.648ZM396.511 109.327V112.327C406.214 112.327 415.297 114.94 423.107 119.497L424.619 116.906L426.131 114.315C417.429 109.237 407.305 106.327 396.511 106.327V109.327ZM424.619 116.906L427.526 117.646C433.322 94.8831 453.961 78.0509 478.523 78.0508V75.0508V72.0508C451.151 72.0509 428.168 90.8084 421.712 116.166L424.619 116.906ZM604.913 173.402L602.799 171.274C599.943 174.112 596.769 176.628 593.335 178.763L594.919 181.311L596.503 183.858C600.324 181.482 603.853 178.684 607.028 175.531L604.913 173.402ZM594.919 181.311L593.018 183.632C596.703 186.649 599.975 190.15 602.738 194.038L605.184 192.301L607.629 190.563C604.556 186.238 600.917 182.345 596.82 178.99L594.919 181.311ZM605.184 192.301L607.381 194.343C610.019 191.506 612.962 188.956 616.159 186.746L614.452 184.278L612.746 181.811C609.192 184.268 605.919 187.103 602.986 190.258L605.184 192.301ZM614.452 184.278L616.438 182.03C613.006 178.999 609.966 175.536 607.402 171.727L604.913 173.402L602.424 175.078C605.275 179.312 608.654 183.159 612.466 186.527L614.452 184.278ZM520.292 167.403L518.04 165.421C514.544 169.393 510.46 172.833 505.925 175.605L507.489 178.165L509.054 180.725C514.106 177.637 518.653 173.807 522.544 169.385L520.292 167.403ZM507.489 178.165L505.529 180.436C508.787 183.248 511.701 186.446 514.196 189.961L516.643 188.225L519.089 186.488C516.312 182.577 513.072 179.019 509.449 175.894L507.489 178.165ZM516.643 188.225L518.919 190.179C522.447 186.07 526.59 182.505 531.204 179.628L529.617 177.082L528.03 174.536C522.896 177.737 518.289 181.702 514.366 186.27L516.643 188.225ZM529.617 177.082L531.515 174.759C528.221 172.067 525.254 168.988 522.684 165.593L520.292 167.403L517.9 169.214C520.757 172.989 524.056 176.412 527.719 179.405L529.617 177.082Z" fill="white" fill-opacity="0.09" mask="url(#path-4-inside-1_355_903)"/>
<g filter="url(#filter0_d_355_903)">
<circle cx="27.7883" cy="506.463" r="8.60962" fill="url(#paint1_linear_355_903)" stroke="#383838" stroke-width="2"/>
</g>
<g filter="url(#filter1_d_355_903)">
<circle cx="27.7883" cy="265.831" r="8.60962" fill="url(#paint2_linear_355_903)" stroke="#383838" stroke-width="2"/>
</g>
<g filter="url(#filter2_d_355_903)">
<circle cx="27.7883" cy="25.2" r="8.60962" fill="url(#paint3_linear_355_903)" stroke="#383838" stroke-width="2"/>
</g>
<g filter="url(#filter3_d_355_903)">
<circle cx="346.187" cy="25.2" r="8.60962" fill="url(#paint4_linear_355_903)" stroke="#383838" stroke-width="2"/>
</g>
<g filter="url(#filter4_d_355_903)">
<circle cx="454.187" cy="25.2" r="8.60962" fill="url(#paint5_linear_355_903)" stroke="#383838" stroke-width="2"/>
</g>
<g filter="url(#filter5_d_355_903)">
<circle cx="402.187" cy="506.463" r="8.60962" fill="url(#paint6_linear_355_903)" stroke="#383838" stroke-width="2"/>
</g>
<g filter="url(#filter6_d_355_903)">
<circle cx="776.585" cy="506.463" r="8.60962" fill="url(#paint7_linear_355_903)" stroke="#383838" stroke-width="2"/>
</g>
<g filter="url(#filter7_d_355_903)">
<circle cx="776.585" cy="265.831" r="8.60962" fill="url(#paint8_linear_355_903)" stroke="#383838" stroke-width="2"/>
</g>
<g filter="url(#filter8_d_355_903)">
<circle cx="776.585" cy="25.2" r="8.60962" fill="url(#paint9_linear_355_903)" stroke="#383838" stroke-width="2"/>
</g>
<defs>
<filter id="filter0_d_355_903" x="12.1787" y="492.853" width="31.2192" height="32.2192" filterUnits="userSpaceOnUse" color-interpolation-filters="sRGB">
<feFlood flood-opacity="0" result="BackgroundImageFix"/>
<feColorMatrix in="SourceAlpha" type="matrix" values="0 0 0 0 0 0 0 0 0 0 0 0 0 0 0 0 0 0 127 0" result="hardAlpha"/>
<feOffset dy="2"/>
<feGaussianBlur stdDeviation="3"/>
<feComposite in2="hardAlpha" operator="out"/>
<feColorMatrix type="matrix" values="0 0 0 0 0 0 0 0 0 0 0 0 0 0 0 0 0 0 0.5 0"/>
<feBlend mode="normal" in2="BackgroundImageFix" result="effect1_dropShadow_355_903"/>
<feBlend mode="normal" in="SourceGraphic" in2="effect1_dropShadow_355_903" result="shape"/>
</filter>
<filter id="filter1_d_355_903" x="12.1787" y="252.222" width="31.2192" height="32.2192" filterUnits="userSpaceOnUse" color-interpolation-filters="sRGB">
<feFlood flood-opacity="0" result="BackgroundImageFix"/>
<feColorMatrix in="SourceAlpha" type="matrix" values="0 0 0 0 0 0 0 0 0 0 0 0 0 0 0 0 0 0 127 0" result="hardAlpha"/>
<feOffset dy="2"/>
<feGaussianBlur stdDeviation="3"/>
<feComposite in2="hardAlpha" operator="out"/>
<feColorMatrix type="matrix" values="0 0 0 0 0 0 0 0 0 0 0 0 0 0 0 0 0 0 0.5 0"/>
<feBlend mode="normal" in2="BackgroundImageFix" result="effect1_dropShadow_355_903"/>
<feBlend mode="normal" in="SourceGraphic" in2="effect1_dropShadow_355_903" result="shape"/>
</filter>
<filter id="filter2_d_355_903" x="12.1787" y="11.5903" width="31.2192" height="32.2192" filterUnits="userSpaceOnUse" color-interpolation-filters="sRGB">
<feFlood flood-opacity="0" result="BackgroundImageFix"/>
<feColorMatrix in="SourceAlpha" type="matrix" values="0 0 0 0 0 0 0 0 0 0 0 0 0 0 0 0 0 0 127 0" result="hardAlpha"/>
<feOffset dy="2"/>
<feGaussianBlur stdDeviation="3"/>
<feComposite in2="hardAlpha" operator="out"/>
<feColorMatrix type="matrix" values="0 0 0 0 0 0 0 0 0 0 0 0 0 0 0 0 0 0 0.5 0"/>
<feBlend mode="normal" in2="BackgroundImageFix" result="effect1_dropShadow_355_903"/>
<feBlend mode="normal" in="SourceGraphic" in2="effect1_dropShadow_355_903" result="shape"/>
</filter>
<filter id="filter3_d_355_903" x="330.577" y="11.5903" width="31.2192" height="32.2192" filterUnits="userSpaceOnUse" color-interpolation-filters="sRGB">
<feFlood flood-opacity="0" result="BackgroundImageFix"/>
<feColorMatrix in="SourceAlpha" type="matrix" values="0 0 0 0 0 0 0 0 0 0 0 0 0 0 0 0 0 0 127 0" result="hardAlpha"/>
<feOffset dy="2"/>
<feGaussianBlur stdDeviation="3"/>
<feComposite in2="hardAlpha" operator="out"/>
<feColorMatrix type="matrix" values="0 0 0 0 0 0 0 0 0 0 0 0 0 0 0 0 0 0 0.5 0"/>
<feBlend mode="normal" in2="BackgroundImageFix" result="effect1_dropShadow_355_903"/>
<feBlend mode="normal" in="SourceGraphic" in2="effect1_dropShadow_355_903" result="shape"/>
</filter>
<filter id="filter4_d_355_903" x="438.577" y="11.5903" width="31.2192" height="32.2192" filterUnits="userSpaceOnUse" color-interpolation-filters="sRGB">
<feFlood flood-opacity="0" result="BackgroundImageFix"/>
<feColorMatrix in="SourceAlpha" type="matrix" values="0 0 0 0 0 0 0 0 0 0 0 0 0 0 0 0 0 0 127 0" result="hardAlpha"/>
<feOffset dy="2"/>
<feGaussianBlur stdDeviation="3"/>
<feComposite in2="hardAlpha" operator="out"/>
<feColorMatrix type="matrix" values="0 0 0 0 0 0 0 0 0 0 0 0 0 0 0 0 0 0 0.5 0"/>
<feBlend mode="normal" in2="BackgroundImageFix" result="effect1_dropShadow_355_903"/>
<feBlend mode="normal" in="SourceGraphic" in2="effect1_dropShadow_355_903" result="shape"/>
</filter>
<filter id="filter5_d_355_903" x="386.577" y="492.853" width="31.2192" height="32.2192" filterUnits="userSpaceOnUse" color-interpolation-filters="sRGB">
<feFlood flood-opacity="0" result="BackgroundImageFix"/>
<feColorMatrix in="SourceAlpha" type="matrix" values="0 0 0 0 0 0 0 0 0 0 0 0 0 0 0 0 0 0 127 0" result="hardAlpha"/>
<feOffset dy="2"/>
<feGaussianBlur stdDeviation="3"/>
<feComposite in2="hardAlpha" operator="out"/>
<feColorMatrix type="matrix" values="0 0 0 0 0 0 0 0 0 0 0 0 0 0 0 0 0 0 0.5 0"/>
<feBlend mode="normal" in2="BackgroundImageFix" result="effect1_dropShadow_355_903"/>
<feBlend mode="normal" in="SourceGraphic" in2="effect1_dropShadow_355_903" result="shape"/>
</filter>
<filter id="filter6_d_355_903" x="760.976" y="492.853" width="31.2192" height="32.2192" filterUnits="userSpaceOnUse" color-interpolation-filters="sRGB">
<feFlood flood-opacity="0" result="BackgroundImageFix"/>
<feColorMatrix in="SourceAlpha" type="matrix" values="0 0 0 0 0 0 0 0 0 0 0 0 0 0 0 0 0 0 127 0" result="hardAlpha"/>
<feOffset dy="2"/>
<feGaussianBlur stdDeviation="3"/>
<feComposite in2="hardAlpha" operator="out"/>
<feColorMatrix type="matrix" values="0 0 0 0 0 0 0 0 0 0 0 0 0 0 0 0 0 0 0.5 0"/>
<feBlend mode="normal" in2="BackgroundImageFix" result="effect1_dropShadow_355_903"/>
<feBlend mode="normal" in="SourceGraphic" in2="effect1_dropShadow_355_903" result="shape"/>
</filter>
<filter id="filter7_d_355_903" x="760.976" y="252.222" width="31.2192" height="32.2192" filterUnits="userSpaceOnUse" color-interpolation-filters="sRGB">
<feFlood flood-opacity="0" result="BackgroundImageFix"/>
<feColorMatrix in="SourceAlpha" type="matrix" values="0 0 0 0 0 0 0 0 0 0 0 0 0 0 0 0 0 0 127 0" result="hardAlpha"/>
<feOffset dy="2"/>
<feGaussianBlur stdDeviation="3"/>
<feComposite in2="hardAlpha" operator="out"/>
<feColorMatrix type="matrix" values="0 0 0 0 0 0 0 0 0 0 0 0 0 0 0 0 0 0 0.5 0"/>
<feBlend mode="normal" in2="BackgroundImageFix" result="effect1_dropShadow_355_903"/>
<feBlend mode="normal" in="SourceGraphic" in2="effect1_dropShadow_355_903" result="shape"/>
</filter>
<filter id="filter8_d_355_903" x="760.976" y="11.5903" width="31.2192" height="32.2192" filterUnits="userSpaceOnUse" color-interpolation-filters="sRGB">
<feFlood flood-opacity="0" result="BackgroundImageFix"/>
<feColorMatrix in="SourceAlpha" type="matrix" values="0 0 0 0 0 0 0 0 0 0 0 0 0 0 0 0 0 0 127 0" result="hardAlpha"/>
<feOffset dy="2"/>
<feGaussianBlur stdDeviation="3"/>
<feComposite in2="hardAlpha" operator="out"/>
<feColorMatrix type="matrix" values="0 0 0 0 0 0 0 0 0 0 0 0 0 0 0 0 0 0 0.5 0"/>
<feBlend mode="normal" in2="BackgroundImageFix" result="effect1_dropShadow_355_903"/>
<feBlend mode="normal" in="SourceGraphic" in2="effect1_dropShadow_355_903" result="shape"/>
</filter>
<linearGradient id="paint0_linear_355_903" x1="400" y1="0" x2="400" y2="534" gradientUnits="userSpaceOnUse">
<stop stop-color="#999999"/>
<stop offset="1" stop-color="#B3B0B0"/>
</linearGradient>
<linearGradient id="paint1_linear_355_903" x1="27.7883" y1="496.853" x2="27.7883" y2="516.072" gradientUnits="userSpaceOnUse">
<stop stop-color="#9D9D9D"/>
<stop offset="1" stop-color="#B5B5B5"/>
</linearGradient>
<linearGradient id="paint2_linear_355_903" x1="27.7883" y1="256.222" x2="27.7883" y2="275.441" gradientUnits="userSpaceOnUse">
<stop stop-color="#9D9D9D"/>
<stop offset="1" stop-color="#B5B5B5"/>
</linearGradient>
<linearGradient id="paint3_linear_355_903" x1="27.7883" y1="15.5903" x2="27.7883" y2="34.8096" gradientUnits="userSpaceOnUse">
<stop stop-color="#9D9D9D"/>
<stop offset="1" stop-color="#B5B5B5"/>
</linearGradient>
<linearGradient id="paint4_linear_355_903" x1="346.187" y1="15.5903" x2="346.187" y2="34.8096" gradientUnits="userSpaceOnUse">
<stop stop-color="#9D9D9D"/>
<stop offset="1" stop-color="#B5B5B5"/>
</linearGradient>
<linearGradient id="paint5_linear_355_903" x1="454.187" y1="15.5903" x2="454.187" y2="34.8096" gradientUnits="userSpaceOnUse">
<stop stop-color="#9D9D9D"/>
<stop offset="1" stop-color="#B5B5B5"/>
</linearGradient>
<linearGradient id="paint6_linear_355_903" x1="402.187" y1="496.853" x2="402.187" y2="516.072" gradientUnits="userSpaceOnUse">
<stop stop-color="#9D9D9D"/>
<stop offset="1" stop-color="#B5B5B5"/>
</linearGradient>
<linearGradient id="paint7_linear_355_903" x1="776.585" y1="496.853" x2="776.585" y2="516.072" gradientUnits="userSpaceOnUse">
<stop stop-color="#9D9D9D"/>
<stop offset="1" stop-color="#B5B5B5"/>
</linearGradient>
<linearGradient id="paint8_linear_355_903" x1="776.585" y1="256.222" x2="776.585" y2="275.441" gradientUnits="userSpaceOnUse">
<stop stop-color="#9D9D9D"/>
<stop offset="1" stop-color="#B5B5B5"/>
</linearGradient>
<linearGradient id="paint9_linear_355_903" x1="776.585" y1="15.5903" x2="776.585" y2="34.8096" gradientUnits="userSpaceOnUse">
<stop stop-color="#9D9D9D"/>
<stop offset="1" stop-color="#B5B5B5"/>
</linearGradient>
</defs>
</svg>
