<svg width="78" height="78" viewBox="0 0 78 78" fill="none" xmlns="http://www.w3.org/2000/svg">
<g filter="url(#filter0_ii_372_780)">
<circle cx="39" cy="39" r="39" fill="#989898" fill-opacity="0.01"/>
</g>
<circle cx="39" cy="39" r="36.5" stroke="black" stroke-width="5"/>
<g filter="url(#filter1_ii_372_780)">
<circle cx="39" cy="39" r="30" fill="#AEAEAE" fill-opacity="0.01"/>
</g>
<circle cx="39" cy="39" r="28.5" stroke="black" stroke-width="3"/>
<path d="M35.7358 51.419C35.0397 52.2766 33.78 52.4081 32.9224 51.712C32.0648 51.0158 31.9343 49.7561 32.6304 48.8985L39.6423 40.2605C40.2386 39.526 40.2386 38.4741 39.6423 37.7396L32.6304 29.1016C31.9343 28.2441 32.0649 26.9843 32.9224 26.2881C33.7799 25.5921 35.0397 25.7227 35.7358 26.5801L44.7938 37.7396C45.39 38.4741 45.39 39.526 44.7937 40.2605L35.7358 51.419Z" fill="black"/>
<path d="M45.9585 36.7939C47.0019 38.0794 47.0019 39.9206 45.9585 41.2061L36.9009 52.3643C35.6832 53.8644 33.4784 54.0955 31.977 52.877C30.5228 51.6964 30.2634 49.5902 31.356 48.0957L31.4653 47.9531L38.478 39.3154C38.6271 39.1318 38.6271 38.8682 38.478 38.6846L31.4653 30.0469C30.2477 28.5465 30.4764 26.3425 31.9771 25.124L31.9771 25.123C33.4774 23.9054 35.6814 24.1342 36.8999 25.6348L36.9009 25.6348L45.9585 36.7939Z" stroke="white" stroke-opacity="0.5" stroke-width="3" stroke-linecap="round"/>
<defs>
<filter id="filter0_ii_372_780" x="0" y="0" width="78" height="78" filterUnits="userSpaceOnUse" color-interpolation-filters="sRGB">
<feFlood flood-opacity="0" result="BackgroundImageFix"/>
<feBlend mode="normal" in="SourceGraphic" in2="BackgroundImageFix" result="shape"/>
<feColorMatrix in="SourceAlpha" type="matrix" values="0 0 0 0 0 0 0 0 0 0 0 0 0 0 0 0 0 0 127 0" result="hardAlpha"/>
<feOffset dy="7"/>
<feComposite in2="hardAlpha" operator="arithmetic" k2="-1" k3="1"/>
<feColorMatrix type="matrix" values="0 0 0 0 1 0 0 0 0 1 0 0 0 0 1 0 0 0 0.5 0"/>
<feBlend mode="normal" in2="shape" result="effect1_innerShadow_372_780"/>
<feColorMatrix in="SourceAlpha" type="matrix" values="0 0 0 0 0 0 0 0 0 0 0 0 0 0 0 0 0 0 127 0" result="hardAlpha"/>
<feOffset dy="-7"/>
<feComposite in2="hardAlpha" operator="arithmetic" k2="-1" k3="1"/>
<feColorMatrix type="matrix" values="0 0 0 0 0 0 0 0 0 0 0 0 0 0 0 0 0 0 0.35 0"/>
<feBlend mode="normal" in2="effect1_innerShadow_372_780" result="effect2_innerShadow_372_780"/>
</filter>
<filter id="filter1_ii_372_780" x="9" y="9" width="60" height="60" filterUnits="userSpaceOnUse" color-interpolation-filters="sRGB">
<feFlood flood-opacity="0" result="BackgroundImageFix"/>
<feBlend mode="normal" in="SourceGraphic" in2="BackgroundImageFix" result="shape"/>
<feColorMatrix in="SourceAlpha" type="matrix" values="0 0 0 0 0 0 0 0 0 0 0 0 0 0 0 0 0 0 127 0" result="hardAlpha"/>
<feOffset dy="6"/>
<feComposite in2="hardAlpha" operator="arithmetic" k2="-1" k3="1"/>
<feColorMatrix type="matrix" values="0 0 0 0 1 0 0 0 0 1 0 0 0 0 1 0 0 0 0.5 0"/>
<feBlend mode="normal" in2="shape" result="effect1_innerShadow_372_780"/>
<feColorMatrix in="SourceAlpha" type="matrix" values="0 0 0 0 0 0 0 0 0 0 0 0 0 0 0 0 0 0 127 0" result="hardAlpha"/>
<feOffset dy="-6"/>
<feComposite in2="hardAlpha" operator="arithmetic" k2="-1" k3="1"/>
<feColorMatrix type="matrix" values="0 0 0 0 0 0 0 0 0 0 0 0 0 0 0 0 0 0 0.35 0"/>
<feBlend mode="normal" in2="effect1_innerShadow_372_780" result="effect2_innerShadow_372_780"/>
</filter>
</defs>
</svg>
