<svg width="78" height="78" viewBox="0 0 78 78" fill="none" xmlns="http://www.w3.org/2000/svg">
<g filter="url(#filter0_ii_372_772)">
<circle cx="39" cy="39" r="39" fill="#989898" fill-opacity="0.01"/>
</g>
<circle cx="39" cy="39" r="36.5" stroke="black" stroke-width="5"/>
<g filter="url(#filter1_ii_372_772)">
<circle cx="39" cy="39" r="30" fill="#AEAEAE" fill-opacity="0.01"/>
</g>
<circle cx="39" cy="39" r="28.5" stroke="black" stroke-width="3"/>
<path d="M51.419 35.7358C52.2766 35.0397 52.4081 33.78 51.712 32.9224C51.0158 32.0648 49.7561 31.9343 48.8985 32.6304L40.2605 39.6423C39.526 40.2386 38.4741 40.2386 37.7396 39.6423L29.1016 32.6304C28.2441 31.9343 26.9843 32.0649 26.2881 32.9224C25.5921 33.7799 25.7227 35.0397 26.5801 35.7358L37.7396 44.7938C38.4741 45.39 39.526 45.39 40.2605 44.7937L51.419 35.7358Z" fill="black"/>
<path d="M36.7939 45.9585C38.0794 47.0019 39.9206 47.0019 41.2061 45.9585L52.3643 36.9009C53.8644 35.6832 54.0955 33.4784 52.877 31.9771C51.6964 30.5228 49.5902 30.2634 48.0957 31.356L47.9531 31.4653L39.3154 38.478C39.1318 38.6271 38.8682 38.6271 38.6846 38.478L30.0469 31.4653C28.5465 30.2477 26.3425 30.4764 25.124 31.9771H25.123C23.9054 33.4774 24.1342 35.6814 25.6348 36.8999V36.9009L36.7939 45.9585Z" stroke="white" stroke-opacity="0.5" stroke-width="3" stroke-linecap="round"/>
<defs>
<filter id="filter0_ii_372_772" x="0" y="0" width="78" height="78" filterUnits="userSpaceOnUse" color-interpolation-filters="sRGB">
<feFlood flood-opacity="0" result="BackgroundImageFix"/>
<feBlend mode="normal" in="SourceGraphic" in2="BackgroundImageFix" result="shape"/>
<feColorMatrix in="SourceAlpha" type="matrix" values="0 0 0 0 0 0 0 0 0 0 0 0 0 0 0 0 0 0 127 0" result="hardAlpha"/>
<feOffset dy="7"/>
<feComposite in2="hardAlpha" operator="arithmetic" k2="-1" k3="1"/>
<feColorMatrix type="matrix" values="0 0 0 0 1 0 0 0 0 1 0 0 0 0 1 0 0 0 0.5 0"/>
<feBlend mode="normal" in2="shape" result="effect1_innerShadow_372_772"/>
<feColorMatrix in="SourceAlpha" type="matrix" values="0 0 0 0 0 0 0 0 0 0 0 0 0 0 0 0 0 0 127 0" result="hardAlpha"/>
<feOffset dy="-7"/>
<feComposite in2="hardAlpha" operator="arithmetic" k2="-1" k3="1"/>
<feColorMatrix type="matrix" values="0 0 0 0 0 0 0 0 0 0 0 0 0 0 0 0 0 0 0.35 0"/>
<feBlend mode="normal" in2="effect1_innerShadow_372_772" result="effect2_innerShadow_372_772"/>
</filter>
<filter id="filter1_ii_372_772" x="9" y="9" width="60" height="60" filterUnits="userSpaceOnUse" color-interpolation-filters="sRGB">
<feFlood flood-opacity="0" result="BackgroundImageFix"/>
<feBlend mode="normal" in="SourceGraphic" in2="BackgroundImageFix" result="shape"/>
<feColorMatrix in="SourceAlpha" type="matrix" values="0 0 0 0 0 0 0 0 0 0 0 0 0 0 0 0 0 0 127 0" result="hardAlpha"/>
<feOffset dy="6"/>
<feComposite in2="hardAlpha" operator="arithmetic" k2="-1" k3="1"/>
<feColorMatrix type="matrix" values="0 0 0 0 1 0 0 0 0 1 0 0 0 0 1 0 0 0 0.5 0"/>
<feBlend mode="normal" in2="shape" result="effect1_innerShadow_372_772"/>
<feColorMatrix in="SourceAlpha" type="matrix" values="0 0 0 0 0 0 0 0 0 0 0 0 0 0 0 0 0 0 127 0" result="hardAlpha"/>
<feOffset dy="-6"/>
<feComposite in2="hardAlpha" operator="arithmetic" k2="-1" k3="1"/>
<feColorMatrix type="matrix" values="0 0 0 0 0 0 0 0 0 0 0 0 0 0 0 0 0 0 0.35 0"/>
<feBlend mode="normal" in2="effect1_innerShadow_372_772" result="effect2_innerShadow_372_772"/>
</filter>
</defs>
</svg>
