<svg width="78" height="78" viewBox="0 0 78 78" fill="none" xmlns="http://www.w3.org/2000/svg">
<g filter="url(#filter0_ii_372_780)">
<circle cx="39" cy="39" r="39" fill="#989898" fill-opacity="0.01"/>
</g>
<circle cx="39" cy="39" r="36.5" stroke="black" stroke-width="5"/>
<g filter="url(#filter1_ii_372_780)">
<circle cx="39" cy="39" r="30" fill="#AEAEAE" fill-opacity="0.01"/>
</g>
<circle cx="39" cy="39" r="28.5" stroke="black" stroke-width="3"/>
<path d="M35.7358 51.419C35.0397 52.2766 33.78 52.4081 32.9224 51.712C32.0648 51.0158 31.9343 49.7561 32.6304 48.8985L39.6423 40.2605C40.2386 39.526 40.2386 38.4741 39.6423 37.7396L32.6304 29.1016C31.9343 28.2441 32.0649 26.9843 32.9224 26.2881C33.7799 25.5921 35.0397 25.7227 35.7358 26.5801L44.7938 37.7396C45.39 38.4741 45.39 39.526 44.7937 40.2605L35.7358 51.419Z" fill="black"/>
<path d="M45.1821 37.4248C45.9271 38.3429 45.9271 39.6571 45.1821 40.5752L36.1245 51.7344C35.2545 52.8062 33.6791 52.9709 32.6069 52.1006C31.5348 51.2303 31.3717 49.6549 32.2417 48.583L39.2544 39.9453C39.7014 39.3945 39.7014 38.6055 39.2544 38.0547L32.2417 29.417C31.3719 28.3453 31.5354 26.7707 32.6069 25.9004C33.6786 25.0305 35.2532 25.1931 36.1235 26.2646L36.1245 26.2646L45.1821 37.4248Z" stroke="white" stroke-opacity="0.5" stroke-linecap="round"/>
<defs>
<filter id="filter0_ii_372_780" x="0" y="0" width="78" height="78" filterUnits="userSpaceOnUse" color-interpolation-filters="sRGB">
<feFlood flood-opacity="0" result="BackgroundImageFix"/>
<feBlend mode="normal" in="SourceGraphic" in2="BackgroundImageFix" result="shape"/>
<feColorMatrix in="SourceAlpha" type="matrix" values="0 0 0 0 0 0 0 0 0 0 0 0 0 0 0 0 0 0 127 0" result="hardAlpha"/>
<feOffset dy="7"/>
<feComposite in2="hardAlpha" operator="arithmetic" k2="-1" k3="1"/>
<feColorMatrix type="matrix" values="0 0 0 0 1 0 0 0 0 1 0 0 0 0 1 0 0 0 0.5 0"/>
<feBlend mode="normal" in2="shape" result="effect1_innerShadow_372_780"/>
<feColorMatrix in="SourceAlpha" type="matrix" values="0 0 0 0 0 0 0 0 0 0 0 0 0 0 0 0 0 0 127 0" result="hardAlpha"/>
<feOffset dy="-7"/>
<feComposite in2="hardAlpha" operator="arithmetic" k2="-1" k3="1"/>
<feColorMatrix type="matrix" values="0 0 0 0 0 0 0 0 0 0 0 0 0 0 0 0 0 0 0.35 0"/>
<feBlend mode="normal" in2="effect1_innerShadow_372_780" result="effect2_innerShadow_372_780"/>
</filter>
<filter id="filter1_ii_372_780" x="9" y="9" width="60" height="60" filterUnits="userSpaceOnUse" color-interpolation-filters="sRGB">
<feFlood flood-opacity="0" result="BackgroundImageFix"/>
<feBlend mode="normal" in="SourceGraphic" in2="BackgroundImageFix" result="shape"/>
<feColorMatrix in="SourceAlpha" type="matrix" values="0 0 0 0 0 0 0 0 0 0 0 0 0 0 0 0 0 0 127 0" result="hardAlpha"/>
<feOffset dy="6"/>
<feComposite in2="hardAlpha" operator="arithmetic" k2="-1" k3="1"/>
<feColorMatrix type="matrix" values="0 0 0 0 1 0 0 0 0 1 0 0 0 0 1 0 0 0 0.5 0"/>
<feBlend mode="normal" in2="shape" result="effect1_innerShadow_372_780"/>
<feColorMatrix in="SourceAlpha" type="matrix" values="0 0 0 0 0 0 0 0 0 0 0 0 0 0 0 0 0 0 127 0" result="hardAlpha"/>
<feOffset dy="-6"/>
<feComposite in2="hardAlpha" operator="arithmetic" k2="-1" k3="1"/>
<feColorMatrix type="matrix" values="0 0 0 0 0 0 0 0 0 0 0 0 0 0 0 0 0 0 0.35 0"/>
<feBlend mode="normal" in2="effect1_innerShadow_372_780" result="effect2_innerShadow_372_780"/>
</filter>
</defs>
</svg>
