<svg width="78" height="78" viewBox="0 0 78 78" fill="none" xmlns="http://www.w3.org/2000/svg">
<g filter="url(#filter0_ii_372_772)">
<circle cx="39" cy="39" r="39" fill="#989898" fill-opacity="0.01"/>
</g>
<circle cx="39" cy="39" r="36.5" stroke="black" stroke-width="5"/>
<g filter="url(#filter1_ii_372_772)">
<circle cx="39" cy="39" r="30" fill="#AEAEAE" fill-opacity="0.01"/>
</g>
<circle cx="39" cy="39" r="28.5" stroke="black" stroke-width="3"/>
<path d="M26.581 35.7358C25.7234 35.0397 25.5919 33.78 26.288 32.9224C26.9842 32.0648 28.2439 31.9343 29.1015 32.6304L37.7395 39.6423C38.474 40.2386 39.5259 40.2386 40.2604 39.6423L48.8984 32.6304C49.7559 31.9343 51.0157 32.0649 51.7119 32.9224C52.4079 33.7799 52.2773 35.0397 51.4199 35.7358L40.2604 44.7938C39.5259 45.39 38.474 45.39 37.7395 44.7937L26.581 35.7358Z" fill="black"/>
<path d="M40.5752 45.1821C39.6571 45.9271 38.3429 45.9271 37.4248 45.1821L26.2656 36.1245C25.1938 35.2545 25.0291 33.6791 25.8994 32.6069C26.7697 31.5348 28.3451 31.3717 29.417 32.2417L38.0547 39.2544C38.6055 39.7014 39.3945 39.7014 39.9453 39.2544L48.583 32.2417C49.6547 31.3719 51.2293 31.5354 52.0996 32.6069C52.9695 33.6786 52.8069 35.2532 51.7354 36.1235L51.7354 36.1245L40.5752 45.1821Z" stroke="white" stroke-opacity="0.5" stroke-linecap="round"/>
<defs>
<filter id="filter0_ii_372_772" x="0" y="0" width="78" height="78" filterUnits="userSpaceOnUse" color-interpolation-filters="sRGB">
<feFlood flood-opacity="0" result="BackgroundImageFix"/>
<feBlend mode="normal" in="SourceGraphic" in2="BackgroundImageFix" result="shape"/>
<feColorMatrix in="SourceAlpha" type="matrix" values="0 0 0 0 0 0 0 0 0 0 0 0 0 0 0 0 0 0 127 0" result="hardAlpha"/>
<feOffset dy="7"/>
<feComposite in2="hardAlpha" operator="arithmetic" k2="-1" k3="1"/>
<feColorMatrix type="matrix" values="0 0 0 0 1 0 0 0 0 1 0 0 0 0 1 0 0 0 0.5 0"/>
<feBlend mode="normal" in2="shape" result="effect1_innerShadow_372_772"/>
<feColorMatrix in="SourceAlpha" type="matrix" values="0 0 0 0 0 0 0 0 0 0 0 0 0 0 0 0 0 0 127 0" result="hardAlpha"/>
<feOffset dy="-7"/>
<feComposite in2="hardAlpha" operator="arithmetic" k2="-1" k3="1"/>
<feColorMatrix type="matrix" values="0 0 0 0 0 0 0 0 0 0 0 0 0 0 0 0 0 0 0.35 0"/>
<feBlend mode="normal" in2="effect1_innerShadow_372_772" result="effect2_innerShadow_372_772"/>
</filter>
<filter id="filter1_ii_372_772" x="9" y="9" width="60" height="60" filterUnits="userSpaceOnUse" color-interpolation-filters="sRGB">
<feFlood flood-opacity="0" result="BackgroundImageFix"/>
<feBlend mode="normal" in="SourceGraphic" in2="BackgroundImageFix" result="shape"/>
<feColorMatrix in="SourceAlpha" type="matrix" values="0 0 0 0 0 0 0 0 0 0 0 0 0 0 0 0 0 0 127 0" result="hardAlpha"/>
<feOffset dy="6"/>
<feComposite in2="hardAlpha" operator="arithmetic" k2="-1" k3="1"/>
<feColorMatrix type="matrix" values="0 0 0 0 1 0 0 0 0 1 0 0 0 0 1 0 0 0 0.5 0"/>
<feBlend mode="normal" in2="shape" result="effect1_innerShadow_372_772"/>
<feColorMatrix in="SourceAlpha" type="matrix" values="0 0 0 0 0 0 0 0 0 0 0 0 0 0 0 0 0 0 127 0" result="hardAlpha"/>
<feOffset dy="-6"/>
<feComposite in2="hardAlpha" operator="arithmetic" k2="-1" k3="1"/>
<feColorMatrix type="matrix" values="0 0 0 0 0 0 0 0 0 0 0 0 0 0 0 0 0 0 0.35 0"/>
<feBlend mode="normal" in2="effect1_innerShadow_372_772" result="effect2_innerShadow_372_772"/>
</filter>
</defs>
</svg>
