<svg width="78" height="78" viewBox="0 0 78 78" fill="none" xmlns="http://www.w3.org/2000/svg">
<g filter="url(#filter0_ii_372_776)">
<circle cx="39" cy="39" r="39" fill="#989898" fill-opacity="0.01"/>
</g>
<circle cx="39" cy="39" r="36.5" stroke="black" stroke-width="5"/>
<g filter="url(#filter1_ii_372_776)">
<circle cx="39" cy="39" r="30" fill="#AEAEAE" fill-opacity="0.01"/>
</g>
<circle cx="39" cy="39" r="28.5" stroke="black" stroke-width="3"/>
<path d="M42.2642 26.581C42.9603 25.7234 44.22 25.5919 45.0776 26.288C45.9352 26.9842 46.0657 28.2439 45.3696 29.1015L38.3577 37.7395C37.7614 38.474 37.7614 39.5259 38.3577 40.2604L45.3696 48.8984C46.0657 49.7559 45.9351 51.0157 45.0776 51.7119C44.2201 52.4079 42.9603 52.2773 42.2642 51.4199L33.2062 40.2604C32.61 39.5259 32.61 38.474 33.2063 37.7395L42.2642 26.581Z" fill="black"/>
<path d="M32.8179 40.5752C32.0729 39.6571 32.0729 38.3429 32.8179 37.4248L41.8755 26.2656C42.7455 25.1938 44.3209 25.0291 45.3931 25.8994C46.4652 26.7697 46.6283 28.3451 45.7583 29.417L38.7456 38.0547C38.2986 38.6055 38.2986 39.3945 38.7456 39.9453L45.7583 48.583C46.6281 49.6547 46.4646 51.2293 45.3931 52.0996C44.3214 52.9695 42.7468 52.8069 41.8765 51.7354L41.8755 51.7354L32.8179 40.5752Z" stroke="white" stroke-opacity="0.5" stroke-linecap="round"/>
<defs>
<filter id="filter0_ii_372_776" x="0" y="0" width="78" height="78" filterUnits="userSpaceOnUse" color-interpolation-filters="sRGB">
<feFlood flood-opacity="0" result="BackgroundImageFix"/>
<feBlend mode="normal" in="SourceGraphic" in2="BackgroundImageFix" result="shape"/>
<feColorMatrix in="SourceAlpha" type="matrix" values="0 0 0 0 0 0 0 0 0 0 0 0 0 0 0 0 0 0 127 0" result="hardAlpha"/>
<feOffset dy="7"/>
<feComposite in2="hardAlpha" operator="arithmetic" k2="-1" k3="1"/>
<feColorMatrix type="matrix" values="0 0 0 0 1 0 0 0 0 1 0 0 0 0 1 0 0 0 0.5 0"/>
<feBlend mode="normal" in2="shape" result="effect1_innerShadow_372_776"/>
<feColorMatrix in="SourceAlpha" type="matrix" values="0 0 0 0 0 0 0 0 0 0 0 0 0 0 0 0 0 0 127 0" result="hardAlpha"/>
<feOffset dy="-7"/>
<feComposite in2="hardAlpha" operator="arithmetic" k2="-1" k3="1"/>
<feColorMatrix type="matrix" values="0 0 0 0 0 0 0 0 0 0 0 0 0 0 0 0 0 0 0.35 0"/>
<feBlend mode="normal" in2="effect1_innerShadow_372_776" result="effect2_innerShadow_372_776"/>
</filter>
<filter id="filter1_ii_372_776" x="9" y="9" width="60" height="60" filterUnits="userSpaceOnUse" color-interpolation-filters="sRGB">
<feFlood flood-opacity="0" result="BackgroundImageFix"/>
<feBlend mode="normal" in="SourceGraphic" in2="BackgroundImageFix" result="shape"/>
<feColorMatrix in="SourceAlpha" type="matrix" values="0 0 0 0 0 0 0 0 0 0 0 0 0 0 0 0 0 0 127 0" result="hardAlpha"/>
<feOffset dy="6"/>
<feComposite in2="hardAlpha" operator="arithmetic" k2="-1" k3="1"/>
<feColorMatrix type="matrix" values="0 0 0 0 1 0 0 0 0 1 0 0 0 0 1 0 0 0 0.5 0"/>
<feBlend mode="normal" in2="shape" result="effect1_innerShadow_372_776"/>
<feColorMatrix in="SourceAlpha" type="matrix" values="0 0 0 0 0 0 0 0 0 0 0 0 0 0 0 0 0 0 127 0" result="hardAlpha"/>
<feOffset dy="-6"/>
<feComposite in2="hardAlpha" operator="arithmetic" k2="-1" k3="1"/>
<feColorMatrix type="matrix" values="0 0 0 0 0 0 0 0 0 0 0 0 0 0 0 0 0 0 0.35 0"/>
<feBlend mode="normal" in2="effect1_innerShadow_372_776" result="effect2_innerShadow_372_776"/>
</filter>
</defs>
</svg>
