<svg width="86" height="86" viewBox="0 0 86 86" fill="none" xmlns="http://www.w3.org/2000/svg">
<g filter="url(#filter0_ii_372_784)">
<circle cx="43" cy="43" r="43" fill="#989898" fill-opacity="0.01"/>
</g>
<circle cx="43" cy="43" r="40.5" stroke="black" stroke-width="5"/>
<g filter="url(#filter1_ii_372_784)">
<circle cx="43" cy="43" r="34" fill="#AEAEAE" fill-opacity="0.01"/>
</g>
<circle cx="43" cy="43" r="32.5" stroke="black" stroke-width="3"/>
<path d="M55.419 46.2642C56.2766 46.9603 56.4081 48.22 55.712 49.0776C55.0158 49.9352 53.7561 50.0657 52.8985 49.3696L44.2605 42.3577C43.526 41.7614 42.4741 41.7614 41.7396 42.3577L33.1016 49.3696C32.2441 50.0657 30.9843 49.9351 30.2881 49.0776C29.5921 48.2201 29.7227 46.9603 30.5801 46.2642L41.7396 37.2062C42.4741 36.61 43.526 36.61 44.2605 37.2063L55.419 46.2642Z" fill="black"/>
<path d="M41.4248 36.8179C42.3429 36.0729 43.6571 36.0729 44.5752 36.8179L55.7344 45.8755C56.8062 46.7455 56.9709 48.3209 56.1006 49.3931C55.2303 50.4652 53.6549 50.6283 52.583 49.7583L43.9453 42.7456C43.3945 42.2986 42.6055 42.2986 42.0547 42.7456L33.417 49.7583C32.3453 50.6281 30.7707 50.4646 29.9004 49.3931C29.0305 48.3214 29.1931 46.7468 30.2646 45.8765V45.8755L41.4248 36.8179Z" stroke="white" stroke-opacity="0.5" stroke-linecap="round"/>
<defs>
<filter id="filter0_ii_372_784" x="0" y="0" width="86" height="86" filterUnits="userSpaceOnUse" color-interpolation-filters="sRGB">
<feFlood flood-opacity="0" result="BackgroundImageFix"/>
<feBlend mode="normal" in="SourceGraphic" in2="BackgroundImageFix" result="shape"/>
<feColorMatrix in="SourceAlpha" type="matrix" values="0 0 0 0 0 0 0 0 0 0 0 0 0 0 0 0 0 0 127 0" result="hardAlpha"/>
<feOffset dy="7"/>
<feComposite in2="hardAlpha" operator="arithmetic" k2="-1" k3="1"/>
<feColorMatrix type="matrix" values="0 0 0 0 1 0 0 0 0 1 0 0 0 0 1 0 0 0 0.5 0"/>
<feBlend mode="normal" in2="shape" result="effect1_innerShadow_372_784"/>
<feColorMatrix in="SourceAlpha" type="matrix" values="0 0 0 0 0 0 0 0 0 0 0 0 0 0 0 0 0 0 127 0" result="hardAlpha"/>
<feOffset dy="-7"/>
<feComposite in2="hardAlpha" operator="arithmetic" k2="-1" k3="1"/>
<feColorMatrix type="matrix" values="0 0 0 0 0 0 0 0 0 0 0 0 0 0 0 0 0 0 0.35 0"/>
<feBlend mode="normal" in2="effect1_innerShadow_372_784" result="effect2_innerShadow_372_784"/>
</filter>
<filter id="filter1_ii_372_784" x="9" y="9" width="68" height="68" filterUnits="userSpaceOnUse" color-interpolation-filters="sRGB">
<feFlood flood-opacity="0" result="BackgroundImageFix"/>
<feBlend mode="normal" in="SourceGraphic" in2="BackgroundImageFix" result="shape"/>
<feColorMatrix in="SourceAlpha" type="matrix" values="0 0 0 0 0 0 0 0 0 0 0 0 0 0 0 0 0 0 127 0" result="hardAlpha"/>
<feOffset dy="6"/>
<feComposite in2="hardAlpha" operator="arithmetic" k2="-1" k3="1"/>
<feColorMatrix type="matrix" values="0 0 0 0 1 0 0 0 0 1 0 0 0 0 1 0 0 0 0.5 0"/>
<feBlend mode="normal" in2="shape" result="effect1_innerShadow_372_784"/>
<feColorMatrix in="SourceAlpha" type="matrix" values="0 0 0 0 0 0 0 0 0 0 0 0 0 0 0 0 0 0 127 0" result="hardAlpha"/>
<feOffset dy="-6"/>
<feComposite in2="hardAlpha" operator="arithmetic" k2="-1" k3="1"/>
<feColorMatrix type="matrix" values="0 0 0 0 0 0 0 0 0 0 0 0 0 0 0 0 0 0 0.35 0"/>
<feBlend mode="normal" in2="effect1_innerShadow_372_784" result="effect2_innerShadow_372_784"/>
</filter>
</defs>
</svg>
