<svg width="86" height="86" viewBox="0 0 86 86" fill="none" xmlns="http://www.w3.org/2000/svg">
<g filter="url(#filter0_ii_372_784)">
<circle cx="43" cy="43" r="43" fill="#989898" fill-opacity="0.01"/>
</g>
<circle cx="43" cy="43" r="40.5" stroke="black" stroke-width="5"/>
<g filter="url(#filter1_ii_372_784)">
<circle cx="43" cy="43" r="34" fill="#AEAEAE" fill-opacity="0.01"/>
</g>
<circle cx="43" cy="43" r="32.5" stroke="black" stroke-width="3"/>
<path d="M55.419 46.2642C56.2766 46.9603 56.4081 48.22 55.712 49.0776C55.0158 49.9352 53.7561 50.0657 52.8985 49.3696L44.2605 42.3577C43.526 41.7614 42.4741 41.7614 41.7396 42.3577L33.1016 49.3696C32.2441 50.0657 30.9843 49.9351 30.2881 49.0776C29.5921 48.2201 29.7227 46.9603 30.5801 46.2642L41.7396 37.2062C42.4741 36.61 43.526 36.61 44.2605 37.2063L55.419 46.2642Z" fill="black"/>
<path d="M40.7939 36.0415C42.0794 34.9981 43.9206 34.9981 45.2061 36.0415L56.3643 45.0991C57.8644 46.3168 58.0955 48.5216 56.877 50.0229C55.6964 51.4772 53.5902 51.7366 52.0957 50.644L51.9531 50.5347L43.3154 43.522C43.1318 43.3729 42.8682 43.3729 42.6846 43.522L34.0469 50.5347C32.5465 51.7523 30.3425 51.5236 29.124 50.0229H29.123C27.9054 48.5226 28.1342 46.3186 29.6348 45.1001V45.0991L40.7939 36.0415Z" stroke="white" stroke-opacity="0.5" stroke-width="3" stroke-linecap="round"/>
<defs>
<filter id="filter0_ii_372_784" x="0" y="0" width="86" height="86" filterUnits="userSpaceOnUse" color-interpolation-filters="sRGB">
<feFlood flood-opacity="0" result="BackgroundImageFix"/>
<feBlend mode="normal" in="SourceGraphic" in2="BackgroundImageFix" result="shape"/>
<feColorMatrix in="SourceAlpha" type="matrix" values="0 0 0 0 0 0 0 0 0 0 0 0 0 0 0 0 0 0 127 0" result="hardAlpha"/>
<feOffset dy="7"/>
<feComposite in2="hardAlpha" operator="arithmetic" k2="-1" k3="1"/>
<feColorMatrix type="matrix" values="0 0 0 0 1 0 0 0 0 1 0 0 0 0 1 0 0 0 0.5 0"/>
<feBlend mode="normal" in2="shape" result="effect1_innerShadow_372_784"/>
<feColorMatrix in="SourceAlpha" type="matrix" values="0 0 0 0 0 0 0 0 0 0 0 0 0 0 0 0 0 0 127 0" result="hardAlpha"/>
<feOffset dy="-7"/>
<feComposite in2="hardAlpha" operator="arithmetic" k2="-1" k3="1"/>
<feColorMatrix type="matrix" values="0 0 0 0 0 0 0 0 0 0 0 0 0 0 0 0 0 0 0.35 0"/>
<feBlend mode="normal" in2="effect1_innerShadow_372_784" result="effect2_innerShadow_372_784"/>
</filter>
<filter id="filter1_ii_372_784" x="9" y="9" width="68" height="68" filterUnits="userSpaceOnUse" color-interpolation-filters="sRGB">
<feFlood flood-opacity="0" result="BackgroundImageFix"/>
<feBlend mode="normal" in="SourceGraphic" in2="BackgroundImageFix" result="shape"/>
<feColorMatrix in="SourceAlpha" type="matrix" values="0 0 0 0 0 0 0 0 0 0 0 0 0 0 0 0 0 0 127 0" result="hardAlpha"/>
<feOffset dy="6"/>
<feComposite in2="hardAlpha" operator="arithmetic" k2="-1" k3="1"/>
<feColorMatrix type="matrix" values="0 0 0 0 1 0 0 0 0 1 0 0 0 0 1 0 0 0 0.5 0"/>
<feBlend mode="normal" in2="shape" result="effect1_innerShadow_372_784"/>
<feColorMatrix in="SourceAlpha" type="matrix" values="0 0 0 0 0 0 0 0 0 0 0 0 0 0 0 0 0 0 127 0" result="hardAlpha"/>
<feOffset dy="-6"/>
<feComposite in2="hardAlpha" operator="arithmetic" k2="-1" k3="1"/>
<feColorMatrix type="matrix" values="0 0 0 0 0 0 0 0 0 0 0 0 0 0 0 0 0 0 0.35 0"/>
<feBlend mode="normal" in2="effect1_innerShadow_372_784" result="effect2_innerShadow_372_784"/>
</filter>
</defs>
</svg>
