<svg width="201" height="201" viewBox="0 0 201 201" fill="none" xmlns="http://www.w3.org/2000/svg">
<circle cx="100.421" cy="100.421" r="80" fill="black" fill-opacity="0.4"/>
<circle cx="100.421" cy="100.421" r="76" stroke="white" stroke-opacity="0.1" stroke-width="8"/>
<circle cx="100.421" cy="100.421" r="78" stroke="black" stroke-width="4"/>
<circle cx="100.421" cy="100.421" r="17.5" fill="black" fill-opacity="0.4"/>
<circle cx="100.421" cy="100.421" r="19.5" stroke="white" stroke-opacity="0.1" stroke-width="4"/>
<path d="M10.9932 91.4785C12.6209 90.3343 14.9209 91.4881 14.9209 93.5312V107.311C14.9209 109.42 12.4702 110.581 10.8379 109.245L2.41699 102.355C1.19466 101.355 1.19466 99.4866 2.41699 98.4863L10.8379 91.5967L10.9932 91.4785Z" fill="#D9D9D9" stroke="black" stroke-width="3"/>
<path d="M109.363 10.9932C110.507 12.6209 109.354 14.9209 107.311 14.9209L93.5312 14.9209C91.4222 14.9209 90.2611 12.4702 91.5967 10.8379L98.4863 2.41699C99.4866 1.19466 101.355 1.19466 102.355 2.41699L109.245 10.8379L109.363 10.9932Z" fill="#D9D9D9" stroke="black" stroke-width="3"/>
<path d="M189.849 91.4785C188.221 90.3343 185.921 91.4881 185.921 93.5312V107.311C185.921 109.42 188.372 110.581 190.004 109.245L198.425 102.355C199.647 101.355 199.647 99.4866 198.425 98.4863L190.004 91.5967L189.849 91.4785Z" fill="#D9D9D9" stroke="black" stroke-width="3"/>
<path d="M109.363 189.849C110.507 188.221 109.354 185.921 107.311 185.921L93.5313 185.921C91.4222 185.921 90.2611 188.372 91.5967 190.004L98.4863 198.425C99.4866 199.647 101.355 199.647 102.355 198.425L109.245 190.004L109.363 189.849Z" fill="#D9D9D9" stroke="black" stroke-width="3"/>
</svg>
