<svg width="101" height="100" viewBox="0 0 101 100" fill="none" xmlns="http://www.w3.org/2000/svg">
<mask id="path-1-outside-1_131_348" maskUnits="userSpaceOnUse" x="17.2109" y="17.5044" width="83" height="65" fill="black">
<rect fill="white" x="17.2109" y="17.5044" width="83" height="65"/>
<path d="M64.626 76.4956L56.7842 76.4956L56.7842 57.2065L23.8848 57.2065L23.8848 42.7935L56.7842 42.7935L56.7842 23.5044L64.626 23.5044L91.2109 50.0005L64.626 76.4956Z"/>
</mask>
<path d="M64.626 76.4956L56.7842 76.4956L56.7842 57.2065L23.8848 57.2065L23.8848 42.7935L56.7842 42.7935L56.7842 23.5044L64.626 23.5044L91.2109 50.0005L64.626 76.4956Z" fill="white"/>
<path d="M64.626 76.4956L64.626 82.4956L67.1053 82.4956L68.8614 80.7454L64.626 76.4956ZM56.7842 76.4956L50.7842 76.4956L50.7842 82.4956L56.7842 82.4956L56.7842 76.4956ZM56.7842 57.2065L62.7842 57.2065L62.7842 51.2065L56.7842 51.2065L56.7842 57.2065ZM23.8848 57.2065L17.8848 57.2065L17.8848 63.2065L23.8848 63.2065L23.8848 57.2065ZM23.8848 42.7935L23.8848 36.7935L17.8848 36.7935L17.8848 42.7935L23.8848 42.7935ZM56.7842 42.7935L56.7842 48.7935L62.7842 48.7935L62.7842 42.7935L56.7842 42.7935ZM56.7842 23.5044L56.7842 17.5044L50.7842 17.5044L50.7842 23.5044L56.7842 23.5044ZM64.626 23.5044L68.8615 19.2547L67.1054 17.5044L64.626 17.5044L64.626 23.5044ZM91.2109 50.0005L95.4464 54.2503L99.7105 50.0006L95.4465 45.7508L91.2109 50.0005ZM64.626 76.4956L64.626 70.4956L56.7842 70.4956L56.7842 76.4956L56.7842 82.4956L64.626 82.4956L64.626 76.4956ZM56.7842 76.4956L62.7842 76.4956L62.7842 57.2065L56.7842 57.2065L50.7842 57.2065L50.7842 76.4956L56.7842 76.4956ZM56.7842 57.2065L56.7842 51.2065L23.8848 51.2065L23.8848 57.2065L23.8848 63.2065L56.7842 63.2065L56.7842 57.2065ZM23.8848 57.2065L29.8848 57.2065L29.8848 42.7935L23.8848 42.7935L17.8848 42.7935L17.8848 57.2065L23.8848 57.2065ZM23.8848 42.7935L23.8848 48.7935L56.7842 48.7935L56.7842 42.7935L56.7842 36.7935L23.8848 36.7935L23.8848 42.7935ZM56.7842 42.7935L62.7842 42.7935L62.7842 23.5044L56.7842 23.5044L50.7842 23.5044L50.7842 42.7935L56.7842 42.7935ZM56.7842 23.5044L56.7842 29.5044L64.626 29.5044L64.626 23.5044L64.626 17.5044L56.7842 17.5044L56.7842 23.5044ZM64.626 23.5044L60.3904 27.7541L86.9754 54.2502L91.2109 50.0005L95.4465 45.7508L68.8615 19.2547L64.626 23.5044ZM91.2109 50.0005L86.9755 45.7507L60.3905 72.2458L64.626 76.4956L68.8614 80.7454L95.4464 54.2503L91.2109 50.0005Z" fill="black" mask="url(#path-1-outside-1_131_348)"/>
</svg>
