<svg width="100" height="100" viewBox="0 0 100 100" fill="none" xmlns="http://www.w3.org/2000/svg">
<mask id="path-1-outside-1_131_342" maskUnits="userSpaceOnUse" x="17.6631" y="18.5044" width="81" height="63" fill="black">
<rect fill="white" x="17.6631" y="18.5044" width="81" height="63"/>
<path d="M64.0781 76.4956L56.2363 76.4956L56.2363 57.2065L23.3369 57.2065L23.3369 42.7935L56.2363 42.7935L56.2363 23.5044L64.0781 23.5044L90.6631 50.0005L64.0781 76.4956Z"/>
</mask>
<path d="M64.0781 76.4956L56.2363 76.4956L56.2363 57.2065L23.3369 57.2065L23.3369 42.7935L56.2363 42.7935L56.2363 23.5044L64.0781 23.5044L90.6631 50.0005L64.0781 76.4956Z" fill="#161616"/>
<path d="M64.0781 76.4956L64.0781 81.4956L66.1442 81.4956L67.6077 80.0371L64.0781 76.4956ZM56.2363 76.4956L51.2363 76.4956L51.2363 81.4956L56.2363 81.4956L56.2363 76.4956ZM56.2363 57.2065L61.2363 57.2065L61.2363 52.2065L56.2363 52.2065L56.2363 57.2065ZM23.3369 57.2065L18.3369 57.2065L18.3369 62.2065L23.3369 62.2065L23.3369 57.2065ZM23.3369 42.7935L23.3369 37.7935L18.3369 37.7935L18.3369 42.7935L23.3369 42.7935ZM56.2363 42.7935L56.2363 47.7935L61.2363 47.7935L61.2363 42.7935L56.2363 42.7935ZM56.2363 23.5044L56.2363 18.5044L51.2363 18.5044L51.2363 23.5044L56.2363 23.5044ZM64.0781 23.5044L67.6077 19.9629L66.1443 18.5044L64.0781 18.5044L64.0781 23.5044ZM90.6631 50.0005L94.1926 53.542L97.7461 50.0006L94.1927 46.459L90.6631 50.0005ZM64.0781 76.4956L64.0781 71.4956L56.2363 71.4956L56.2363 76.4956L56.2363 81.4956L64.0781 81.4956L64.0781 76.4956ZM56.2363 76.4956L61.2363 76.4956L61.2363 57.2065L56.2363 57.2065L51.2363 57.2065L51.2363 76.4956L56.2363 76.4956ZM56.2363 57.2065L56.2363 52.2065L23.3369 52.2065L23.3369 57.2065L23.3369 62.2065L56.2363 62.2065L56.2363 57.2065ZM23.3369 57.2065L28.3369 57.2065L28.3369 42.7935L23.3369 42.7935L18.3369 42.7935L18.3369 57.2065L23.3369 57.2065ZM23.3369 42.7935L23.3369 47.7935L56.2363 47.7935L56.2363 42.7935L56.2363 37.7935L23.3369 37.7935L23.3369 42.7935ZM56.2363 42.7935L61.2363 42.7935L61.2363 23.5044L56.2363 23.5044L51.2363 23.5044L51.2363 42.7935L56.2363 42.7935ZM56.2363 23.5044L56.2363 28.5044L64.0781 28.5044L64.0781 23.5044L64.0781 18.5044L56.2363 18.5044L56.2363 23.5044ZM64.0781 23.5044L60.5485 27.0458L87.1335 53.5419L90.6631 50.0005L94.1927 46.459L67.6077 19.9629L64.0781 23.5044ZM90.6631 50.0005L87.1335 46.459L60.5486 72.9541L64.0781 76.4956L67.6077 80.0371L94.1926 53.542L90.6631 50.0005Z" fill="#303030" mask="url(#path-1-outside-1_131_342)"/>
</svg>
