<svg width="102" height="101" viewBox="0 0 102 101" fill="none" xmlns="http://www.w3.org/2000/svg">
<path d="M66.4544 33.4841C66.4544 34.5887 67.3498 35.4841 68.4544 35.4841H91.4543C94.2157 35.4841 96.4544 37.7228 96.4543 40.4843L96.4537 61.1149C96.4536 63.8763 94.215 66.1148 91.4537 66.1148H68.4544C67.3498 66.1148 66.4544 67.0102 66.4544 68.1148V90.8445C66.4544 93.6059 64.2158 95.8445 61.4544 95.8445H40.5453C37.7839 95.8445 35.5453 93.6059 35.5453 90.8445V68.1148C35.5453 67.0102 34.6499 66.1148 33.5453 66.1148H10.5446C7.78309 66.1148 5.5445 63.8761 5.54458 61.1146L5.54518 40.484C5.54526 37.7226 7.78381 35.4841 10.5452 35.4841H33.5453C34.6499 35.4841 35.5453 34.5887 35.5453 33.4841V10.7544C35.5453 7.99297 37.7839 5.75439 40.5453 5.75439H61.4544C64.2158 5.75439 66.4544 7.99297 66.4544 10.7544V33.4841Z" fill="black" fill-opacity="0.7"/>
<path d="M61.4546 3.25439C65.5966 3.25449 68.9546 6.61232 68.9546 10.7544V32.9839H91.4546C95.5965 32.9841 98.9545 36.342 98.9546 40.4839L98.9536 61.1147C98.9535 65.2568 95.5957 68.6147 91.4536 68.6147H68.9546V90.8442C68.9546 94.9863 65.5966 98.3441 61.4546 98.3442H40.5454C36.4033 98.3442 33.0454 94.9864 33.0454 90.8442V68.6147H10.5444C6.40234 68.6147 3.04443 65.2568 3.04443 61.1147L3.04541 40.4839C3.04554 36.3418 6.40337 32.9839 10.5454 32.9839H33.0454V10.7544C33.0454 6.61226 36.4033 3.25439 40.5454 3.25439H61.4546Z" stroke="white" stroke-width="5"/>
<path d="M38.6343 11.839C38.6343 10.1821 39.9774 8.83899 41.6343 8.83899H60.3648C62.0217 8.83899 63.3648 10.1821 63.3648 11.839V35.0467H38.6343V11.839Z" fill="white"/>
</svg>
