<svg width="101" height="102" viewBox="0 0 101 102" fill="none" xmlns="http://www.w3.org/2000/svg">
<path d="M67.5159 66.4545C66.4113 66.4545 65.5159 67.35 65.5159 68.4545L65.5159 91.4544C65.5159 94.2159 63.2772 96.4545 60.5157 96.4544L39.8851 96.4538C37.1237 96.4537 34.8852 94.2152 34.8852 91.4538L34.8852 68.4545C34.8852 67.35 33.9898 66.4545 32.8852 66.4545L10.1555 66.4545C7.39409 66.4545 5.15551 64.216 5.15551 61.4545L5.15551 40.5454C5.15551 37.784 7.39409 35.5454 10.1555 35.5454L32.8852 35.5454C33.9898 35.5454 34.8852 34.65 34.8852 33.5454L34.8852 10.5447C34.8852 7.78321 37.1239 5.54462 39.8854 5.5447L60.516 5.5453C63.2774 5.54538 65.5159 7.78393 65.5159 10.5453L65.5159 33.5454C65.5159 34.65 66.4113 35.5454 67.5159 35.5454L90.2456 35.5454C93.007 35.5454 95.2456 37.784 95.2456 40.5454L95.2456 61.4545C95.2456 64.216 93.007 66.4545 90.2456 66.4545L67.5159 66.4545Z" fill="black" fill-opacity="0.7"/>
<path d="M97.7456 61.4547C97.7455 65.5968 94.3877 68.9547 90.2456 68.9547L68.0161 68.9547L68.0161 91.4547C68.0159 95.5966 64.658 98.9546 60.5161 98.9547L39.8852 98.9537C35.7432 98.9536 32.3852 95.5958 32.3853 91.4537L32.3853 68.9547L10.1558 68.9547C6.01368 68.9547 2.65585 65.5968 2.65576 61.4547L2.65576 40.5455C2.65576 36.4034 6.01363 33.0455 10.1558 33.0455L32.3853 33.0455L32.3853 10.5446C32.3853 6.40246 35.7432 3.04455 39.8853 3.04455L60.5161 3.04553C64.6582 3.04566 68.0161 6.40349 68.0161 10.5455L68.0161 33.0455L90.2456 33.0455C94.3877 33.0455 97.7456 36.4034 97.7456 40.5455L97.7456 61.4547Z" stroke="white" stroke-width="5"/>
<path d="M89.1611 38.634C90.818 38.634 92.1611 39.9772 92.1611 41.634L92.1611 60.3646C92.1611 62.0214 90.818 63.3646 89.1611 63.3646L65.9534 63.3646L65.9534 38.634L89.1611 38.634Z" fill="white"/>
</svg>
