<svg width="101" height="102" viewBox="0 0 101 102" fill="none" xmlns="http://www.w3.org/2000/svg">
<path d="M32.7966 35.5453C33.9012 35.5453 34.7966 34.6499 34.7966 33.5453L34.7966 10.5455C34.7966 7.784 37.0353 5.5454 39.7968 5.54548L60.4274 5.54608C63.1888 5.54616 65.4273 7.78471 65.4273 10.5461L65.4273 33.5453C65.4273 34.6499 66.3227 35.5453 67.4273 35.5453L90.157 35.5453C92.9184 35.5453 95.157 37.7839 95.157 40.5453L95.157 61.4544C95.157 64.2159 92.9184 66.4544 90.157 66.4544L67.4273 66.4544C66.3227 66.4544 65.4273 67.3499 65.4273 68.4544L65.4273 91.4552C65.4273 94.2167 63.1886 96.4553 60.4271 96.4552L39.7965 96.4546C37.0351 96.4545 34.7966 94.2159 34.7966 91.4546L34.7966 68.4544C34.7966 67.3499 33.9012 66.4544 32.7966 66.4544L10.0669 66.4544C7.30547 66.4544 5.06689 64.2159 5.06689 61.4544L5.06689 40.5453C5.06689 37.7839 7.30547 35.5453 10.0669 35.5453L32.7966 35.5453Z" fill="black" fill-opacity="0.7"/>
<path d="M2.56689 40.5452C2.56698 36.4031 5.92482 33.0452 10.0669 33.0452L32.2964 33.0452L32.2964 10.5452C32.2966 6.40324 35.6545 3.04529 39.7964 3.04516L60.4272 3.04614C64.5693 3.04626 67.9272 6.40409 67.9272 10.5461L67.9272 33.0452L90.1567 33.0452C94.2988 33.0452 97.6566 36.4031 97.6567 40.5452L97.6567 61.4543C97.6567 65.5965 94.2989 68.9543 90.1567 68.9543L67.9272 68.9543L67.9272 91.4553C67.9272 95.5974 64.5693 98.9553 60.4272 98.9553L39.7964 98.9543C35.6543 98.9542 32.2964 95.5964 32.2964 91.4543L32.2964 68.9543L10.0669 68.9543C5.92476 68.9543 2.56689 65.5965 2.56689 61.4543L2.56689 40.5452Z" stroke="white" stroke-width="5"/>
<path d="M11.1514 63.366C9.49452 63.366 8.15137 62.0228 8.15137 60.366L8.15137 41.6354C8.15137 39.9786 9.49451 38.6354 11.1514 38.6354L34.3591 38.6354L34.3591 63.366L11.1514 63.366Z" fill="white"/>
</svg>
