<svg width="102" height="101" viewBox="0 0 102 101" fill="none" xmlns="http://www.w3.org/2000/svg">
<path d="M35.5456 67.5159C35.5456 66.4113 34.6502 65.5159 33.5456 65.5159L10.5457 65.5159C7.78425 65.5159 5.54565 63.2772 5.54573 60.5157L5.54633 39.8851C5.54641 37.1237 7.78497 34.8852 10.5463 34.8852L33.5456 34.8852C34.6502 34.8852 35.5456 33.9898 35.5456 32.8852L35.5456 10.1555C35.5456 7.39409 37.7842 5.15551 40.5456 5.15551L61.4547 5.15551C64.2161 5.15551 66.4547 7.39409 66.4547 10.1555L66.4547 32.8852C66.4547 33.9898 67.3501 34.8852 68.4547 34.8852L91.4554 34.8852C94.2169 34.8852 96.4555 37.1239 96.4554 39.8854L96.4548 60.516C96.4547 63.2774 94.2162 65.5159 91.4548 65.5159L68.4547 65.5159C67.3501 65.5159 66.4547 66.4113 66.4547 67.5159L66.4547 90.2456C66.4547 93.007 64.2161 95.2456 61.4547 95.2456L40.5456 95.2456C37.7842 95.2456 35.5456 93.007 35.5456 90.2456L35.5456 67.5159Z" fill="black" fill-opacity="0.7"/>
<path d="M40.5454 97.7456C36.4034 97.7455 33.0454 94.3877 33.0454 90.2456L33.0454 68.0161L10.5454 68.0161C6.40349 68.0159 3.04554 64.658 3.04541 60.5161L3.04639 39.8852C3.04651 35.7432 6.40434 32.3852 10.5464 32.3852L33.0454 32.3852L33.0454 10.1558C33.0454 6.01368 36.4034 2.65585 40.5454 2.65576L61.4546 2.65576C65.5967 2.65576 68.9546 6.01363 68.9546 10.1558L68.9546 32.3853L91.4556 32.3853C95.5977 32.3853 98.9556 35.7432 98.9556 39.8853L98.9546 60.5161C98.9545 64.6582 95.5966 68.0161 91.4546 68.0161L68.9546 68.0161L68.9546 90.2456C68.9546 94.3877 65.5967 97.7456 61.4546 97.7456L40.5454 97.7456Z" stroke="white" stroke-width="5"/>
<path d="M63.3657 89.1609C63.3657 90.8177 62.0226 92.1609 60.3657 92.1609L41.6352 92.1609C39.9783 92.1609 38.6352 90.8177 38.6352 89.1609L38.6352 65.9532L63.3657 65.9532L63.3657 89.1609Z" fill="white"/>
</svg>
