<svg width="300" height="300" viewBox="0 0 300 300" fill="none" xmlns="http://www.w3.org/2000/svg">
<mask id="path-1-outside-1_161_401" maskUnits="userSpaceOnUse" x="212.865" y="118.853" width="80" height="63" fill="black">
<rect fill="white" x="212.865" y="118.853" width="80" height="63"/>
<path d="M258.629 176.147L250.891 176.147L250.891 157.112L218.424 157.112L218.424 142.888L250.891 142.888L250.891 123.853L258.629 123.853L284.865 150L258.629 176.147Z"/>
</mask>
<path d="M258.629 176.147L250.891 176.147L250.891 157.112L218.424 157.112L218.424 142.888L250.891 142.888L250.891 123.853L258.629 123.853L284.865 150L258.629 176.147Z" fill="#161616"/>
<path d="M258.629 176.147L258.629 181.147L260.695 181.147L262.159 179.688L258.629 176.147ZM250.891 176.147L245.891 176.147L245.891 181.147L250.891 181.147L250.891 176.147ZM250.891 157.112L255.891 157.112L255.891 152.112L250.891 152.112L250.891 157.112ZM218.424 157.112L213.424 157.112L213.424 162.112L218.424 162.112L218.424 157.112ZM218.424 142.888L218.424 137.888L213.424 137.888L213.424 142.888L218.424 142.888ZM250.891 142.888L250.891 147.888L255.891 147.888L255.891 142.888L250.891 142.888ZM250.891 123.853L250.891 118.853L245.891 118.853L245.891 123.853L250.891 123.853ZM258.629 123.853L262.159 120.312L260.696 118.853L258.629 118.853L258.629 123.853ZM284.865 150L288.394 153.542L291.948 150.001L288.394 146.459L284.865 150ZM258.629 176.147L258.629 171.147L250.891 171.147L250.891 176.147L250.891 181.147L258.629 181.147L258.629 176.147ZM250.891 176.147L255.891 176.147L255.891 157.112L250.891 157.112L245.891 157.112L245.891 176.147L250.891 176.147ZM250.891 157.112L250.891 152.112L218.424 152.112L218.424 157.112L218.424 162.112L250.891 162.112L250.891 157.112ZM218.424 157.112L223.424 157.112L223.424 142.888L218.424 142.888L213.424 142.888L213.424 157.112L218.424 157.112ZM218.424 142.888L218.424 147.888L250.891 147.888L250.891 142.888L250.891 137.888L218.424 137.888L218.424 142.888ZM250.891 142.888L255.891 142.888L255.891 123.853L250.891 123.853L245.891 123.853L245.891 142.888L250.891 142.888ZM250.891 123.853L250.891 128.853L258.629 128.853L258.629 123.853L258.629 118.853L250.891 118.853L250.891 123.853ZM258.629 123.853L255.1 127.394L281.335 153.542L284.865 150L288.394 146.459L262.159 120.312L258.629 123.853ZM284.865 150L281.335 146.459L255.1 172.605L258.629 176.147L262.159 179.688L288.394 153.542L284.865 150Z" fill="#303030" mask="url(#path-1-outside-1_161_401)"/>
<mask id="path-3-outside-2_161_401" maskUnits="userSpaceOnUse" x="118.147" y="212.865" width="63" height="80" fill="black">
<rect fill="white" x="118.147" y="212.865" width="63" height="80"/>
<path d="M123.853 258.629L123.853 250.891L142.888 250.891L142.888 218.424L157.112 218.424L157.112 250.891L176.147 250.891L176.147 258.629L150 284.865L123.853 258.629Z"/>
</mask>
<path d="M123.853 258.629L123.853 250.891L142.888 250.891L142.888 218.424L157.112 218.424L157.112 250.891L176.147 250.891L176.147 258.629L150 284.865L123.853 258.629Z" fill="#161616"/>
<path d="M123.853 258.629L118.853 258.629L118.853 260.695L120.312 262.159L123.853 258.629ZM123.853 250.891L123.853 245.891L118.853 245.891L118.853 250.891L123.853 250.891ZM142.888 250.891L142.888 255.891L147.888 255.891L147.888 250.891L142.888 250.891ZM142.888 218.424L142.888 213.424L137.888 213.424L137.888 218.424L142.888 218.424ZM157.112 218.424L162.112 218.424L162.112 213.424L157.112 213.424L157.112 218.424ZM157.112 250.891L152.112 250.891L152.112 255.891L157.112 255.891L157.112 250.891ZM176.147 250.891L181.147 250.891L181.147 245.891L176.147 245.891L176.147 250.891ZM176.147 258.629L179.688 262.159L181.147 260.696L181.147 258.629L176.147 258.629ZM150 284.865L146.458 288.394L149.999 291.948L153.541 288.394L150 284.865ZM123.853 258.629L128.853 258.629L128.853 250.891L123.853 250.891L118.853 250.891L118.853 258.629L123.853 258.629ZM123.853 250.891L123.853 255.891L142.888 255.891L142.888 250.891L142.888 245.891L123.853 245.891L123.853 250.891ZM142.888 250.891L147.888 250.891L147.888 218.424L142.888 218.424L137.888 218.424L137.888 250.891L142.888 250.891ZM142.888 218.424L142.888 223.424L157.112 223.424L157.112 218.424L157.112 213.424L142.888 213.424L142.888 218.424ZM157.112 218.424L152.112 218.424L152.112 250.891L157.112 250.891L162.112 250.891L162.112 218.424L157.112 218.424ZM157.112 250.891L157.112 255.891L176.147 255.891L176.147 250.891L176.147 245.891L157.112 245.891L157.112 250.891ZM176.147 250.891L171.147 250.891L171.147 258.629L176.147 258.629L181.147 258.629L181.147 250.891L176.147 250.891ZM176.147 258.629L172.606 255.1L146.458 281.335L150 284.865L153.541 288.394L179.688 262.159L176.147 258.629ZM150 284.865L153.541 281.335L127.395 255.1L123.853 258.629L120.312 262.159L146.458 288.394L150 284.865Z" fill="#303030" mask="url(#path-3-outside-2_161_401)"/>
<mask id="path-5-outside-3_161_401" maskUnits="userSpaceOnUse" x="171.929" y="172.428" width="101.116" height="101.116" fill="black">
<rect fill="white" x="171.929" y="172.428" width="101.116" height="101.116"/>
<path d="M208.324 245.301L202.852 239.83L216.312 226.37L193.355 203.412L203.412 193.355L226.37 216.312L239.83 202.852L245.301 208.324L245.363 245.364L208.324 245.301Z"/>
</mask>
<path d="M208.324 245.301L202.852 239.83L216.312 226.37L193.355 203.412L203.412 193.355L226.37 216.312L239.83 202.852L245.301 208.324L245.363 245.364L208.324 245.301Z" fill="#161616"/>
<path d="M208.324 245.301L204.788 248.837L206.249 250.298L208.315 250.301L208.324 245.301ZM202.852 239.83L199.317 236.294L195.781 239.83L199.317 243.365L202.852 239.83ZM216.312 226.37L219.848 229.905L223.383 226.37L219.848 222.834L216.312 226.37ZM193.355 203.412L189.819 199.877L186.283 203.412L189.819 206.948L193.355 203.412ZM203.412 193.355L206.948 189.819L203.412 186.283L199.877 189.819L203.412 193.355ZM226.37 216.312L222.834 219.848L226.37 223.383L229.905 219.848L226.37 216.312ZM239.83 202.852L243.365 199.317L239.83 195.781L236.294 199.317L239.83 202.852ZM245.301 208.324L250.301 208.316L250.298 206.249L248.837 204.788L245.301 208.324ZM245.363 245.364L245.355 250.364L250.372 250.373L250.363 245.356L245.363 245.364ZM208.324 245.301L211.859 241.766L206.388 236.294L202.852 239.83L199.317 243.365L204.788 248.837L208.324 245.301ZM202.852 239.83L206.388 243.365L219.848 229.905L216.312 226.37L212.777 222.834L199.317 236.294L202.852 239.83ZM216.312 226.37L219.848 222.834L196.89 199.877L193.355 203.412L189.819 206.948L212.777 229.905L216.312 226.37ZM193.355 203.412L196.89 206.948L206.948 196.89L203.412 193.355L199.877 189.819L189.819 199.877L193.355 203.412ZM203.412 193.355L199.877 196.89L222.834 219.848L226.37 216.312L229.905 212.776L206.948 189.819L203.412 193.355ZM226.37 216.312L229.905 219.848L243.365 206.388L239.83 202.852L236.294 199.317L222.834 212.776L226.37 216.312ZM239.83 202.852L236.294 206.388L241.766 211.859L245.301 208.324L248.837 204.788L243.365 199.317L239.83 202.852ZM245.301 208.324L240.301 208.332L240.363 245.373L245.363 245.364L250.363 245.356L250.301 208.316L245.301 208.324ZM245.363 245.364L245.372 240.364L208.332 240.301L208.324 245.301L208.315 250.301L245.355 250.364L245.363 245.364Z" fill="#303030" mask="url(#path-5-outside-3_161_401)"/>
<mask id="path-7-outside-4_161_401" maskUnits="userSpaceOnUse" x="26.456" y="171.929" width="101.116" height="101.116" fill="black">
<rect fill="white" x="26.456" y="171.929" width="101.116" height="101.116"/>
<path d="M54.6988 208.324L60.1706 202.852L73.6305 216.312L96.588 193.355L106.646 203.412L83.6881 226.37L97.148 239.83L91.6762 245.301L54.636 245.363L54.6988 208.324Z"/>
</mask>
<path d="M54.6988 208.324L60.1706 202.852L73.6305 216.312L96.588 193.355L106.646 203.412L83.6881 226.37L97.148 239.83L91.6762 245.301L54.636 245.363L54.6988 208.324Z" fill="#161616"/>
<path d="M54.6988 208.324L51.1633 204.788L49.7023 206.249L49.6988 208.315L54.6988 208.324ZM60.1706 202.852L63.7061 199.317L60.1706 195.781L56.6351 199.317L60.1706 202.852ZM73.6305 216.312L70.0949 219.848L73.6305 223.383L77.166 219.848L73.6305 216.312ZM96.588 193.355L100.124 189.819L96.588 186.283L93.0524 189.819L96.588 193.355ZM106.646 203.412L110.181 206.948L113.717 203.412L110.181 199.877L106.646 203.412ZM83.6881 226.37L80.1526 222.834L76.617 226.37L80.1526 229.905L83.6881 226.37ZM97.148 239.83L100.684 243.365L104.219 239.83L100.684 236.294L97.148 239.83ZM91.6762 245.301L91.6846 250.301L93.7507 250.298L95.2117 248.837L91.6762 245.301ZM54.636 245.363L49.636 245.355L49.6275 250.372L54.6443 250.363L54.636 245.363ZM54.6988 208.324L58.2343 211.859L63.7061 206.388L60.1706 202.852L56.6351 199.317L51.1633 204.788L54.6988 208.324ZM60.1706 202.852L56.6351 206.388L70.0949 219.848L73.6305 216.312L77.166 212.777L63.7061 199.317L60.1706 202.852ZM73.6305 216.312L77.166 219.848L100.124 196.89L96.588 193.355L93.0524 189.819L70.0949 212.777L73.6305 216.312ZM96.588 193.355L93.0524 196.89L103.11 206.948L106.646 203.412L110.181 199.877L100.124 189.819L96.588 193.355ZM106.646 203.412L103.11 199.877L80.1526 222.834L83.6881 226.37L87.2236 229.905L110.181 206.948L106.646 203.412ZM83.6881 226.37L80.1526 229.905L93.6125 243.365L97.148 239.83L100.684 236.294L87.2236 222.834L83.6881 226.37ZM97.148 239.83L93.6125 236.294L88.1407 241.766L91.6762 245.301L95.2117 248.837L100.684 243.365L97.148 239.83ZM91.6762 245.301L91.6678 240.301L54.6276 240.363L54.636 245.363L54.6443 250.363L91.6846 250.301L91.6762 245.301ZM54.636 245.363L59.6359 245.372L59.6988 208.332L54.6988 208.324L49.6988 208.315L49.636 245.355L54.636 245.363Z" fill="#303030" mask="url(#path-7-outside-4_161_401)"/>
<mask id="path-9-outside-5_161_401" maskUnits="userSpaceOnUse" x="7.13525" y="118.853" width="80" height="63" fill="black">
<rect fill="white" x="7.13525" y="118.853" width="80" height="63"/>
<path d="M41.3706 176.147L49.1089 176.147L49.1089 157.112L81.5757 157.112L81.5757 142.888L49.1089 142.888L49.1089 123.853L41.3706 123.853L15.1353 150L41.3706 176.147Z"/>
</mask>
<path d="M41.3706 176.147L49.1089 176.147L49.1089 157.112L81.5757 157.112L81.5757 142.888L49.1089 142.888L49.1089 123.853L41.3706 123.853L15.1353 150L41.3706 176.147Z" fill="#161616"/>
<path d="M41.3706 176.147L41.3706 181.147L39.3045 181.147L37.8411 179.688L41.3706 176.147ZM49.1089 176.147L54.1089 176.147L54.1089 181.147L49.1089 181.147L49.1089 176.147ZM49.1089 157.112L44.1089 157.112L44.1089 152.112L49.1089 152.112L49.1089 157.112ZM81.5757 157.112L86.5757 157.112L86.5757 162.112L81.5757 162.112L81.5757 157.112ZM81.5757 142.888L81.5757 137.888L86.5757 137.888L86.5757 142.888L81.5757 142.888ZM49.1089 142.888L49.1089 147.888L44.1089 147.888L44.1089 142.888L49.1089 142.888ZM49.1089 123.853L49.1089 118.853L54.1089 118.853L54.1089 123.853L49.1089 123.853ZM41.3706 123.853L37.841 120.312L39.3045 118.853L41.3706 118.853L41.3706 123.853ZM15.1353 150L11.6057 153.542L8.05223 150.001L11.6057 146.459L15.1353 150ZM41.3706 176.147L41.3706 171.147L49.1089 171.147L49.1089 176.147L49.1089 181.147L41.3706 181.147L41.3706 176.147ZM49.1089 176.147L44.1089 176.147L44.1089 157.112L49.1089 157.112L54.1089 157.112L54.1089 176.147L49.1089 176.147ZM49.1089 157.112L49.1089 152.112L81.5757 152.112L81.5757 157.112L81.5757 162.112L49.1089 162.112L49.1089 157.112ZM81.5757 157.112L76.5757 157.112L76.5757 142.888L81.5757 142.888L86.5757 142.888L86.5757 157.112L81.5757 157.112ZM81.5757 142.888L81.5757 147.888L49.1089 147.888L49.1089 142.888L49.1089 137.888L81.5757 137.888L81.5757 142.888ZM49.1089 142.888L44.1089 142.888L44.1089 123.853L49.1089 123.853L54.1089 123.853L54.1089 142.888L49.1089 142.888ZM49.1089 123.853L49.1089 128.853L41.3706 128.853L41.3706 123.853L41.3706 118.853L49.1089 118.853L49.1089 123.853ZM41.3706 123.853L44.9002 127.394L18.6649 153.542L15.1353 150L11.6057 146.459L37.841 120.312L41.3706 123.853ZM15.1353 150L18.6648 146.459L44.9001 172.605L41.3706 176.147L37.8411 179.688L11.6057 153.542L15.1353 150Z" fill="#303030" mask="url(#path-9-outside-5_161_401)"/>
<mask id="path-11-outside-6_161_401" maskUnits="userSpaceOnUse" x="118.147" y="7.13525" width="63" height="80" fill="black">
<rect fill="white" x="118.147" y="7.13525" width="63" height="80"/>
<path d="M123.853 41.3706L123.853 49.1089L142.888 49.1089L142.888 81.5757L157.112 81.5757L157.112 49.1089L176.147 49.1089L176.147 41.3706L150 15.1353L123.853 41.3706Z"/>
</mask>
<path d="M123.853 41.3706L123.853 49.1089L142.888 49.1089L142.888 81.5757L157.112 81.5757L157.112 49.1089L176.147 49.1089L176.147 41.3706L150 15.1353L123.853 41.3706Z" fill="#161616"/>
<path d="M123.853 41.3706L118.853 41.3706V39.3045L120.312 37.8411L123.853 41.3706ZM123.853 49.1089V54.1089L118.853 54.1089V49.1089L123.853 49.1089ZM142.888 49.1089V44.1089L147.888 44.1089V49.1089L142.888 49.1089ZM142.888 81.5757V86.5757L137.888 86.5757V81.5757L142.888 81.5757ZM157.112 81.5757H162.112V86.5757H157.112V81.5757ZM157.112 49.1089L152.112 49.1089V44.1089L157.112 44.1089V49.1089ZM176.147 49.1089L181.147 49.1089V54.1089L176.147 54.1089V49.1089ZM176.147 41.3706L179.688 37.841L181.147 39.3045L181.147 41.3706L176.147 41.3706ZM150 15.1353L146.458 11.6057L149.999 8.05223L153.541 11.6057L150 15.1353ZM123.853 41.3706H128.853V49.1089L123.853 49.1089L118.853 49.1089L118.853 41.3706L123.853 41.3706ZM123.853 49.1089V44.1089L142.888 44.1089V49.1089V54.1089L123.853 54.1089V49.1089ZM142.888 49.1089L147.888 49.1089L147.888 81.5757L142.888 81.5757L137.888 81.5757L137.888 49.1089L142.888 49.1089ZM142.888 81.5757V76.5757L157.112 76.5757V81.5757V86.5757L142.888 86.5757V81.5757ZM157.112 81.5757L152.112 81.5757L152.112 49.1089L157.112 49.1089L162.112 49.1089L162.112 81.5757H157.112ZM157.112 49.1089V44.1089L176.147 44.1089V49.1089V54.1089L157.112 54.1089V49.1089ZM176.147 49.1089L171.147 49.1089V41.3706L176.147 41.3706L181.147 41.3706V49.1089L176.147 49.1089ZM176.147 41.3706L172.606 44.9002L146.458 18.6649L150 15.1353L153.541 11.6057L179.688 37.841L176.147 41.3706ZM150 15.1353L153.541 18.6648L127.395 44.9001L123.853 41.3706L120.312 37.8411L146.458 11.6057L150 15.1353Z" fill="#303030" mask="url(#path-11-outside-6_161_401)"/>
<mask id="path-13-outside-7_161_401" maskUnits="userSpaceOnUse" x="26.456" y="26.9551" width="101.116" height="101.116" fill="black">
<rect fill="white" x="26.456" y="26.9551" width="101.116" height="101.116"/>
<path d="M54.6988 91.6761L60.1706 97.1478L73.6305 83.688L96.588 106.645L106.646 96.5878L83.6881 73.6303L97.148 60.1704L91.6762 54.6987L54.636 54.6365L54.6988 91.6761Z"/>
</mask>
<path d="M54.6988 91.6761L60.1706 97.1478L73.6305 83.688L96.588 106.645L106.646 96.5878L83.6881 73.6303L97.148 60.1704L91.6762 54.6987L54.636 54.6365L54.6988 91.6761Z" fill="#161616"/>
<path d="M54.6988 91.6761L51.1633 95.2116L49.7023 93.7506L49.6988 91.6845L54.6988 91.6761ZM60.1706 97.1478L63.7061 100.683L60.1706 104.219L56.635 100.683L60.1706 97.1478ZM73.6305 83.688L70.0949 80.1524L73.6305 76.6169L77.166 80.1524L73.6305 83.688ZM96.588 106.645L100.123 110.181L96.588 113.717L93.0524 110.181L96.588 106.645ZM106.646 96.5878L110.181 93.0523L113.717 96.5878L110.181 100.123L106.646 96.5878ZM83.6881 73.6303L80.1526 77.1659L76.617 73.6303L80.1526 70.0948L83.6881 73.6303ZM97.148 60.1704L100.684 56.6349L104.219 60.1704L100.684 63.706L97.148 60.1704ZM91.6762 54.6987L91.6846 49.6987L93.7507 49.7021L95.2117 51.1631L91.6762 54.6987ZM54.636 54.6365L49.636 54.645L49.6274 49.6281L54.6443 49.6365L54.636 54.6365ZM54.6988 91.6761L58.2343 88.1405L63.7061 93.6123L60.1706 97.1478L56.635 100.683L51.1633 95.2116L54.6988 91.6761ZM60.1706 97.1478L56.635 93.6123L70.0949 80.1524L73.6305 83.688L77.166 87.2235L63.7061 100.683L60.1706 97.1478ZM73.6305 83.688L77.166 80.1524L100.123 103.11L96.588 106.645L93.0524 110.181L70.0949 87.2235L73.6305 83.688ZM96.588 106.645L93.0524 103.11L103.11 93.0523L106.646 96.5878L110.181 100.123L100.123 110.181L96.588 106.645ZM106.646 96.5878L103.11 100.123L80.1526 77.1659L83.6881 73.6303L87.2236 70.0948L110.181 93.0523L106.646 96.5878ZM83.6881 73.6303L80.1526 70.0948L93.6125 56.6349L97.148 60.1704L100.684 63.706L87.2236 77.1659L83.6881 73.6303ZM97.148 60.1704L93.6125 63.706L88.1407 58.2342L91.6762 54.6987L95.2117 51.1631L100.684 56.6349L97.148 60.1704ZM91.6762 54.6987L91.6678 59.6986L54.6276 59.6365L54.636 54.6365L54.6443 49.6365L91.6846 49.6987L91.6762 54.6987ZM54.636 54.6365L59.6359 54.628L59.6988 91.6676L54.6988 91.6761L49.6988 91.6845L49.636 54.645L54.636 54.6365Z" fill="#303030" mask="url(#path-13-outside-7_161_401)"/>
<mask id="path-15-outside-8_161_401" maskUnits="userSpaceOnUse" x="171.929" y="26.4558" width="101.116" height="101.116" fill="black">
<rect fill="white" x="171.929" y="26.4558" width="101.116" height="101.116"/>
<path d="M208.324 54.6987L202.852 60.1705L216.312 73.6303L193.355 96.5878L203.412 106.645L226.37 83.688L239.83 97.1479L245.301 91.6761L245.363 54.6358L208.324 54.6987Z"/>
</mask>
<path d="M208.324 54.6987L202.852 60.1705L216.312 73.6303L193.355 96.5878L203.412 106.645L226.37 83.688L239.83 97.1479L245.301 91.6761L245.363 54.6358L208.324 54.6987Z" fill="#161616"/>
<path d="M208.324 54.6987L204.788 51.1631L206.249 49.7022L208.315 49.6987L208.324 54.6987ZM202.852 60.1705L199.317 63.706L195.781 60.1705L199.317 56.6349L202.852 60.1705ZM216.312 73.6303L219.848 70.0948L223.383 73.6303L219.848 77.1659L216.312 73.6303ZM193.355 96.5878L189.819 100.123L186.283 96.5878L189.819 93.0523L193.355 96.5878ZM203.412 106.645L206.948 110.181L203.412 113.717L199.877 110.181L203.412 106.645ZM226.37 83.688L222.834 80.1524L226.37 76.6169L229.905 80.1524L226.37 83.688ZM239.83 97.1479L243.365 100.683L239.83 104.219L236.294 100.683L239.83 97.1479ZM245.301 91.6761L250.301 91.6845L250.298 93.7506L248.837 95.2116L245.301 91.6761ZM245.363 54.6358L245.355 49.6358L250.372 49.6273L250.363 54.6442L245.363 54.6358ZM208.324 54.6987L211.859 58.2342L206.388 63.706L202.852 60.1705L199.317 56.6349L204.788 51.1631L208.324 54.6987ZM202.852 60.1705L206.388 56.6349L219.848 70.0948L216.312 73.6303L212.777 77.1659L199.317 63.706L202.852 60.1705ZM216.312 73.6303L219.848 77.1659L196.89 100.123L193.355 96.5878L189.819 93.0523L212.777 70.0948L216.312 73.6303ZM193.355 96.5878L196.89 93.0523L206.948 103.11L203.412 106.645L199.877 110.181L189.819 100.123L193.355 96.5878ZM203.412 106.645L199.877 103.11L222.834 80.1524L226.37 83.688L229.905 87.2235L206.948 110.181L203.412 106.645ZM226.37 83.688L229.905 80.1524L243.365 93.6123L239.83 97.1479L236.294 100.683L222.834 87.2235L226.37 83.688ZM239.83 97.1479L236.294 93.6123L241.766 88.1405L245.301 91.6761L248.837 95.2116L243.365 100.683L239.83 97.1479ZM245.301 91.6761L240.301 91.6677L240.363 54.6274L245.363 54.6358L250.363 54.6442L250.301 91.6845L245.301 91.6761ZM245.363 54.6358L245.372 59.6358L208.332 59.6987L208.324 54.6987L208.315 49.6987L245.355 49.6358L245.363 54.6358Z" fill="#303030" mask="url(#path-15-outside-8_161_401)"/>
</svg>
