<svg width="301" height="300" viewBox="0 0 301 300" fill="none" xmlns="http://www.w3.org/2000/svg">
<mask id="path-1-outside-1_161_402" maskUnits="userSpaceOnUse" x="213.774" y="118.853" width="80" height="63" fill="black">
<rect fill="white" x="213.774" y="118.853" width="80" height="63"/>
<path d="M259.539 176.147L251.8 176.147L251.8 157.112L219.333 157.112L219.333 142.888L251.8 142.888L251.8 123.853L259.539 123.853L285.774 150L259.539 176.147Z"/>
</mask>
<path d="M259.539 176.147L251.8 176.147L251.8 157.112L219.333 157.112L219.333 142.888L251.8 142.888L251.8 123.853L259.539 123.853L285.774 150L259.539 176.147Z" fill="#161616"/>
<path d="M259.539 176.147L259.539 181.147L261.605 181.147L263.068 179.688L259.539 176.147ZM251.8 176.147L246.8 176.147L246.8 181.147L251.8 181.147L251.8 176.147ZM251.8 157.112L256.8 157.112L256.8 152.112L251.8 152.112L251.8 157.112ZM219.333 157.112L214.333 157.112L214.333 162.112L219.333 162.112L219.333 157.112ZM219.333 142.888L219.333 137.888L214.333 137.888L214.333 142.888L219.333 142.888ZM251.8 142.888L251.8 147.888L256.8 147.888L256.8 142.888L251.8 142.888ZM251.8 123.853L251.8 118.853L246.8 118.853L246.8 123.853L251.8 123.853ZM259.539 123.853L263.068 120.312L261.605 118.853L259.539 118.853L259.539 123.853ZM285.774 150L289.303 153.542L292.857 150.001L289.304 146.459L285.774 150ZM259.539 176.147L259.539 171.147L251.8 171.147L251.8 176.147L251.8 181.147L259.539 181.147L259.539 176.147ZM251.8 176.147L256.8 176.147L256.8 157.112L251.8 157.112L246.8 157.112L246.8 176.147L251.8 176.147ZM251.8 157.112L251.8 152.112L219.333 152.112L219.333 157.112L219.333 162.112L251.8 162.112L251.8 157.112ZM219.333 157.112L224.333 157.112L224.333 142.888L219.333 142.888L214.333 142.888L214.333 157.112L219.333 157.112ZM219.333 142.888L219.333 147.888L251.8 147.888L251.8 142.888L251.8 137.888L219.333 137.888L219.333 142.888ZM251.8 142.888L256.8 142.888L256.8 123.853L251.8 123.853L246.8 123.853L246.8 142.888L251.8 142.888ZM251.8 123.853L251.8 128.853L259.539 128.853L259.539 123.853L259.539 118.853L251.8 118.853L251.8 123.853ZM259.539 123.853L256.009 127.394L282.244 153.542L285.774 150L289.304 146.459L263.068 120.312L259.539 123.853ZM285.774 150L282.244 146.459L256.009 172.605L259.539 176.147L263.068 179.688L289.303 153.542L285.774 150Z" fill="#303030" mask="url(#path-1-outside-1_161_402)"/>
<mask id="path-3-outside-2_161_402" maskUnits="userSpaceOnUse" x="119.056" y="212.865" width="63" height="80" fill="black">
<rect fill="white" x="119.056" y="212.865" width="63" height="80"/>
<path d="M124.762 258.629L124.762 250.891L143.797 250.891L143.797 218.424L158.021 218.424L158.021 250.891L177.056 250.891L177.056 258.629L150.909 284.865L124.762 258.629Z"/>
</mask>
<path d="M124.762 258.629L124.762 250.891L143.797 250.891L143.797 218.424L158.021 218.424L158.021 250.891L177.056 250.891L177.056 258.629L150.909 284.865L124.762 258.629Z" fill="#161616"/>
<path d="M124.762 258.629L119.762 258.629L119.762 260.695L121.221 262.159L124.762 258.629ZM124.762 250.891L124.762 245.891L119.762 245.891L119.762 250.891L124.762 250.891ZM143.797 250.891L143.797 255.891L148.797 255.891L148.797 250.891L143.797 250.891ZM143.797 218.424L143.797 213.424L138.797 213.424L138.797 218.424L143.797 218.424ZM158.021 218.424L163.021 218.424L163.021 213.424L158.021 213.424L158.021 218.424ZM158.021 250.891L153.021 250.891L153.021 255.891L158.021 255.891L158.021 250.891ZM177.056 250.891L182.056 250.891L182.056 245.891L177.056 245.891L177.056 250.891ZM177.056 258.629L180.598 262.159L182.056 260.696L182.056 258.629L177.056 258.629ZM150.909 284.865L147.367 288.394L150.909 291.948L154.45 288.394L150.909 284.865ZM124.762 258.629L129.762 258.629L129.762 250.891L124.762 250.891L119.762 250.891L119.762 258.629L124.762 258.629ZM124.762 250.891L124.762 255.891L143.797 255.891L143.797 250.891L143.797 245.891L124.762 245.891L124.762 250.891ZM143.797 250.891L148.797 250.891L148.797 218.424L143.797 218.424L138.797 218.424L138.797 250.891L143.797 250.891ZM143.797 218.424L143.797 223.424L158.021 223.424L158.021 218.424L158.021 213.424L143.797 213.424L143.797 218.424ZM158.021 218.424L153.021 218.424L153.021 250.891L158.021 250.891L163.021 250.891L163.021 218.424L158.021 218.424ZM158.021 250.891L158.021 255.891L177.056 255.891L177.056 250.891L177.056 245.891L158.021 245.891L158.021 250.891ZM177.056 250.891L172.056 250.891L172.056 258.629L177.056 258.629L182.056 258.629L182.056 250.891L177.056 250.891ZM177.056 258.629L173.515 255.1L147.367 281.335L150.909 284.865L154.45 288.394L180.598 262.159L177.056 258.629ZM150.909 284.865L154.45 281.335L128.304 255.1L124.762 258.629L121.221 262.159L147.367 288.394L150.909 284.865Z" fill="#303030" mask="url(#path-3-outside-2_161_402)"/>
<mask id="path-5-outside-3_161_402" maskUnits="userSpaceOnUse" x="172.838" y="172.428" width="101.116" height="101.116" fill="black">
<rect fill="white" x="172.838" y="172.428" width="101.116" height="101.116"/>
<path d="M209.233 245.301L203.761 239.83L217.221 226.37L194.264 203.412L204.321 193.355L227.279 216.312L240.739 202.852L246.211 208.324L246.273 245.364L209.233 245.301Z"/>
</mask>
<path d="M209.233 245.301L203.761 239.83L217.221 226.37L194.264 203.412L204.321 193.355L227.279 216.312L240.739 202.852L246.211 208.324L246.273 245.364L209.233 245.301Z" fill="#161616"/>
<path d="M209.233 245.301L205.698 248.837L207.159 250.298L209.225 250.301L209.233 245.301ZM203.761 239.83L200.226 236.294L196.69 239.83L200.226 243.365L203.761 239.83ZM217.221 226.37L220.757 229.905L224.292 226.37L220.757 222.834L217.221 226.37ZM194.264 203.412L190.728 199.877L187.193 203.412L190.728 206.948L194.264 203.412ZM204.321 193.355L207.857 189.819L204.321 186.283L200.786 189.819L204.321 193.355ZM227.279 216.312L223.743 219.848L227.279 223.383L230.814 219.848L227.279 216.312ZM240.739 202.852L244.274 199.317L240.739 195.781L237.203 199.317L240.739 202.852ZM246.211 208.324L251.211 208.316L251.207 206.249L249.746 204.788L246.211 208.324ZM246.273 245.364L246.264 250.364L251.281 250.373L251.273 245.356L246.273 245.364ZM209.233 245.301L212.769 241.766L207.297 236.294L203.761 239.83L200.226 243.365L205.698 248.837L209.233 245.301ZM203.761 239.83L207.297 243.365L220.757 229.905L217.221 226.37L213.686 222.834L200.226 236.294L203.761 239.83ZM217.221 226.37L220.757 222.834L197.799 199.877L194.264 203.412L190.728 206.948L213.686 229.905L217.221 226.37ZM194.264 203.412L197.799 206.948L207.857 196.89L204.321 193.355L200.786 189.819L190.728 199.877L194.264 203.412ZM204.321 193.355L200.786 196.89L223.743 219.848L227.279 216.312L230.814 212.776L207.857 189.819L204.321 193.355ZM227.279 216.312L230.814 219.848L244.274 206.388L240.739 202.852L237.203 199.317L223.743 212.776L227.279 216.312ZM240.739 202.852L237.203 206.388L242.675 211.859L246.211 208.324L249.746 204.788L244.274 199.317L240.739 202.852ZM246.211 208.324L241.211 208.332L241.273 245.373L246.273 245.364L251.273 245.356L251.211 208.316L246.211 208.324ZM246.273 245.364L246.281 240.364L209.242 240.301L209.233 245.301L209.225 250.301L246.264 250.364L246.273 245.364Z" fill="#303030" mask="url(#path-5-outside-3_161_402)"/>
<mask id="path-7-outside-4_161_402" maskUnits="userSpaceOnUse" x="27.3651" y="171.929" width="101.116" height="101.116" fill="black">
<rect fill="white" x="27.3651" y="171.929" width="101.116" height="101.116"/>
<path d="M55.608 208.324L61.0798 202.852L74.5397 216.312L97.4971 193.355L107.555 203.412L84.5973 226.37L98.0572 239.83L92.5854 245.301L55.5451 245.363L55.608 208.324Z"/>
</mask>
<path d="M55.608 208.324L61.0798 202.852L74.5397 216.312L97.4971 193.355L107.555 203.412L84.5973 226.37L98.0572 239.83L92.5854 245.301L55.5451 245.363L55.608 208.324Z" fill="#161616"/>
<path d="M55.608 208.324L52.0724 204.788L50.6115 206.249L50.608 208.315L55.608 208.324ZM61.0798 202.852L64.6153 199.317L61.0798 195.781L57.5442 199.317L61.0798 202.852ZM74.5397 216.312L71.0041 219.848L74.5397 223.383L78.0752 219.848L74.5397 216.312ZM97.4971 193.355L101.033 189.819L97.4971 186.283L93.9616 189.819L97.4971 193.355ZM107.555 203.412L111.09 206.948L114.626 203.412L111.09 199.877L107.555 203.412ZM84.5973 226.37L81.0617 222.834L77.5262 226.37L81.0617 229.905L84.5973 226.37ZM98.0572 239.83L101.593 243.365L105.128 239.83L101.593 236.294L98.0572 239.83ZM92.5854 245.301L92.5938 250.301L94.6599 250.298L96.1209 248.837L92.5854 245.301ZM55.5451 245.363L50.5451 245.355L50.5366 250.372L55.5535 250.363L55.5451 245.363ZM55.608 208.324L59.1435 211.859L64.6153 206.388L61.0798 202.852L57.5442 199.317L52.0724 204.788L55.608 208.324ZM61.0798 202.852L57.5442 206.388L71.0041 219.848L74.5397 216.312L78.0752 212.777L64.6153 199.317L61.0798 202.852ZM74.5397 216.312L78.0752 219.848L101.033 196.89L97.4971 193.355L93.9616 189.819L71.0041 212.777L74.5397 216.312ZM97.4971 193.355L93.9616 196.89L104.019 206.948L107.555 203.412L111.09 199.877L101.033 189.819L97.4971 193.355ZM107.555 203.412L104.019 199.877L81.0617 222.834L84.5973 226.37L88.1328 229.905L111.09 206.948L107.555 203.412ZM84.5973 226.37L81.0617 229.905L94.5216 243.365L98.0572 239.83L101.593 236.294L88.1328 222.834L84.5973 226.37ZM98.0572 239.83L94.5216 236.294L89.0498 241.766L92.5854 245.301L96.1209 248.837L101.593 243.365L98.0572 239.83ZM92.5854 245.301L92.577 240.301L55.5367 240.363L55.5451 245.363L55.5535 250.363L92.5938 250.301L92.5854 245.301ZM55.5451 245.363L60.5451 245.372L60.608 208.332L55.608 208.324L50.608 208.315L50.5451 245.355L55.5451 245.363Z" fill="#303030" mask="url(#path-7-outside-4_161_402)"/>
<mask id="path-9-outside-5_161_402" maskUnits="userSpaceOnUse" x="8.04443" y="118.853" width="80" height="63" fill="black">
<rect fill="white" x="8.04443" y="118.853" width="80" height="63"/>
<path d="M42.2798 176.147L50.0181 176.147L50.0181 157.112L82.4849 157.112L82.4849 142.888L50.0181 142.888L50.0181 123.853L42.2798 123.853L16.0444 150L42.2798 176.147Z"/>
</mask>
<path d="M42.2798 176.147L50.0181 176.147L50.0181 157.112L82.4849 157.112L82.4849 142.888L50.0181 142.888L50.0181 123.853L42.2798 123.853L16.0444 150L42.2798 176.147Z" fill="#161616"/>
<path d="M42.2798 176.147L42.2798 181.147L40.2137 181.147L38.7503 179.688L42.2798 176.147ZM50.0181 176.147L55.0181 176.147L55.0181 181.147L50.0181 181.147L50.0181 176.147ZM50.0181 157.112L45.0181 157.112L45.0181 152.112L50.0181 152.112L50.0181 157.112ZM82.4849 157.112L87.4849 157.112L87.4849 162.112L82.4849 162.112L82.4849 157.112ZM82.4849 142.888L82.4849 137.888L87.4849 137.888L87.4849 142.888L82.4849 142.888ZM50.0181 142.888L50.0181 147.888L45.0181 147.888L45.0181 142.888L50.0181 142.888ZM50.0181 123.853L50.0181 118.853L55.0181 118.853L55.0181 123.853L50.0181 123.853ZM42.2798 123.853L38.7502 120.312L40.2136 118.853L42.2798 118.853L42.2798 123.853ZM16.0444 150L12.5149 153.542L8.96141 150.001L12.5148 146.459L16.0444 150ZM42.2798 176.147L42.2798 171.147L50.0181 171.147L50.0181 176.147L50.0181 181.147L42.2798 181.147L42.2798 176.147ZM50.0181 176.147L45.0181 176.147L45.0181 157.112L50.0181 157.112L55.0181 157.112L55.0181 176.147L50.0181 176.147ZM50.0181 157.112L50.0181 152.112L82.4849 152.112L82.4849 157.112L82.4849 162.112L50.0181 162.112L50.0181 157.112ZM82.4849 157.112L77.4849 157.112L77.4849 142.888L82.4849 142.888L87.4849 142.888L87.4849 157.112L82.4849 157.112ZM82.4849 142.888L82.4849 147.888L50.0181 147.888L50.0181 142.888L50.0181 137.888L82.4849 137.888L82.4849 142.888ZM50.0181 142.888L45.0181 142.888L45.0181 123.853L50.0181 123.853L55.0181 123.853L55.0181 142.888L50.0181 142.888ZM50.0181 123.853L50.0181 128.853L42.2798 128.853L42.2798 123.853L42.2798 118.853L50.0181 118.853L50.0181 123.853ZM42.2798 123.853L45.8094 127.394L19.574 153.542L16.0444 150L12.5148 146.459L38.7502 120.312L42.2798 123.853ZM16.0444 150L19.574 146.459L45.8093 172.605L42.2798 176.147L38.7503 179.688L12.5149 153.542L16.0444 150Z" fill="#303030" mask="url(#path-9-outside-5_161_402)"/>
<mask id="path-11-outside-6_161_402" maskUnits="userSpaceOnUse" x="119.056" y="7.13525" width="63" height="80" fill="black">
<rect fill="white" x="119.056" y="7.13525" width="63" height="80"/>
<path d="M124.762 41.3706L124.762 49.1089L143.797 49.1089L143.797 81.5757L158.021 81.5757L158.021 49.1089L177.056 49.1089V41.3706L150.909 15.1353L124.762 41.3706Z"/>
</mask>
<path d="M124.762 41.3706L124.762 49.1089L143.797 49.1089L143.797 81.5757L158.021 81.5757L158.021 49.1089L177.056 49.1089V41.3706L150.909 15.1353L124.762 41.3706Z" fill="#161616"/>
<path d="M124.762 41.3706L119.762 41.3706V39.3045L121.221 37.8411L124.762 41.3706ZM124.762 49.1089V54.1089L119.762 54.1089V49.1089L124.762 49.1089ZM143.797 49.1089V44.1089L148.797 44.1089V49.1089L143.797 49.1089ZM143.797 81.5757V86.5757L138.797 86.5757V81.5757L143.797 81.5757ZM158.021 81.5757H163.021V86.5757H158.021V81.5757ZM158.021 49.1089L153.021 49.1089V44.1089L158.021 44.1089V49.1089ZM177.056 49.1089L182.056 49.1089V54.1089L177.056 54.1089V49.1089ZM177.056 41.3706L180.598 37.841L182.056 39.3045L182.056 41.3706L177.056 41.3706ZM150.909 15.1353L147.367 11.6057L150.909 8.05223L154.45 11.6057L150.909 15.1353ZM124.762 41.3706L129.762 41.3706V49.1089L124.762 49.1089L119.762 49.1089L119.762 41.3706L124.762 41.3706ZM124.762 49.1089V44.1089L143.797 44.1089V49.1089V54.1089L124.762 54.1089V49.1089ZM143.797 49.1089L148.797 49.1089L148.797 81.5757L143.797 81.5757L138.797 81.5757L138.797 49.1089L143.797 49.1089ZM143.797 81.5757V76.5757L158.021 76.5757V81.5757V86.5757L143.797 86.5757V81.5757ZM158.021 81.5757L153.021 81.5757L153.021 49.1089L158.021 49.1089L163.021 49.1089L163.021 81.5757H158.021ZM158.021 49.1089V44.1089L177.056 44.1089V49.1089V54.1089L158.021 54.1089V49.1089ZM177.056 49.1089L172.056 49.1089V41.3706L177.056 41.3706L182.056 41.3706V49.1089L177.056 49.1089ZM177.056 41.3706L173.515 44.9002L147.367 18.6649L150.909 15.1353L154.45 11.6057L180.598 37.841L177.056 41.3706ZM150.909 15.1353L154.45 18.6648L128.304 44.9001L124.762 41.3706L121.221 37.8411L147.367 11.6057L150.909 15.1353Z" fill="#303030" mask="url(#path-11-outside-6_161_402)"/>
<mask id="path-13-outside-7_161_402" maskUnits="userSpaceOnUse" x="27.3651" y="26.9551" width="101.116" height="101.116" fill="black">
<rect fill="white" x="27.3651" y="26.9551" width="101.116" height="101.116"/>
<path d="M55.608 91.6761L61.0798 97.1478L74.5397 83.688L97.4971 106.645L107.555 96.5878L84.5973 73.6303L98.0572 60.1704L92.5854 54.6987L55.5451 54.6365L55.608 91.6761Z"/>
</mask>
<path d="M55.608 91.6761L61.0798 97.1478L74.5397 83.688L97.4971 106.645L107.555 96.5878L84.5973 73.6303L98.0572 60.1704L92.5854 54.6987L55.5451 54.6365L55.608 91.6761Z" fill="#161616"/>
<path d="M55.608 91.6761L52.0724 95.2116L50.6115 93.7506L50.608 91.6845L55.608 91.6761ZM61.0798 97.1478L64.6153 100.683L61.0798 104.219L57.5442 100.683L61.0798 97.1478ZM74.5397 83.688L71.0041 80.1524L74.5397 76.6169L78.0752 80.1524L74.5397 83.688ZM97.4971 106.645L101.033 110.181L97.4971 113.717L93.9616 110.181L97.4971 106.645ZM107.555 96.5878L111.09 93.0523L114.626 96.5878L111.09 100.123L107.555 96.5878ZM84.5973 73.6303L81.0617 77.1659L77.5262 73.6303L81.0617 70.0948L84.5973 73.6303ZM98.0572 60.1704L101.593 56.6349L105.128 60.1704L101.593 63.706L98.0572 60.1704ZM92.5854 54.6987L92.5938 49.6987L94.6599 49.7021L96.1209 51.1631L92.5854 54.6987ZM55.5451 54.6365L50.5451 54.645L50.5366 49.6281L55.5535 49.6365L55.5451 54.6365ZM55.608 91.6761L59.1435 88.1405L64.6153 93.6123L61.0798 97.1478L57.5442 100.683L52.0724 95.2116L55.608 91.6761ZM61.0798 97.1478L57.5442 93.6123L71.0041 80.1524L74.5397 83.688L78.0752 87.2235L64.6153 100.683L61.0798 97.1478ZM74.5397 83.688L78.0752 80.1524L101.033 103.11L97.4971 106.645L93.9616 110.181L71.0041 87.2235L74.5397 83.688ZM97.4971 106.645L93.9616 103.11L104.019 93.0523L107.555 96.5878L111.09 100.123L101.033 110.181L97.4971 106.645ZM107.555 96.5878L104.019 100.123L81.0617 77.1659L84.5973 73.6303L88.1328 70.0948L111.09 93.0523L107.555 96.5878ZM84.5973 73.6303L81.0617 70.0948L94.5216 56.6349L98.0572 60.1704L101.593 63.706L88.1328 77.1659L84.5973 73.6303ZM98.0572 60.1704L94.5216 63.706L89.0498 58.2342L92.5854 54.6987L96.1209 51.1631L101.593 56.6349L98.0572 60.1704ZM92.5854 54.6987L92.577 59.6986L55.5367 59.6365L55.5451 54.6365L55.5535 49.6365L92.5938 49.6987L92.5854 54.6987ZM55.5451 54.6365L60.5451 54.628L60.608 91.6676L55.608 91.6761L50.608 91.6845L50.5451 54.645L55.5451 54.6365Z" fill="#303030" mask="url(#path-13-outside-7_161_402)"/>
<mask id="path-15-outside-8_161_402" maskUnits="userSpaceOnUse" x="172.838" y="26.4558" width="101.116" height="101.116" fill="black">
<rect fill="white" x="172.838" y="26.4558" width="101.116" height="101.116"/>
<path d="M209.233 54.6987L203.761 60.1705L217.221 73.6303L194.264 96.5878L204.321 106.645L227.279 83.688L240.739 97.1479L246.211 91.6761L246.273 54.6358L209.233 54.6987Z"/>
</mask>
<path d="M209.233 54.6987L203.761 60.1705L217.221 73.6303L194.264 96.5878L204.321 106.645L227.279 83.688L240.739 97.1479L246.211 91.6761L246.273 54.6358L209.233 54.6987Z" fill="#161616"/>
<path d="M209.233 54.6987L205.698 51.1631L207.159 49.7022L209.225 49.6987L209.233 54.6987ZM203.761 60.1705L200.226 63.706L196.69 60.1705L200.226 56.6349L203.761 60.1705ZM217.221 73.6303L220.757 70.0948L224.292 73.6303L220.757 77.1659L217.221 73.6303ZM194.264 96.5878L190.728 100.123L187.193 96.5878L190.728 93.0523L194.264 96.5878ZM204.321 106.645L207.857 110.181L204.321 113.717L200.786 110.181L204.321 106.645ZM227.279 83.688L223.743 80.1524L227.279 76.6169L230.814 80.1524L227.279 83.688ZM240.739 97.1479L244.274 100.683L240.739 104.219L237.203 100.683L240.739 97.1479ZM246.211 91.6761L251.211 91.6845L251.207 93.7506L249.746 95.2116L246.211 91.6761ZM246.273 54.6358L246.264 49.6358L251.281 49.6273L251.273 54.6442L246.273 54.6358ZM209.233 54.6987L212.769 58.2342L207.297 63.706L203.761 60.1705L200.226 56.6349L205.698 51.1631L209.233 54.6987ZM203.761 60.1705L207.297 56.6349L220.757 70.0948L217.221 73.6303L213.686 77.1659L200.226 63.706L203.761 60.1705ZM217.221 73.6303L220.757 77.1659L197.799 100.123L194.264 96.5878L190.728 93.0523L213.686 70.0948L217.221 73.6303ZM194.264 96.5878L197.799 93.0523L207.857 103.11L204.321 106.645L200.786 110.181L190.728 100.123L194.264 96.5878ZM204.321 106.645L200.786 103.11L223.743 80.1524L227.279 83.688L230.814 87.2235L207.857 110.181L204.321 106.645ZM227.279 83.688L230.814 80.1524L244.274 93.6123L240.739 97.1479L237.203 100.683L223.743 87.2235L227.279 83.688ZM240.739 97.1479L237.203 93.6123L242.675 88.1405L246.211 91.6761L249.746 95.2116L244.274 100.683L240.739 97.1479ZM246.211 91.6761L241.211 91.6677L241.273 54.6274L246.273 54.6358L251.273 54.6442L251.211 91.6845L246.211 91.6761ZM246.273 54.6358L246.281 59.6358L209.242 59.6987L209.233 54.6987L209.225 49.6987L246.264 49.6358L246.273 54.6358Z" fill="#303030" mask="url(#path-15-outside-8_161_402)"/>
<mask id="path-17-outside-9_161_402" maskUnits="userSpaceOnUse" x="118.762" y="6.13525" width="65" height="82" fill="black">
<rect fill="white" x="118.762" y="6.13525" width="65" height="82"/>
<path d="M177.056 41.3706V49.1089H158.021V81.5757H143.797V49.1089H124.762V41.3706L150.91 15.1353L177.056 41.3706Z"/>
</mask>
<path d="M177.056 41.3706V49.1089H158.021V81.5757H143.797V49.1089H124.762V41.3706L150.91 15.1353L177.056 41.3706Z" fill="white"/>
<path d="M177.056 41.3706H183.056V38.8913L181.306 37.1352L177.056 41.3706ZM177.056 49.1089V55.1089L183.056 55.1089V49.1089L177.056 49.1089ZM158.021 49.1089V43.1089H152.021V49.1089H158.021ZM158.021 81.5757V87.5757H164.021V81.5757H158.021ZM143.797 81.5757H137.797V87.5757H143.797V81.5757ZM143.797 49.1089H149.797V43.1089H143.797V49.1089ZM124.762 49.1089H118.762V55.1089H124.762V49.1089ZM124.762 41.3706L120.512 37.1351L118.762 38.8912V41.3706H124.762ZM150.91 15.1353L155.16 10.8998L150.91 6.63562L146.66 10.8997L150.91 15.1353ZM177.056 41.3706H171.056V49.1089H177.056L183.056 49.1089V41.3706H177.056ZM177.056 49.1089V43.1089H158.021V49.1089V55.1089H177.056V49.1089ZM158.021 49.1089H152.021V81.5757H158.021H164.021V49.1089H158.021ZM158.021 81.5757V75.5757H143.797V81.5757V87.5757H158.021V81.5757ZM143.797 81.5757H149.797V49.1089H143.797H137.797V81.5757H143.797ZM143.797 49.1089V43.1089H124.762V49.1089V55.1089H143.797V49.1089ZM124.762 49.1089H130.762V41.3706H124.762H118.762V49.1089H124.762ZM124.762 41.3706L129.012 45.6061L155.159 19.3708L150.91 15.1353L146.66 10.8997L120.512 37.1351L124.762 41.3706ZM150.91 15.1353L146.66 19.3707L172.806 45.606L177.056 41.3706L181.306 37.1352L155.16 10.8998L150.91 15.1353Z" fill="black" mask="url(#path-17-outside-9_161_402)"/>
</svg>
