<svg width="288" height="287" viewBox="0 0 288 287" fill="none" xmlns="http://www.w3.org/2000/svg">
<path d="M131.354 8.2082C139.896 6.67253 148.644 6.67253 157.186 8.2082L245.893 24.1552C254.943 25.7821 262.027 32.8656 263.653 41.9155L279.6 130.622C281.136 139.165 281.136 147.912 279.6 156.455L263.653 245.162C262.027 254.212 254.943 261.295 245.893 262.922L157.186 278.869C148.644 280.405 139.896 280.405 131.354 278.869L42.6469 262.922C33.597 261.295 26.5135 254.212 24.8866 245.162L8.93965 156.455C7.40397 147.912 7.40398 139.165 8.93965 130.622L24.8866 41.9155C26.5135 32.8656 33.597 25.7821 42.6469 24.1552L131.354 8.2082Z" fill="#1B1D1D" fill-opacity="0.85"/>
<path d="M132.061 12.145C140.135 10.6935 148.405 10.6935 156.479 12.145L245.185 28.0923C252.59 29.4234 258.385 35.2191 259.716 42.6235L275.664 131.33C277.115 139.404 277.115 147.673 275.664 155.748L259.716 244.454C258.385 251.858 252.59 257.654 245.185 258.985L156.479 274.932C148.405 276.384 140.135 276.384 132.061 274.932L43.355 258.985C35.9505 257.654 30.1548 251.858 28.8237 244.454L12.8765 155.748C11.4249 147.673 11.4249 139.404 12.8765 131.33L28.8237 42.6235C30.1548 35.2191 35.9505 29.4234 43.355 28.0923L132.061 12.145Z" stroke="#EEEEEE" stroke-opacity="0.1" stroke-width="8"/>
<path d="M128.695 6.58911C138.986 4.63532 149.554 4.63532 159.845 6.58911L244.795 22.717C255.087 24.671 263.137 32.7209 265.091 43.0129L281.22 127.964C283.173 138.255 283.174 148.822 281.22 159.114L265.091 244.064C263.137 254.356 255.087 262.406 244.795 264.36L159.845 280.489C149.554 282.442 138.986 282.442 128.695 280.489L43.7441 264.36C33.4521 262.405 25.4022 254.356 23.4482 244.064L7.32031 159.114C5.36652 148.822 5.36652 138.255 7.32031 127.964L23.4482 43.0129C25.4023 32.721 33.4522 24.6711 43.7441 22.717L128.695 6.58911Z" stroke="black" stroke-width="7"/>
</svg>
