<svg width="288" height="288" viewBox="0 0 288 288" fill="none" xmlns="http://www.w3.org/2000/svg">
<path d="M129.578 11.1042C139.314 9.25582 149.312 9.25582 159.048 11.1042L244.022 27.2371C252.498 28.8462 259.128 35.476 260.737 43.9519L276.87 128.927C278.719 138.663 278.719 148.66 276.87 158.396L260.737 243.371C259.128 251.847 252.498 258.477 244.022 260.086L159.048 276.219C149.312 278.067 139.314 278.067 129.578 276.219L44.6035 260.086C36.1276 258.477 29.4979 251.847 27.8887 243.371L11.7559 158.396C9.90743 148.66 9.90743 138.663 11.7559 128.927L27.8887 43.9519C29.4979 35.476 36.1276 28.8462 44.6035 27.2371L129.578 11.1042Z" stroke="black" stroke-width="16"/>
<path d="M131.396 10.5959C139.939 9.06023 148.687 9.06023 157.229 10.5959L244.016 26.1977C253.066 27.8246 260.149 34.9082 261.776 43.9581L277.378 130.745C278.914 139.287 278.914 148.035 277.378 156.578L261.776 243.365C260.149 252.415 253.066 259.498 244.016 261.125L157.229 276.727C148.687 278.263 139.939 278.263 131.396 276.727L44.6094 261.125C35.5595 259.498 28.476 252.415 26.8491 243.365L11.2473 156.578C9.71159 148.035 9.71159 139.287 11.2473 130.745L26.8491 43.9581C28.476 34.9082 35.5595 27.8246 44.6094 26.1977L131.396 10.5959Z" fill="#1B1D1D" fill-opacity="0.85"/>
<path d="M132.104 14.5327C140.178 13.0812 148.447 13.0812 156.521 14.5327L243.308 30.1343C250.712 31.4654 256.508 37.2612 257.839 44.6655L273.441 131.453C274.892 139.527 274.892 147.795 273.441 155.87L257.839 242.657C256.508 250.061 250.713 255.857 243.308 257.188L156.521 272.79C148.447 274.241 140.178 274.241 132.104 272.79L45.3169 257.188C37.9126 255.857 32.1167 250.061 30.7856 242.657L15.1841 155.87C13.7326 147.795 13.7326 139.527 15.1841 131.453L30.7856 44.6655C32.1168 37.2612 37.9126 31.4654 45.3169 30.1343L132.104 14.5327Z" stroke="#EEEEEE" stroke-opacity="0.15" stroke-width="8"/>
</svg>
