<svg width="100" height="100" viewBox="0 0 100 100" fill="none" xmlns="http://www.w3.org/2000/svg">
<g filter="url(#filter0_d_194_484)">
<mask id="path-1-inside-1_194_484" fill="white">
<path d="M95.5992 49.9999L69.2916 76.3076V61.3779H31.068V38.622H69.2916V23.6923L95.5992 49.9999Z"/>
</mask>
<path d="M95.5992 49.9999L69.2916 76.3076V61.3779H31.068V38.622H69.2916V23.6923L95.5992 49.9999Z" fill="#FEF6FA" fill-opacity="0.5" shape-rendering="crispEdges"/>
<path d="M95.5992 49.9999L99.1348 53.5355L102.67 49.9999L99.1348 46.4644L95.5992 49.9999ZM69.2916 76.3076H64.2916V88.3786L72.8272 79.8431L69.2916 76.3076ZM69.2916 61.3779H74.2916V56.3779H69.2916V61.3779ZM31.068 61.3779H26.068V66.3779H31.068V61.3779ZM31.068 38.622V33.622H26.068V38.622H31.068ZM69.2916 38.622V43.622H74.2916V38.622H69.2916ZM69.2916 23.6923L72.8272 20.1568L64.2916 11.6213V23.6923H69.2916ZM95.5992 49.9999L92.0637 46.4644L65.7561 72.772L69.2916 76.3076L72.8272 79.8431L99.1348 53.5355L95.5992 49.9999ZM69.2916 76.3076H74.2916V61.3779H69.2916H64.2916V76.3076H69.2916ZM69.2916 61.3779V56.3779H31.068V61.3779V66.3779H69.2916V61.3779ZM31.068 61.3779H36.068V38.622H31.068H26.068V61.3779H31.068ZM31.068 38.622V43.622H69.2916V38.622V33.622H31.068V38.622ZM69.2916 38.622H74.2916V23.6923H69.2916H64.2916V38.622H69.2916ZM69.2916 23.6923L65.7561 27.2279L92.0637 53.5355L95.5992 49.9999L99.1348 46.4644L72.8272 20.1568L69.2916 23.6923Z" fill="white" mask="url(#path-1-inside-1_194_484)"/>
</g>
<defs>
<filter id="filter0_d_194_484" x="27.068" y="19.6923" width="72.5312" height="60.6152" filterUnits="userSpaceOnUse" color-interpolation-filters="sRGB">
<feFlood flood-opacity="0" result="BackgroundImageFix"/>
<feColorMatrix in="SourceAlpha" type="matrix" values="0 0 0 0 0 0 0 0 0 0 0 0 0 0 0 0 0 0 127 0" result="hardAlpha"/>
<feOffset/>
<feGaussianBlur stdDeviation="2"/>
<feComposite in2="hardAlpha" operator="out"/>
<feColorMatrix type="matrix" values="0 0 0 0 0 0 0 0 0 0 0 0 0 0 0 0 0 0 0.5 0"/>
<feBlend mode="normal" in2="BackgroundImageFix" result="effect1_dropShadow_194_484"/>
<feBlend mode="normal" in="SourceGraphic" in2="effect1_dropShadow_194_484" result="shape"/>
</filter>
</defs>
</svg>
