<svg width="151" height="151" viewBox="0 0 151 151" fill="none" xmlns="http://www.w3.org/2000/svg">
<path d="M150.486 76.2641V14.7532C150.486 14.7532 96.5005 70.4886 91.7911 74.4939C87.0818 78.4992 83.5923 82.6807 79.6621 81.1305C73.5499 78.7195 48.2948 66.2114 43.0071 60.778C37.7195 55.3446 34.3227 50.1453 31.675 45.1368C30.4409 42.8024 22.4445 44.5965 20.2287 49.1745C18.2744 53.2123 18.4757 57.9937 20.8245 61.7511C23.1732 65.5086 27.8578 69.0746 29.5168 71.4023C30.833 73.249 27.9791 82.6644 33.7565 90.8747C39.534 99.085 56.6808 105.949 58.6064 109.328C61.1119 113.725 60.4123 124.947 64.8824 129.038C72.2375 135.768 81.3193 134.982 86.6679 130.653C92.5228 125.913 97.2483 112.969 98.5105 111.503C106.11 102.675 150.486 76.2641 150.486 76.2641Z" fill="white"/>
</svg>
