<svg width="101" height="100" viewBox="0 0 101 100" fill="none" xmlns="http://www.w3.org/2000/svg">
<g opacity="0.8">
<g filter="url(#filter0_d_207_13)">
<mask id="path-1-inside-1_207_13" fill="white">
<path d="M17.1532 50.0001L43.4608 23.6924L43.4608 38.6221L81.6844 38.6221L81.6844 61.378L43.4608 61.378L43.4608 76.3077L17.1532 50.0001Z"/>
</mask>
<path d="M17.1532 50.0001L43.4608 23.6924L43.4608 38.6221L81.6844 38.6221L81.6844 61.378L43.4608 61.378L43.4608 76.3077L17.1532 50.0001Z" fill="#FEF6FA" fill-opacity="0.5" shape-rendering="crispEdges"/>
<path d="M17.1532 50.0001L13.6177 46.4645L10.0821 50.0001L13.6177 53.5356L17.1532 50.0001ZM43.4608 23.6924L48.4608 23.6924L48.4608 11.6214L39.9253 20.1569L43.4608 23.6924ZM43.4608 38.6221L38.4608 38.6221L38.4608 43.6221L43.4608 43.6221L43.4608 38.6221ZM81.6844 38.6221L86.6844 38.6221L86.6844 33.6221L81.6844 33.6221L81.6844 38.6221ZM81.6844 61.378L81.6844 66.378L86.6844 66.378L86.6844 61.378L81.6844 61.378ZM43.4608 61.378L43.4608 56.378L38.4608 56.378L38.4608 61.378L43.4608 61.378ZM43.4608 76.3077L39.9253 79.8432L48.4608 88.3787L48.4608 76.3077L43.4608 76.3077ZM17.1532 50.0001L20.6887 53.5356L46.9963 27.228L43.4608 23.6924L39.9253 20.1569L13.6177 46.4645L17.1532 50.0001ZM43.4608 23.6924L38.4608 23.6924L38.4608 38.6221L43.4608 38.6221L48.4608 38.6221L48.4608 23.6924L43.4608 23.6924ZM43.4608 38.6221L43.4608 43.6221L81.6844 43.6221L81.6844 38.6221L81.6844 33.6221L43.4608 33.6221L43.4608 38.6221ZM81.6844 38.6221L76.6844 38.6221L76.6844 61.378L81.6844 61.378L86.6844 61.378L86.6844 38.6221L81.6844 38.6221ZM81.6844 61.378L81.6844 56.378L43.4608 56.378L43.4608 61.378L43.4608 66.378L81.6844 66.378L81.6844 61.378ZM43.4608 61.378L38.4608 61.378L38.4608 76.3077L43.4608 76.3077L48.4608 76.3077L48.4608 61.378L43.4608 61.378ZM43.4608 76.3077L46.9963 72.7721L20.6887 46.4645L17.1532 50.0001L13.6177 53.5356L39.9253 79.8432L43.4608 76.3077Z" fill="white" mask="url(#path-1-inside-1_207_13)"/>
</g>
</g>
<defs>
<filter id="filter0_d_207_13" x="13.1532" y="19.6924" width="72.5312" height="60.6152" filterUnits="userSpaceOnUse" color-interpolation-filters="sRGB">
<feFlood flood-opacity="0" result="BackgroundImageFix"/>
<feColorMatrix in="SourceAlpha" type="matrix" values="0 0 0 0 0 0 0 0 0 0 0 0 0 0 0 0 0 0 127 0" result="hardAlpha"/>
<feOffset/>
<feGaussianBlur stdDeviation="2"/>
<feComposite in2="hardAlpha" operator="out"/>
<feColorMatrix type="matrix" values="0 0 0 0 0 0 0 0 0 0 0 0 0 0 0 0 0 0 0.5 0"/>
<feBlend mode="normal" in2="BackgroundImageFix" result="effect1_dropShadow_207_13"/>
<feBlend mode="normal" in="SourceGraphic" in2="effect1_dropShadow_207_13" result="shape"/>
</filter>
</defs>
</svg>
