<svg width="150" height="150" viewBox="0 0 150 150" fill="none" xmlns="http://www.w3.org/2000/svg">
<path d="M122.484 81.4483C123.569 84.7043 122.186 88.2787 119.207 89.9219L114.975 92.2565C113.437 93.1049 112.954 95.0871 113.929 96.5482L149.588 150H85.7727L71.2934 119.968C70.5457 118.417 68.6492 117.812 67.1418 118.644L62.7691 121.057C60.1418 122.506 56.8536 121.601 55.3111 119.004L50.0101 110.079L100.042 80.4412L97.7288 76.3411C96.9632 74.9842 95.2567 74.5132 93.9175 75.2891L79.5885 83.5907C77.74 84.6616 75.3926 84.1574 74.1321 82.4187L69.809 76.4555C68.8176 75.088 69.2289 73.1501 70.6875 72.3163L108.707 50.5828C110.233 49.7104 112.166 50.4606 112.726 52.1426L122.484 81.4483Z" fill="white" fill-opacity="0.45"/>
<path d="M59.0858 95.3787C59.9707 96.7351 59.5479 98.5661 58.161 99.3841L47.1463 105.881C45.8811 106.627 44.262 106.257 43.4356 105.033L18.1998 67.6483C17.2849 66.293 17.697 64.436 19.0964 63.6078L30.7116 56.7339C31.9917 55.9763 33.633 56.364 34.4504 57.617L59.0858 95.3787Z" fill="white" fill-opacity="0.45"/>
<path d="M69.0825 69.2271L64.9569 71.6698C63.5037 72.5302 63.1263 74.4877 64.1532 75.8389L74.6549 89.6568L66.805 94.2866C65.4983 95.0573 63.8235 94.6346 63.0264 93.333L39.4926 54.9016C38.6641 53.5486 39.1002 51.7699 40.4571 50.9668L50.9093 44.781C52.2162 44.0075 53.8933 44.4294 54.6913 45.7322L69.0825 69.2271Z" fill="white" fill-opacity="0.45"/>
<path d="M87.0528 58.5902L73.167 66.8093L59.7718 42.7644C59.0216 41.4178 59.4775 39.7104 60.7955 38.9305L70.8273 32.9943C72.2124 32.1746 73.9929 32.7028 74.7229 34.1498L87.0528 58.5902Z" fill="white" fill-opacity="0.45"/>
<path d="M104.613 48.1965L92.7751 55.2025L80.3684 30.4313C79.6994 29.0956 80.1738 27.4631 81.4506 26.7077L90.1645 21.552C91.6224 20.6895 93.4964 21.3243 94.149 22.9017L104.613 48.1965Z" fill="white" fill-opacity="0.45"/>
</svg>
