<svg width="151" height="151" viewBox="0 0 151 151" fill="none" xmlns="http://www.w3.org/2000/svg">
<path d="M123.048 82.43C124.133 85.6859 122.75 89.2604 119.771 90.9036L115.539 93.2382C114.001 94.0865 113.518 96.0688 114.493 97.5299L150.153 150.982H86.3368L71.8575 120.95C71.1098 119.399 69.2133 118.794 67.7059 119.626L63.3332 122.038C60.7059 123.488 57.4177 122.583 55.8752 119.986L50.5742 111.061L100.606 81.4229L98.2929 77.3228C97.5273 75.9659 95.8208 75.4949 94.4816 76.2708L80.1526 84.5724C78.3041 85.6433 75.9567 85.1391 74.6962 83.4004L70.3731 77.4372C69.3817 76.0697 69.793 74.1318 71.2516 73.298L109.271 51.5644C110.797 50.6921 112.73 51.4422 113.29 53.1243L123.048 82.43Z" fill="white"/>
<path d="M59.6499 96.3604C60.5348 97.7168 60.112 99.5478 58.7251 100.366L47.7103 106.862C46.4452 107.608 44.826 107.238 43.9997 106.014L18.7639 68.6299C17.849 67.2747 18.2611 65.4177 19.6605 64.5895L31.2756 57.7156C32.5558 56.958 34.1971 57.3457 35.0145 58.5987L59.6499 96.3604Z" fill="white"/>
<path d="M69.6466 70.2088L65.521 72.6515C64.0678 73.5119 63.6904 75.4694 64.7173 76.8206L75.219 90.6385L67.3691 95.2683C66.0624 96.039 64.3876 95.6163 63.5905 94.3146L40.0567 55.8832C39.2282 54.5303 39.6643 52.7516 41.0212 51.9485L51.4734 45.7626C52.7803 44.9892 54.4574 45.4111 55.2554 46.7139L69.6466 70.2088Z" fill="white"/>
<path d="M87.6169 59.5719L73.7311 67.791L60.3359 43.7461C59.5857 42.3995 60.0416 40.6921 61.3596 39.9122L71.3913 33.976C72.7765 33.1563 74.557 33.6845 75.287 35.1315L87.6169 59.5719Z" fill="white"/>
<path d="M105.177 49.1782L93.3392 56.1842L80.9325 31.413C80.2635 30.0773 80.7379 28.4448 82.0146 27.6894L90.7286 22.5337C92.1864 21.6712 94.0605 22.306 94.7131 23.8834L105.177 49.1782Z" fill="white"/>
</svg>
