<svg width="151" height="150" viewBox="0 0 151 150" fill="none" xmlns="http://www.w3.org/2000/svg">
<path d="M0.857422 57.1671V105.289L20.9174 105.586C23.9076 105.63 26.7416 106.929 28.7273 109.165C31.7793 112.601 35.9931 114.79 40.5599 115.31L60.6915 117.603L102.993 126.978C104.833 127.385 106.748 126.743 107.969 125.308C109.546 123.456 110.257 121.019 109.923 118.609L109.905 118.477C109.612 116.358 108.067 114.627 105.996 114.096L83.9932 108.452C83.1631 108.239 82.6351 107.425 82.7794 106.58L83.0341 105.089C83.1791 104.24 83.9539 103.646 84.8113 103.727L123.495 107.37C126.131 107.618 128.635 106.171 129.735 103.762L130.026 103.124C130.864 101.29 131.151 99.2514 130.853 97.257C130.432 94.4478 128.16 92.2818 125.333 91.9973L85.964 88.0331C85.1229 87.9484 84.4827 87.2405 84.4826 86.3951L84.4826 84.7574C84.4825 83.8579 85.2045 83.1248 86.104 83.1112L131.058 82.4316C133.686 82.3919 136.007 80.6697 136.831 78.1746C137.678 75.6101 137.683 72.8193 136.832 70.2561C136.001 67.7519 133.654 66.0658 131.015 66.0772L86.1361 66.2706C85.2241 66.2745 84.4827 65.5363 84.4827 64.6242V62.4974C84.4827 61.6507 85.1249 60.942 85.9675 60.859L122.781 57.23C125.391 56.9727 127.559 55.1062 128.201 52.5637L128.267 52.3008C128.817 50.124 128.65 47.8277 127.79 45.7536L127.589 45.2701C126.554 42.7725 124.023 41.2301 121.329 41.4541L69.4336 45.7685C68.3074 45.8621 67.3757 46.6828 67.1408 47.7882L61.7169 73.3047C60.6934 78.1197 58.5855 82.6378 55.5536 86.5157L47.0082 97.4453C46.3932 95.776 46.5802 93.9165 47.5154 92.4031L51.972 85.1906C53.8402 82.1671 55.1794 78.8475 55.9323 75.3741L61.7035 48.7474C62.0392 47.1985 62.6897 45.7352 63.6147 44.4483C64.2788 43.5245 65.0844 42.7113 66.002 42.0387L76.8755 34.0686C79.7009 31.9976 81.3055 28.6523 81.1521 25.1525L81.1394 24.8627C81.0708 23.2975 80.3461 21.8335 79.1429 20.83C76.843 18.9115 73.5532 18.7405 71.0667 20.4101L16.326 57.1671H0.857422Z" fill="white"/>
</svg>
