<svg width="22" height="22" viewBox="0 0 22 22" fill="none" xmlns="http://www.w3.org/2000/svg">
<g filter="url(#filter0_i_380_1026)">
<circle cx="10.7653" cy="10.9996" r="9.99962" fill="url(#paint0_radial_380_1026)"/>
</g>
<circle cx="10.7653" cy="10.9996" r="10.2496" stroke="black" stroke-width="0.5"/>
<g filter="url(#filter1_d_380_1026)">
<path d="M4.59091 6.2312C4.59091 6.09313 4.70284 5.9812 4.84091 5.9812H17.1591C17.2972 5.9812 17.4091 6.09313 17.4091 6.2312V7.60059C17.4091 7.73866 17.2972 7.85059 17.1591 7.85059H4.84091C4.70284 7.85059 4.59091 7.73866 4.59091 7.60059V6.2312Z" fill="#FFFDFF"/>
</g>
<g filter="url(#filter2_d_380_1026)">
<path d="M4.59091 10.3152C4.59091 10.1771 4.70284 10.0652 4.84091 10.0652H17.1591C17.2972 10.0652 17.4091 10.1771 17.4091 10.3152V11.6846C17.4091 11.8226 17.2972 11.9346 17.1591 11.9346H4.84091C4.70284 11.9346 4.59091 11.8226 4.59091 11.6846V10.3152Z" fill="#FFFDFF"/>
</g>
<g filter="url(#filter3_d_380_1026)">
<path d="M4.59091 14.3994C4.59091 14.2613 4.70284 14.1494 4.84091 14.1494H17.1591C17.2972 14.1494 17.4091 14.2613 17.4091 14.3994V15.7688C17.4091 15.9069 17.2972 16.0188 17.1591 16.0188H4.84091C4.70284 16.0188 4.59091 15.9069 4.59091 15.7688V14.3994Z" fill="#FFFDFF"/>
</g>
<defs>
<filter id="filter0_i_380_1026" x="0.265717" y="0.5" width="20.9993" height="20.9993" filterUnits="userSpaceOnUse" color-interpolation-filters="sRGB">
<feFlood flood-opacity="0" result="BackgroundImageFix"/>
<feBlend mode="normal" in="SourceGraphic" in2="BackgroundImageFix" result="shape"/>
<feColorMatrix in="SourceAlpha" type="matrix" values="0 0 0 0 0 0 0 0 0 0 0 0 0 0 0 0 0 0 127 0" result="hardAlpha"/>
<feMorphology radius="1" operator="erode" in="SourceAlpha" result="effect1_innerShadow_380_1026"/>
<feOffset/>
<feGaussianBlur stdDeviation="0.5"/>
<feComposite in2="hardAlpha" operator="arithmetic" k2="-1" k3="1"/>
<feColorMatrix type="matrix" values="0 0 0 0 1 0 0 0 0 0.972549 0 0 0 0 0.952941 0 0 0 0.3 0"/>
<feBlend mode="plus-lighter" in2="shape" result="effect1_innerShadow_380_1026"/>
</filter>
<filter id="filter1_d_380_1026" x="4.09091" y="5.9812" width="13.8182" height="2.86938" filterUnits="userSpaceOnUse" color-interpolation-filters="sRGB">
<feFlood flood-opacity="0" result="BackgroundImageFix"/>
<feColorMatrix in="SourceAlpha" type="matrix" values="0 0 0 0 0 0 0 0 0 0 0 0 0 0 0 0 0 0 127 0" result="hardAlpha"/>
<feOffset dy="0.5"/>
<feGaussianBlur stdDeviation="0.25"/>
<feComposite in2="hardAlpha" operator="out"/>
<feColorMatrix type="matrix" values="0 0 0 0 0 0 0 0 0 0 0 0 0 0 0 0 0 0 1 0"/>
<feBlend mode="normal" in2="BackgroundImageFix" result="effect1_dropShadow_380_1026"/>
<feBlend mode="normal" in="SourceGraphic" in2="effect1_dropShadow_380_1026" result="shape"/>
</filter>
<filter id="filter2_d_380_1026" x="4.09091" y="10.0652" width="13.8182" height="2.86938" filterUnits="userSpaceOnUse" color-interpolation-filters="sRGB">
<feFlood flood-opacity="0" result="BackgroundImageFix"/>
<feColorMatrix in="SourceAlpha" type="matrix" values="0 0 0 0 0 0 0 0 0 0 0 0 0 0 0 0 0 0 127 0" result="hardAlpha"/>
<feOffset dy="0.5"/>
<feGaussianBlur stdDeviation="0.25"/>
<feComposite in2="hardAlpha" operator="out"/>
<feColorMatrix type="matrix" values="0 0 0 0 0 0 0 0 0 0 0 0 0 0 0 0 0 0 1 0"/>
<feBlend mode="normal" in2="BackgroundImageFix" result="effect1_dropShadow_380_1026"/>
<feBlend mode="normal" in="SourceGraphic" in2="effect1_dropShadow_380_1026" result="shape"/>
</filter>
<filter id="filter3_d_380_1026" x="4.09091" y="14.1494" width="13.8182" height="2.86938" filterUnits="userSpaceOnUse" color-interpolation-filters="sRGB">
<feFlood flood-opacity="0" result="BackgroundImageFix"/>
<feColorMatrix in="SourceAlpha" type="matrix" values="0 0 0 0 0 0 0 0 0 0 0 0 0 0 0 0 0 0 127 0" result="hardAlpha"/>
<feOffset dy="0.5"/>
<feGaussianBlur stdDeviation="0.25"/>
<feComposite in2="hardAlpha" operator="out"/>
<feColorMatrix type="matrix" values="0 0 0 0 0 0 0 0 0 0 0 0 0 0 0 0 0 0 1 0"/>
<feBlend mode="normal" in2="BackgroundImageFix" result="effect1_dropShadow_380_1026"/>
<feBlend mode="normal" in="SourceGraphic" in2="effect1_dropShadow_380_1026" result="shape"/>
</filter>
<radialGradient id="paint0_radial_380_1026" cx="0" cy="0" r="1" gradientUnits="userSpaceOnUse" gradientTransform="translate(17.0672 3.05477) rotate(125.127) scale(21.9403 52.3618)">
<stop offset="0.0202112" stop-color="#F7F7F7"/>
<stop offset="0.247022" stop-color="#101010"/>
<stop offset="0.958945" stop-color="#323232"/>
</radialGradient>
</defs>
</svg>
