<svg width="26" height="23" viewBox="0 0 26 23" fill="none" xmlns="http://www.w3.org/2000/svg">
<mask id="path-1-outside-1_380_1142" maskUnits="userSpaceOnUse" x="8.74228e-08" y="-4.37114e-08" width="26" height="23" fill="black">
<rect fill="white" x="8.74228e-08" y="-4.37114e-08" width="26" height="23"/>
<path d="M15.6475 16.2168L15.6475 21.001L25.001 11.501L15.6475 2L15.6475 6.78418L1 6.78418L1 16.2168L15.6475 16.2168Z"/>
</mask>
<path d="M15.6475 16.2168L15.6475 21.001L25.001 11.501L15.6475 2L15.6475 6.78418L1 6.78418L1 16.2168L15.6475 16.2168Z" fill="url(#paint0_linear_380_1142)"/>
<path d="M15.6475 16.2168L15.6475 15.7168L16.1475 15.7168L16.1475 16.2168L15.6475 16.2168ZM15.6475 21.001L16.0038 21.3518L15.1475 22.2215L15.1475 21.001L15.6475 21.001ZM25.001 11.501L25.3573 11.1502L25.7026 11.501L25.3573 11.8518L25.001 11.501ZM15.6475 2L15.1475 2L15.1475 0.779416L16.0038 1.64922L15.6475 2ZM15.6475 6.78418L16.1475 6.78418L16.1475 7.28418L15.6475 7.28418L15.6475 6.78418ZM1 6.78418L0.500001 6.78418L0.500001 6.28418L1 6.28418L1 6.78418ZM1 16.2168L1 16.7168L0.5 16.7168L0.5 16.2168L1 16.2168ZM15.6475 16.2168L16.1475 16.2168L16.1475 21.001L15.6475 21.001L15.1475 21.001L15.1475 16.2168L15.6475 16.2168ZM15.6475 21.001L15.2912 20.6502L24.6447 11.1502L25.001 11.501L25.3573 11.8518L16.0038 21.3518L15.6475 21.001ZM25.001 11.501L24.6447 11.8518L15.2912 2.35078L15.6475 2L16.0038 1.64922L25.3573 11.1502L25.001 11.501ZM15.6475 2L16.1475 2L16.1475 6.78418L15.6475 6.78418L15.1475 6.78418L15.1475 2L15.6475 2ZM15.6475 6.78418L15.6475 7.28418L1 7.28418L1 6.78418L1 6.28418L15.6475 6.28418L15.6475 6.78418ZM1 6.78418L1.5 6.78418L1.5 16.2168L1 16.2168L0.5 16.2168L0.500001 6.78418L1 6.78418ZM1 16.2168L1 15.7168L15.6475 15.7168L15.6475 16.2168L15.6475 16.7168L1 16.7168L1 16.2168Z" fill="url(#paint1_linear_380_1142)" mask="url(#path-1-outside-1_380_1142)"/>
<path d="M16.4835 15.207L16.4835 18.8965L23.7647 11.501L16.4835 4.10449L16.4835 7.79395L1.9903 7.79395L1.9903 15.207L16.4835 15.207Z" fill="url(#paint2_linear_380_1142)"/>
<defs>
<linearGradient id="paint0_linear_380_1142" x1="2.58117" y1="11.5013" x2="23.7655" y2="11.5013" gradientUnits="userSpaceOnUse">
<stop stop-color="#B9610C"/>
<stop offset="0.317308" stop-color="#F38317"/>
<stop offset="0.625" stop-color="#FEEDB8"/>
<stop offset="1" stop-color="#FFF3CD"/>
</linearGradient>
<linearGradient id="paint1_linear_380_1142" x1="1" y1="11.5005" x2="25.001" y2="11.5005" gradientUnits="userSpaceOnUse">
<stop offset="0.0336538"/>
<stop offset="1"/>
</linearGradient>
<linearGradient id="paint2_linear_380_1142" x1="1.9903" y1="11.5005" x2="23.7647" y2="11.5005" gradientUnits="userSpaceOnUse">
<stop offset="0.0192308" stop-opacity="0"/>
<stop offset="0.337931" stop-color="#EF7500"/>
<stop offset="0.759615" stop-color="#FED962"/>
<stop offset="1" stop-color="#FFDE76"/>
</linearGradient>
</defs>
</svg>
