<svg width="23" height="29" viewBox="0 0 23 29" fill="none" xmlns="http://www.w3.org/2000/svg">
<g filter="url(#filter0_i_383_357)">
<path d="M1.16947 15.2399C1.31109 17.1409 2.12692 18.9289 3.47 20.2818L9.18752 26.041C10.3608 27.2229 12.2722 27.2229 13.4455 26.041L19.1631 20.2818C20.5061 18.9289 21.322 17.1409 21.4636 15.2399L22.1194 6.43601C22.2544 4.62406 21.3911 2.87455 19.7103 2.18443C17.7469 1.37829 14.807 0.5 11.3165 0.5C7.8261 0.5 4.88611 1.37829 2.92278 2.18443C1.24198 2.87455 0.37863 4.62406 0.513614 6.436L1.16947 15.2399Z" fill="black"/>
</g>
<path d="M9.00974 26.2168C10.2808 27.4972 12.3519 27.4972 13.623 26.2168L19.3408 20.458C20.7257 19.063 21.5667 17.2191 21.7129 15.2588L22.3691 6.4541C22.5102 4.55761 21.606 2.69253 19.8056 1.95312C17.8214 1.13842 14.8481 0.25 11.3164 0.25C7.78487 0.250026 4.81226 1.13846 2.82809 1.95312C1.02748 2.69245 0.12349 4.55747 0.264618 6.4541L0.919891 15.2588C1.06601 17.2191 1.90797 19.0629 3.29294 20.458L9.00974 26.2168Z" stroke="black" stroke-width="0.5"/>
<g filter="url(#filter1_i_383_357)">
<path d="M1.16948 15.2399C1.3111 17.1409 2.12693 18.9289 3.47001 20.2818L9.18752 26.041C10.3608 27.2229 12.2722 27.2229 13.4455 26.041L19.1631 20.2818C20.5061 18.9289 21.322 17.1409 21.4636 15.2399L22.1194 6.43601C22.2544 4.62406 21.3911 2.87455 19.7103 2.18442C17.747 1.37829 14.807 0.5 11.3165 0.5C7.8261 0.5 4.88612 1.37829 2.92279 2.18442C1.24199 2.87455 0.378639 4.62406 0.513623 6.436L1.16948 15.2399Z" fill="url(#paint0_radial_383_357)"/>
<path d="M1.16948 15.2399C1.3111 17.1409 2.12693 18.9289 3.47001 20.2818L9.18752 26.041C10.3608 27.2229 12.2722 27.2229 13.4455 26.041L19.1631 20.2818C20.5061 18.9289 21.322 17.1409 21.4636 15.2399L22.1194 6.43601C22.2544 4.62406 21.3911 2.87455 19.7103 2.18442C17.747 1.37829 14.807 0.5 11.3165 0.5C7.8261 0.5 4.88612 1.37829 2.92279 2.18442C1.24199 2.87455 0.378639 4.62406 0.513623 6.436L1.16948 15.2399Z" fill="url(#paint1_radial_383_357)"/>
</g>
<defs>
<filter id="filter0_i_383_357" x="0" y="0" width="22.6331" height="27.4275" filterUnits="userSpaceOnUse" color-interpolation-filters="sRGB">
<feFlood flood-opacity="0" result="BackgroundImageFix"/>
<feBlend mode="normal" in="SourceGraphic" in2="BackgroundImageFix" result="shape"/>
<feColorMatrix in="SourceAlpha" type="matrix" values="0 0 0 0 0 0 0 0 0 0 0 0 0 0 0 0 0 0 127 0" result="hardAlpha"/>
<feMorphology radius="1" operator="erode" in="SourceAlpha" result="effect1_innerShadow_383_357"/>
<feOffset/>
<feGaussianBlur stdDeviation="0.5"/>
<feComposite in2="hardAlpha" operator="arithmetic" k2="-1" k3="1"/>
<feColorMatrix type="matrix" values="0 0 0 0 1 0 0 0 0 0.972549 0 0 0 0 0.952941 0 0 0 0.3 0"/>
<feBlend mode="plus-lighter" in2="shape" result="effect1_innerShadow_383_357"/>
</filter>
<filter id="filter1_i_383_357" x="-0.500122" y="0.5" width="22.6333" height="26.6775" filterUnits="userSpaceOnUse" color-interpolation-filters="sRGB">
<feFlood flood-opacity="0" result="BackgroundImageFix"/>
<feBlend mode="normal" in="SourceGraphic" in2="BackgroundImageFix" result="shape"/>
<feColorMatrix in="SourceAlpha" type="matrix" values="0 0 0 0 0 0 0 0 0 0 0 0 0 0 0 0 0 0 127 0" result="hardAlpha"/>
<feMorphology radius="1" operator="erode" in="SourceAlpha" result="effect1_innerShadow_383_357"/>
<feOffset dx="-1" dy="0.25"/>
<feGaussianBlur stdDeviation="0.375"/>
<feComposite in2="hardAlpha" operator="arithmetic" k2="-1" k3="1"/>
<feColorMatrix type="matrix" values="0 0 0 0 1 0 0 0 0 0.972549 0 0 0 0 0.952941 0 0 0 0.85 0"/>
<feBlend mode="plus-lighter" in2="shape" result="effect1_innerShadow_383_357"/>
</filter>
<radialGradient id="paint0_radial_383_357" cx="0" cy="0" r="1" gradientUnits="userSpaceOnUse" gradientTransform="translate(-7.73226 7.98189) rotate(54.7824) scale(62.618 82.5644)">
<stop stop-color="#363636"/>
<stop offset="0.270243" stop-color="#4C4C4B"/>
<stop offset="0.69593" stop-color="#1A1A1A"/>
<stop offset="1" stop-color="#575757"/>
</radialGradient>
<radialGradient id="paint1_radial_383_357" cx="0" cy="0" r="1" gradientUnits="userSpaceOnUse" gradientTransform="translate(11.3165 31.8528) rotate(75) scale(23.231 23.2311)">
<stop stop-color="#9A9A9A"/>
<stop offset="0.572115" stop-color="#5B5656" stop-opacity="0.62"/>
<stop offset="0.836538" stop-color="#414141" stop-opacity="0"/>
</radialGradient>
</defs>
</svg>
