<svg width="91" height="91" viewBox="0 0 91 91" fill="none" xmlns="http://www.w3.org/2000/svg">
<g filter="url(#filter0_i_380_1075)">
<path d="M9.17578 9.17572C9.17578 9.17572 31.2319 5.24878 45.5 5.24878C59.7681 5.24878 81.8242 9.17572 81.8242 9.17572C81.8242 9.17572 85.7512 31.2318 85.7512 45.4999C85.7512 59.7681 81.8242 81.8242 81.8242 81.8242C81.8242 81.8242 59.7681 85.7511 45.5 85.7511C31.2319 85.7511 9.17578 81.8242 9.17578 81.8242C9.17578 81.8242 5.24884 59.7681 5.24884 45.4999C5.24884 31.2318 9.17578 9.17572 9.17578 9.17572Z" fill="url(#paint0_radial_380_1075)"/>
</g>
<mask id="path-2-outside-1_380_1075" maskUnits="userSpaceOnUse" x="0.367188" y="0.367188" width="90" height="90" fill="black">
<rect fill="white" x="0.367188" y="0.367188" width="90" height="90"/>
<path d="M45.5 1.36719C46.3616 1.36719 48.3916 4.2592 48.3916 5.02441C48.3916 5.11404 48.388 5.20485 48.3848 5.29688C58.9316 5.63026 72.306 7.61668 78.4541 8.61035C79.5249 8.14898 82.182 7.76796 82.707 8.29297C83.2323 8.81829 82.8494 11.4771 82.3877 12.5469C83.3814 18.6952 85.3687 32.0681 85.7021 42.6143C85.7945 42.611 85.8857 42.6084 85.9756 42.6084C86.7408 42.6084 89.6327 44.6384 89.6328 45.5C89.6328 46.3616 86.7408 48.3916 85.9756 48.3916C85.8856 48.3916 85.7945 48.388 85.7021 48.3848C85.3688 58.9307 83.3814 72.3034 82.3877 78.4521C82.8495 79.5214 83.2323 82.1815 82.707 82.707C82.1816 83.2324 79.5215 82.8495 78.4521 82.3877C72.3034 83.3815 58.9307 85.3688 48.3848 85.7021C48.388 85.7945 48.3916 85.8857 48.3916 85.9756C48.3916 86.7408 46.3616 89.6328 45.5 89.6328C44.6384 89.6328 42.6084 86.7408 42.6084 85.9756C42.6084 85.8857 42.611 85.7945 42.6143 85.7021C32.068 85.3687 18.6952 83.3814 12.5469 82.3877C11.4771 82.8494 8.81822 83.2323 8.29297 82.707C7.76766 82.1816 8.14957 79.5216 8.61133 78.4521C7.61756 72.3033 5.63023 58.9306 5.29688 48.3848C5.20485 48.388 5.11404 48.3916 5.02441 48.3916C4.2592 48.3916 1.36719 46.3616 1.36719 45.5C1.36734 44.6384 4.25922 42.6084 5.02441 42.6084C5.11402 42.6084 5.20487 42.611 5.29688 42.6143C5.6303 32.0681 7.61763 18.6952 8.61133 12.5469C8.14972 11.4769 7.76776 8.81817 8.29297 8.29297C8.81786 7.7681 11.4736 8.14913 12.5449 8.61035C18.6925 7.61675 32.0671 5.63034 42.6143 5.29688C42.611 5.20486 42.6084 5.11402 42.6084 5.02441C42.6084 4.2592 44.6384 1.3672 45.5 1.36719ZM48.0166 7.78711C47.2382 11.1121 45.5144 14.6512 45.5 14.6807C45.4855 14.6509 43.7608 11.112 42.9824 7.78711C36.4722 7.9745 28.7473 8.82595 22.3213 9.69043C19.3125 10.0952 16.608 10.5001 14.4746 10.835C16.3549 13.7764 17.708 17.708 17.708 17.708C17.708 17.708 13.7764 16.3549 10.835 14.4746C10.5001 16.608 10.0952 19.3125 9.69043 22.3213C8.82595 28.7473 7.9745 36.4722 7.78711 42.9824C11.1112 43.7606 14.649 45.4846 14.6807 45.5C14.6532 45.5134 11.1131 47.2379 7.78711 48.0166C7.97445 54.5272 8.82589 62.2533 9.69043 68.6797C10.0951 71.6878 10.5001 74.3914 10.835 76.5244C13.7763 74.6443 17.708 73.292 17.708 73.292C17.708 73.292 16.3547 77.2227 14.4746 80.1641C16.608 80.4992 19.3124 80.9058 22.3213 81.3105C28.7472 82.175 36.4723 83.0237 42.9824 83.2109C43.761 79.8866 45.4855 76.3491 45.5 76.3193C45.5144 76.3488 47.238 79.8865 48.0166 83.2109C54.5272 83.0238 62.2533 82.1751 68.6797 81.3105C71.6879 80.9059 74.3913 80.4991 76.5244 80.1641C74.6445 77.2228 73.292 73.292 73.292 73.292C73.292 73.292 77.2227 74.6445 80.1641 76.5244C80.4991 74.3913 80.9059 71.6879 81.3105 68.6797C82.1751 62.2533 83.0247 54.5272 83.2119 48.0166C79.8862 47.2378 76.3468 45.5134 76.3193 45.5C76.3509 45.4846 79.8881 43.7607 83.2119 42.9824C83.0247 36.4722 82.175 28.7473 81.3105 22.3213C80.9058 19.3125 80.4992 16.608 80.1641 14.4746C77.2227 16.3547 73.292 17.708 73.292 17.708C73.292 17.708 74.6443 13.7763 76.5244 10.835C74.3914 10.5001 71.6878 10.0951 68.6797 9.69043C62.2533 8.82589 54.5272 7.97445 48.0166 7.78711Z"/>
</mask>
<g filter="url(#filter1_i_380_1075)">
<path d="M45.5 1.36719C46.3616 1.36719 48.3916 4.2592 48.3916 5.02441C48.3916 5.11404 48.388 5.20485 48.3848 5.29688C58.9316 5.63026 72.306 7.61668 78.4541 8.61035C79.5249 8.14898 82.182 7.76796 82.707 8.29297C83.2323 8.81829 82.8494 11.4771 82.3877 12.5469C83.3814 18.6952 85.3687 32.0681 85.7021 42.6143C85.7945 42.611 85.8857 42.6084 85.9756 42.6084C86.7408 42.6084 89.6327 44.6384 89.6328 45.5C89.6328 46.3616 86.7408 48.3916 85.9756 48.3916C85.8856 48.3916 85.7945 48.388 85.7021 48.3848C85.3688 58.9307 83.3814 72.3034 82.3877 78.4521C82.8495 79.5214 83.2323 82.1815 82.707 82.707C82.1816 83.2324 79.5215 82.8495 78.4521 82.3877C72.3034 83.3815 58.9307 85.3688 48.3848 85.7021C48.388 85.7945 48.3916 85.8857 48.3916 85.9756C48.3916 86.7408 46.3616 89.6328 45.5 89.6328C44.6384 89.6328 42.6084 86.7408 42.6084 85.9756C42.6084 85.8857 42.611 85.7945 42.6143 85.7021C32.068 85.3687 18.6952 83.3814 12.5469 82.3877C11.4771 82.8494 8.81822 83.2323 8.29297 82.707C7.76766 82.1816 8.14957 79.5216 8.61133 78.4521C7.61756 72.3033 5.63023 58.9306 5.29688 48.3848C5.20485 48.388 5.11404 48.3916 5.02441 48.3916C4.2592 48.3916 1.36719 46.3616 1.36719 45.5C1.36734 44.6384 4.25922 42.6084 5.02441 42.6084C5.11402 42.6084 5.20487 42.611 5.29688 42.6143C5.6303 32.0681 7.61763 18.6952 8.61133 12.5469C8.14972 11.4769 7.76776 8.81817 8.29297 8.29297C8.81786 7.7681 11.4736 8.14913 12.5449 8.61035C18.6925 7.61675 32.0671 5.63034 42.6143 5.29688C42.611 5.20486 42.6084 5.11402 42.6084 5.02441C42.6084 4.2592 44.6384 1.3672 45.5 1.36719ZM48.0166 7.78711C47.2382 11.1121 45.5144 14.6512 45.5 14.6807C45.4855 14.6509 43.7608 11.112 42.9824 7.78711C36.4722 7.9745 28.7473 8.82595 22.3213 9.69043C19.3125 10.0952 16.608 10.5001 14.4746 10.835C16.3549 13.7764 17.708 17.708 17.708 17.708C17.708 17.708 13.7764 16.3549 10.835 14.4746C10.5001 16.608 10.0952 19.3125 9.69043 22.3213C8.82595 28.7473 7.9745 36.4722 7.78711 42.9824C11.1112 43.7606 14.649 45.4846 14.6807 45.5C14.6532 45.5134 11.1131 47.2379 7.78711 48.0166C7.97445 54.5272 8.82589 62.2533 9.69043 68.6797C10.0951 71.6878 10.5001 74.3914 10.835 76.5244C13.7763 74.6443 17.708 73.292 17.708 73.292C17.708 73.292 16.3547 77.2227 14.4746 80.1641C16.608 80.4992 19.3124 80.9058 22.3213 81.3105C28.7472 82.175 36.4723 83.0237 42.9824 83.2109C43.761 79.8866 45.4855 76.3491 45.5 76.3193C45.5144 76.3488 47.238 79.8865 48.0166 83.2109C54.5272 83.0238 62.2533 82.1751 68.6797 81.3105C71.6879 80.9059 74.3913 80.4991 76.5244 80.1641C74.6445 77.2228 73.292 73.292 73.292 73.292C73.292 73.292 77.2227 74.6445 80.1641 76.5244C80.4991 74.3913 80.9059 71.6879 81.3105 68.6797C82.1751 62.2533 83.0247 54.5272 83.2119 48.0166C79.8862 47.2378 76.3468 45.5134 76.3193 45.5C76.3509 45.4846 79.8881 43.7607 83.2119 42.9824C83.0247 36.4722 82.175 28.7473 81.3105 22.3213C80.9058 19.3125 80.4992 16.608 80.1641 14.4746C77.2227 16.3547 73.292 17.708 73.292 17.708C73.292 17.708 74.6443 13.7763 76.5244 10.835C74.3914 10.5001 71.6878 10.0951 68.6797 9.69043C62.2533 8.82589 54.5272 7.97445 48.0166 7.78711Z" fill="#CECCCD"/>
</g>
<path d="M45.5 1.36719V0.867188H45.5L45.5 1.36719ZM48.3916 5.02441L48.8916 5.02444V5.02441H48.3916ZM48.3848 5.29688L47.8851 5.27922L47.8674 5.78077L48.369 5.79663L48.3848 5.29688ZM78.4541 8.61035L78.3743 9.10395L78.5182 9.12719L78.6519 9.06954L78.4541 8.61035ZM82.707 8.29297L83.0606 7.93945L83.0606 7.93942L82.707 8.29297ZM82.3877 12.5469L81.9286 12.3488L81.8708 12.4827L81.8941 12.6266L82.3877 12.5469ZM85.7021 42.6143L85.2024 42.6301L85.2183 43.1317L85.7199 43.1139L85.7021 42.6143ZM85.9756 42.6084V42.1084H85.9756L85.9756 42.6084ZM89.6328 45.5H90.1328V45.4999L89.6328 45.5ZM85.9756 48.3916L85.9756 48.8916H85.9756V48.3916ZM85.7021 48.3848L85.7199 47.8851L85.2183 47.8673L85.2024 48.369L85.7021 48.3848ZM82.3877 78.4521L81.8941 78.3724L81.8708 78.5164L81.9287 78.6504L82.3877 78.4521ZM82.707 82.707L83.0606 83.0606L83.0607 83.0605L82.707 82.707ZM78.4521 82.3877L78.6504 81.9287L78.5164 81.8708L78.3724 81.8941L78.4521 82.3877ZM48.3848 85.7021L48.369 85.2024L47.8673 85.2183L47.8851 85.7199L48.3848 85.7021ZM48.3916 85.9756H48.8916V85.9756L48.3916 85.9756ZM45.5 89.6328L45.5 90.1328H45.5V89.6328ZM42.6084 85.9756L42.1084 85.9756V85.9756H42.6084ZM42.6143 85.7021L43.1139 85.7199L43.1317 85.2183L42.6301 85.2024L42.6143 85.7021ZM12.5469 82.3877L12.6266 81.8941L12.4827 81.8708L12.3488 81.9286L12.5469 82.3877ZM8.29297 82.707L7.93939 83.0606L7.93942 83.0606L8.29297 82.707ZM8.61133 78.4521L9.07037 78.6503L9.1282 78.5164L9.10492 78.3724L8.61133 78.4521ZM5.29688 48.3848L5.79663 48.369L5.78077 47.8674L5.27922 47.8851L5.29688 48.3848ZM5.02441 48.3916V48.8916H5.02444L5.02441 48.3916ZM1.36719 45.5L0.867188 45.4999V45.5H1.36719ZM5.02441 42.6084L5.02444 42.1084H5.02441V42.6084ZM5.29688 42.6143L5.27922 43.1139L5.78077 43.1317L5.79663 42.6301L5.29688 42.6143ZM8.61133 12.5469L9.10492 12.6266L9.12819 12.4827L9.07043 12.3488L8.61133 12.5469ZM8.29297 8.29297L7.93942 7.93941L7.93942 7.93942L8.29297 8.29297ZM12.5449 8.61035L12.3472 9.0696L12.481 9.12718L12.6247 9.10395L12.5449 8.61035ZM42.6143 5.29688L42.6301 5.79663L43.1317 5.78077L43.1139 5.27922L42.6143 5.29688ZM42.6084 5.02441H42.1084V5.02444L42.6084 5.02441ZM48.0166 7.78711L48.031 7.28732L47.6228 7.27557L47.5298 7.67313L48.0166 7.78711ZM45.5 14.6807L45.0506 14.8999L45.5 15.8209L45.9494 14.8999L45.5 14.6807ZM42.9824 7.78711L43.4693 7.67314L43.3762 7.27557L42.968 7.28732L42.9824 7.78711ZM22.3213 9.69043L22.2546 9.19489L22.3213 9.69043ZM14.4746 10.835L14.3971 10.341L13.6413 10.4597L14.0533 11.1043L14.4746 10.835ZM17.708 17.708L17.5453 18.1808L18.5143 18.5143L18.1808 17.5453L17.708 17.708ZM10.835 14.4746L11.1043 14.0533L10.4597 13.6413L10.341 14.3971L10.835 14.4746ZM9.69043 22.3213L9.19489 22.2546L9.69043 22.3213ZM7.78711 42.9824L7.28732 42.968L7.27557 43.3762L7.67314 43.4693L7.78711 42.9824ZM14.6807 45.5L14.8999 45.9494L15.8209 45.5L14.8999 45.0506L14.6807 45.5ZM7.78711 48.0166L7.67313 47.5298L7.27557 47.6228L7.28732 48.031L7.78711 48.0166ZM9.69043 68.6797L9.19489 68.7464L9.69043 68.6797ZM10.835 76.5244L10.341 76.602L10.4596 77.3577L11.1042 76.9457L10.835 76.5244ZM17.708 73.292L18.1808 73.4548L18.5143 72.4859L17.5454 72.8192L17.708 73.292ZM14.4746 80.1641L14.0533 79.8948L13.6414 80.5393L14.397 80.658L14.4746 80.1641ZM22.3213 81.3105L22.2546 81.8061L22.3213 81.3105ZM42.9824 83.2109L42.968 83.7107L43.3761 83.7225L43.4692 83.325L42.9824 83.2109ZM45.5 76.3193L45.9494 76.1001L45.5 75.1791L45.0506 76.1001L45.5 76.3193ZM48.0166 83.2109L47.5298 83.325L47.6229 83.7225L48.031 83.7107L48.0166 83.2109ZM68.6797 81.3105L68.7464 81.8061L68.6797 81.3105ZM76.5244 80.1641L76.602 80.658L77.3577 80.5393L76.9457 79.8948L76.5244 80.1641ZM73.292 73.292L73.4547 72.8192L72.4858 72.4858L72.8192 73.4547L73.292 73.292ZM80.1641 76.5244L79.8948 76.9457L80.5393 77.3577L80.658 76.602L80.1641 76.5244ZM81.3105 68.6797L81.8061 68.7464L81.3105 68.6797ZM83.2119 48.0166L83.7117 48.031L83.7234 47.6229L83.3259 47.5298L83.2119 48.0166ZM76.3193 45.5L76.1001 45.0506L75.1791 45.5L76.1001 45.9494L76.3193 45.5ZM83.2119 42.9824L83.3259 43.4693L83.7234 43.3762L83.7117 42.968L83.2119 42.9824ZM81.3105 22.3213L81.8061 22.2546L81.3105 22.3213ZM80.1641 14.4746L80.658 14.397L80.5393 13.6414L79.8948 14.0533L80.1641 14.4746ZM73.292 17.708L72.8192 17.5454L72.4859 18.5144L73.4548 18.1808L73.292 17.708ZM76.5244 10.835L76.9457 11.1042L77.3577 10.4596L76.602 10.341L76.5244 10.835ZM68.6797 9.69043L68.7464 9.19489L68.6797 9.69043ZM45.5 1.36719V1.86719C45.4788 1.86719 45.5134 1.86277 45.6195 1.92471C45.7169 1.98163 45.8383 2.0732 45.979 2.20104C46.2595 2.45601 46.573 2.81517 46.8692 3.20922C47.1643 3.60189 47.4307 4.01396 47.6206 4.36706C47.7158 4.54391 47.7877 4.69849 47.8346 4.82333C47.8579 4.88549 47.8732 4.93534 47.8822 4.97325C47.8917 5.01308 47.8916 5.02827 47.8916 5.02441H48.3916H48.8916C48.8916 4.83734 48.8341 4.64053 48.7708 4.4718C48.7033 4.29202 48.6099 4.09512 48.5013 3.89324C48.2837 3.48886 47.9887 3.03446 47.6686 2.60847C47.3495 2.18386 46.994 1.7722 46.6516 1.46101C46.4808 1.30576 46.3022 1.16541 46.1238 1.06119C45.9539 0.961977 45.7366 0.867188 45.5 0.867188V1.36719ZM48.3916 5.02441L47.8916 5.02439C47.8916 5.10309 47.8885 5.18348 47.8851 5.27922L48.3848 5.29688L48.8845 5.31453C48.8876 5.22623 48.8916 5.12498 48.8916 5.02444L48.3916 5.02441ZM48.3848 5.29688L48.369 5.79663C58.8807 6.1289 72.2273 8.11044 78.3743 9.10395L78.4541 8.61035L78.5339 8.11676C72.3848 7.12291 58.9825 5.13162 48.4006 4.79712L48.3848 5.29688ZM78.4541 8.61035L78.6519 9.06954C79.1231 8.86653 79.9997 8.66371 80.8355 8.57923C81.2495 8.53739 81.6299 8.52717 81.9263 8.55414C82.0747 8.56763 82.1884 8.58929 82.2688 8.61434C82.355 8.64119 82.3681 8.66115 82.3535 8.64652L82.707 8.29297L83.0606 7.93942C82.9147 7.79353 82.7299 7.71056 82.5661 7.65956C82.3966 7.60676 82.2082 7.57565 82.0169 7.55825C81.634 7.52342 81.1847 7.53885 80.735 7.5843C79.8433 7.67443 78.8559 7.89281 78.2563 8.15116L78.4541 8.61035ZM82.707 8.29297L82.3534 8.64649C82.3388 8.63184 82.3588 8.6449 82.3856 8.73118C82.4106 8.81166 82.4322 8.92545 82.4457 9.07388C82.4725 9.37051 82.4621 9.75104 82.42 10.1652C82.3351 11.0014 82.1317 11.8781 81.9286 12.3488L82.3877 12.5469L82.8468 12.745C83.1053 12.1459 83.3243 11.1583 83.4149 10.2663C83.4606 9.81637 83.4763 9.36684 83.4416 8.98377C83.4243 8.79235 83.3932 8.60387 83.3405 8.43422C83.2895 8.27037 83.2066 8.08543 83.0606 7.93945L82.707 8.29297ZM82.3877 12.5469L81.8941 12.6266C82.8876 18.774 84.8701 32.119 85.2024 42.6301L85.7021 42.6143L86.2019 42.5985C85.8674 32.0172 83.8751 18.6164 82.8813 12.4671L82.3877 12.5469ZM85.7021 42.6143L85.7199 43.1139C85.8105 43.1107 85.8946 43.1084 85.9756 43.1084L85.9756 42.6084L85.9756 42.1084C85.8767 42.1084 85.7785 42.1112 85.6844 42.1146L85.7021 42.6143ZM85.9756 42.6084V43.1084C85.9717 43.1084 85.9869 43.1083 86.0267 43.1178C86.0647 43.1268 86.1145 43.1421 86.1767 43.1654C86.3015 43.2123 86.4561 43.2842 86.6329 43.3794C86.986 43.5693 87.3981 43.8357 87.7907 44.1308C88.1848 44.4269 88.5439 44.7404 88.7989 45.021C88.9268 45.1617 89.0183 45.2831 89.0753 45.3806C89.1372 45.4866 89.1328 45.5213 89.1328 45.5001L89.6328 45.5L90.1328 45.4999C90.1328 45.2633 90.038 45.0461 89.9388 44.8762C89.8345 44.6978 89.6942 44.5192 89.5389 44.3484C89.2277 44.006 88.8161 43.6505 88.3915 43.3314C87.9655 43.0113 87.5111 42.7163 87.1067 42.4987C86.9049 42.3901 86.708 42.2967 86.5282 42.2292C86.3595 42.1659 86.1627 42.1084 85.9756 42.1084V42.6084ZM89.6328 45.5H89.1328C89.1328 45.4788 89.1372 45.5134 89.0753 45.6195C89.0184 45.7169 88.9268 45.8383 88.799 45.979C88.544 46.2595 88.1848 46.573 87.7908 46.8692C87.3981 47.1643 86.986 47.4307 86.6329 47.6206C86.4561 47.7158 86.3015 47.7877 86.1767 47.8346C86.1145 47.8579 86.0647 47.8732 86.0268 47.8822C85.9869 47.8917 85.9717 47.8916 85.9756 47.8916V48.3916V48.8916C86.1627 48.8916 86.3595 48.8341 86.5282 48.7708C86.708 48.7033 86.9049 48.6099 87.1068 48.5013C87.5111 48.2837 87.9655 47.9887 88.3915 47.6686C88.8161 47.3495 89.2278 46.994 89.539 46.6516C89.6942 46.4808 89.8346 46.3022 89.9388 46.1238C90.038 45.9539 90.1328 45.7366 90.1328 45.5H89.6328ZM85.9756 48.3916L85.9756 47.8916C85.8966 47.8916 85.8157 47.8885 85.7199 47.8851L85.7021 48.3848L85.6844 48.8845C85.7733 48.8876 85.8747 48.8916 85.9756 48.8916L85.9756 48.3916ZM85.7021 48.3848L85.2024 48.369C84.8701 58.8798 82.8877 72.2246 81.8941 78.3724L82.3877 78.4521L82.8813 78.5319C83.8752 72.3822 85.8674 58.9816 86.2019 48.4006L85.7021 48.3848ZM82.3877 78.4521L81.9287 78.6504C82.1318 79.1207 82.3352 79.9975 82.4201 80.834C82.4622 81.2483 82.4726 81.629 82.4457 81.9258C82.4323 82.0743 82.4107 82.1882 82.3856 82.2687C82.3588 82.3551 82.3388 82.3682 82.3534 82.3535L82.707 82.707L83.0607 83.0605C83.2066 82.9145 83.2896 82.7295 83.3405 82.5656C83.3933 82.3959 83.4243 82.2074 83.4417 82.0159C83.4763 81.6327 83.4607 81.183 83.415 80.733C83.3244 79.8407 83.1054 78.8529 82.8467 78.2539L82.3877 78.4521ZM82.707 82.707L82.3535 82.3535C82.3681 82.3388 82.3551 82.3588 82.2687 82.3857C82.1882 82.4107 82.0744 82.4323 81.9259 82.4458C81.6291 82.4726 81.2484 82.4622 80.8341 82.4201C79.9976 82.3352 79.1207 82.1318 78.6504 81.9287L78.4521 82.3877L78.2539 82.8467C78.8529 83.1054 79.8408 83.3244 80.733 83.415C81.1831 83.4607 81.6328 83.4764 82.016 83.4417C82.2075 83.4244 82.396 83.3933 82.5657 83.3405C82.7296 83.2896 82.9146 83.2066 83.0606 83.0606L82.707 82.707ZM78.4521 82.3877L78.3724 81.8941C72.2246 82.8877 58.8798 84.8702 48.369 85.2024L48.3848 85.7021L48.4006 86.2019C58.9816 85.8674 72.3821 83.8752 78.5319 82.8813L78.4521 82.3877ZM48.3848 85.7021L47.8851 85.7199C47.8885 85.8157 47.8916 85.8966 47.8916 85.9756L48.3916 85.9756L48.8916 85.9756C48.8916 85.8747 48.8876 85.7733 48.8845 85.6844L48.3848 85.7021ZM48.3916 85.9756H47.8916C47.8916 85.9717 47.8917 85.9869 47.8822 86.0268C47.8732 86.0647 47.8579 86.1145 47.8346 86.1767C47.7877 86.3015 47.7158 86.4561 47.6206 86.6329C47.4307 86.986 47.1643 87.3981 46.8692 87.7908C46.573 88.1848 46.2595 88.544 45.979 88.799C45.8383 88.9268 45.7169 89.0184 45.6195 89.0753C45.5134 89.1372 45.4788 89.1328 45.5 89.1328V89.6328V90.1328C45.7366 90.1328 45.9539 90.038 46.1238 89.9388C46.3022 89.8346 46.4808 89.6942 46.6516 89.539C46.994 89.2278 47.3495 88.8161 47.6686 88.3915C47.9887 87.9655 48.2837 87.5111 48.5013 87.1068C48.6099 86.9049 48.7033 86.708 48.7708 86.5282C48.8341 86.3595 48.8916 86.1627 48.8916 85.9756H48.3916ZM45.5 89.6328L45.5 89.1328C45.5212 89.1328 45.4866 89.1372 45.3805 89.0753C45.2831 89.0184 45.1617 88.9268 45.021 88.799C44.7405 88.544 44.4269 88.1848 44.1308 87.7908C43.8357 87.3981 43.5693 86.986 43.3794 86.6329C43.2842 86.4561 43.2123 86.3015 43.1654 86.1767C43.1421 86.1145 43.1268 86.0647 43.1178 86.0268C43.1083 85.9869 43.1084 85.9717 43.1084 85.9756H42.6084H42.1084C42.1084 86.1627 42.1659 86.3595 42.2292 86.5282C42.2967 86.708 42.3901 86.9049 42.4987 87.1068C42.7163 87.5111 43.0113 87.9655 43.3314 88.3915C43.6505 88.8161 44.006 89.2278 44.3484 89.539C44.5192 89.6942 44.6978 89.8346 44.8762 89.9388C45.0461 90.038 45.2634 90.1328 45.5 90.1328L45.5 89.6328ZM42.6084 85.9756L43.1084 85.9756C43.1084 85.8946 43.1107 85.8105 43.1139 85.7199L42.6143 85.7021L42.1146 85.6844C42.1112 85.7785 42.1084 85.8767 42.1084 85.9756L42.6084 85.9756ZM42.6143 85.7021L42.6301 85.2024C32.1189 84.8701 18.7739 82.8876 12.6266 81.8941L12.5469 82.3877L12.4671 82.8813C18.6164 83.8751 32.0171 85.8673 42.5985 86.2019L42.6143 85.7021ZM12.5469 82.3877L12.3488 81.9286C11.8781 82.1317 11.0013 82.3351 10.1652 82.42C9.751 82.4621 9.37047 82.4725 9.07385 82.4457C8.92542 82.4323 8.81164 82.4106 8.73117 82.3856C8.64491 82.3588 8.63186 82.3388 8.64652 82.3535L8.29297 82.707L7.93942 83.0606C8.08539 83.2066 8.27033 83.2895 8.43419 83.3405C8.60384 83.3933 8.79232 83.4243 8.98373 83.4416C9.3668 83.4763 9.81633 83.4606 10.2662 83.4149C11.1583 83.3243 12.1458 83.1053 12.745 82.8468L12.5469 82.3877ZM8.29297 82.707L8.64655 82.3535C8.66117 82.3681 8.64118 82.355 8.61431 82.2687C8.58925 82.1881 8.5676 82.0743 8.55412 81.9258C8.52719 81.629 8.5375 81.2483 8.57946 80.834C8.66417 79.9975 8.8673 79.1207 9.07037 78.6503L8.61133 78.4521L8.15229 78.254C7.89361 78.8531 7.6749 79.841 7.58455 80.7333C7.53897 81.1833 7.52344 81.633 7.55821 82.0161C7.57559 82.2076 7.60667 82.3961 7.65947 82.5658C7.71046 82.7296 7.79344 82.9146 7.93939 83.0606L8.29297 82.707ZM8.61133 78.4521L9.10492 78.3724C8.11132 72.2246 6.12887 58.8797 5.79663 48.369L5.29688 48.3848L4.79712 48.4006C5.13159 58.9815 7.12381 72.3821 8.11773 78.5319L8.61133 78.4521ZM5.29688 48.3848L5.27922 47.8851C5.18348 47.8885 5.10309 47.8916 5.02439 47.8916L5.02441 48.3916L5.02444 48.8916C5.12498 48.8916 5.22623 48.8876 5.31453 48.8845L5.29688 48.3848ZM5.02441 48.3916V47.8916C5.02827 47.8916 5.01308 47.8917 4.97325 47.8822C4.93534 47.8732 4.88549 47.8579 4.82333 47.8346C4.69849 47.7877 4.54391 47.7158 4.36706 47.6206C4.01396 47.4307 3.60189 47.1643 3.20922 46.8692C2.81517 46.573 2.45601 46.2595 2.20104 45.979C2.0732 45.8383 1.98163 45.7169 1.92471 45.6195C1.86277 45.5134 1.86719 45.4788 1.86719 45.5H1.36719H0.867188C0.867188 45.7366 0.961977 45.9539 1.06119 46.1238C1.16541 46.3022 1.30576 46.4808 1.46101 46.6516C1.7722 46.994 2.18386 47.3495 2.60847 47.6686C3.03446 47.9887 3.48886 48.2837 3.89324 48.5013C4.09512 48.6099 4.29202 48.7033 4.4718 48.7708C4.64053 48.8341 4.83734 48.8916 5.02441 48.8916V48.3916ZM1.36719 45.5L1.86719 45.5001C1.86718 45.5213 1.86279 45.4866 1.92474 45.3806C1.98168 45.2831 2.07325 45.1617 2.2011 45.021C2.45608 44.7404 2.81525 44.4269 3.20929 44.1308C3.60195 43.8357 4.01401 43.5693 4.36709 43.3794C4.54393 43.2842 4.69851 43.2123 4.82334 43.1654C4.88551 43.1421 4.93535 43.1268 4.97325 43.1178C5.01309 43.1083 5.02827 43.1084 5.02441 43.1084V42.6084V42.1084C4.83734 42.1084 4.64053 42.1659 4.47181 42.2292C4.29204 42.2967 4.09514 42.3901 3.89326 42.4987C3.4889 42.7163 3.03451 43.0113 2.60853 43.3314C2.18393 43.6505 1.77228 44.006 1.46108 44.3484C1.30583 44.5192 1.16547 44.6978 1.06124 44.8762C0.962025 45.0461 0.867229 45.2633 0.867188 45.4999L1.36719 45.5ZM5.02441 42.6084L5.02439 43.1084C5.10498 43.1084 5.18875 43.1108 5.27922 43.1139L5.29688 42.6143L5.31453 42.1146C5.22098 42.1113 5.12307 42.1084 5.02444 42.1084L5.02441 42.6084ZM5.29688 42.6143L5.79663 42.6301C6.12894 32.119 8.11139 18.774 9.10492 12.6266L8.61133 12.5469L8.11773 12.4671C7.12387 18.6165 5.13166 32.0172 4.79712 42.5985L5.29688 42.6143ZM8.61133 12.5469L9.07043 12.3488C8.86736 11.8781 8.66426 11.0014 8.57955 10.1652C8.53759 9.75106 8.52727 9.37054 8.55418 9.07393C8.56765 8.9255 8.58929 8.81172 8.61434 8.73124C8.64119 8.64496 8.66116 8.63188 8.64652 8.64652L8.29297 8.29297L7.93942 7.93942C7.79347 8.08536 7.71049 8.27026 7.65951 8.43408C7.60672 8.6037 7.57564 8.79216 7.55827 8.98356C7.52352 9.3666 7.53906 9.8161 7.58464 10.266C7.67501 11.158 7.89369 12.1456 8.15223 12.7449L8.61133 12.5469ZM8.29297 8.29297L8.64652 8.64653C8.63188 8.66116 8.64494 8.64121 8.73111 8.61438C8.81149 8.58934 8.92514 8.5677 9.07341 8.55421C9.36973 8.52726 9.74988 8.5375 10.1637 8.57934C10.9992 8.66381 11.8757 8.86659 12.3472 9.0696L12.5449 8.61035L12.7426 8.1511C12.1429 7.89289 11.1558 7.67454 10.2643 7.58441C9.81472 7.53895 9.36557 7.52351 8.98283 7.55833C8.79158 7.57572 8.60326 7.60682 8.43376 7.65961C8.27004 7.7106 8.08528 7.79356 7.93942 7.93941L8.29297 8.29297ZM12.5449 8.61035L12.6247 9.10395C18.7712 8.11052 32.118 6.12898 42.6301 5.79663L42.6143 5.29688L42.5985 4.79712C32.0162 5.1317 18.6137 7.12299 12.4651 8.11676L12.5449 8.61035ZM42.6143 5.29688L43.1139 5.27922C43.1107 5.18875 43.1084 5.10498 43.1084 5.02439L42.6084 5.02441L42.1084 5.02444C42.1084 5.12307 42.1113 5.22098 42.1146 5.31453L42.6143 5.29688ZM42.6084 5.02441H43.1084C43.1084 5.02827 43.1083 5.01308 43.1178 4.97325C43.1268 4.93534 43.1421 4.8855 43.1654 4.82333C43.2123 4.69849 43.2842 4.54391 43.3794 4.36706C43.5693 4.01397 43.8357 3.60189 44.1308 3.20923C44.4269 2.81518 44.7405 2.45601 45.021 2.20104C45.1617 2.0732 45.2831 1.98164 45.3805 1.92471C45.4866 1.86278 45.5212 1.86719 45.5 1.86719L45.5 1.36719L45.5 0.867188C45.2634 0.867191 45.0461 0.961981 44.8762 1.06119C44.6978 1.16541 44.5192 1.30577 44.3484 1.46101C44.006 1.77221 43.6505 2.18387 43.3314 2.60847C43.0113 3.03446 42.7163 3.48887 42.4987 3.89324C42.3901 4.09512 42.2967 4.29203 42.2292 4.47181C42.1659 4.64053 42.1084 4.83734 42.1084 5.02441H42.6084ZM48.0166 7.78711L47.5298 7.67313C46.7653 10.9386 45.0641 14.4338 45.0506 14.4614L45.5 14.6807L45.9494 14.8999C45.9646 14.8687 47.7111 11.2856 48.5034 7.90109L48.0166 7.78711ZM45.5 14.6807L45.9494 14.4614C45.9356 14.4333 44.2337 10.9385 43.4693 7.67314L42.9824 7.78711L42.4956 7.90108C43.2879 11.2856 45.0353 14.8685 45.0506 14.8999L45.5 14.6807ZM42.9824 7.78711L42.968 7.28732C36.4315 7.47547 28.6862 8.32967 22.2546 9.19489L22.3213 9.69043L22.388 10.186C28.8084 9.32224 36.5129 8.47354 42.9968 8.2869L42.9824 7.78711ZM22.3213 9.69043L22.2546 9.19489C19.2415 9.60024 16.5333 10.0057 14.3971 10.341L14.4746 10.835L14.5521 11.3289C16.6827 10.9945 19.3835 10.5902 22.388 10.186L22.3213 9.69043ZM14.4746 10.835L14.0533 11.1043C14.9717 12.541 15.7675 14.2302 16.3362 15.5699C16.6197 16.2378 16.845 16.8147 16.9993 17.2241C17.0765 17.4287 17.1358 17.5913 17.1756 17.7023C17.1956 17.7578 17.2106 17.8004 17.2206 17.8289C17.2256 17.8431 17.2294 17.8538 17.2318 17.8608C17.233 17.8644 17.2339 17.8669 17.2345 17.8686C17.2348 17.8694 17.235 17.87 17.2351 17.8704C17.2352 17.8706 17.2352 17.8707 17.2352 17.8707C17.2352 17.8708 17.2352 17.8708 17.2352 17.8708C17.2352 17.8708 17.2352 17.8707 17.708 17.708C18.1808 17.5453 18.1808 17.5452 18.1807 17.5452C18.1807 17.5451 18.1807 17.545 18.1807 17.5449C18.1806 17.5447 18.1805 17.5445 18.1804 17.5442C18.1802 17.5436 18.1799 17.5428 18.1795 17.5417C18.1788 17.5395 18.1777 17.5365 18.1763 17.5324C18.1735 17.5244 18.1695 17.5127 18.1641 17.4974C18.1533 17.4668 18.1375 17.4221 18.1168 17.3643C18.0753 17.2488 18.0142 17.0813 17.9351 16.8714C17.7769 16.4517 17.5465 15.8619 17.2567 15.1791C16.6787 13.8177 15.8578 12.0704 14.8959 10.5657L14.4746 10.835ZM17.708 17.708C17.8707 17.2352 17.8708 17.2352 17.8708 17.2352C17.8708 17.2352 17.8708 17.2352 17.8707 17.2352C17.8707 17.2352 17.8706 17.2352 17.8704 17.2351C17.87 17.235 17.8694 17.2348 17.8686 17.2345C17.8669 17.2339 17.8644 17.233 17.8608 17.2318C17.8538 17.2294 17.8431 17.2256 17.8289 17.2206C17.8004 17.2106 17.7578 17.1956 17.7023 17.1756C17.5913 17.1358 17.4287 17.0765 17.2241 16.9993C16.8147 16.845 16.2378 16.6197 15.5699 16.3362C14.2302 15.7675 12.541 14.9717 11.1043 14.0533L10.835 14.4746L10.5657 14.8959C12.0704 15.8578 13.8177 16.6787 15.1791 17.2567C15.8619 17.5465 16.4517 17.7769 16.8714 17.9351C17.0813 18.0142 17.2488 18.0753 17.3643 18.1168C17.4221 18.1375 17.4668 18.1533 17.4974 18.1641C17.5127 18.1695 17.5244 18.1735 17.5324 18.1763C17.5365 18.1777 17.5395 18.1788 17.5417 18.1795C17.5428 18.1799 17.5436 18.1802 17.5442 18.1804C17.5445 18.1805 17.5447 18.1806 17.5449 18.1807C17.545 18.1807 17.5451 18.1807 17.5452 18.1807C17.5452 18.1808 17.5453 18.1808 17.708 17.708ZM10.835 14.4746L10.341 14.3971C10.0057 16.5333 9.60024 19.2416 9.19489 22.2546L9.69043 22.3213L10.186 22.388C10.5902 19.3835 10.9945 16.6826 11.3289 14.5521L10.835 14.4746ZM9.69043 22.3213L9.19489 22.2546C8.32967 28.6862 7.47546 36.4315 7.28732 42.968L7.78711 42.9824L8.2869 42.9968C8.47353 36.5129 9.32224 28.8084 10.186 22.388L9.69043 22.3213ZM7.78711 42.9824L7.67314 43.4693C10.9376 44.2335 14.4314 45.9347 14.4614 45.9494L14.6807 45.5L14.8999 45.0506C14.8666 45.0344 11.2847 43.2877 7.90108 42.4956L7.78711 42.9824ZM14.6807 45.5L14.4614 45.0506C14.4357 45.0632 10.9396 46.765 7.67313 47.5298L7.78711 48.0166L7.90109 48.5034C11.2866 47.7108 14.8707 45.9636 14.8999 45.9494L14.6807 45.5ZM7.78711 48.0166L7.28732 48.031C7.47542 54.5679 8.32961 62.3144 9.19489 68.7464L9.69043 68.6797L10.186 68.613C9.32218 62.1923 8.47349 54.4865 8.2869 48.0022L7.78711 48.0166ZM9.69043 68.6797L9.19489 68.7464C9.60016 71.7588 10.0057 74.4661 10.341 76.602L10.835 76.5244L11.3289 76.4469C10.9945 74.3167 10.5901 71.6167 10.186 68.613L9.69043 68.6797ZM10.835 76.5244L11.1042 76.9457C12.5409 76.0274 14.2301 75.2319 15.5698 74.6634C16.2377 74.38 16.8146 74.1548 17.224 74.0006C17.4286 73.9235 17.5912 73.8642 17.7022 73.8244C17.7577 73.8045 17.8003 73.7894 17.8288 73.7794C17.843 73.7744 17.8537 73.7707 17.8607 73.7682C17.8643 73.767 17.8669 73.7661 17.8685 73.7655C17.8693 73.7653 17.8699 73.7651 17.8703 73.7649C17.8705 73.7649 17.8706 73.7648 17.8706 73.7648C17.8707 73.7648 17.8707 73.7648 17.8707 73.7648C17.8707 73.7648 17.8706 73.7648 17.708 73.292C17.5454 72.8192 17.5453 72.8192 17.5452 72.8192C17.5452 72.8192 17.5451 72.8193 17.545 72.8193C17.5448 72.8194 17.5446 72.8195 17.5443 72.8195C17.5437 72.8198 17.5429 72.82 17.5418 72.8204C17.5396 72.8212 17.5365 72.8222 17.5325 72.8236C17.5245 72.8264 17.5128 72.8305 17.4975 72.8359C17.4669 72.8466 17.4222 72.8624 17.3644 72.8832C17.2489 72.9246 17.0814 72.9857 16.8715 73.0648C16.4518 73.2228 15.8619 73.4532 15.1792 73.7429C13.8177 74.3206 12.0704 75.1413 10.5657 76.1031L10.835 76.5244ZM17.708 73.292C17.2352 73.1292 17.2353 73.1292 17.2353 73.1292C17.2353 73.1292 17.2353 73.1292 17.2352 73.1292C17.2352 73.1293 17.2352 73.1294 17.2351 73.1296C17.235 73.1299 17.2348 73.1305 17.2345 73.1313C17.2339 73.133 17.233 73.1356 17.2318 73.1391C17.2294 73.1461 17.2256 73.1568 17.2206 73.1711C17.2106 73.1995 17.1956 73.2421 17.1756 73.2976C17.1358 73.4086 17.0764 73.5711 16.9993 73.7757C16.845 74.1851 16.6196 74.7619 16.3361 75.4296C15.7674 76.7691 14.9716 78.4581 14.0533 79.8948L14.4746 80.1641L14.8959 80.4333C15.8576 78.9287 16.6786 77.1817 17.2566 75.8204C17.5464 75.1378 17.7768 74.5481 17.935 74.1285C18.0141 73.9186 18.0753 73.7512 18.1167 73.6357C18.1375 73.5779 18.1533 73.5332 18.1641 73.5026C18.1694 73.4874 18.1735 73.4756 18.1763 73.4676C18.1777 73.4636 18.1788 73.4605 18.1795 73.4584C18.1799 73.4573 18.1802 73.4565 18.1804 73.4558C18.1805 73.4556 18.1806 73.4553 18.1806 73.4551C18.1807 73.455 18.1807 73.4549 18.1807 73.4549C18.1807 73.4548 18.1808 73.4548 17.708 73.292ZM14.4746 80.1641L14.397 80.658C16.5331 80.9935 19.2413 81.4007 22.2546 81.8061L22.3213 81.3105L22.388 80.815C19.3836 80.4108 16.6829 80.0048 14.5522 79.6701L14.4746 80.1641ZM22.3213 81.3105L22.2546 81.8061C28.6863 82.6713 36.4317 83.5228 42.968 83.7107L42.9824 83.2109L42.9968 82.7111C36.5128 82.5247 28.8082 81.6787 22.388 80.815L22.3213 81.3105ZM42.9824 83.2109L43.4692 83.325C44.2339 80.0602 45.9356 76.5668 45.9494 76.5386L45.5 76.3193L45.0506 76.1001C45.0353 76.1315 43.2881 79.7129 42.4956 83.0969L42.9824 83.2109ZM45.5 76.3193L45.0506 76.5386C45.0642 76.5663 46.7651 80.06 47.5298 83.325L48.0166 83.2109L48.5034 83.0969C47.7108 79.7129 45.9646 76.1312 45.9494 76.1001L45.5 76.3193ZM48.0166 83.2109L48.031 83.7107C54.5678 83.5228 62.3142 82.6714 68.7464 81.8061L68.6797 81.3105L68.613 80.815C62.1924 81.6788 54.4866 82.5247 48.0022 82.7111L48.0166 83.2109ZM68.6797 81.3105L68.7464 81.8061C71.759 81.4008 74.4663 80.9935 76.602 80.658L76.5244 80.1641L76.4468 79.6701C74.3164 80.0048 71.6167 80.4109 68.613 80.815L68.6797 81.3105ZM76.5244 80.1641L76.9457 79.8948C76.0275 78.4581 75.232 76.7691 74.6635 75.4297C74.3801 74.7619 74.1548 74.1852 74.0006 73.7758C73.9235 73.5712 73.8642 73.4087 73.8244 73.2977C73.8044 73.2422 73.7894 73.1996 73.7794 73.1712C73.7744 73.1569 73.7707 73.1462 73.7682 73.1392C73.767 73.1357 73.7661 73.1331 73.7655 73.1314C73.7652 73.1306 73.765 73.13 73.7649 73.1297C73.7648 73.1295 73.7648 73.1294 73.7648 73.1293C73.7648 73.1293 73.7648 73.1293 73.7648 73.1293C73.7648 73.1293 73.7648 73.1293 73.292 73.292C72.8192 73.4547 72.8192 73.4547 72.8192 73.4548C72.8193 73.4549 72.8193 73.4549 72.8193 73.455C72.8194 73.4552 72.8195 73.4555 72.8196 73.4558C72.8198 73.4564 72.8201 73.4572 72.8204 73.4583C72.8212 73.4604 72.8223 73.4635 72.8236 73.4675C72.8264 73.4756 72.8305 73.4873 72.8359 73.5026C72.8466 73.5331 72.8625 73.5779 72.8832 73.6356C72.9247 73.7511 72.9857 73.9186 73.0648 74.1284C73.2229 74.548 73.4533 75.1378 73.743 75.8204C74.3207 77.1816 75.1414 78.9287 76.1031 80.4333L76.5244 80.1641ZM73.292 73.292C73.1293 73.7648 73.1293 73.7648 73.1293 73.7648C73.1293 73.7648 73.1293 73.7648 73.1293 73.7648C73.1294 73.7648 73.1295 73.7648 73.1297 73.7649C73.13 73.765 73.1306 73.7652 73.1314 73.7655C73.1331 73.7661 73.1357 73.767 73.1392 73.7682C73.1462 73.7707 73.1569 73.7744 73.1712 73.7794C73.1996 73.7894 73.2422 73.8044 73.2977 73.8244C73.4087 73.8642 73.5712 73.9235 73.7758 74.0006C74.1852 74.1548 74.7619 74.3801 75.4297 74.6635C76.7691 75.232 78.4581 76.0275 79.8948 76.9457L80.1641 76.5244L80.4333 76.1031C78.9287 75.1414 77.1816 74.3207 75.8204 73.743C75.1378 73.4533 74.548 73.2229 74.1284 73.0648C73.9186 72.9857 73.7511 72.9247 73.6356 72.8832C73.5779 72.8625 73.5331 72.8466 73.5026 72.8359C73.4873 72.8305 73.4756 72.8264 73.4675 72.8236C73.4635 72.8223 73.4604 72.8212 73.4583 72.8204C73.4572 72.8201 73.4564 72.8198 73.4558 72.8196C73.4555 72.8195 73.4552 72.8194 73.455 72.8193C73.4549 72.8193 73.4549 72.8193 73.4548 72.8192C73.4547 72.8192 73.4547 72.8192 73.292 73.292ZM80.1641 76.5244L80.658 76.602C80.9935 74.4663 81.4008 71.759 81.8061 68.7464L81.3105 68.6797L80.815 68.613C80.4109 71.6167 80.0048 74.3164 79.6701 76.4468L80.1641 76.5244ZM81.3105 68.6797L81.8061 68.7464C82.6714 62.3143 83.5238 54.5678 83.7117 48.031L83.2119 48.0166L82.7121 48.0022C82.5257 54.4866 81.6788 62.1924 80.815 68.613L81.3105 68.6797ZM83.2119 48.0166L83.3259 47.5298C80.0598 46.7649 76.5643 45.0632 76.5386 45.0506L76.3193 45.5L76.1001 45.9494C76.1293 45.9636 79.7127 47.7107 83.0979 48.5034L83.2119 48.0166ZM76.3193 45.5L76.5386 45.9494C76.5686 45.9347 80.0617 44.2336 83.3259 43.4693L83.2119 42.9824L83.0979 42.4956C79.7145 43.2878 76.1333 45.0344 76.1001 45.0506L76.3193 45.5ZM83.2119 42.9824L83.7117 42.968C83.5237 36.4316 82.6713 28.6863 81.8061 22.2546L81.3105 22.3213L80.815 22.388C81.6787 28.8082 82.5257 36.5129 82.7121 42.9968L83.2119 42.9824ZM81.3105 22.3213L81.8061 22.2546C81.4007 19.2413 80.9935 16.5331 80.658 14.397L80.1641 14.4746L79.6701 14.5522C80.0048 16.6829 80.4108 19.3836 80.815 22.388L81.3105 22.3213ZM80.1641 14.4746L79.8948 14.0533C78.4581 14.9716 76.7691 15.7674 75.4296 16.3361C74.7619 16.6196 74.1851 16.845 73.7757 16.9993C73.5711 17.0764 73.4086 17.1358 73.2976 17.1756C73.2421 17.1956 73.1995 17.2106 73.1711 17.2206C73.1568 17.2256 73.1461 17.2294 73.1391 17.2318C73.1356 17.233 73.133 17.2339 73.1313 17.2345C73.1305 17.2348 73.1299 17.235 73.1296 17.2351C73.1294 17.2352 73.1293 17.2352 73.1292 17.2352C73.1292 17.2353 73.1292 17.2353 73.1292 17.2353C73.1292 17.2353 73.1292 17.2352 73.292 17.708C73.4548 18.1808 73.4548 18.1807 73.4549 18.1807C73.4549 18.1807 73.455 18.1807 73.4551 18.1806C73.4553 18.1806 73.4556 18.1805 73.4558 18.1804C73.4565 18.1802 73.4573 18.1799 73.4584 18.1795C73.4605 18.1788 73.4636 18.1777 73.4676 18.1763C73.4756 18.1735 73.4874 18.1694 73.5026 18.1641C73.5332 18.1533 73.5779 18.1375 73.6357 18.1167C73.7512 18.0753 73.9186 18.0141 74.1285 17.935C74.5481 17.7768 75.1378 17.5464 75.8204 17.2566C77.1817 16.6786 78.9287 15.8576 80.4333 14.8959L80.1641 14.4746ZM73.292 17.708C73.7648 17.8706 73.7648 17.8707 73.7648 17.8707C73.7648 17.8707 73.7648 17.8707 73.7648 17.8706C73.7648 17.8706 73.7649 17.8705 73.7649 17.8703C73.7651 17.8699 73.7653 17.8693 73.7655 17.8685C73.7661 17.8669 73.767 17.8643 73.7682 17.8607C73.7707 17.8537 73.7744 17.843 73.7794 17.8288C73.7894 17.8003 73.8045 17.7577 73.8244 17.7022C73.8642 17.5912 73.9235 17.4286 74.0006 17.224C74.1548 16.8146 74.38 16.2377 74.6634 15.5698C75.2319 14.2301 76.0274 12.5409 76.9457 11.1042L76.5244 10.835L76.1031 10.5657C75.1413 12.0704 74.3206 13.8177 73.7429 15.1792C73.4532 15.8619 73.2228 16.4518 73.0648 16.8715C72.9857 17.0814 72.9246 17.2489 72.8832 17.3644C72.8624 17.4222 72.8466 17.4669 72.8359 17.4975C72.8305 17.5128 72.8264 17.5245 72.8236 17.5325C72.8222 17.5365 72.8212 17.5396 72.8204 17.5418C72.82 17.5429 72.8198 17.5437 72.8195 17.5443C72.8195 17.5446 72.8194 17.5448 72.8193 17.545C72.8193 17.5451 72.8192 17.5452 72.8192 17.5452C72.8192 17.5453 72.8192 17.5454 73.292 17.708ZM76.5244 10.835L76.602 10.341C74.4661 10.0057 71.7588 9.60016 68.7464 9.19489L68.6797 9.69043L68.613 10.186C71.6167 10.5901 74.3167 10.9945 76.4469 11.3289L76.5244 10.835ZM68.6797 9.69043L68.7464 9.19489C62.3144 8.3296 54.5679 7.47541 48.031 7.28732L48.0166 7.78711L48.0022 8.2869C54.4866 8.47349 62.1922 9.32218 68.613 10.186L68.6797 9.69043Z" fill="black" mask="url(#path-2-outside-1_380_1075)"/>
<g filter="url(#filter2_df_380_1075)">
<path d="M46.3037 41.6689C46.6728 42.2765 47.1281 42.9484 47.5898 43.4102C48.0511 43.8714 48.7221 44.3264 49.3291 44.6953L66.3828 45.5L49.3301 46.3037C48.7227 46.6727 48.0514 47.1293 47.5898 47.5908C47.1285 48.0523 46.6726 48.7229 46.3037 49.3301L45.5 66.3828L44.6953 49.3301C44.3265 48.723 43.8714 48.0522 43.4102 47.5908C42.9484 47.1291 42.2765 46.6728 41.6689 46.3037L24.6172 45.5L41.6699 44.6953C42.2772 44.3263 42.9487 43.8716 43.4102 43.4102C43.8718 42.9485 44.3263 42.2764 44.6953 41.6689L45.5 24.6172L46.3037 41.6689Z" fill="#FAC18F"/>
</g>
<defs>
<filter id="filter0_i_380_1075" x="5.24884" y="5.24878" width="80.5023" height="80.5022" filterUnits="userSpaceOnUse" color-interpolation-filters="sRGB">
<feFlood flood-opacity="0" result="BackgroundImageFix"/>
<feBlend mode="normal" in="SourceGraphic" in2="BackgroundImageFix" result="shape"/>
<feColorMatrix in="SourceAlpha" type="matrix" values="0 0 0 0 0 0 0 0 0 0 0 0 0 0 0 0 0 0 127 0" result="hardAlpha"/>
<feOffset/>
<feGaussianBlur stdDeviation="5"/>
<feComposite in2="hardAlpha" operator="arithmetic" k2="-1" k3="1"/>
<feColorMatrix type="matrix" values="0 0 0 0 0 0 0 0 0 0 0 0 0 0 0 0 0 0 1 0"/>
<feBlend mode="normal" in2="shape" result="effect1_innerShadow_380_1075"/>
</filter>
<filter id="filter1_i_380_1075" x="0.867188" y="0.867188" width="89.2656" height="91.2656" filterUnits="userSpaceOnUse" color-interpolation-filters="sRGB">
<feFlood flood-opacity="0" result="BackgroundImageFix"/>
<feBlend mode="normal" in="SourceGraphic" in2="BackgroundImageFix" result="shape"/>
<feColorMatrix in="SourceAlpha" type="matrix" values="0 0 0 0 0 0 0 0 0 0 0 0 0 0 0 0 0 0 127 0" result="hardAlpha"/>
<feOffset dy="2"/>
<feGaussianBlur stdDeviation="1"/>
<feComposite in2="hardAlpha" operator="arithmetic" k2="-1" k3="1"/>
<feColorMatrix type="matrix" values="0 0 0 0 1 0 0 0 0 1 0 0 0 0 1 0 0 0 1 0"/>
<feBlend mode="normal" in2="shape" result="effect1_innerShadow_380_1075"/>
</filter>
<filter id="filter2_df_380_1075" x="22.6172" y="22.6172" width="45.7656" height="45.7656" filterUnits="userSpaceOnUse" color-interpolation-filters="sRGB">
<feFlood flood-opacity="0" result="BackgroundImageFix"/>
<feColorMatrix in="SourceAlpha" type="matrix" values="0 0 0 0 0 0 0 0 0 0 0 0 0 0 0 0 0 0 127 0" result="hardAlpha"/>
<feOffset/>
<feGaussianBlur stdDeviation="1"/>
<feComposite in2="hardAlpha" operator="out"/>
<feColorMatrix type="matrix" values="0 0 0 0 1 0 0 0 0 0.533812 0 0 0 0 0.1875 0 0 0 1 0"/>
<feBlend mode="normal" in2="BackgroundImageFix" result="effect1_dropShadow_380_1075"/>
<feBlend mode="normal" in="SourceGraphic" in2="effect1_dropShadow_380_1075" result="shape"/>
<feGaussianBlur stdDeviation="0.25" result="effect2_foregroundBlur_380_1075"/>
</filter>
<radialGradient id="paint0_radial_380_1075" cx="0" cy="0" r="1" gradientUnits="userSpaceOnUse" gradientTransform="translate(45.5 45.4999) rotate(90) scale(40.2512)">
<stop offset="0.168269" stop-color="#A45329"/>
<stop offset="0.254769" stop-color="#B94C18"/>
<stop offset="0.370192" stop-color="#843818"/>
<stop offset="1" stop-color="#2C130D"/>
</radialGradient>
</defs>
</svg>
