<svg width="100" height="101" viewBox="0 0 100 101" fill="none" xmlns="http://www.w3.org/2000/svg">
<path d="M71.02 26.0527C78.9222 26.0529 85.3286 32.4591 85.3286 40.3613C85.3286 48.2636 78.9222 54.6697 71.02 54.6699C63.1177 54.6699 56.7115 48.2637 56.7114 40.3613C56.7114 32.459 63.1176 26.0527 71.02 26.0527ZM74.3062 39.3662C71.603 39.3663 69.4117 41.5576 69.4116 44.2607C69.4116 46.964 71.603 49.1552 74.3062 49.1553C77.0094 49.1553 79.2007 46.964 79.2007 44.2607C79.2006 41.5575 77.0094 39.3662 74.3062 39.3662Z" fill="white"/>
<path d="M30.5811 26.0527C38.4833 26.0529 44.8896 32.4591 44.8896 40.3613C44.8896 48.2636 38.4833 54.6697 30.5811 54.6699C22.6787 54.6699 16.2725 48.2637 16.2725 40.3613C16.2725 32.459 22.6787 26.0527 30.5811 26.0527ZM27.7959 32.5078C25.0926 32.5078 22.9014 34.6991 22.9014 37.4023C22.9014 40.1056 25.0927 42.2969 27.7959 42.2969C30.4991 42.2968 32.6904 40.1055 32.6904 37.4023C32.6904 34.6991 30.4991 32.5079 27.7959 32.5078Z" fill="white"/>
<path d="M78.9634 57.0562C79.6499 56.4877 80.6682 56.5827 81.2368 57.269C81.8054 57.9557 81.7096 58.9739 81.0229 59.5425L79.9937 58.2993C80.9744 59.4838 81.0203 59.5404 81.022 59.5435L81.021 59.5444C81.0201 59.5452 81.0183 59.5463 81.0171 59.5474L80.9741 59.5825C80.947 59.6044 80.9094 59.6352 80.8608 59.6733C80.763 59.7502 80.6212 59.8587 80.438 59.9946C80.0714 60.2666 79.5351 60.648 78.8384 61.1021C77.4449 62.0101 75.4042 63.2118 72.7827 64.4097C71.0183 65.2159 68.9884 66.0206 66.7144 66.7349V70.2612C66.7142 79.1393 59.5171 86.3369 50.6392 86.3374C41.7607 86.3374 34.5631 79.1396 34.563 70.2612V66.7681C32.251 66.0452 30.1914 65.2272 28.4058 64.4077C25.7944 63.2093 23.7641 62.0077 22.3784 61.0991C21.6853 60.6447 21.152 60.263 20.7876 59.9907C20.6058 59.8549 20.4658 59.7463 20.3687 59.6694C20.3203 59.6312 20.2824 59.6006 20.2554 59.5786C20.2419 59.5677 20.2302 59.5589 20.2222 59.5522C20.2182 59.549 20.215 59.5457 20.2124 59.5435C20.2113 59.5425 20.2103 59.5412 20.2095 59.5405L20.2075 59.5396C20.2072 59.5388 20.2226 59.5194 21.2407 58.2993L20.2065 59.5386C19.5223 58.9675 19.4298 57.9496 20.0005 57.2651C20.5716 56.5807 21.5904 56.4891 22.2749 57.0601C22.2777 57.0624 22.2837 57.0674 22.2915 57.0737C22.3077 57.0869 22.3348 57.1081 22.3716 57.1372C22.4461 57.1962 22.563 57.2873 22.7202 57.4048C23.0353 57.6402 23.5139 57.9842 24.1479 58.3999C25.417 59.2319 27.3069 60.3508 29.7524 61.4731C34.6442 63.718 41.7471 65.9681 50.5728 65.9683C59.399 65.9683 66.5259 63.719 71.4409 61.4731C73.8977 60.3505 75.798 59.2305 77.0757 58.3979C77.7141 57.982 78.1965 57.6375 78.5142 57.4019C78.6727 57.2842 78.7904 57.1934 78.8657 57.1343C78.9034 57.1047 78.9314 57.083 78.9478 57.0698C78.9556 57.0635 78.9605 57.0585 78.9634 57.0562ZM51.1128 71.2065C50.7971 71.4434 50.1655 72.4859 50.1655 74.7593C50.1656 77.0324 50.7971 78.6838 51.1128 79.2251V71.2065Z" fill="white"/>
</svg>
