<svg width="151" height="151" viewBox="0 0 151 151" fill="none" xmlns="http://www.w3.org/2000/svg">
<path d="M150.474 75.751C150.474 117.172 116.895 150.751 75.4736 150.751C34.0523 150.751 0.473633 117.172 0.473633 75.751C0.473633 34.3296 34.0523 0.750977 75.4736 0.750977C116.895 0.750977 150.474 34.3296 150.474 75.751Z" fill="url(#paint0_linear_232_179)"/>
<g filter="url(#filter0_d_232_179)">
<path d="M45.1338 52.1484C58.8014 43.2628 97.7157 22.0268 123.116 48.9492C154.36 82.0657 104.352 126.763 85.4707 132.241C101.231 121.303 135.092 81.078 112.792 62.6094C96.062 48.754 73.3181 62.2335 63 69.832L82.2773 88.9131L23.7432 92.4346L26.6641 33.8672L45.1338 52.1484Z" fill="#05EAFD"/>
</g>
<defs>
<filter id="filter0_d_232_179" x="19.7432" y="29.8672" width="117.405" height="106.374" filterUnits="userSpaceOnUse" color-interpolation-filters="sRGB">
<feFlood flood-opacity="0" result="BackgroundImageFix"/>
<feColorMatrix in="SourceAlpha" type="matrix" values="0 0 0 0 0 0 0 0 0 0 0 0 0 0 0 0 0 0 127 0" result="hardAlpha"/>
<feOffset/>
<feGaussianBlur stdDeviation="2"/>
<feComposite in2="hardAlpha" operator="out"/>
<feColorMatrix type="matrix" values="0 0 0 0 0 0 0 0 0 0 0 0 0 0 0 0 0 0 0.25 0"/>
<feBlend mode="normal" in2="BackgroundImageFix" result="effect1_dropShadow_232_179"/>
<feBlend mode="normal" in="SourceGraphic" in2="effect1_dropShadow_232_179" result="shape"/>
</filter>
<linearGradient id="paint0_linear_232_179" x1="75.4736" y1="0.750977" x2="75.4736" y2="150.751" gradientUnits="userSpaceOnUse">
<stop stop-color="#3A3A3A"/>
<stop offset="1" stop-color="#1A1A1A"/>
</linearGradient>
</defs>
</svg>
