<svg width="155" height="156" viewBox="0 0 155 156" fill="none" xmlns="http://www.w3.org/2000/svg">
<circle cx="77.4987" cy="78.1772" r="77.4357" fill="url(#paint0_linear_232_172)"/>
<circle cx="77.4987" cy="78.1772" r="68.6871" stroke="#D9D9D9" stroke-width="4"/>
<g filter="url(#filter0_d_232_172)">
<path d="M77.188 126.464C76.4823 130.569 72.9226 133.569 68.7575 133.569H66.8244C61.5208 133.569 57.4954 128.793 58.3939 123.566C59.0995 119.461 62.6592 116.461 66.8244 116.461H68.7575C74.061 116.461 78.0865 121.237 77.188 126.464Z" fill="#D9D9D9"/>
<path d="M80.8498 97.8238C79.9681 101.61 76.5931 104.29 72.7053 104.29C67.7218 104.29 63.8444 99.9584 64.3939 95.0053L71.2192 33.4866C71.895 27.3947 77.0439 22.7855 83.1731 22.7855C90.9174 22.7855 96.6433 29.9979 94.887 37.5404L80.8498 97.8238Z" fill="#D9D9D9"/>
</g>
<defs>
<filter id="filter0_d_232_172" x="54.2681" y="18.7855" width="44.9375" height="118.784" filterUnits="userSpaceOnUse" color-interpolation-filters="sRGB">
<feFlood flood-opacity="0" result="BackgroundImageFix"/>
<feColorMatrix in="SourceAlpha" type="matrix" values="0 0 0 0 0 0 0 0 0 0 0 0 0 0 0 0 0 0 127 0" result="hardAlpha"/>
<feOffset/>
<feGaussianBlur stdDeviation="2"/>
<feComposite in2="hardAlpha" operator="out"/>
<feColorMatrix type="matrix" values="0 0 0 0 0 0 0 0 0 0 0 0 0 0 0 0 0 0 0.25 0"/>
<feBlend mode="normal" in2="BackgroundImageFix" result="effect1_dropShadow_232_172"/>
<feBlend mode="normal" in="SourceGraphic" in2="effect1_dropShadow_232_172" result="shape"/>
</filter>
<linearGradient id="paint0_linear_232_172" x1="77.4987" y1="0.741577" x2="77.4987" y2="155.613" gradientUnits="userSpaceOnUse">
<stop stop-color="#9E3138"/>
<stop offset="1" stop-color="#5D1212"/>
</linearGradient>
</defs>
</svg>
