<svg width="150" height="150" viewBox="0 0 150 150" fill="none" xmlns="http://www.w3.org/2000/svg">
<circle cx="75" cy="75" r="75" fill="url(#paint0_linear_396_364)"/>
<path d="M41.5654 73.6583C40.4598 74.2111 40.4599 75.7891 41.5654 76.3419L108.329 109.724C109.326 110.222 110.5 109.497 110.5 108.382L110.5 41.6183C110.5 40.5032 109.326 39.7778 108.329 40.2765L41.5654 73.6583Z" fill="url(#paint1_linear_396_364)" stroke="black"/>
<mask id="mask0_396_364" style="mask-type:alpha" maskUnits="userSpaceOnUse" x="41" y="40" width="69" height="70">
<path d="M41.7888 74.1055C41.0518 74.4741 41.0518 75.5259 41.7889 75.8944L108.553 109.276C109.218 109.609 110 109.125 110 108.382L110 41.618C110 40.8747 109.218 40.3912 108.553 40.7236L41.7888 74.1055Z" fill="url(#paint2_linear_396_364)"/>
</mask>
<g mask="url(#mask0_396_364)">
<g filter="url(#filter0_f_396_364)">
<path d="M22.4243 75.0001C22.4243 96.7246 110 110 110 110L58.528 75.8332C57.932 75.4376 57.932 74.5625 58.528 74.1669L110 40.0001C110 40.0001 22.4243 53.2756 22.4243 75.0001Z" fill="#FDE1E1"/>
</g>
</g>
<defs>
<filter id="filter0_f_396_364" x="20.4243" y="38.0001" width="91.5757" height="73.9999" filterUnits="userSpaceOnUse" color-interpolation-filters="sRGB">
<feFlood flood-opacity="0" result="BackgroundImageFix"/>
<feBlend mode="normal" in="SourceGraphic" in2="BackgroundImageFix" result="shape"/>
<feGaussianBlur stdDeviation="1" result="effect1_foregroundBlur_396_364"/>
</filter>
<linearGradient id="paint0_linear_396_364" x1="75" y1="0" x2="75" y2="150" gradientUnits="userSpaceOnUse">
<stop stop-color="#3A3A3A"/>
<stop offset="1" stop-color="#1A1A1A"/>
</linearGradient>
<linearGradient id="paint1_linear_396_364" x1="40" y1="75.0001" x2="110" y2="75.0001" gradientUnits="userSpaceOnUse">
<stop stop-color="#FDEDED"/>
<stop offset="0.737561" stop-color="#FE1111"/>
</linearGradient>
<linearGradient id="paint2_linear_396_364" x1="40" y1="75" x2="110" y2="75" gradientUnits="userSpaceOnUse">
<stop stop-color="#FDEDED"/>
<stop offset="0.737561" stop-color="#FE1111"/>
</linearGradient>
</defs>
</svg>
