<svg width="100" height="101" viewBox="0 0 100 101" fill="none" xmlns="http://www.w3.org/2000/svg">
<path d="M41.9067 59.7981L25.0601 76.7864C23.2453 78.6163 20.2639 78.5378 18.5474 76.6155C16.9225 74.7957 17.0554 72.0096 18.8462 70.3528L37.2036 53.3684L41.9067 59.7981ZM71.6626 18.0667C77.111 18.0669 81.5277 22.4835 81.5278 27.9319C81.5278 33.3804 77.111 37.7979 71.6626 37.7981C70.751 37.7981 69.8687 37.6711 69.0308 37.4397L53.4712 55.9592L63.3198 66.0461C67.6484 70.4795 64.507 77.9367 58.311 77.9368H41.1626C38.7643 77.9367 36.8198 75.9923 36.8198 73.594C36.8198 71.1957 38.7643 69.2513 41.1626 69.2512H52.0796L38.4995 51.2571L55.2944 34.7981L51.9409 29.3723L42.6499 39.2786C40.9135 41.1297 37.9819 41.1527 36.2163 39.3293C34.5174 37.5747 34.5525 34.7776 36.2954 33.0667L46.0474 23.4944C48.7056 20.8851 52.9414 20.815 55.6851 23.3342L61.854 28.9983C61.8164 28.648 61.7964 28.2921 61.7964 27.9319C61.7965 22.4834 66.214 18.0667 71.6626 18.0667ZM67.2056 47.8694H81.6528C84.0092 47.8694 85.9194 49.7796 85.9194 52.136C85.9194 54.4924 84.0092 56.4026 81.6528 56.4026H65.603C62.2843 56.4024 59.5942 53.7116 59.5942 50.3928L65.8042 43.3821L67.2056 47.8694Z" fill="white"/>
</svg>
