<svg width="150" height="150" viewBox="0 0 150 150" fill="none" xmlns="http://www.w3.org/2000/svg">
<circle cx="75" cy="75" r="75" fill="url(#paint0_linear_396_362)"/>
<path d="M73.6582 41.5654C74.211 40.4598 75.789 40.4599 76.3418 41.5654L109.724 108.329C110.222 109.326 109.497 110.5 108.382 110.5L41.6182 110.5C40.5031 110.5 39.7777 109.326 40.2764 108.329L73.6582 41.5654Z" fill="url(#paint1_linear_396_362)" stroke="black"/>
<mask id="mask0_396_362" style="mask-type:alpha" maskUnits="userSpaceOnUse" x="40" y="41" width="70" height="69">
<path d="M74.1055 41.7889C74.474 41.0518 75.5259 41.0518 75.8944 41.7889L109.276 108.553C109.609 109.218 109.125 110 108.382 110L41.618 110C40.8747 110 40.3912 109.218 40.7236 108.553L74.1055 41.7889Z" fill="url(#paint2_linear_396_362)"/>
</mask>
<g mask="url(#mask0_396_362)">
<g filter="url(#filter0_f_396_362)">
<path d="M75 22.4243C96.7244 22.4243 110 110 110 110L75.8331 58.528C75.4375 57.932 74.5624 57.932 74.1668 58.528L40 110C40 110 53.2755 22.4243 75 22.4243Z" fill="#FDE1E1"/>
</g>
</g>
<defs>
<filter id="filter0_f_396_362" x="38" y="20.4243" width="74" height="91.5757" filterUnits="userSpaceOnUse" color-interpolation-filters="sRGB">
<feFlood flood-opacity="0" result="BackgroundImageFix"/>
<feBlend mode="normal" in="SourceGraphic" in2="BackgroundImageFix" result="shape"/>
<feGaussianBlur stdDeviation="1" result="effect1_foregroundBlur_396_362"/>
</filter>
<linearGradient id="paint0_linear_396_362" x1="75" y1="0" x2="75" y2="150" gradientUnits="userSpaceOnUse">
<stop stop-color="#3A3A3A"/>
<stop offset="1" stop-color="#1A1A1A"/>
</linearGradient>
<linearGradient id="paint1_linear_396_362" x1="75" y1="40" x2="75" y2="110" gradientUnits="userSpaceOnUse">
<stop stop-color="#FDEDED"/>
<stop offset="0.737561" stop-color="#FE1111"/>
</linearGradient>
<linearGradient id="paint2_linear_396_362" x1="75" y1="40" x2="75" y2="110" gradientUnits="userSpaceOnUse">
<stop stop-color="#FDEDED"/>
<stop offset="0.737561" stop-color="#FE1111"/>
</linearGradient>
</defs>
</svg>
