<svg width="150" height="150" viewBox="0 0 150 150" fill="none" xmlns="http://www.w3.org/2000/svg">
<circle cx="75" cy="75" r="75" fill="url(#paint0_linear_396_365)"/>
<path d="M108.435 76.3417C109.54 75.7889 109.54 74.2109 108.435 73.6581L41.6709 40.2762C40.6736 39.7776 39.5 40.503 39.5 41.618L39.5 108.382C39.5 109.497 40.6735 110.222 41.6709 109.724L108.435 76.3417Z" fill="url(#paint1_linear_396_365)" stroke="black"/>
<mask id="mask0_396_365" style="mask-type:alpha" maskUnits="userSpaceOnUse" x="40" y="40" width="69" height="70">
<path d="M108.211 75.8945C108.948 75.5259 108.948 74.4741 108.211 74.1056L41.4472 40.7237C40.7823 40.3912 40 40.8747 40 41.6181L40 108.382C40 109.125 40.7823 109.609 41.4472 109.276L108.211 75.8945Z" fill="url(#paint2_linear_396_365)"/>
</mask>
<g mask="url(#mask0_396_365)">
<g filter="url(#filter0_f_396_365)">
<path d="M127.576 74.9999C127.576 53.2754 40 40 40 40L91.472 74.1668C92.068 74.5624 92.068 75.4375 91.472 75.8331L39.9999 110C39.9999 110 127.576 96.7244 127.576 74.9999Z" fill="#FDE1E1"/>
</g>
</g>
<defs>
<filter id="filter0_f_396_365" x="38" y="38" width="91.5757" height="73.9999" filterUnits="userSpaceOnUse" color-interpolation-filters="sRGB">
<feFlood flood-opacity="0" result="BackgroundImageFix"/>
<feBlend mode="normal" in="SourceGraphic" in2="BackgroundImageFix" result="shape"/>
<feGaussianBlur stdDeviation="1" result="effect1_foregroundBlur_396_365"/>
</filter>
<linearGradient id="paint0_linear_396_365" x1="75" y1="0" x2="75" y2="150" gradientUnits="userSpaceOnUse">
<stop stop-color="#3A3A3A"/>
<stop offset="1" stop-color="#1A1A1A"/>
</linearGradient>
<linearGradient id="paint1_linear_396_365" x1="110" y1="74.9999" x2="40" y2="74.9999" gradientUnits="userSpaceOnUse">
<stop stop-color="#FDEDED"/>
<stop offset="0.737561" stop-color="#FE1111"/>
</linearGradient>
<linearGradient id="paint2_linear_396_365" x1="110" y1="75" x2="40" y2="75" gradientUnits="userSpaceOnUse">
<stop stop-color="#FDEDED"/>
<stop offset="0.737561" stop-color="#FE1111"/>
</linearGradient>
</defs>
</svg>
