<svg width="358" height="358" viewBox="0 0 358 358" fill="none" xmlns="http://www.w3.org/2000/svg">
<path d="M39.5096 39.2937C39.5096 39.2937 141.921 14.9491 178.929 14.9491C215.937 14.9491 318.349 39.2937 318.349 39.2937C318.349 39.2937 342.693 141.898 342.693 178.713C342.693 215.528 318.349 318.133 318.349 318.133C318.349 318.133 215.583 342.477 178.929 342.477C142.276 342.477 39.5096 318.133 39.5096 318.133C39.5096 318.133 15.1646 215.202 15.165 178.713C15.1655 142.225 39.5096 39.2937 39.5096 39.2937Z" fill="url(#paint0_radial_230_168)" fill-opacity="0.9"/>
<mask id="path-2-outside-1_230_168" maskUnits="userSpaceOnUse" x="-0.0717773" y="-0.286987" width="358" height="358" fill="black">
<rect fill="white" x="-0.0717773" y="-0.286987" width="358" height="358"/>
<path d="M178.928 3.71301C184.227 3.71301 188.683 7.3065 190 12.1886C209.764 13.7904 238.194 18.882 263.164 23.9093C278.308 26.9584 292.291 30.0063 302.486 32.2921C304.453 32.7331 306.278 33.1476 307.945 33.5265C308.133 33.3079 308.328 33.0931 308.536 32.8859C313.015 28.4067 320.277 28.4067 324.756 32.8859C329.235 37.365 329.235 44.6265 324.756 49.1056C324.548 49.3139 324.331 49.5094 324.111 49.6984C324.491 51.3727 324.907 53.2075 325.35 55.1847C327.636 65.3948 330.685 79.3956 333.734 94.5519C338.757 119.522 343.843 147.931 345.449 167.639C350.333 168.954 353.928 173.413 353.928 178.713C353.928 184.013 350.333 188.471 345.449 189.786C343.843 209.494 338.757 237.904 333.734 262.874C330.685 278.03 327.636 292.031 325.35 302.241C324.907 304.218 324.491 306.053 324.111 307.728C324.331 307.917 324.548 308.112 324.756 308.32C329.235 312.8 329.236 320.062 324.756 324.541C320.277 329.02 313.015 329.02 308.536 324.541C308.326 324.332 308.13 324.114 307.94 323.893C306.26 324.274 304.419 324.691 302.434 325.135C292.212 327.421 278.196 330.469 263.03 333.518C238.058 338.538 209.664 343.622 190.002 345.231C188.688 350.116 184.229 353.713 178.928 353.713C173.627 353.713 169.169 350.116 167.854 345.231C148.192 343.622 119.799 338.538 94.8286 333.518C79.6626 330.469 65.6468 327.421 55.4243 325.135C53.439 324.691 51.5969 324.274 49.9165 323.893C49.7269 324.113 49.531 324.332 49.3218 324.541C44.8427 329.02 37.5802 329.02 33.1011 324.541C28.622 320.062 28.622 312.8 33.1011 308.32C33.3116 308.11 33.5302 307.912 33.7524 307.721C33.3707 306.035 32.9523 304.186 32.5073 302.193C30.2216 291.958 27.1734 277.928 24.1245 262.752C19.1075 237.78 14.0256 209.402 12.4136 189.787C7.52669 188.473 3.92822 184.015 3.92822 178.713C3.92822 173.411 7.52696 168.95 12.4146 167.637C14.0269 148.022 19.1077 119.645 24.1245 94.674C27.1734 79.498 30.2216 65.4677 32.5073 55.2325C32.9524 53.2395 33.3706 51.3904 33.7524 49.7042C33.5304 49.5136 33.3114 49.3159 33.1011 49.1056C28.622 44.6264 28.6219 37.364 33.1011 32.8849C37.5802 28.406 44.8427 28.4059 49.3218 32.8849C49.5291 33.0923 49.7235 33.3087 49.9116 33.5275C51.5787 33.1484 53.4051 32.7332 55.3726 32.2921C65.5677 30.0063 79.5505 26.9584 94.6948 23.9093C119.664 18.8822 148.092 13.7906 167.856 12.1886C169.173 7.30653 173.63 3.71322 178.928 3.71301ZM189.83 18.7482C188.33 23.3365 184.018 26.6525 178.928 26.6525C173.839 26.6523 169.527 23.3365 168.027 18.7482C148.867 20.3325 120.995 25.2985 95.9888 30.3331C80.9045 33.3701 66.9706 36.4089 56.8071 38.6876C55.3201 39.021 53.9144 39.3403 52.5972 39.6388C52.9964 43.0081 51.907 46.5202 49.3218 49.1056C46.7398 51.6876 43.2331 52.7777 39.8677 52.3829C39.5659 53.7201 39.2424 55.1484 38.9048 56.6603C36.626 66.8646 33.5874 80.8477 30.5503 95.965C25.5248 120.98 20.5676 148.801 18.9731 167.815C23.5567 169.317 26.8677 173.627 26.8677 178.713C26.8677 183.799 23.5565 188.108 18.9731 189.61C20.5673 208.624 25.5246 236.446 30.5503 261.461C33.5875 276.578 36.6259 290.561 38.9048 300.766C39.2423 302.277 39.566 303.705 39.8677 305.042C43.2331 304.647 46.7398 305.738 49.3218 308.32C51.9045 310.903 52.9941 314.411 52.5981 317.777C53.9292 318.078 55.3507 318.401 56.855 318.737C67.0464 321.016 81.0137 324.055 96.1206 327.092C121.132 332.12 148.969 337.08 168.029 338.671C169.531 334.086 173.842 330.774 178.928 330.774C184.015 330.774 188.326 334.086 189.828 338.671C208.887 337.08 236.725 332.12 261.738 327.092C276.845 324.055 290.812 321.016 301.003 318.737C302.507 318.401 303.928 318.078 305.258 317.777C304.862 314.411 305.953 310.903 308.536 308.32C311.12 305.736 314.63 304.646 317.998 305.043C318.297 303.719 318.62 302.306 318.955 300.81C321.233 290.631 324.271 276.679 327.308 261.582C332.339 236.572 337.302 208.719 338.89 189.613C334.304 188.113 330.99 183.801 330.99 178.713C330.99 173.625 334.303 169.312 338.89 167.812C337.302 148.706 332.339 120.853 327.308 95.8439C324.271 80.7473 321.233 66.795 318.955 56.6163C318.62 55.1201 318.297 53.7065 317.998 52.382C314.63 52.7794 311.12 51.6897 308.536 49.1056C305.95 46.5202 304.86 43.0081 305.259 39.6388C303.943 39.3405 302.538 39.0209 301.051 38.6876C290.888 36.4089 276.954 33.3701 261.87 30.3331C236.862 25.2983 208.99 20.3323 189.83 18.7482Z"/>
</mask>
<path d="M178.928 3.71301C184.227 3.71301 188.683 7.3065 190 12.1886C209.764 13.7904 238.194 18.882 263.164 23.9093C278.308 26.9584 292.291 30.0063 302.486 32.2921C304.453 32.7331 306.278 33.1476 307.945 33.5265C308.133 33.3079 308.328 33.0931 308.536 32.8859C313.015 28.4067 320.277 28.4067 324.756 32.8859C329.235 37.365 329.235 44.6265 324.756 49.1056C324.548 49.3139 324.331 49.5094 324.111 49.6984C324.491 51.3727 324.907 53.2075 325.35 55.1847C327.636 65.3948 330.685 79.3956 333.734 94.5519C338.757 119.522 343.843 147.931 345.449 167.639C350.333 168.954 353.928 173.413 353.928 178.713C353.928 184.013 350.333 188.471 345.449 189.786C343.843 209.494 338.757 237.904 333.734 262.874C330.685 278.03 327.636 292.031 325.35 302.241C324.907 304.218 324.491 306.053 324.111 307.728C324.331 307.917 324.548 308.112 324.756 308.32C329.235 312.8 329.236 320.062 324.756 324.541C320.277 329.02 313.015 329.02 308.536 324.541C308.326 324.332 308.13 324.114 307.94 323.893C306.26 324.274 304.419 324.691 302.434 325.135C292.212 327.421 278.196 330.469 263.03 333.518C238.058 338.538 209.664 343.622 190.002 345.231C188.688 350.116 184.229 353.713 178.928 353.713C173.627 353.713 169.169 350.116 167.854 345.231C148.192 343.622 119.799 338.538 94.8286 333.518C79.6626 330.469 65.6468 327.421 55.4243 325.135C53.439 324.691 51.5969 324.274 49.9165 323.893C49.7269 324.113 49.531 324.332 49.3218 324.541C44.8427 329.02 37.5802 329.02 33.1011 324.541C28.622 320.062 28.622 312.8 33.1011 308.32C33.3116 308.11 33.5302 307.912 33.7524 307.721C33.3707 306.035 32.9523 304.186 32.5073 302.193C30.2216 291.958 27.1734 277.928 24.1245 262.752C19.1075 237.78 14.0256 209.402 12.4136 189.787C7.52669 188.473 3.92822 184.015 3.92822 178.713C3.92822 173.411 7.52696 168.95 12.4146 167.637C14.0269 148.022 19.1077 119.645 24.1245 94.674C27.1734 79.498 30.2216 65.4677 32.5073 55.2325C32.9524 53.2395 33.3706 51.3904 33.7524 49.7042C33.5304 49.5136 33.3114 49.3159 33.1011 49.1056C28.622 44.6264 28.6219 37.364 33.1011 32.8849C37.5802 28.406 44.8427 28.4059 49.3218 32.8849C49.5291 33.0923 49.7235 33.3087 49.9116 33.5275C51.5787 33.1484 53.4051 32.7332 55.3726 32.2921C65.5677 30.0063 79.5505 26.9584 94.6948 23.9093C119.664 18.8822 148.092 13.7906 167.856 12.1886C169.173 7.30653 173.63 3.71322 178.928 3.71301ZM189.83 18.7482C188.33 23.3365 184.018 26.6525 178.928 26.6525C173.839 26.6523 169.527 23.3365 168.027 18.7482C148.867 20.3325 120.995 25.2985 95.9888 30.3331C80.9045 33.3701 66.9706 36.4089 56.8071 38.6876C55.3201 39.021 53.9144 39.3403 52.5972 39.6388C52.9964 43.0081 51.907 46.5202 49.3218 49.1056C46.7398 51.6876 43.2331 52.7777 39.8677 52.3829C39.5659 53.7201 39.2424 55.1484 38.9048 56.6603C36.626 66.8646 33.5874 80.8477 30.5503 95.965C25.5248 120.98 20.5676 148.801 18.9731 167.815C23.5567 169.317 26.8677 173.627 26.8677 178.713C26.8677 183.799 23.5565 188.108 18.9731 189.61C20.5673 208.624 25.5246 236.446 30.5503 261.461C33.5875 276.578 36.6259 290.561 38.9048 300.766C39.2423 302.277 39.566 303.705 39.8677 305.042C43.2331 304.647 46.7398 305.738 49.3218 308.32C51.9045 310.903 52.9941 314.411 52.5981 317.777C53.9292 318.078 55.3507 318.401 56.855 318.737C67.0464 321.016 81.0137 324.055 96.1206 327.092C121.132 332.12 148.969 337.08 168.029 338.671C169.531 334.086 173.842 330.774 178.928 330.774C184.015 330.774 188.326 334.086 189.828 338.671C208.887 337.08 236.725 332.12 261.738 327.092C276.845 324.055 290.812 321.016 301.003 318.737C302.507 318.401 303.928 318.078 305.258 317.777C304.862 314.411 305.953 310.903 308.536 308.32C311.12 305.736 314.63 304.646 317.998 305.043C318.297 303.719 318.62 302.306 318.955 300.81C321.233 290.631 324.271 276.679 327.308 261.582C332.339 236.572 337.302 208.719 338.89 189.613C334.304 188.113 330.99 183.801 330.99 178.713C330.99 173.625 334.303 169.312 338.89 167.812C337.302 148.706 332.339 120.853 327.308 95.8439C324.271 80.7473 321.233 66.795 318.955 56.6163C318.62 55.1201 318.297 53.7065 317.998 52.382C314.63 52.7794 311.12 51.6897 308.536 49.1056C305.95 46.5202 304.86 43.0081 305.259 39.6388C303.943 39.3405 302.538 39.0209 301.051 38.6876C290.888 36.4089 276.954 33.3701 261.87 30.3331C236.862 25.2983 208.99 20.3323 189.83 18.7482Z" fill="#CFCFD1"/>
<path d="M178.928 3.71301L178.928 0.213013L178.928 0.213013L178.928 3.71301ZM190 12.1886L186.621 13.1002L187.263 15.4782L189.718 15.6772L190 12.1886ZM263.164 23.9093L263.854 20.4782L263.854 20.4782L263.164 23.9093ZM302.486 32.2921L303.252 28.8769L303.252 28.8769L302.486 32.2921ZM307.945 33.5265L307.169 36.9394L309.224 37.4066L310.598 35.809L307.945 33.5265ZM308.536 32.8859L306.061 30.411L306.061 30.4111L308.536 32.8859ZM324.756 32.8859L327.231 30.4111L327.231 30.411L324.756 32.8859ZM324.756 49.1056L327.231 51.5805L327.231 51.5804L324.756 49.1056ZM324.111 49.6984L321.829 47.0442L320.231 48.4179L320.698 50.4729L324.111 49.6984ZM325.35 55.1847L328.766 54.42L328.766 54.42L325.35 55.1847ZM333.734 94.5519L337.165 93.8616L337.165 93.8616L333.734 94.5519ZM345.449 167.639L341.96 167.923L342.16 170.378L344.539 171.018L345.449 167.639ZM353.928 178.713L357.428 178.713L357.428 178.713L353.928 178.713ZM345.449 189.786L344.539 186.407L342.16 187.047L341.96 189.502L345.449 189.786ZM333.734 262.874L337.165 263.564L337.165 263.564L333.734 262.874ZM325.35 302.241L328.766 303.006L328.766 303.006L325.35 302.241ZM324.111 307.728L320.698 306.953L320.231 309.008L321.829 310.382L324.111 307.728ZM324.756 308.32L327.231 305.846L327.231 305.846L324.756 308.32ZM324.756 324.541L327.231 327.016L327.231 327.016L324.756 324.541ZM308.536 324.541L306.061 327.016L306.061 327.016L308.536 324.541ZM307.94 323.893L310.595 321.612L309.222 320.013L307.166 320.479L307.94 323.893ZM302.434 325.135L303.198 328.551L303.198 328.551L302.434 325.135ZM263.03 333.518L263.72 336.949L263.72 336.949L263.03 333.518ZM190.002 345.231L189.717 341.742L187.263 341.943L186.623 344.321L190.002 345.231ZM178.928 353.713L178.928 357.213H178.928V353.713ZM167.854 345.231L171.234 344.321L170.594 341.943L168.139 341.742L167.854 345.231ZM94.8286 333.518L94.1388 336.949L94.1388 336.949L94.8286 333.518ZM55.4243 325.135L54.6606 328.551L54.6606 328.551L55.4243 325.135ZM49.9165 323.893L50.6904 320.479L48.635 320.013L47.2616 321.612L49.9165 323.893ZM49.3218 324.541L51.7966 327.016L51.7967 327.016L49.3218 324.541ZM33.1011 324.541L30.6262 327.016L30.6263 327.016L33.1011 324.541ZM33.1011 308.32L30.6262 305.846L30.6262 305.846L33.1011 308.32ZM33.7524 307.721L36.0319 310.377L37.6316 309.004L37.166 306.948L33.7524 307.721ZM32.5073 302.193L29.0915 302.956L29.0915 302.956L32.5073 302.193ZM24.1245 262.752L20.6931 263.441L20.6931 263.441L24.1245 262.752ZM12.4136 189.787L15.9018 189.501L15.7001 187.047L13.3223 186.407L12.4136 189.787ZM3.92822 178.713L0.428223 178.713L0.428223 178.713L3.92822 178.713ZM12.4146 167.637L13.3228 171.017L15.701 170.378L15.9028 167.924L12.4146 167.637ZM24.1245 94.674L20.6931 93.9846L20.6931 93.9846L24.1245 94.674ZM32.5073 55.2325L29.0915 54.4697L29.0915 54.4697L32.5073 55.2325ZM33.7524 49.7042L37.166 50.4772L37.6316 48.4213L36.032 47.0484L33.7524 49.7042ZM33.1011 49.1056L30.6262 51.5805L30.6262 51.5805L33.1011 49.1056ZM33.1011 32.8849L30.6263 30.4099L30.6262 30.41L33.1011 32.8849ZM49.3218 32.8849L51.7967 30.41L51.7966 30.41L49.3218 32.8849ZM49.9116 33.5275L47.2582 35.8099L48.6326 37.4076L50.6876 36.9404L49.9116 33.5275ZM55.3726 32.2921L54.6068 28.8769L54.6068 28.8769L55.3726 32.2921ZM94.6948 23.9093L94.004 20.4782L94.004 20.4782L94.6948 23.9093ZM167.856 12.1886L168.139 15.6772L170.594 15.4782L171.235 13.1001L167.856 12.1886ZM189.83 18.7482L190.118 15.2601L187.362 15.0322L186.503 17.6607L189.83 18.7482ZM178.928 26.6525L178.928 30.1525H178.928V26.6525ZM168.027 18.7482L171.354 17.6608L170.495 15.0322L167.738 15.2601L168.027 18.7482ZM95.9888 30.3331L95.298 26.902L95.298 26.902L95.9888 30.3331ZM56.8071 38.6876L56.0414 35.2724L56.0414 35.2724L56.8071 38.6876ZM52.5972 39.6388L51.8238 36.2253L48.7507 36.9216L49.1215 40.0506L52.5972 39.6388ZM49.3218 49.1056L51.7967 51.5805L51.7967 51.5804L49.3218 49.1056ZM39.8677 52.3829L40.2755 48.9068L37.1469 48.5398L36.4535 51.6125L39.8677 52.3829ZM38.9048 56.6603L35.4889 55.8975L35.4889 55.8975L38.9048 56.6603ZM30.5503 95.965L27.1189 95.2756L27.1189 95.2756L30.5503 95.965ZM18.9731 167.815L15.4854 167.522L15.2542 170.279L17.8829 171.14L18.9731 167.815ZM26.8677 178.713L30.3677 178.713L30.3677 178.713L26.8677 178.713ZM18.9731 189.61L17.8828 186.285L15.2543 187.146L15.4854 189.903L18.9731 189.61ZM30.5503 261.461L27.1189 262.15L27.1189 262.15L30.5503 261.461ZM38.9048 300.766L35.4889 301.529L35.4889 301.529L38.9048 300.766ZM39.8677 305.042L36.4535 305.813L37.1469 308.885L40.2755 308.518L39.8677 305.042ZM49.3218 308.32L51.7967 305.846L51.7967 305.846L49.3218 308.32ZM52.5981 317.777L49.1221 317.369L48.7541 320.497L51.8268 321.191L52.5981 317.777ZM56.855 318.737L56.0912 322.153L56.0912 322.153L56.855 318.737ZM96.1206 327.092L95.4308 330.523L95.4308 330.523L96.1206 327.092ZM168.029 338.671L167.738 342.159L170.494 342.389L171.355 339.76L168.029 338.671ZM178.928 330.774L178.928 327.274L178.928 327.274L178.928 330.774ZM189.828 338.671L186.502 339.761L187.363 342.389L190.119 342.159L189.828 338.671ZM261.738 327.092L262.428 330.523L262.428 330.523L261.738 327.092ZM301.003 318.737L301.767 322.153L301.767 322.153L301.003 318.737ZM305.258 317.777L306.03 321.191L309.102 320.497L308.734 317.369L305.258 317.777ZM308.536 308.32L306.061 305.846L306.061 305.846L308.536 308.32ZM317.998 305.043L317.587 308.519L320.716 308.888L321.411 305.816L317.998 305.043ZM318.955 300.81L322.37 301.574L322.37 301.574L318.955 300.81ZM327.308 261.582L330.739 262.272L330.739 262.272L327.308 261.582ZM338.89 189.613L342.378 189.903L342.607 187.147L339.979 186.287L338.89 189.613ZM330.99 178.713L327.49 178.713L327.49 178.713L330.99 178.713ZM338.89 167.812L339.978 171.138L342.607 170.278L342.378 167.522L338.89 167.812ZM327.308 95.8439L330.739 95.1536L330.739 95.1536L327.308 95.8439ZM318.955 56.6163L322.37 55.8517L322.37 55.8517L318.955 56.6163ZM317.998 52.382L321.411 51.6094L320.716 48.5368L317.587 48.9061L317.998 52.382ZM308.536 49.1056L306.061 51.5804L306.061 51.5805L308.536 49.1056ZM305.259 39.6388L308.735 40.0506L309.106 36.9216L306.033 36.2253L305.259 39.6388ZM301.051 38.6876L301.817 35.2724L301.817 35.2724L301.051 38.6876ZM261.87 30.3331L262.56 26.902L262.56 26.902L261.87 30.3331ZM178.928 3.71301V7.21301C182.604 7.21301 185.705 9.70536 186.621 13.1002L190 12.1886L193.38 11.277C191.661 4.90765 185.85 0.213013 178.928 0.213013V3.71301ZM190 12.1886L189.718 15.6772C209.255 17.2605 237.504 22.3133 262.473 27.3405L263.164 23.9093L263.854 20.4782C238.884 15.4506 210.274 10.3202 190.283 8.70004L190 12.1886ZM263.164 23.9093L262.473 27.3405C277.585 30.3831 291.542 33.4253 301.72 35.7073L302.486 32.2921L303.252 28.8769C293.039 26.5873 279.031 23.5337 263.854 20.4782L263.164 23.9093ZM302.486 32.2921L301.72 35.7073C303.681 36.1471 305.503 36.5606 307.169 36.9394L307.945 33.5265L308.721 30.1136C307.054 29.7346 305.224 29.3191 303.252 28.8769L302.486 32.2921ZM307.945 33.5265L310.598 35.809C310.744 35.6398 310.879 35.492 311.011 35.3606L308.536 32.8859L306.061 30.4111C305.778 30.6942 305.522 30.9761 305.292 31.244L307.945 33.5265ZM308.536 32.8859L311.011 35.3607C314.123 32.2484 319.169 32.2484 322.281 35.3607L324.756 32.8859L327.231 30.411C321.385 24.565 311.907 24.565 306.061 30.411L308.536 32.8859ZM324.756 32.8859L322.281 35.3606C325.393 38.473 325.393 43.5186 322.281 46.6308L324.756 49.1056L327.231 51.5804C333.077 45.7345 333.077 36.257 327.231 30.4111L324.756 32.8859ZM324.756 49.1056L322.281 46.6307C322.158 46.7546 322.012 46.8875 321.829 47.0442L324.111 49.6984L326.392 52.3525C326.65 52.1313 326.938 51.8732 327.231 51.5805L324.756 49.1056ZM324.111 49.6984L320.698 50.4729C321.078 52.1483 321.493 53.978 321.935 55.9493L325.35 55.1847L328.766 54.42C328.322 52.437 327.904 50.5972 327.524 48.9239L324.111 49.6984ZM325.35 55.1847L321.935 55.9493C324.217 66.1428 327.26 80.1177 330.303 95.2422L333.734 94.5519L337.165 93.8616C334.11 78.6735 331.055 64.6468 328.766 54.42L325.35 55.1847ZM333.734 94.5519L330.303 95.2422C335.326 120.211 340.373 148.441 341.96 167.923L345.449 167.639L348.937 167.355C347.313 147.421 342.189 118.832 337.165 93.8616L333.734 94.5519ZM345.449 167.639L344.539 171.018C347.934 171.933 350.428 175.036 350.428 178.713L353.928 178.713L357.428 178.713C357.428 171.79 352.732 165.976 346.359 164.259L345.449 167.639ZM353.928 178.713L350.428 178.713C350.428 182.39 347.935 185.492 344.539 186.407L345.449 189.786L346.359 193.166C352.732 191.45 357.428 185.636 357.428 178.713L353.928 178.713ZM345.449 189.786L341.96 189.502C340.373 208.985 335.326 237.215 330.303 262.184L333.734 262.874L337.165 263.564C342.189 238.594 347.313 210.004 348.937 190.07L345.449 189.786ZM333.734 262.874L330.303 262.184C327.26 277.308 324.217 291.283 321.935 301.477L325.35 302.241L328.766 303.006C331.055 292.779 334.11 278.752 337.165 263.564L333.734 262.874ZM325.35 302.241L321.935 301.477C321.493 303.448 321.078 305.278 320.698 306.953L324.111 307.728L327.524 308.502C327.904 306.829 328.322 304.989 328.766 303.006L325.35 302.241ZM324.111 307.728L321.829 310.382C322.012 310.538 322.157 310.671 322.282 310.795L324.756 308.32L327.231 305.846C326.938 305.553 326.65 305.295 326.392 305.073L324.111 307.728ZM324.756 308.32L322.281 310.795C325.394 313.908 325.394 318.954 322.281 322.066L324.756 324.541L327.231 327.016C333.077 321.17 333.077 311.692 327.231 305.846L324.756 308.32ZM324.756 324.541L322.282 322.066C319.169 325.178 314.123 325.178 311.011 322.066L308.536 324.541L306.061 327.016C311.907 332.862 321.385 332.862 327.231 327.016L324.756 324.541ZM308.536 324.541L311.011 322.066C310.884 321.94 310.75 321.793 310.595 321.612L307.94 323.893L305.285 326.173C305.509 326.435 305.768 326.723 306.061 327.016L308.536 324.541ZM307.94 323.893L307.166 320.479C305.486 320.86 303.649 321.277 301.67 321.719L302.434 325.135L303.198 328.551C305.188 328.105 307.034 327.687 308.714 327.306L307.94 323.893ZM302.434 325.135L301.67 321.719C291.465 324.001 277.474 327.044 262.34 330.086L263.03 333.518L263.72 336.949C278.917 333.894 292.959 330.84 303.198 328.551L302.434 325.135ZM263.03 333.518L262.34 330.086C237.369 335.107 209.154 340.152 189.717 341.742L190.002 345.231L190.288 348.719C210.175 347.092 238.748 341.969 263.72 336.949L263.03 333.518ZM190.002 345.231L186.623 344.321C185.709 347.718 182.605 350.213 178.928 350.213V353.713V357.213C185.853 357.213 191.667 352.514 193.382 346.14L190.002 345.231ZM178.928 353.713L178.928 350.213C175.251 350.213 172.148 347.718 171.234 344.321L167.854 345.231L164.474 346.14C166.189 352.514 172.004 357.213 178.928 357.213L178.928 353.713ZM167.854 345.231L168.139 341.742C148.703 340.152 120.489 335.106 95.5185 330.086L94.8286 333.518L94.1388 336.949C119.11 341.969 147.682 347.092 167.569 348.719L167.854 345.231ZM94.8286 333.518L95.5185 330.086C80.384 327.044 66.3939 324.001 56.1881 321.719L55.4243 325.135L54.6606 328.551C64.8998 330.84 78.9413 333.894 94.1388 336.949L94.8286 333.518ZM55.4243 325.135L56.1881 321.719C54.2082 321.277 52.3706 320.86 50.6904 320.479L49.9165 323.893L49.1426 327.306C50.8232 327.687 52.6697 328.105 54.6606 328.551L55.4243 325.135ZM49.9165 323.893L47.2616 321.612C47.102 321.798 46.9696 321.944 46.8469 322.066L49.3218 324.541L51.7967 327.016C52.0923 326.72 52.3518 326.429 52.5714 326.173L49.9165 323.893ZM49.3218 324.541L46.8469 322.066C43.7347 325.178 38.6882 325.178 35.5759 322.066L33.1011 324.541L30.6263 327.016C36.4722 332.862 45.9507 332.862 51.7966 327.016L49.3218 324.541ZM33.1011 324.541L35.5759 322.066C32.4637 318.954 32.4637 313.908 35.576 310.795L33.1011 308.32L30.6262 305.846C24.7803 311.692 24.7802 321.17 30.6262 327.016L33.1011 324.541ZM33.1011 308.32L35.5759 310.795C35.708 310.663 35.8579 310.526 36.0319 310.377L33.7524 307.721L31.473 305.065C31.2026 305.297 30.9152 305.557 30.6262 305.846L33.1011 308.32ZM33.7524 307.721L37.166 306.948C36.7843 305.262 36.3669 303.418 35.9232 301.431L32.5073 302.193L29.0915 302.956C29.5377 304.954 29.9571 306.808 30.3389 308.494L33.7524 307.721ZM32.5073 302.193L35.9232 301.431C33.6411 291.212 30.5986 277.207 27.5559 262.063L24.1245 262.752L20.6931 263.441C23.7483 278.649 26.802 292.705 29.0915 302.956L32.5073 302.193ZM24.1245 262.752L27.5559 262.063C22.5389 237.091 17.4954 208.891 15.9018 189.501L12.4136 189.787L8.92533 190.074C10.5558 209.913 15.6761 238.47 20.6931 263.441L24.1245 262.752ZM12.4136 189.787L13.3223 186.407C9.92379 185.494 7.42822 182.39 7.42822 178.713L3.92822 178.713L0.428223 178.713C0.428225 185.639 5.1296 191.453 11.5049 193.167L12.4136 189.787ZM3.92822 178.713L7.42822 178.713C7.42822 175.035 9.9246 171.93 13.3228 171.017L12.4146 167.637L11.5063 164.257C5.12931 165.97 0.428223 171.787 0.428223 178.713L3.92822 178.713ZM12.4146 167.637L15.9028 167.924C17.4967 148.533 22.5392 120.335 27.5559 95.3633L24.1245 94.674L20.6931 93.9846C15.6763 118.956 10.5571 147.511 8.92632 167.35L12.4146 167.637ZM24.1245 94.674L27.5559 95.3633C30.5985 80.2188 33.6412 66.214 35.9232 55.9954L32.5073 55.2325L29.0915 54.4697C26.8021 64.7214 23.7483 78.7773 20.6931 93.9846L24.1245 94.674ZM32.5073 55.2325L35.9232 55.9954C36.367 54.0078 36.7843 52.163 37.166 50.4772L33.7524 49.7042L30.3389 48.9312C29.957 50.6178 29.5377 52.4713 29.0915 54.4697L32.5073 55.2325ZM33.7524 49.7042L36.032 47.0484C35.853 46.8947 35.7044 46.7591 35.5759 46.6307L33.1011 49.1056L30.6262 51.5805C30.9185 51.8728 31.2077 52.1325 31.4728 52.3601L33.7524 49.7042ZM33.1011 49.1056L35.576 46.6307C32.4637 43.5184 32.4637 38.4721 35.5759 35.3598L33.1011 32.8849L30.6262 30.41C24.7802 36.256 24.7803 45.7345 30.6262 51.5805L33.1011 49.1056ZM33.1011 32.8849L35.5759 35.3598C38.6883 32.2476 43.7348 32.2477 46.8469 35.3598L49.3218 32.8849L51.7966 30.41C45.9507 24.5641 36.4722 24.5644 30.6263 30.4099L33.1011 32.8849ZM49.3218 32.8849L46.8469 35.3598C46.9687 35.4815 47.1 35.626 47.2582 35.8099L49.9116 33.5275L52.565 31.245C52.3469 30.9914 52.0896 30.703 51.7967 30.41L49.3218 32.8849ZM49.9116 33.5275L50.6876 36.9404C52.355 36.5613 54.1766 36.1472 56.1383 35.7073L55.3726 32.2921L54.6068 28.8769C52.6335 29.3193 50.8024 29.7356 49.1357 30.1146L49.9116 33.5275ZM55.3726 32.2921L56.1383 35.7073C66.3164 33.4253 80.2732 30.3831 95.3856 27.3405L94.6948 23.9093L94.004 20.4782C78.8278 23.5337 64.8189 26.5873 54.6068 28.8769L55.3726 32.2921ZM94.6948 23.9093L95.3856 27.3405C120.354 22.3135 148.602 17.2607 168.139 15.6772L167.856 12.1886L167.573 8.70004C147.583 10.3204 118.974 15.4508 94.004 20.4782L94.6948 23.9093ZM167.856 12.1886L171.235 13.1001C172.151 9.70555 175.253 7.21316 178.928 7.21301L178.928 3.71301L178.928 0.213013C172.007 0.213281 166.195 4.9075 164.477 11.2771L167.856 12.1886ZM189.83 18.7482L186.503 17.6607C185.459 20.8542 182.458 23.1525 178.928 23.1525V26.6525V30.1525C185.578 30.1525 191.201 25.8188 193.156 19.8356L189.83 18.7482ZM178.928 26.6525L178.928 23.1525C175.399 23.1523 172.397 20.854 171.354 17.6608L168.027 18.7482L164.7 19.8355C166.656 25.819 172.279 30.1522 178.928 30.1525L178.928 26.6525ZM168.027 18.7482L167.738 15.2601C148.355 16.8629 120.307 21.8668 95.298 26.902L95.9888 30.3331L96.6796 33.7643C121.683 28.7303 149.378 23.8022 168.315 22.2363L168.027 18.7482ZM95.9888 30.3331L95.298 26.902C80.1816 29.9454 66.2216 32.9899 56.0414 35.2724L56.8071 38.6876L57.5729 42.1028C67.7197 39.8278 81.6274 36.7948 96.6796 33.7643L95.9888 30.3331ZM56.8071 38.6876L56.0414 35.2724C54.5495 35.6069 53.1385 35.9274 51.8238 36.2253L52.5972 39.6388L53.3706 43.0523C54.6902 42.7533 56.0907 42.4351 57.5729 42.1028L56.8071 38.6876ZM52.5972 39.6388L49.1215 40.0506C49.4003 42.4036 48.6401 44.8374 46.8468 46.6308L49.3218 49.1056L51.7967 51.5804C55.1738 48.2031 56.5925 43.6126 56.0729 39.227L52.5972 39.6388ZM49.3218 49.1056L46.8469 46.6307C45.0558 48.4219 42.6257 49.1825 40.2755 48.9068L39.8677 52.3829L39.4599 55.8591C43.8404 56.373 48.4238 54.9533 51.7967 51.5805L49.3218 49.1056ZM39.8677 52.3829L36.4535 51.6125C36.1526 52.9462 35.8277 54.3806 35.4889 55.8975L38.9048 56.6603L42.3206 57.4231C42.6572 55.9162 42.9793 54.494 43.2818 53.1534L39.8677 52.3829ZM38.9048 56.6603L35.4889 55.8975C33.2065 66.1181 30.1623 80.1268 27.1189 95.2756L30.5503 95.965L33.9817 96.6544C37.0125 81.5686 40.0455 67.6111 42.3206 57.4231L38.9048 56.6603ZM30.5503 95.965L27.1189 95.2756C22.093 120.292 17.0983 148.289 15.4854 167.522L18.9731 167.815L22.4609 168.107C24.0369 149.314 28.9566 121.667 33.9817 96.6543L30.5503 95.965ZM18.9731 167.815L17.8829 171.14C21.0727 172.186 23.3677 175.186 23.3677 178.713L26.8677 178.713L30.3677 178.713C30.3677 172.068 26.0406 166.448 20.0634 164.489L18.9731 167.815ZM26.8677 178.713L23.3677 178.713C23.3677 182.24 21.073 185.239 17.8828 186.285L18.9731 189.61L20.0635 192.936C26.04 190.977 30.3677 185.358 30.3677 178.713L26.8677 178.713ZM18.9731 189.61L15.4854 189.903C17.098 209.136 22.0928 237.133 27.1189 262.15L30.5503 261.461L33.9817 260.772C28.9564 235.758 24.0366 208.111 22.4609 189.318L18.9731 189.61ZM30.5503 261.461L27.1189 262.15C30.1623 277.299 33.2064 291.308 35.4889 301.529L38.9048 300.766L42.3206 300.003C40.0454 289.815 37.0126 275.858 33.9817 260.772L30.5503 261.461ZM38.9048 300.766L35.4889 301.529C35.8276 303.045 36.1528 304.48 36.4535 305.813L39.8677 305.042L43.2818 304.272C42.9792 302.931 42.6571 301.509 42.3206 300.003L38.9048 300.766ZM39.8677 305.042L40.2755 308.518C42.625 308.243 45.0553 309.004 46.8469 310.795L49.3218 308.32L51.7967 305.846C48.4243 302.473 43.8412 301.052 39.4599 301.566L39.8677 305.042ZM49.3218 308.32L46.8469 310.795C48.6384 312.587 49.3986 315.018 49.1221 317.369L52.5981 317.777L56.0742 318.186C56.5895 313.805 55.1707 309.22 51.7967 305.846L49.3218 308.32ZM52.5981 317.777L51.8268 321.191C53.153 321.491 54.5819 321.816 56.0912 322.153L56.855 318.737L57.6187 315.322C56.1195 314.987 54.7054 314.665 53.3695 314.364L52.5981 317.777ZM56.855 318.737L56.0912 322.153C66.2991 324.436 80.2922 327.48 95.4308 330.523L96.1206 327.092L96.8104 323.661C81.7353 320.63 67.7937 317.597 57.6187 315.322L56.855 318.737ZM96.1206 327.092L95.4308 330.523C120.445 335.552 148.457 340.549 167.738 342.159L168.029 338.671L168.32 335.183C149.481 333.61 121.82 328.688 96.8104 323.661L96.1206 327.092ZM168.029 338.671L171.355 339.76C172.4 336.57 175.401 334.274 178.928 334.274L178.928 330.774L178.928 327.274C172.283 327.274 166.661 331.603 164.703 337.582L168.029 338.671ZM178.928 330.774V334.274C182.456 334.274 185.456 336.57 186.502 339.761L189.828 338.671L193.154 337.581C191.195 331.603 185.574 327.274 178.928 327.274V330.774ZM189.828 338.671L190.119 342.159C209.399 340.549 237.413 335.552 262.428 330.523L261.738 327.092L261.048 323.661C236.038 328.689 208.375 333.61 189.536 335.183L189.828 338.671ZM261.738 327.092L262.428 330.523C277.566 327.48 291.559 324.436 301.767 322.153L301.003 318.737L300.24 315.322C290.065 317.597 276.123 320.63 261.048 323.661L261.738 327.092ZM301.003 318.737L301.767 322.153C303.276 321.816 304.705 321.491 306.03 321.191L305.258 317.777L304.487 314.364C303.15 314.666 301.738 314.987 300.24 315.322L301.003 318.737ZM305.258 317.777L308.734 317.369C308.458 315.018 309.219 312.587 311.011 310.795L308.536 308.32L306.061 305.846C302.687 309.219 301.267 313.804 301.782 318.186L305.258 317.777ZM308.536 308.32L311.011 310.795C312.803 309.002 315.236 308.242 317.587 308.519L317.998 305.043L318.408 301.567C314.023 301.05 309.436 302.471 306.061 305.846L308.536 308.32ZM317.998 305.043L321.411 305.816C321.709 304.499 322.034 303.075 322.37 301.574L318.955 300.81L315.539 300.045C315.205 301.536 314.885 302.939 314.584 304.271L317.998 305.043ZM318.955 300.81L322.37 301.574C324.653 291.379 327.696 277.401 330.739 262.272L327.308 261.582L323.877 260.892C320.846 275.957 317.814 289.883 315.539 300.045L318.955 300.81ZM327.308 261.582L330.739 262.272C335.771 237.26 340.772 209.23 342.378 189.903L338.89 189.613L335.402 189.323C333.832 208.207 328.908 235.885 323.877 260.892L327.308 261.582ZM338.89 189.613L339.979 186.287C336.787 185.243 334.49 182.242 334.49 178.713L330.99 178.713L327.49 178.713C327.49 185.36 331.82 190.983 337.802 192.94L338.89 189.613ZM330.99 178.713L334.49 178.713C334.49 175.184 336.787 172.182 339.978 171.138L338.89 167.812L337.802 164.485C331.82 166.442 327.49 172.066 327.49 178.713L330.99 178.713ZM338.89 167.812L342.378 167.522C340.771 148.194 335.771 120.165 330.739 95.1536L327.308 95.8439L323.877 96.5342C328.908 121.541 333.832 149.218 335.402 168.102L338.89 167.812ZM327.308 95.8439L330.739 95.1536C327.696 80.0252 324.653 66.0471 322.37 55.8517L318.955 56.6163L315.539 57.381C317.814 67.5429 320.846 81.4693 323.877 96.5342L327.308 95.8439ZM318.955 56.6163L322.37 55.8517C322.034 54.3503 321.709 52.9269 321.411 51.6094L317.998 52.382L314.584 53.1545C314.885 54.486 315.205 55.89 315.539 57.381L318.955 56.6163ZM317.998 52.382L317.587 48.9061C315.235 49.1837 312.803 48.4233 311.011 46.6307L308.536 49.1056L306.061 51.5805C309.436 54.956 314.024 56.3752 318.408 55.8578L317.998 52.382ZM308.536 49.1056L311.011 46.6308C309.217 44.8369 308.456 42.4029 308.735 40.0506L305.259 39.6388L301.784 39.227C301.264 43.6133 302.684 48.2036 306.061 51.5804L308.536 49.1056ZM305.259 39.6388L306.033 36.2253C304.72 35.9278 303.308 35.6068 301.817 35.2724L301.051 38.6876L300.286 42.1028C301.767 42.4349 303.166 42.7531 304.486 43.0523L305.259 39.6388ZM301.051 38.6876L301.817 35.2724C291.637 32.9899 277.677 29.9454 262.56 26.902L261.87 30.3331L261.179 33.7643C276.231 36.7948 290.139 39.8278 300.286 42.1028L301.051 38.6876ZM261.87 30.3331L262.56 26.902C237.55 21.8666 209.501 16.8627 190.118 15.2601L189.83 18.7482L189.541 22.2363C208.479 23.802 236.175 28.7301 261.179 33.7643L261.87 30.3331Z" fill="#686868" mask="url(#path-2-outside-1_230_168)"/>
<defs>
<radialGradient id="paint0_radial_230_168" cx="0" cy="0" r="1" gradientUnits="userSpaceOnUse" gradientTransform="translate(178.929 178.713) rotate(90) scale(163.764)">
<stop stop-color="#838383"/>
<stop offset="1" stop-color="#838383"/>
</radialGradient>
</defs>
</svg>
