<svg width="273" height="273" viewBox="0 0 273 273" fill="none" xmlns="http://www.w3.org/2000/svg">
<path d="M136.594 0.97876L251.71 21.6732L272.404 136.789L251.71 251.904L136.594 272.599L21.4787 251.904L0.78418 136.789L21.4787 21.6732L136.594 0.97876Z" fill="black"/>
<path d="M136.594 11.7389L242.589 30.7938L261.644 136.789L242.589 242.784L136.594 261.839L30.5993 242.784L11.5444 136.789L30.5993 30.7938L136.594 11.7389Z" fill="#464646"/>
<path d="M136.594 17.6067L237.616 35.7674L255.776 136.789L237.616 237.81L136.594 255.971L35.5729 237.81L17.4121 136.789L35.5729 35.7674L136.594 17.6067Z" fill="#23292C"/>
<path d="M136.594 56.6216L204.546 68.8373L216.761 136.789L204.546 204.74L136.594 216.956L68.6425 204.74L56.4268 136.789L68.6425 68.8373L136.594 56.6216Z" fill="#1C1E1F"/>
<path d="M26.9048 58.8429L34.4352 102.87L35.5765 31.8544L26.9048 58.8429Z" fill="#464646"/>
<path d="M216.18 28.3679L179.362 33.2152L242.617 36.1586L216.18 28.3679Z" fill="#464646"/>
<path d="M246.279 212.42L239.043 169L237.703 239.255L246.279 212.42Z" fill="#464646"/>
<path d="M51.4681 244.053L79.1597 237.958L29.3691 236.457L51.4681 244.053Z" fill="#464646"/>
<path d="M65.2676 75.633L78.4116 120.652V44.5496L65.2676 75.633Z" fill="#23292C"/>
<path d="M192.279 54.8492L140.781 74.8761L217.414 71.291L192.279 54.8492Z" fill="#23292C"/>
<path d="M66 217.695L117.454 197.554L40.8294 201.308L66 217.695Z" fill="#23292C"/>
<path d="M216.884 192.749L202.579 150.406L196.857 224.792L216.884 192.749Z" fill="#23292C"/>
</svg>
