<svg width="80" height="64" viewBox="0 0 80 64" fill="none" xmlns="http://www.w3.org/2000/svg">
<path d="M3.67 44.7927L3.67 19.209L11.5548 19.209L11.5548 44.7927L3.67 44.7927Z" fill="#FDDE18"/>
<path d="M15.8 44.7927L15.8 19.209L27.1218 19.209L27.1218 44.7927L15.8 44.7927Z" fill="#FDDE18"/>
<path d="M51.5826 55.1857L51.5826 44.7927L30.5571 44.7927L30.5571 19.209L51.5826 19.209L51.5826 8.81433L74.8319 32.0009L51.5826 55.1857Z" fill="#FDDE18"/>
<path d="M11.5548 44.7927L11.5548 19.209L3.67 19.209L3.67 44.7927L11.5548 44.7927ZM51.5826 8.81433L51.5826 19.209L30.5571 19.209L30.5571 44.7927L51.5826 44.7927L51.5826 55.1857L74.8319 32.0009L51.5826 8.81433ZM15.8 44.7927L27.1218 44.7927L27.1218 19.209L15.8 19.209L15.8 44.7927ZM-1.757e-06 48.4212L-3.21488e-07 15.5805L47.9126 15.5805L47.9126 2.09432e-06L80 32.0009L47.9125 64L47.9126 48.4212L-1.757e-06 48.4212Z" fill="#FFFEC5"/>
</svg>
