<svg width="101" height="84" viewBox="0 0 101 84" fill="none" xmlns="http://www.w3.org/2000/svg">
<g opacity="0.8">
<path d="M44.3643 78.5132C44.3643 82.7214 49.2464 85.0479 52.5146 82.397L99.2637 44.477C100.743 43.2764 100.744 41.0184 99.2637 39.8179L52.5146 1.89892C49.2464 -0.752045 44.3643 1.5735 44.3643 5.78173L44.3643 23.3774L2.99999 23.3774C1.34314 23.3774 -5.14067e-06 24.7206 -4.99582e-06 26.3774L-2.23773e-06 57.9263C6.86059e-05 59.5831 1.34319 60.9263 3 60.9263L44.3643 60.9263L44.3643 78.5132Z" fill="#272727"/>
<path d="M47.7733 75.3414C47.7733 77.8664 50.703 79.2621 52.6639 77.6715L93.5819 44.482C95.062 43.2814 95.0621 41.0225 93.5819 39.8219L52.6639 6.63244C50.703 5.04186 47.7733 6.43758 47.7733 8.96252L47.7733 26.2565L7.04968 26.2565C5.39296 26.2566 4.04968 27.5997 4.04968 29.2565L4.04968 55.0485C4.04981 56.7051 5.39305 58.0483 7.04968 58.0485L47.7733 58.0485L47.7733 75.3414Z" fill="#F9F9F9"/>
<path d="M50.9365 69.9122C50.9365 71.5955 52.89 72.5263 54.1973 71.4659L88.4268 43.7013C89.4136 42.9009 89.4136 41.3943 88.4268 40.5939L54.1973 12.8292C52.89 11.7688 50.9365 12.6996 50.9365 14.3829L50.9365 29.9464L9.96777 29.9464C8.86327 29.9465 7.96777 30.8419 7.96777 31.9464L7.96777 52.3468C7.96777 53.4513 8.86327 54.3467 9.96777 54.3468L50.9365 54.3468L50.9365 69.9122Z" fill="#202020"/>
<path d="M50.9365 69.9122L50.1865 69.9122V69.9122L50.9365 69.9122ZM54.1973 71.4659L54.6697 72.0484L54.6697 72.0484L54.1973 71.4659ZM88.4268 43.7013L87.9543 43.1188L87.9543 43.1188L88.4268 43.7013ZM88.4268 40.5939L87.9543 41.1763L87.9543 41.1763L88.4268 40.5939ZM54.1973 12.8292L54.6697 12.2467L54.6697 12.2467L54.1973 12.8292ZM50.9365 14.3829L51.6865 14.3829V14.3829L50.9365 14.3829ZM50.9365 29.9464L51.6865 29.9464L51.6865 30.6964L50.9365 30.6964L50.9365 29.9464ZM9.96777 29.9464L9.96772 29.1964L9.96777 29.1964L9.96777 29.9464ZM9.96777 54.3468L9.96777 55.0968L9.96772 55.0968L9.96777 54.3468ZM50.9365 54.3468L50.9365 53.5968L51.6865 53.5968L51.6865 54.3468L50.9365 54.3468ZM50.9365 69.9122L51.6865 69.9122C51.6865 70.9643 52.9078 71.5462 53.7248 70.8835L54.1973 71.4659L54.6697 72.0484C52.8722 73.5065 50.1865 72.2267 50.1865 69.9122L50.9365 69.9122ZM54.1973 71.4659L53.7248 70.8835L87.9543 43.1188L88.4268 43.7013L88.8992 44.2838L54.6697 72.0484L54.1973 71.4659ZM88.4268 43.7013L87.9543 43.1188C88.571 42.6185 88.571 41.6766 87.9543 41.1763L88.4268 40.5939L88.8992 40.0114C90.2561 41.112 90.2561 43.1832 88.8992 44.2838L88.4268 43.7013ZM88.4268 40.5939L87.9543 41.1763L53.7248 13.4117L54.1973 12.8292L54.6697 12.2467L88.8992 40.0114L88.4268 40.5939ZM54.1973 12.8292L53.7248 13.4117C52.9077 12.749 51.6865 13.3308 51.6865 14.3829L50.9365 14.3829L50.1865 14.3829C50.1865 12.0684 52.8722 10.7887 54.6697 12.2467L54.1973 12.8292ZM50.9365 14.3829L51.6865 14.3829L51.6865 29.9464L50.9365 29.9464L50.1865 29.9464L50.1865 14.3829L50.9365 14.3829ZM50.9365 29.9464L50.9365 30.6964L9.96777 30.6964L9.96777 29.9464L9.96777 29.1964L50.9365 29.1964L50.9365 29.9464ZM9.96777 29.9464L9.96782 30.6964C9.27744 30.6965 8.71777 31.2562 8.71777 31.9464L7.96777 31.9464L7.21777 31.9464C7.21777 30.4276 8.4491 29.1965 9.96772 29.1964L9.96777 29.9464ZM7.96777 31.9464L8.71777 31.9464L8.71777 52.3468L7.96777 52.3468L7.21777 52.3468L7.21777 31.9464L7.96777 31.9464ZM7.96777 52.3468L8.71777 52.3468C8.71777 53.0371 9.27744 53.5968 9.96783 53.5968L9.96777 54.3468L9.96772 55.0968C8.4491 55.0967 7.21777 53.8656 7.21777 52.3468L7.96777 52.3468ZM9.96777 54.3468L9.96777 53.5968L50.9365 53.5968L50.9365 54.3468L50.9365 55.0968L9.96777 55.0968L9.96777 54.3468ZM50.9365 54.3468L51.6865 54.3468L51.6865 69.9122L50.9365 69.9122L50.1865 69.9122L50.1865 54.3468L50.9365 54.3468Z" fill="#666666"/>
</g>
</svg>
