<svg width="100" height="96" viewBox="0 0 100 96" fill="none" xmlns="http://www.w3.org/2000/svg">
<path d="M46.3383 8.47596C47.7394 5.28918 52.2606 5.28919 53.6617 8.47597L63.9304 31.832C64.2207 32.4922 64.8439 32.945 65.5615 33.017L90.9476 35.5657C94.4114 35.9135 95.8085 40.2134 93.2107 42.5307L74.171 59.5143C73.6328 59.9943 73.3948 60.727 73.548 61.4317L78.9687 86.3629C79.7084 89.7646 76.0506 92.4221 73.0439 90.6675L51.0081 77.8079C50.3852 77.4444 49.6148 77.4444 48.9919 77.8079L26.9561 90.6675C23.9494 92.4221 20.2917 89.7646 21.0313 86.3629L26.452 61.4317C26.6053 60.727 26.3672 59.9943 25.829 59.5143L6.78934 42.5307C4.1915 40.2134 5.58864 35.9135 9.05241 35.5657L34.4385 33.017C35.1561 32.945 35.7793 32.4922 36.0696 31.832L46.3383 8.47596Z" fill="#272727"/>
<path d="M48.1691 12.5631C48.8697 10.9697 51.1303 10.9697 51.8308 12.5631L61.4317 34.4C61.7219 35.0602 62.3452 35.513 63.0627 35.585L86.7977 37.968C88.5296 38.1419 89.2282 40.2918 87.9293 41.4505L70.1279 57.3294C69.5897 57.8095 69.3517 58.5421 69.5049 59.2469L74.5731 82.5565C74.9429 84.2574 73.114 85.5862 71.6107 84.7088L51.008 72.6856C50.3852 72.3221 49.6148 72.3221 48.9919 72.6856L28.3892 84.7088C26.8859 85.5862 25.057 84.2574 25.4269 82.5565L30.495 59.2469C30.6483 58.5421 30.4102 57.8095 29.872 57.3294L12.0707 41.4505C10.7718 40.2918 11.4703 38.1419 13.2022 37.968L36.9372 35.585C37.6548 35.513 38.278 35.0602 38.5683 34.4L48.1691 12.5631Z" fill="#F9F9F9"/>
<path d="M48.6268 25.1179C49.1522 23.9229 50.8477 23.9229 51.3731 25.1179L57.003 37.923C57.7286 39.5735 59.2867 40.7055 61.0806 40.8856L74.9987 42.283C76.2977 42.4134 76.8216 44.0259 75.8474 44.8949L65.4088 54.2062C64.0633 55.4064 63.4682 57.238 63.8512 58.9998L66.8232 72.6685C67.1005 73.9442 65.7289 74.9407 64.6014 74.2828L52.5201 67.2324C50.9628 66.3236 49.037 66.3236 47.4798 67.2324L35.3984 74.2828C34.2709 74.9407 32.8993 73.9442 33.1767 72.6685L36.1486 58.9998C36.5317 57.238 35.9366 55.4064 34.5911 54.2062L24.1524 44.8949C23.1783 44.0259 23.7022 42.4134 25.0011 42.283L38.9192 40.8856C40.7132 40.7055 42.2712 39.5735 42.9969 37.923L48.6268 25.1179Z" stroke="#666666" stroke-width="1.5"/>
</svg>
