<svg width="101" height="84" viewBox="0 0 101 84" fill="none" xmlns="http://www.w3.org/2000/svg">
<path d="M44.8602 5.78186C44.8602 1.57365 49.7423 -0.752819 53.0106 1.89807L99.7596 39.818C101.239 41.0186 101.24 43.2766 99.7596 44.4772L53.0106 82.3961C49.7423 85.0471 44.8602 82.7215 44.8602 78.5133L44.8602 60.9176L3.49597 60.9176C1.83912 60.9176 0.495972 59.5745 0.495972 57.9176L0.495972 26.3688C0.496042 24.712 1.83916 23.3688 3.49597 23.3688L44.8602 23.3688L44.8602 5.78186Z" fill="#272727"/>
<path d="M48.2693 8.95361C48.2693 6.42867 51.1989 5.03296 53.1599 6.62354L94.0779 39.813C95.558 41.0136 95.5581 43.2725 94.0779 44.4731L53.1599 77.6626C51.1989 79.2532 48.2693 77.8575 48.2693 75.3325L48.2693 58.0386L7.54565 58.0386C5.88894 58.0384 4.54565 56.6953 4.54565 55.0386L4.54565 29.2466C4.54579 27.5899 5.88902 26.2467 7.54565 26.2466L48.2693 26.2466L48.2693 8.95361Z" fill="#F9F9F9"/>
<path d="M51.4325 14.3828L50.6825 14.3828V14.3828L51.4325 14.3828ZM54.6932 12.8291L55.1657 12.2466L55.1657 12.2466L54.6932 12.8291ZM88.9227 40.5938L88.4503 41.1762L88.4503 41.1762L88.9227 40.5938ZM88.9227 43.7012L88.4503 43.1187L88.4503 43.1187L88.9227 43.7012ZM54.6932 71.4658L55.1657 72.0483L55.1657 72.0483L54.6932 71.4658ZM51.4325 69.9121L52.1825 69.9121V69.9121L51.4325 69.9121ZM51.4325 54.3486L52.1825 54.3486V53.5986L51.4325 53.5986V54.3486ZM10.4637 54.3486L10.4637 55.0986H10.4637L10.4637 54.3486ZM10.4637 29.9482L10.4637 29.1982L10.4637 29.1982L10.4637 29.9482ZM51.4325 29.9482V30.6982H52.1825V29.9482H51.4325ZM51.4325 14.3828L52.1825 14.3828C52.1825 13.3307 53.4037 12.7489 54.2208 13.4116L54.6932 12.8291L55.1657 12.2466C53.3681 10.7886 50.6825 12.0683 50.6825 14.3828L51.4325 14.3828ZM54.6932 12.8291L54.2208 13.4116L88.4503 41.1762L88.9227 40.5938L89.3952 40.0113L55.1657 12.2466L54.6932 12.8291ZM88.9227 40.5938L88.4503 41.1762C89.067 41.6765 89.067 42.6184 88.4503 43.1187L88.9227 43.7012L89.3952 44.2837C90.752 43.1831 90.752 41.1118 89.3952 40.0113L88.9227 40.5938ZM88.9227 43.7012L88.4503 43.1187L54.2208 70.8833L54.6932 71.4658L55.1657 72.0483L89.3952 44.2836L88.9227 43.7012ZM54.6932 71.4658L54.2208 70.8833C53.4037 71.5461 52.1825 70.9642 52.1825 69.9121L51.4325 69.9121L50.6825 69.9121C50.6825 72.2266 53.3681 73.5063 55.1657 72.0483L54.6932 71.4658ZM51.4325 69.9121L52.1825 69.9121L52.1825 54.3486L51.4325 54.3486H50.6825L50.6825 69.9121H51.4325ZM51.4325 54.3486V53.5986L10.4637 53.5986V54.3486L10.4637 55.0986L51.4325 55.0986V54.3486ZM10.4637 54.3486L10.4638 53.5986C9.77341 53.5986 9.21375 53.0389 9.21375 52.3486H8.46375H7.71375C7.71375 53.8674 8.94507 55.0985 10.4637 55.0986L10.4637 54.3486ZM8.46375 52.3486H9.21375L9.21375 31.9482H8.46375H7.71375L7.71375 52.3486H8.46375ZM8.46375 31.9482H9.21375C9.21375 31.258 9.77342 30.6983 10.4638 30.6982L10.4637 29.9482L10.4637 29.1982C8.94507 29.1984 7.71375 30.4295 7.71375 31.9482H8.46375ZM10.4637 29.9482L10.4637 30.6982L51.4325 30.6982V29.9482V29.1982L10.4637 29.1982L10.4637 29.9482ZM51.4325 29.9482H52.1825L52.1825 14.3828H51.4325L50.6825 14.3828L50.6825 29.9482L51.4325 29.9482Z" fill="#666666"/>
</svg>
