<svg width="288" height="288" viewBox="0 0 288 288" fill="none" xmlns="http://www.w3.org/2000/svg">
<path d="M129.578 11.1042C139.314 9.25582 149.312 9.25582 159.048 11.1042L244.022 27.2371C252.498 28.8462 259.128 35.476 260.737 43.9519L276.87 128.927C278.719 138.663 278.719 148.66 276.87 158.396L260.737 243.371C259.128 251.847 252.498 258.477 244.022 260.086L159.048 276.219C149.312 278.067 139.314 278.067 129.578 276.219L44.6035 260.086C36.1276 258.477 29.4979 251.847 27.8887 243.371L11.7559 158.396C9.90743 148.66 9.90743 138.663 11.7559 128.927L27.8887 43.9519C29.4979 35.476 36.1276 28.8462 44.6035 27.2371L129.578 11.1042Z" stroke="black" stroke-width="16"/>
<path d="M132.37 16.0093C140.268 14.5893 148.357 14.5894 156.255 16.0093L243.042 31.6108C249.83 32.831 255.143 38.1438 256.363 44.9312L271.965 131.718C273.385 139.617 273.385 147.705 271.965 155.604L256.363 242.391C255.143 249.179 249.83 254.491 243.042 255.711L156.256 271.314C148.358 272.734 140.268 272.734 132.37 271.314L45.5825 255.711C38.7952 254.491 33.4824 249.178 32.2622 242.391L16.6606 155.605C15.2407 147.706 15.2407 139.617 16.6606 131.718L32.2622 44.9312C33.4824 38.1438 38.7951 32.831 45.5825 31.6108L132.37 16.0093Z" fill="#1B1D1D" fill-opacity="0.85" stroke="#3A3A3A" stroke-width="11"/>
</svg>
