<svg width="288" height="287" viewBox="0 0 288 287" fill="none" xmlns="http://www.w3.org/2000/svg">
<path d="M131.354 9.98799C139.896 8.45232 148.644 8.45232 157.186 9.98799L244.385 25.6637C253.434 27.2906 260.518 34.3742 262.145 43.4241L277.821 130.622C279.356 139.165 279.356 147.912 277.821 156.455L262.145 243.653C260.518 252.703 253.434 259.786 244.385 261.413L157.186 277.089C148.644 278.625 139.896 278.625 131.354 277.089L44.1555 261.413C35.1056 259.787 28.0221 252.703 26.3952 243.653L10.7194 156.455C9.18376 147.912 9.18376 139.165 10.7194 130.622L26.3952 43.4241C28.0221 34.3742 35.1056 27.2906 44.1555 25.6637L131.354 9.98799Z" fill="#1B1D1D" fill-opacity="0.85"/>
<path d="M132.062 13.9248C140.136 12.4733 148.404 12.4733 156.479 13.9248L243.677 29.6006C251.081 30.9317 256.877 36.7274 258.208 44.1318L273.884 131.33C275.335 139.404 275.335 147.673 273.884 155.747L258.208 242.945C256.877 250.35 251.081 256.145 243.677 257.477L156.479 273.152C148.404 274.604 140.136 274.604 132.062 273.152L44.8633 257.477C37.4588 256.145 31.6631 250.35 30.332 242.945L14.6562 155.747C13.2047 147.673 13.2047 139.404 14.6562 131.33L30.332 44.1318C31.6631 36.7274 37.4588 30.9317 44.8633 29.6006L132.062 13.9248Z" stroke="#EEEEEE" stroke-opacity="0.1" stroke-width="8"/>
<path d="M128.695 6.58911C138.986 4.63532 149.554 4.63532 159.845 6.58911L244.795 22.717C255.087 24.671 263.137 32.7209 265.091 43.0129L281.22 127.964C283.173 138.255 283.174 148.822 281.22 159.114L265.091 244.064C263.137 254.356 255.087 262.406 244.795 264.36L159.845 280.489C149.554 282.442 138.986 282.442 128.695 280.489L43.7441 264.36C33.4521 262.405 25.4022 254.356 23.4482 244.064L7.32031 159.114C5.36652 148.822 5.36652 138.255 7.32031 127.964L23.4482 43.0129C25.4023 32.721 33.4522 24.6711 43.7441 22.717L128.695 6.58911Z" stroke="black" stroke-width="7"/>
</svg>
