<svg width="815" height="484" viewBox="0 0 815 484" fill="none" xmlns="http://www.w3.org/2000/svg">
<path d="M204.407 3.75171C223.169 0.80036 242.385 3.63344 259.498 11.8728L268.616 16.2625C276.398 20.0095 284.894 21.9548 293.53 21.9548H522.36C530.996 21.9548 539.523 20.0091 547.304 16.2625L556.421 11.8728C573.534 3.63348 592.75 0.800442 611.512 3.75171L641.484 8.46655C671.083 13.1227 698.23 27.6737 718.495 49.7449L728.143 60.2537C739.478 72.5994 748.471 86.93 754.253 102.69C762.157 124.233 774.299 158.699 786.257 198.022C795.266 227.646 802.415 258.725 807.57 284.051C814.864 319.887 814.222 356.69 808.112 392.677C802.838 423.736 783.302 450.523 755.341 465.036L753.094 466.202C730.238 478.065 703.35 479.398 679.433 469.852L598.256 437.454C592.865 435.302 587.64 432.821 582.11 430.806C576.663 428.822 571.244 427.427 565.873 427.517L565.872 427.518C565.864 427.519 565.851 427.519 565.835 427.519C565.803 427.52 565.755 427.522 565.691 427.524C565.563 427.528 565.373 427.534 565.121 427.543C564.616 427.559 563.863 427.584 562.874 427.615C560.894 427.677 557.964 427.766 554.161 427.873C546.554 428.086 535.452 428.37 521.472 428.654C493.511 429.222 454.033 429.79 407.959 429.79C342.309 429.79 281.371 428.486 251.753 427.736C239.563 427.427 227.471 429.721 216.269 434.526L136.824 468.603C112.78 478.916 85.3794 477.909 62.1587 465.856L60.5786 465.036C32.6176 450.523 13.082 423.736 7.80811 392.677C1.69752 356.69 1.05613 319.887 8.3501 284.051C13.5048 258.725 20.6541 227.646 29.6626 198.022C41.6205 158.699 53.7632 124.233 61.6665 102.69C67.4484 86.9301 76.4407 72.5994 87.7759 60.2537L97.4243 49.7449C117.689 27.6736 144.837 13.1226 174.436 8.46655L204.407 3.75171Z" fill="#1C1D1F" fill-opacity="0.85" stroke="#999999" stroke-width="3"/>
<circle cx="539.617" cy="337.512" r="72.3699" stroke="#999999" stroke-width="2"/>
<circle cx="169.684" cy="203.901" r="72.3699" stroke="#999999" stroke-width="2"/>
<path d="M66.1255 90.7938C66.1255 90.7938 74.3358 81.7416 82.5951 78.873C95.7951 74.2885 118.046 67.1747 144.564 61.1576C173.813 54.521 198.986 52.0603 212.151 51.164C218.633 50.7226 225.094 51.6557 231.294 53.597L255.592 61.2043C266.29 64.5538 277.444 66.2173 288.654 66.1349L407.845 65.2592L527.037 66.1349C538.247 66.2173 549.401 64.5538 560.099 61.2043L584.397 53.597C590.597 51.6557 597.058 50.7226 603.54 51.164C616.705 52.0603 641.878 54.521 671.126 61.1576C697.644 67.1747 719.896 74.2885 733.096 78.873C741.355 81.7416 749.565 90.7938 749.565 90.7938" stroke="#999999" stroke-width="2"/>
</svg>
