<svg width="897" height="475" viewBox="0 0 897 475" fill="none" xmlns="http://www.w3.org/2000/svg">
<path d="M292.615 397.269C320.867 397.269 340.502 386.065 351.276 377.636C357.957 372.409 365.983 368.478 374.465 368.478H522.713C531.196 368.478 539.221 372.409 545.902 377.636C556.677 386.065 576.311 397.269 604.564 397.269C640.812 397.269 666.115 373.023 674.773 363.343C676.511 361.399 679.635 361.383 681.24 363.438C686.812 370.572 698.624 386.158 707.93 401.587C714.279 412.112 722.896 426.164 729.897 437.539C737.793 450.367 750.117 459.845 764.529 464.231L777.894 468.298C793.861 473.157 811.19 470.057 824.482 459.963L826.848 458.166C840.485 447.81 851.915 434.814 858.555 419.031C873.147 384.349 896.586 313.929 892.61 226.454C888.622 138.72 863.691 80.3178 849.025 53.0845C842.619 41.1875 831.42 33.1885 818.211 30.3401C777.478 21.5561 669.598 4.38904 448.589 4.38904C227.58 4.38904 119.701 21.5561 78.9669 30.3401C65.7582 33.1885 54.5596 41.1876 48.153 53.0845C33.4877 80.3178 8.55587 138.72 4.56801 226.454C0.591973 313.929 24.0317 384.349 38.623 419.031C45.2631 434.814 56.6932 447.81 70.3298 458.166L72.6964 459.963C85.9883 470.057 103.317 473.157 119.284 468.298L132.65 464.231C147.061 459.845 159.385 450.367 167.281 437.539C174.282 426.164 182.899 412.112 189.248 401.587C198.554 386.158 210.366 370.572 215.938 363.438C217.543 361.383 220.667 361.399 222.405 363.343C231.063 373.023 256.366 397.269 292.615 397.269Z" fill="#CCCCCC" fill-opacity="0.95" stroke="#4D4D4D" stroke-width="7"/>
<path d="M274.004 9.19348C274.004 9.19348 261.719 17.4709 252.979 26.2108C251.802 27.3881 250.611 28.7071 249.432 30.1082C238.743 42.8131 237.298 60.4947 241.778 76.4821L273.863 190.98C281.122 216.885 304.735 234.791 331.637 234.791H409.513H492.509H570.385C597.287 234.791 620.9 216.885 628.159 190.98L660.244 76.4821C664.724 60.4947 663.279 42.8131 652.59 30.1082C651.411 28.7071 650.221 27.3881 649.043 26.2108C640.303 17.4709 628.018 9.19348 628.018 9.19348" stroke="#4D4D4D" stroke-width="5"/>
<circle cx="294.347" cy="319.786" r="62.2145" stroke="#4D4D4D" stroke-width="5"/>
<circle cx="599.255" cy="319.786" r="62.2145" stroke="#4D4D4D" stroke-width="5"/>
</svg>
