<svg width="822" height="487" viewBox="0 0 822 487" fill="none" xmlns="http://www.w3.org/2000/svg">
<path d="M207.119 5.26703C226.282 2.25256 245.91 5.14537 263.388 13.561L272.505 17.9516C280.018 21.5688 288.218 23.4457 296.552 23.4457H525.382C533.718 23.4457 541.948 21.5679 549.458 17.9516L558.577 13.561C576.055 5.14546 595.683 2.25256 614.846 5.26703L644.817 9.98187C674.863 14.7082 702.42 29.4788 722.991 51.8832L732.639 62.392C744.139 74.917 753.276 89.4694 759.154 105.492C767.066 127.058 779.221 161.561 791.193 200.931C800.226 230.637 807.391 261.782 812.552 287.142C819.904 323.263 819.25 360.319 813.106 396.502C807.727 428.179 787.802 455.5 759.285 470.302L757.038 471.468C733.665 483.599 706.171 484.962 681.714 475.201L600.537 442.802C594.945 440.571 589.985 438.194 584.448 436.177C579.096 434.228 573.943 432.924 568.927 433.008L568.925 433.009C568.893 433.01 568.844 433.012 568.781 433.014C568.653 433.018 568.461 433.024 568.208 433.033C567.703 433.049 566.95 433.074 565.959 433.105C563.978 433.167 561.045 433.256 557.24 433.363C549.628 433.576 538.522 433.861 524.536 434.145C496.564 434.713 457.071 435.281 410.982 435.281C345.308 435.281 284.351 433.977 254.725 433.227C242.819 432.926 231.014 435.166 220.08 439.856L140.634 473.932C116.04 484.481 88.0117 483.451 64.2593 471.122L62.6792 470.302C34.1614 455.5 14.2376 428.179 8.85889 396.502C2.7151 360.319 2.06064 323.264 9.4126 287.142C14.5742 261.782 21.7375 230.637 30.771 200.931C42.743 161.561 54.8991 127.058 62.811 105.492C68.6892 89.4694 77.826 74.9169 89.3257 62.392L98.9741 51.8832C119.545 29.4789 147.102 14.7082 177.148 9.98187L207.119 5.26703Z" fill="#CCCCCC" fill-opacity="0.95" stroke="#979797" stroke-width="7"/>
<circle cx="542.64" cy="341.003" r="70.8699" stroke="#979797" stroke-width="5"/>
<circle cx="172.706" cy="207.392" r="70.8699" stroke="#979797" stroke-width="5"/>
<path d="M69.1479 94.2847C69.1479 94.2847 77.3582 85.2325 85.6175 82.364C98.8176 77.7794 121.069 70.6657 147.587 64.6486C176.835 58.012 202.009 55.5512 215.173 54.6549C221.655 54.2136 228.116 55.1467 234.317 57.088L258.614 64.6953C269.312 68.0448 280.467 69.7082 291.677 69.6259L410.868 68.7502L530.059 69.6259C541.269 69.7082 552.424 68.0448 563.122 64.6953L587.419 57.088C593.619 55.1467 600.08 54.2136 606.563 54.6549C619.727 55.5512 644.901 58.012 674.149 64.6486C700.667 70.6657 722.918 77.7794 736.118 82.364C744.378 85.2325 752.588 94.2847 752.588 94.2847" stroke="#979797" stroke-width="5"/>
</svg>
