<svg width="822" height="487" viewBox="0 0 822 487" fill="none" xmlns="http://www.w3.org/2000/svg">
<path d="M139.255 470.716L218.7 436.639C230.103 431.748 242.41 429.414 254.814 429.728C284.425 430.478 345.35 431.781 410.982 431.781C503.105 431.781 568.854 429.509 568.854 429.509C580.14 429.314 591.351 435.368 601.834 439.552L683.012 471.95C706.524 481.334 732.956 480.024 755.425 468.362L757.673 467.195C785.216 452.899 804.46 426.512 809.655 395.917C815.741 360.076 816.373 323.464 809.122 287.84C803.973 262.54 796.834 231.512 787.844 201.949C775.897 162.661 763.765 128.222 755.868 106.697C750.158 91.1339 741.273 76.9703 730.061 64.7589L720.413 54.2503C700.377 32.4289 673.537 18.0425 644.273 13.4391L614.302 8.72458C595.841 5.82058 576.933 8.60763 560.095 16.7148L550.977 21.1049C542.992 24.9494 534.244 26.9458 525.382 26.9458H410.982H296.552C287.69 26.9458 278.972 24.9494 270.987 21.1049L261.87 16.7148C245.031 8.60763 226.124 5.82058 207.662 8.72458L177.691 13.4391C148.427 18.0425 121.587 32.4289 101.552 54.2503L91.9033 64.7589C80.6915 76.9703 71.8065 91.1339 66.0967 106.697C58.1998 128.222 46.0673 162.661 34.12 201.949C25.1302 231.512 17.9917 262.54 12.8422 287.84C5.59166 323.464 6.22339 360.076 12.3091 395.917C17.5041 426.512 36.748 452.899 64.2918 467.195L65.872 468.016C88.6939 479.861 115.624 480.852 139.255 470.716Z" fill="#E1E1E1"/>
<circle cx="542.64" cy="341.003" r="70.8699" stroke="#979797" stroke-width="5"/>
<circle cx="172.706" cy="207.392" r="70.8699" stroke="#979797" stroke-width="5"/>
<path d="M69.1479 94.2847C69.1479 94.2847 77.3582 85.2325 85.6175 82.364C98.8176 77.7794 121.069 70.6657 147.587 64.6486C176.835 58.012 202.009 55.5512 215.173 54.6549C221.655 54.2136 228.116 55.1467 234.317 57.088L258.614 64.6953C269.312 68.0448 280.467 69.7082 291.677 69.6259L410.868 68.7502L530.059 69.6259C541.269 69.7082 552.424 68.0448 563.122 64.6953L587.419 57.088C593.619 55.1467 600.08 54.2136 606.563 54.6549C619.727 55.5512 644.901 58.012 674.149 64.6486C700.667 70.6657 722.918 77.7794 736.118 82.364C744.378 85.2325 752.588 94.2847 752.588 94.2847" stroke="#979797" stroke-width="5"/>
<path d="M207.119 5.26703C226.282 2.25256 245.91 5.14537 263.388 13.561L272.505 17.9516C280.018 21.5688 288.218 23.4457 296.552 23.4457H525.382C533.718 23.4457 541.948 21.5679 549.458 17.9516L558.577 13.561C576.055 5.14546 595.683 2.25256 614.846 5.26703L644.817 9.98187C674.863 14.7082 702.42 29.4788 722.991 51.8832L732.639 62.392C744.139 74.917 753.276 89.4694 759.154 105.492C767.066 127.058 779.221 161.561 791.193 200.931C800.226 230.637 807.391 261.782 812.552 287.142C819.904 323.263 819.25 360.319 813.106 396.502C807.727 428.179 787.802 455.5 759.285 470.302L757.038 471.468C733.665 483.599 706.171 484.962 681.714 475.201L600.537 442.802C594.945 440.571 589.985 438.194 584.448 436.177C579.096 434.228 573.943 432.924 568.927 433.008L568.925 433.009C568.893 433.01 568.844 433.012 568.781 433.014C568.653 433.018 568.461 433.024 568.208 433.033C567.703 433.049 566.95 433.074 565.959 433.105C563.978 433.167 561.045 433.256 557.24 433.363C549.628 433.576 538.522 433.861 524.536 434.145C496.564 434.713 457.071 435.281 410.982 435.281C345.308 435.281 284.351 433.977 254.725 433.227C242.819 432.926 231.014 435.166 220.08 439.856L140.634 473.932C116.04 484.481 88.0117 483.451 64.2593 471.122L62.6792 470.302C34.1614 455.5 14.2376 428.179 8.85889 396.502C2.7151 360.319 2.06064 323.264 9.4126 287.142C14.5742 261.782 21.7375 230.637 30.771 200.931C42.743 161.561 54.8991 127.058 62.811 105.492C68.6892 89.4694 77.826 74.9169 89.3257 62.392L98.9741 51.8832C119.545 29.4789 147.102 14.7082 177.148 9.98187L207.119 5.26703Z" stroke="#404040" stroke-width="7"/>
</svg>
