<svg width="815" height="483" viewBox="0 0 815 483" fill="none" xmlns="http://www.w3.org/2000/svg">
<path d="M204.407 3.06494C223.169 0.113592 242.385 2.94667 259.498 11.186L268.616 15.5757C276.398 19.3228 284.894 21.2681 293.53 21.2681H522.36C530.996 21.268 539.523 19.3224 547.304 15.5757L556.421 11.186C573.534 2.94671 592.75 0.113675 611.512 3.06494L641.484 7.77979C671.083 12.4359 698.23 26.987 718.495 49.0581L728.143 59.5669C739.478 71.9127 748.471 86.2433 754.253 102.003C762.157 123.546 774.299 158.012 786.257 197.335C795.266 226.96 802.415 258.038 807.57 283.364C814.864 319.2 814.222 356.003 808.112 391.991C802.838 423.049 783.302 449.836 755.341 464.349L753.094 465.515C730.238 477.378 703.35 478.711 679.433 469.166L598.256 436.767C592.865 434.615 587.64 432.134 582.11 430.12C576.663 428.136 571.244 426.74 565.873 426.831L565.872 426.832C565.864 426.832 565.851 426.832 565.835 426.833C565.803 426.834 565.755 426.835 565.691 426.837C565.563 426.842 565.373 426.848 565.121 426.856C564.616 426.873 563.863 426.897 562.874 426.928C560.894 426.99 557.964 427.079 554.161 427.186C546.554 427.399 535.452 427.683 521.472 427.967C493.511 428.535 454.033 429.103 407.959 429.103C342.309 429.103 281.371 427.799 251.753 427.049C239.563 426.741 227.471 429.034 216.269 433.839L136.824 467.917C112.78 478.23 85.3794 477.222 62.1587 465.169L60.5786 464.349C32.6176 449.836 13.082 423.049 7.80811 391.991C1.69752 356.003 1.05613 319.2 8.3501 283.364C13.5048 258.038 20.6541 226.96 29.6626 197.335C41.6205 158.012 53.7632 123.546 61.6665 102.003C67.4484 86.2433 76.4407 71.9127 87.7759 59.5669L97.4243 49.0581C117.689 26.9868 144.837 12.4359 174.436 7.77979L204.407 3.06494Z" fill="#1C1D1F" stroke="#CBF262" stroke-width="3"/>
<circle cx="539.617" cy="336.825" r="72.3699" stroke="#CBF262" stroke-width="2"/>
<circle cx="169.684" cy="203.214" r="72.3699" stroke="#CBF262" stroke-width="2"/>
<path d="M66.1255 90.1071C66.1255 90.1071 74.3358 81.0549 82.5951 78.1863C95.7951 73.6018 118.046 66.488 144.564 60.4709C173.813 53.8343 198.986 51.3736 212.151 50.4773C218.633 50.0359 225.094 50.969 231.294 52.9103L255.592 60.5176C266.29 63.8671 277.444 65.5306 288.654 65.4482L407.845 64.5725L527.037 65.4482C538.247 65.5306 549.401 63.8671 560.099 60.5176L584.397 52.9103C590.597 50.969 597.058 50.0359 603.54 50.4773C616.705 51.3736 641.878 53.8343 671.126 60.4709C697.644 66.488 719.896 73.6018 733.096 78.1863C741.355 81.0549 749.565 90.1071 749.565 90.1071" stroke="#CBF262" stroke-width="2"/>
</svg>
