<svg width="822" height="487" viewBox="0 0 822 487" fill="none" xmlns="http://www.w3.org/2000/svg">
<path d="M207.096 4.77612C226.26 1.76165 245.887 4.65446 263.366 13.0701L272.483 17.4607C279.996 21.0779 288.195 22.9548 296.53 22.9548H525.36C533.696 22.9548 541.925 21.077 549.436 17.4607L558.554 13.0701C576.033 4.65455 595.66 1.76166 614.824 4.77612L644.794 9.49097C674.841 14.2173 702.398 28.9879 722.968 51.3923L732.617 61.9011C744.116 74.426 753.253 88.9785 759.131 105.001C767.043 126.567 779.198 161.071 791.17 200.44C800.204 230.147 807.368 261.291 812.53 286.651C819.882 322.773 819.227 359.829 813.083 396.011C807.705 427.688 787.78 455.009 759.262 469.811L757.015 470.977C733.643 483.108 706.149 484.471 681.692 474.71L600.514 442.311C594.923 440.08 589.962 437.703 584.425 435.686C579.074 433.737 573.921 432.433 568.905 432.517L568.903 432.518C568.87 432.519 568.822 432.521 568.758 432.523C568.63 432.528 568.439 432.533 568.186 432.542C567.68 432.558 566.927 432.583 565.937 432.614C563.955 432.676 561.023 432.765 557.217 432.872C549.606 433.085 538.499 433.37 524.513 433.654C496.542 434.222 457.049 434.79 410.959 434.79C345.286 434.79 284.329 433.486 254.703 432.736C242.797 432.435 230.991 434.675 220.057 439.365L140.612 473.441C116.018 483.991 87.9892 482.96 64.2368 470.632L62.6567 469.811C34.139 455.009 14.2151 427.688 8.83643 396.011C2.69264 359.829 2.03818 322.773 9.39014 286.651C14.5517 261.291 21.7151 230.147 30.7485 200.44C42.7206 161.071 54.8767 126.567 62.7886 105.001C68.6667 88.9785 77.8035 74.426 89.3032 61.9011L98.9517 51.3923C119.522 28.988 147.079 14.2173 177.125 9.49097L207.096 4.77612Z" fill="#1C1D1F" fill-opacity="0.95" stroke="#999999" stroke-width="7"/>
<circle cx="542.617" cy="340.512" r="70.8699" stroke="#999999" stroke-width="5"/>
<circle cx="172.684" cy="206.901" r="70.8699" stroke="#999999" stroke-width="5"/>
<path d="M69.1255 93.7938C69.1255 93.7938 77.3358 84.7416 85.5951 81.873C98.7951 77.2885 121.046 70.1747 147.564 64.1576C176.813 57.521 201.986 55.0603 215.151 54.164C221.633 53.7226 228.094 54.6557 234.294 56.597L258.592 64.2043C269.29 67.5538 280.444 69.2173 291.654 69.1349L410.845 68.2592L530.037 69.1349C541.247 69.2173 552.401 67.5538 563.099 64.2043L587.397 56.597C593.597 54.6557 600.058 53.7226 606.54 54.164C619.705 55.0603 644.878 57.521 674.126 64.1576C700.644 70.1747 722.896 77.2885 736.096 81.873C744.355 84.7416 752.565 93.7938 752.565 93.7938" stroke="#999999" stroke-width="5"/>
</svg>
