<svg width="822" height="487" viewBox="0 0 822 487" fill="none" xmlns="http://www.w3.org/2000/svg">
<path d="M207.096 4.75098C226.26 1.73651 245.887 4.62931 263.366 13.0449L272.483 17.4355C279.996 21.0528 288.195 22.9297 296.53 22.9297H525.36C533.696 22.9296 541.925 21.0519 549.436 17.4355L558.554 13.0449C576.033 4.6294 595.66 1.73651 614.824 4.75098L644.794 9.46582C674.841 14.1922 702.398 28.9627 722.968 51.3672L732.617 61.876C744.116 74.4009 753.253 88.9533 759.131 104.976C767.043 126.542 779.198 161.045 791.17 200.415C800.204 230.121 807.368 261.266 812.53 286.626C819.882 322.747 819.227 359.803 813.083 395.986C807.705 427.663 787.78 454.984 759.262 469.786L757.015 470.952C733.643 483.083 706.149 484.446 681.692 474.685L600.514 442.286C594.923 440.055 589.962 437.678 584.425 435.661C579.074 433.712 573.921 432.408 568.905 432.492L568.903 432.493C568.87 432.494 568.822 432.496 568.758 432.498C568.63 432.502 568.439 432.508 568.186 432.517C567.68 432.533 566.927 432.558 565.937 432.589C563.955 432.651 561.023 432.74 557.217 432.847C549.606 433.06 538.499 433.345 524.513 433.629C496.542 434.197 457.049 434.765 410.959 434.765C345.286 434.765 284.329 433.461 254.703 432.711C242.797 432.41 230.991 434.65 220.057 439.34L140.612 473.416C116.018 483.965 87.9892 482.935 64.2368 470.606L62.6567 469.786C34.139 454.984 14.2151 427.663 8.83643 395.986C2.69264 359.803 2.03818 322.747 9.39014 286.626C14.5517 261.266 21.7151 230.121 30.7485 200.415C42.7206 161.045 54.8767 126.542 62.7886 104.976C68.6667 88.9534 77.8035 74.4009 89.3032 61.876L98.9517 51.3672C119.522 28.9628 147.079 14.1922 177.125 9.46582L207.096 4.75098Z" fill="#CCCCCC" fill-opacity="0.95" stroke="#4D4D4D" stroke-width="7"/>
<circle cx="542.617" cy="340.487" r="70.8699" stroke="#4D4D4D" stroke-width="5"/>
<circle cx="172.684" cy="206.876" r="70.8699" stroke="#4D4D4D" stroke-width="5"/>
<path d="M69.1255 93.7687C69.1255 93.7687 77.3358 84.7165 85.5951 81.8479C98.7951 77.2634 121.046 70.1496 147.564 64.1326C176.813 57.4959 201.986 55.0352 215.151 54.1389C221.633 53.6976 228.094 54.6306 234.294 56.5719L258.592 64.1792C269.29 67.5287 280.444 69.1922 291.654 69.1098L410.845 68.2341L530.037 69.1098C541.247 69.1922 552.401 67.5287 563.099 64.1792L587.397 56.5719C593.597 54.6306 600.058 53.6976 606.54 54.1389C619.705 55.0352 644.878 57.4959 674.126 64.1326C700.644 70.1496 722.896 77.2634 736.096 81.8479C744.355 84.7165 752.565 93.7687 752.565 93.7687" stroke="#4D4D4D" stroke-width="5"/>
</svg>
