<svg width="893" height="471" viewBox="0 0 893 471" fill="none" xmlns="http://www.w3.org/2000/svg">
<path d="M290.615 395.294C318.867 395.294 338.502 384.09 349.276 375.661C355.957 370.434 363.983 366.503 372.465 366.503H520.713C529.196 366.503 537.221 370.434 543.902 375.661C554.677 384.09 574.311 395.294 602.564 395.294C638.812 395.294 664.115 371.048 672.773 361.368C674.511 359.424 677.635 359.408 679.24 361.463C684.812 368.597 696.624 384.183 705.93 399.612C712.279 410.137 720.896 424.189 727.897 435.564C735.793 448.393 748.117 457.87 762.529 462.256L775.894 466.323C791.861 471.182 809.19 468.082 822.482 457.988L824.848 456.191C838.485 445.836 849.915 432.839 856.555 417.056C871.147 382.374 894.586 311.954 890.61 224.48C886.622 136.745 861.691 78.3429 847.025 51.1097C840.619 39.2127 829.42 31.2136 816.211 28.3653C775.478 19.5813 667.598 2.41418 446.589 2.41418C225.58 2.41418 117.701 19.5813 76.9669 28.3653C63.7582 31.2136 52.5596 39.2127 46.153 51.1097C31.4877 78.3429 6.55587 136.745 2.56801 224.48C-1.40803 311.954 22.0317 382.374 36.623 417.056C43.2631 432.839 54.6932 445.836 68.3298 456.191L70.6964 457.988C83.9883 468.082 101.317 471.182 117.284 466.323L130.65 462.256C145.061 457.87 157.385 448.393 165.281 435.564C172.282 424.189 180.899 410.137 187.248 399.612C196.554 384.183 208.366 368.597 213.938 361.463C215.543 359.408 218.667 359.424 220.405 361.368C229.063 371.048 254.366 395.294 290.615 395.294Z" fill="#1C1D1F" fill-opacity="0.85" stroke="#999999" stroke-width="3"/>
<path d="M272.004 7.21863C272.004 7.21863 259.719 15.4961 250.979 24.2359C249.802 25.4133 248.611 26.7323 247.432 28.1333C236.743 40.8383 235.298 58.5199 239.778 74.5073L271.863 189.005C279.122 214.91 302.735 232.816 329.637 232.816H407.513H490.509H568.385C595.287 232.816 618.9 214.91 626.159 189.005L658.244 74.5073C662.724 58.5199 661.279 40.8383 650.59 28.1333C649.411 26.7323 648.221 25.4133 647.043 24.2359C638.303 15.4961 626.018 7.21863 626.018 7.21863" stroke="#999999" stroke-width="2"/>
<circle cx="292.347" cy="317.811" r="63.7145" stroke="#999999" stroke-width="2"/>
<circle cx="597.255" cy="317.811" r="63.7145" stroke="#999999" stroke-width="2"/>
</svg>
