<svg width="897" height="474" viewBox="0 0 897 474" fill="none" xmlns="http://www.w3.org/2000/svg">
<path d="M292.637 396.785C320.889 396.785 340.524 385.581 351.298 377.152C357.979 371.925 366.005 367.994 374.488 367.994H522.735C531.218 367.994 539.244 371.925 545.925 377.152C556.699 385.581 576.334 396.785 604.586 396.785C640.835 396.785 666.138 372.539 674.795 362.859C676.534 360.915 679.657 360.899 681.262 362.954C686.834 370.088 698.646 385.674 707.953 401.103C714.301 411.628 722.918 425.68 729.92 437.055C737.816 449.884 750.14 459.361 764.551 463.747L777.916 467.814C793.883 472.673 811.212 469.573 824.504 459.479L826.871 457.682C840.507 447.326 851.938 434.33 858.578 418.547C873.169 383.865 896.609 313.445 892.633 225.971C888.645 138.236 863.713 79.8338 849.048 52.6006C842.641 40.7036 831.443 32.7046 818.234 29.8562C777.5 21.0722 669.621 3.90509 448.612 3.90509C227.603 3.90509 119.723 21.0722 78.9893 29.8562C65.7807 32.7045 54.5821 40.7036 48.1755 52.6006C33.5102 79.8338 8.57833 138.236 4.59047 225.971C0.614434 313.445 24.0541 383.865 38.6455 418.547C45.2856 434.33 56.7157 447.326 70.3523 457.682L72.7188 459.479C86.0107 469.573 103.34 472.673 119.307 467.814L132.672 463.747C147.083 459.361 159.408 449.884 167.304 437.055C174.305 425.68 182.922 411.628 189.27 401.103C198.577 385.674 210.389 370.088 215.961 362.954C217.566 360.899 220.689 360.915 222.428 362.859C231.085 372.539 256.388 396.785 292.637 396.785Z" fill="#E1E1E1"/>
<path d="M274.026 8.70953C274.026 8.70953 261.741 16.987 253.001 25.7268C251.824 26.9042 250.634 28.2232 249.455 29.6242C238.766 42.3292 237.321 60.0108 241.801 75.9982L273.885 190.496C281.144 216.401 304.758 234.307 331.66 234.307H409.535H492.532H570.407C597.309 234.307 620.923 216.401 628.182 190.496L660.266 75.9982C664.746 60.0108 663.301 42.3292 652.612 29.6242C651.434 28.2232 650.243 26.9042 649.066 25.7268C640.326 16.987 628.041 8.70953 628.041 8.70953" stroke="#979797" stroke-width="5"/>
<circle cx="294.369" cy="319.302" r="62.2145" stroke="#979797" stroke-width="5"/>
<circle cx="599.277" cy="319.302" r="62.2145" stroke="#979797" stroke-width="5"/>
<path d="M292.637 396.785C320.889 396.785 340.524 385.581 351.298 377.152C357.979 371.925 366.005 367.994 374.488 367.994H522.735C531.218 367.994 539.244 371.925 545.925 377.152C556.699 385.581 576.334 396.785 604.586 396.785C640.835 396.785 666.138 372.539 674.795 362.859C676.534 360.915 679.657 360.899 681.262 362.954C686.834 370.088 698.646 385.674 707.953 401.103C714.301 411.628 722.918 425.68 729.92 437.055C737.816 449.884 750.14 459.361 764.551 463.747L777.916 467.814C793.883 472.673 811.212 469.573 824.504 459.479L826.871 457.682C840.507 447.326 851.938 434.33 858.578 418.547C873.169 383.865 896.609 313.445 892.633 225.971C888.645 138.236 863.713 79.8338 849.048 52.6006C842.641 40.7036 831.443 32.7046 818.234 29.8562C777.5 21.0722 669.621 3.90509 448.612 3.90509C227.603 3.90509 119.723 21.0722 78.9893 29.8562C65.7807 32.7045 54.5821 40.7036 48.1755 52.6006C33.5102 79.8338 8.57833 138.236 4.59047 225.971C0.614434 313.445 24.0541 383.865 38.6455 418.547C45.2856 434.33 56.7157 447.326 70.3523 457.682L72.7188 459.479C86.0107 469.573 103.34 472.673 119.307 467.814L132.672 463.747C147.083 459.361 159.408 449.884 167.304 437.055C174.305 425.68 182.922 411.628 189.27 401.103C198.577 385.674 210.389 370.088 215.961 362.954C217.566 360.899 220.689 360.915 222.428 362.859C231.085 372.539 256.388 396.785 292.637 396.785Z" stroke="#404040" stroke-width="7"/>
</svg>
