<svg width="815" height="484" viewBox="0 0 815 484" fill="none" xmlns="http://www.w3.org/2000/svg">
<path d="M204.407 3.72656C223.169 0.775214 242.385 3.60829 259.498 11.8477L268.616 16.2373C276.398 19.9844 284.894 21.9297 293.53 21.9297H522.36C530.996 21.9296 539.523 19.984 547.304 16.2373L556.421 11.8477C573.534 3.60833 592.75 0.775296 611.512 3.72656L641.484 8.44141C671.083 13.0975 698.23 27.6486 718.495 49.7197L728.143 60.2285C739.478 72.5743 748.471 86.9049 754.253 102.665C762.157 124.208 774.299 158.674 786.257 197.997C795.266 227.621 802.415 258.7 807.57 284.025C814.864 319.862 814.222 356.665 808.112 392.652C802.838 423.711 783.302 450.498 755.341 465.011L753.094 466.177C730.238 478.04 703.35 479.373 679.433 469.827L598.256 437.429C592.865 435.277 587.64 432.795 582.11 430.781C576.663 428.797 571.244 427.402 565.873 427.492L565.872 427.493C565.864 427.493 565.851 427.494 565.835 427.494C565.803 427.495 565.755 427.497 565.691 427.499C565.563 427.503 565.373 427.509 565.121 427.518C564.616 427.534 563.863 427.559 562.874 427.59C560.894 427.652 557.964 427.741 554.161 427.848C546.554 428.061 535.452 428.345 521.472 428.629C493.511 429.197 454.033 429.765 407.959 429.765C342.309 429.765 281.371 428.461 251.753 427.711C239.563 427.402 227.471 429.696 216.269 434.501L136.824 468.578C112.78 478.891 85.3794 477.883 62.1587 465.831L60.5786 465.011C32.6176 450.498 13.082 423.711 7.80811 392.652C1.69752 356.665 1.05613 319.862 8.3501 284.025C13.5048 258.7 20.6541 227.621 29.6626 197.997C41.6205 158.674 53.7632 124.208 61.6665 102.665C67.4484 86.9049 76.4407 72.5743 87.7759 60.2285L97.4243 49.7197C117.689 27.6484 144.837 13.0975 174.436 8.44141L204.407 3.72656Z" fill="#CCCCCC" fill-opacity="0.85" stroke="#4D4D4D" stroke-width="3"/>
<circle cx="539.617" cy="337.487" r="72.3699" stroke="#4D4D4D" stroke-width="2"/>
<circle cx="169.684" cy="203.876" r="72.3699" stroke="#4D4D4D" stroke-width="2"/>
<path d="M66.1255 90.7687C66.1255 90.7687 74.3358 81.7165 82.5951 78.8479C95.7951 74.2634 118.046 67.1496 144.564 61.1326C173.813 54.4959 198.986 52.0352 212.151 51.1389C218.633 50.6976 225.094 51.6306 231.294 53.5719L255.592 61.1792C266.29 64.5287 277.444 66.1922 288.654 66.1098L407.845 65.2341L527.037 66.1098C538.247 66.1922 549.401 64.5287 560.099 61.1792L584.397 53.5719C590.597 51.6306 597.058 50.6976 603.54 51.1389C616.705 52.0352 641.878 54.4959 671.126 61.1326C697.644 67.1496 719.896 74.2634 733.096 78.8479C741.355 81.7165 749.565 90.7687 749.565 90.7687" stroke="#4D4D4D" stroke-width="2"/>
</svg>
