<svg width="893" height="470" viewBox="0 0 893 470" fill="none" xmlns="http://www.w3.org/2000/svg">
<path d="M290.615 394.607C318.867 394.607 338.502 383.403 349.276 374.974C355.957 369.747 363.983 365.817 372.465 365.817H520.713C529.196 365.817 537.221 369.747 543.902 374.974C554.677 383.403 574.311 394.607 602.564 394.607C638.812 394.607 664.115 370.361 672.773 360.681C674.511 358.738 677.635 358.721 679.24 360.776C684.812 367.91 696.624 383.496 705.93 398.925C712.279 409.45 720.896 423.503 727.897 434.877C735.793 447.706 748.117 457.183 762.529 461.569L775.894 465.636C791.861 470.496 809.19 467.395 822.482 457.301L824.848 455.504C838.485 445.149 849.915 432.153 856.555 416.37C871.147 381.687 894.586 311.267 890.61 223.793C886.622 136.059 861.691 77.6561 847.025 50.4228C840.619 38.5259 829.42 30.5268 816.211 27.6784C775.478 18.8945 667.598 1.72736 446.589 1.72736C225.58 1.72736 117.701 18.8945 76.9669 27.6784C63.7582 30.5268 52.5596 38.5259 46.153 50.4228C31.4877 77.6561 6.55587 136.059 2.56801 223.793C-1.40803 311.267 22.0317 381.687 36.623 416.37C43.2631 432.153 54.6932 445.149 68.3298 455.504L70.6964 457.301C83.9883 467.395 101.317 470.496 117.284 465.636L130.65 461.569C145.061 457.183 157.385 447.706 165.281 434.877C172.282 423.503 180.899 409.45 187.248 398.925C196.554 383.496 208.366 367.91 213.938 360.776C215.543 358.721 218.667 358.738 220.405 360.681C229.063 370.361 254.366 394.607 290.615 394.607Z" fill="#1C1D1F" stroke="#CBF262" stroke-width="3"/>
<path d="M272.004 6.5318C272.004 6.5318 259.719 14.8092 250.979 23.5491C249.802 24.7265 248.611 26.0454 247.432 27.4465C236.743 40.1514 235.298 57.833 239.778 73.8204L271.863 188.319C279.122 214.223 302.735 232.129 329.637 232.129H407.513H490.509H568.385C595.287 232.129 618.9 214.223 626.159 188.319L658.244 73.8204C662.724 57.833 661.279 40.1514 650.59 27.4465C649.411 26.0454 648.221 24.7265 647.043 23.5491C638.303 14.8092 626.018 6.5318 626.018 6.5318" stroke="#CBF262" stroke-width="2"/>
<circle cx="292.347" cy="317.124" r="63.7145" stroke="#CBF262" stroke-width="2"/>
<circle cx="597.255" cy="317.124" r="63.7145" stroke="#CBF262" stroke-width="2"/>
</svg>
