<svg width="893" height="471" viewBox="0 0 893 471" fill="none" xmlns="http://www.w3.org/2000/svg">
<path d="M290.615 395.269C318.867 395.269 338.502 384.065 349.276 375.636C355.957 370.409 363.983 366.478 372.465 366.478H520.713C529.196 366.478 537.221 370.409 543.902 375.636C554.677 384.065 574.311 395.269 602.564 395.269C638.812 395.269 664.115 371.023 672.773 361.343C674.511 359.399 677.635 359.383 679.24 361.438C684.812 368.572 696.624 384.158 705.93 399.587C712.279 410.112 720.896 424.164 727.897 435.539C735.793 448.367 748.117 457.845 762.529 462.231L775.894 466.298C791.861 471.157 809.19 468.057 822.482 457.963L824.848 456.166C838.485 445.81 849.915 432.814 856.555 417.031C871.147 382.349 894.586 311.929 890.61 224.454C886.622 136.72 861.691 78.3178 847.025 51.0845C840.619 39.1875 829.42 31.1885 816.211 28.3401C775.478 19.5561 667.598 2.38904 446.589 2.38904C225.58 2.38904 117.701 19.5561 76.9669 28.3401C63.7582 31.1885 52.5596 39.1876 46.153 51.0845C31.4877 78.3178 6.55587 136.72 2.56801 224.454C-1.40803 311.929 22.0317 382.349 36.623 417.031C43.2631 432.814 54.6932 445.81 68.3298 456.166L70.6964 457.963C83.9883 468.057 101.317 471.157 117.284 466.298L130.65 462.231C145.061 457.845 157.385 448.367 165.281 435.539C172.282 424.164 180.899 410.112 187.248 399.587C196.554 384.158 208.366 368.572 213.938 361.438C215.543 359.383 218.667 359.399 220.405 361.343C229.063 371.023 254.366 395.269 290.615 395.269Z" fill="#CCCCCC" fill-opacity="0.85" stroke="#4D4D4D" stroke-width="3"/>
<path d="M272.004 7.19348C272.004 7.19348 259.719 15.4709 250.979 24.2108C249.802 25.3881 248.611 26.7071 247.432 28.1082C236.743 40.8131 235.298 58.4947 239.778 74.4821L271.863 188.98C279.122 214.885 302.735 232.791 329.637 232.791H407.513H490.509H568.385C595.287 232.791 618.9 214.885 626.159 188.98L658.244 74.4821C662.724 58.4947 661.279 40.8131 650.59 28.1082C649.411 26.7071 648.221 25.3881 647.043 24.2108C638.303 15.4709 626.018 7.19348 626.018 7.19348" stroke="#4D4D4D" stroke-width="2"/>
<circle cx="292.347" cy="317.786" r="63.7145" stroke="#4D4D4D" stroke-width="2"/>
<circle cx="597.255" cy="317.786" r="63.7145" stroke="#4D4D4D" stroke-width="2"/>
</svg>
