<svg width="86" height="67" viewBox="0 0 86 67" fill="none" xmlns="http://www.w3.org/2000/svg">
<path d="M3.55518 33.3213C3.55518 26.8182 4.13638 20.866 4.78467 16.2432C5.83354 8.76418 12.4298 3.87124 19.6118 4.01953L52.3413 4.69532C56.0578 4.77206 59.6032 6.27319 62.2446 8.88868L78.6665 25.1494C83.2112 29.6495 83.2112 36.9931 78.6665 41.4932L62.2446 57.7539C59.6032 60.3694 56.0578 61.8705 52.3413 61.9473L19.6118 62.623C12.4298 62.7713 5.83353 57.8784 4.78467 50.3994C4.13638 45.7766 3.55518 39.8244 3.55518 33.3213Z" fill="#CCCCCC" stroke="#4D4D4D" stroke-width="7"/>
<path d="M14.787 34.62C14.1481 33.872 14.1481 32.7704 14.787 32.0223L21.0443 24.6956C21.6478 23.9889 22.8047 24.4157 22.8047 25.345L22.8047 41.2973C22.8047 42.2266 21.6478 42.6534 21.0443 41.9468L14.787 34.62Z" fill="#4D4D4D"/>
</svg>
