<svg width="87" height="67" viewBox="0 0 87 67" fill="none" xmlns="http://www.w3.org/2000/svg">
<path d="M82.7227 33.3464C82.7227 39.8495 82.1415 45.8017 81.4932 50.4246C80.4443 57.9035 73.848 62.7965 66.666 62.6482L33.9365 61.9724C30.2201 61.8957 26.6746 60.3945 24.0332 57.7791L7.61133 41.5183C3.06664 37.0183 3.06663 29.6746 7.61133 25.1746L24.0332 8.91382C26.6746 6.29833 30.2201 4.7972 33.9365 4.72046L66.666 4.04468C73.848 3.89638 80.4443 8.78933 81.4932 16.2683C82.1415 20.8911 82.7227 26.8434 82.7227 33.3464Z" fill="#3A3C40" stroke="#999999" stroke-width="7"/>
<path d="M71.4908 32.0477C72.1297 32.7958 72.1297 33.8973 71.4908 34.6454L65.2336 41.9721C64.6301 42.6788 63.4731 42.252 63.4731 41.3227L63.4731 25.3704C63.4731 24.4411 64.6301 24.0143 65.2336 24.721L71.4908 32.0477Z" fill="#999999"/>
</svg>
