<svg width="66" height="86" viewBox="0 0 66 86" fill="none" xmlns="http://www.w3.org/2000/svg">
<path d="M33.1724 3.49927C39.6754 3.49927 45.6277 4.08047 50.2505 4.72876C57.7295 5.77762 62.6224 12.3739 62.4741 19.5559L61.7983 52.2854C61.7216 56.0019 60.2205 59.5473 57.605 62.1887L41.3442 78.6106C36.8442 83.1553 29.5005 83.1553 25.0005 78.6106L8.73975 62.1887C6.12426 59.5473 4.62313 56.0019 4.54639 52.2854L3.87061 19.5559C3.72231 12.3739 8.61525 5.77762 16.0942 4.72876C20.7171 4.08047 26.6693 3.49927 33.1724 3.49927Z" fill="#3A3C40" stroke="#999999" stroke-width="7"/>
<path d="M31.8734 14.7311C32.6215 14.0922 33.723 14.0922 34.4711 14.7311L41.7978 20.9884C42.5045 21.5919 42.0777 22.7488 41.1484 22.7488H25.1961C24.2668 22.7488 23.84 21.5919 24.5467 20.9884L31.8734 14.7311Z" fill="#999999"/>
</svg>
