<svg width="83" height="63" viewBox="0 0 83 63" fill="none" xmlns="http://www.w3.org/2000/svg">
<path d="M79.7227 31.3213C79.7227 37.7669 79.1465 43.6716 78.5029 48.2607C77.5315 55.1868 71.4156 59.762 64.6865 59.623L31.957 58.9473C28.4969 58.8758 25.1966 57.4781 22.7373 55.043L6.31445 38.7822C2.16539 34.6736 2.16539 27.969 6.31445 23.8603L22.7373 7.59961C25.1966 5.16452 28.4969 3.76676 31.957 3.69531L64.6865 3.01953C71.4156 2.88059 77.5315 7.45583 78.5029 14.3818C79.1465 18.971 79.7227 24.8757 79.7227 31.3213Z" fill="#CCCCCC" stroke="#4D4D4D" stroke-width="5"/>
<path d="M69.4908 30.0226C70.1297 30.7706 70.1297 31.8722 69.4908 32.6203L63.2336 39.947C62.6301 40.6537 61.4731 40.2269 61.4731 39.2976L61.4731 23.3453C61.4731 22.416 62.6301 21.9892 63.2336 22.6958L69.4908 30.0226Z" fill="#4D4D4D"/>
</svg>
