<svg width="62" height="83" viewBox="0 0 62 83" fill="none" xmlns="http://www.w3.org/2000/svg">
<path d="M31.1724 3.47412C37.618 3.47412 43.5226 4.05028 48.1118 4.69385C55.0378 5.66527 59.6131 11.7812 59.4741 18.5103L58.7983 51.2397C58.7269 54.6999 57.3291 58.0002 54.894 60.4595L38.6333 76.8823C34.5247 81.0314 27.8201 81.0314 23.7114 76.8823L7.45068 60.4595C5.01559 58.0002 3.61783 54.6999 3.54639 51.2397L2.87061 18.5103C2.73166 11.7812 7.3069 5.66527 14.2329 4.69385C18.8221 4.05028 24.7267 3.47412 31.1724 3.47412Z" fill="#CCCCCC" stroke="#4D4D4D" stroke-width="5"/>
<path d="M29.8734 13.7059C30.6215 13.0671 31.723 13.0671 32.4711 13.7059L39.7978 19.9632C40.5045 20.5667 40.0777 21.7236 39.1484 21.7236H23.1961C22.2668 21.7236 21.84 20.5667 22.5467 19.9632L29.8734 13.7059Z" fill="#4D4D4D"/>
</svg>
