<svg width="62" height="82" viewBox="0 0 62 82" fill="none" xmlns="http://www.w3.org/2000/svg">
<path d="M31.1724 2.81244C37.618 2.81244 43.5226 3.3886 48.1118 4.03217C55.0378 5.00358 59.6131 11.1195 59.4741 17.8486L58.7983 50.5781C58.7269 54.0382 57.3291 57.3385 54.894 59.7978L38.6333 76.2206C34.5247 80.3697 27.8201 80.3697 23.7114 76.2206L7.45068 59.7978C5.01559 57.3385 3.61783 54.0382 3.54639 50.5781L2.87061 17.8486C2.73166 11.1195 7.3069 5.00358 14.2329 4.03217C18.8221 3.3886 24.7267 2.81244 31.1724 2.81244Z" fill="#F4F4F4" stroke="black" stroke-width="5"/>
<path d="M29.8734 13.0443C30.6215 12.4054 31.723 12.4054 32.4711 13.0443L39.7978 19.3015C40.5045 19.905 40.0777 21.062 39.1484 21.062H23.1961C22.2668 21.062 21.84 19.905 22.5467 19.3015L29.8734 13.0443Z" fill="black"/>
</svg>
