<svg width="83" height="63" viewBox="0 0 83 63" fill="none" xmlns="http://www.w3.org/2000/svg">
<path d="M79.7227 31.6596C79.7227 38.1052 79.1465 44.0099 78.5029 48.5991C77.5315 55.5251 71.4156 60.1003 64.6865 59.9614L31.957 59.2856C28.4969 59.2141 25.1966 57.8164 22.7373 55.3813L6.31445 39.1205C2.16539 35.0119 2.16539 28.3073 6.31445 24.1987L22.7373 7.93792C25.1966 5.50284 28.4969 4.10507 31.957 4.03363L64.6865 3.35785C71.4156 3.2189 77.5315 7.79414 78.5029 14.7202C79.1465 19.3093 79.7227 25.214 79.7227 31.6596Z" fill="#1C1D1F" stroke="#CBF262" stroke-width="5"/>
<path d="M69.4908 30.3609C70.1297 31.1089 70.1297 32.2105 69.4908 32.9586L63.2336 40.2853C62.6301 40.992 61.4731 40.5652 61.4731 39.6359L61.4731 23.6836C61.4731 22.7543 62.6301 22.3275 63.2336 23.0341L69.4908 30.3609Z" fill="#CBF262"/>
</svg>
