<svg width="82" height="63" viewBox="0 0 82 63" fill="none" xmlns="http://www.w3.org/2000/svg">
<path d="M2.55518 31.6596C2.55518 25.214 3.13134 19.3093 3.77491 14.7202C4.74633 7.79414 10.8622 3.21891 17.5913 3.35785L50.3208 4.03364C53.781 4.10508 57.0813 5.50284 59.5405 7.93793L75.9634 24.1987C80.1124 28.3073 80.1124 35.0119 75.9634 39.1206L59.5405 55.3813C57.0813 57.8164 53.7809 59.2141 50.3208 59.2856L17.5913 59.9614C10.8622 60.1003 4.74632 55.5251 3.7749 48.5991C3.13133 44.0099 2.55518 38.1052 2.55518 31.6596Z" fill="#1C1D1F" stroke="#CBF262" stroke-width="5"/>
<path d="M12.787 32.9583C12.1481 32.2103 12.1481 31.1087 12.787 30.3606L19.0443 23.0339C19.6478 22.3272 20.8047 22.754 20.8047 23.6833L20.8047 39.6356C20.8047 40.5649 19.6478 40.9917 19.0443 40.2851L12.787 32.9583Z" fill="#CBF262"/>
</svg>
