<svg width="66" height="87" viewBox="0 0 66 87" fill="none" xmlns="http://www.w3.org/2000/svg">
<path d="M33.1724 82.5161C26.6693 82.5161 20.7171 81.9349 16.0942 81.2866C8.61526 80.2378 3.72231 73.6415 3.87061 66.4595L4.54639 33.73C4.62313 30.0135 6.12426 26.4681 8.73975 23.8267L25.0005 7.40478C29.5005 2.86009 36.8442 2.86009 41.3442 7.40478L57.605 23.8267C60.2205 26.4681 61.7216 30.0135 61.7983 33.73L62.4741 66.4595C62.6224 73.6415 57.7295 80.2378 50.2505 81.2866C45.6277 81.9349 39.6754 82.5161 33.1724 82.5161Z" fill="#CCCCCC" stroke="#4D4D4D" stroke-width="7"/>
<path d="M34.4713 71.2843C33.7233 71.9232 32.6217 71.9232 31.8736 71.2843L24.5469 65.027C23.8402 64.4235 24.267 63.2666 25.1963 63.2666L41.1486 63.2666C42.0779 63.2666 42.5047 64.4235 41.7981 65.027L34.4713 71.2843Z" fill="#4D4D4D"/>
</svg>
