<svg width="66" height="87" viewBox="0 0 66 87" fill="none" xmlns="http://www.w3.org/2000/svg">
<path d="M33.1724 82.5413C26.6693 82.5413 20.7171 81.9601 16.0942 81.3118C8.61526 80.2629 3.72231 73.6666 3.87061 66.4846L4.54639 33.7551C4.62313 30.0387 6.12426 26.4932 8.73975 23.8518L25.0005 7.42993C29.5005 2.88524 36.8442 2.88524 41.3442 7.42993L57.605 23.8518C60.2205 26.4933 61.7216 30.0387 61.7983 33.7551L62.4741 66.4846C62.6224 73.6666 57.7295 80.2629 50.2505 81.3118C45.6277 81.9601 39.6754 82.5413 33.1724 82.5413Z" fill="#3A3C40" stroke="#999999" stroke-width="7"/>
<path d="M34.4713 71.3094C33.7233 71.9483 32.6217 71.9483 31.8736 71.3094L24.5469 65.0522C23.8402 64.4487 24.267 63.2917 25.1963 63.2917L41.1486 63.2917C42.0779 63.2917 42.5047 64.4487 41.7981 65.0522L34.4713 71.3094Z" fill="#999999"/>
</svg>
