<svg width="62" height="83" viewBox="0 0 62 83" fill="none" xmlns="http://www.w3.org/2000/svg">
<path d="M31.1724 79.5161C24.7267 79.5161 18.8221 78.94 14.2329 78.2964C7.3069 77.325 2.73166 71.2091 2.87061 64.48L3.54639 31.7505C3.61784 28.2903 5.0156 24.99 7.45069 22.5308L23.7114 6.10791C27.8201 1.95885 34.5247 1.95885 38.6333 6.10791L54.894 22.5308C57.3291 24.99 58.7269 28.2903 58.7983 31.7505L59.4741 64.48C59.6131 71.2091 55.0378 77.325 48.1118 78.2964C43.5226 78.94 37.618 79.5161 31.1724 79.5161Z" fill="#CCCCCC" stroke="#4D4D4D" stroke-width="5"/>
<path d="M32.4713 69.2843C31.7233 69.9232 30.6217 69.9232 29.8736 69.2843L22.5469 63.027C21.8402 62.4235 22.267 61.2666 23.1963 61.2666L39.1486 61.2666C40.0779 61.2666 40.5047 62.4235 39.7981 63.027L32.4713 69.2843Z" fill="#4D4D4D"/>
</svg>
