<svg width="62" height="83" viewBox="0 0 62 83" fill="none" xmlns="http://www.w3.org/2000/svg">
<path d="M31.1724 79.5413C24.7267 79.5413 18.8221 78.9651 14.2329 78.3215C7.3069 77.3501 2.73166 71.2342 2.87061 64.5051L3.54639 31.7756C3.61784 28.3155 5.0156 25.0152 7.45069 22.5559L23.7114 6.13305C27.8201 1.984 34.5247 1.98399 38.6333 6.13306L54.894 22.5559C57.3291 25.0152 58.7269 28.3155 58.7983 31.7756L59.4741 64.5051C59.6131 71.2342 55.0378 77.3501 48.1118 78.3215C43.5226 78.9651 37.618 79.5413 31.1724 79.5413Z" fill="#3A3C40" stroke="#999999" stroke-width="5"/>
<path d="M32.4713 69.3094C31.7233 69.9483 30.6217 69.9483 29.8736 69.3094L22.5469 63.0522C21.8402 62.4487 22.267 61.2917 23.1963 61.2917L39.1486 61.2917C40.0779 61.2917 40.5047 62.4487 39.7981 63.0522L32.4713 69.3094Z" fill="#999999"/>
</svg>
