<svg width="82" height="63" viewBox="0 0 82 63" fill="none" xmlns="http://www.w3.org/2000/svg">
<path d="M2.55518 31.3213C2.55518 24.8757 3.13134 18.971 3.77491 14.3818C4.74633 7.45583 10.8622 2.88059 17.5913 3.01953L50.3208 3.69532C53.781 3.76677 57.0813 5.16452 59.5405 7.59962L75.9634 23.8604C80.1124 27.969 80.1124 34.6736 75.9634 38.7822L59.5405 55.043C57.0813 57.4781 53.7809 58.8758 50.3208 58.9473L17.5913 59.623C10.8622 59.762 4.74632 55.1868 3.7749 48.2607C3.13133 43.6716 2.55518 37.7669 2.55518 31.3213Z" fill="#CCCCCC" stroke="#4D4D4D" stroke-width="5"/>
<path d="M12.787 32.62C12.1481 31.872 12.1481 30.7704 12.787 30.0223L19.0443 22.6956C19.6478 21.9889 20.8047 22.4157 20.8047 23.345L20.8047 39.2973C20.8047 40.2266 19.6478 40.6534 19.0443 39.9468L12.787 32.62Z" fill="#4D4D4D"/>
</svg>
