<svg width="87" height="67" viewBox="0 0 87 67" fill="none" xmlns="http://www.w3.org/2000/svg">
<path d="M82.7227 33.3213C82.7227 39.8244 82.1415 45.7766 81.4932 50.3994C80.4443 57.8784 73.848 62.7713 66.666 62.623L33.9365 61.9473C30.2201 61.8705 26.6746 60.3694 24.0332 57.7539L7.61133 41.4932C3.06664 36.9931 3.06663 29.6494 7.61133 25.1494L24.0332 8.88867C26.6746 6.27318 30.2201 4.77205 33.9365 4.69531L66.666 4.01953C73.848 3.87124 80.4443 8.76418 81.4932 16.2432C82.1415 20.866 82.7227 26.8182 82.7227 33.3213Z" fill="#CCCCCC" stroke="#4D4D4D" stroke-width="7"/>
<path d="M71.4908 32.0226C72.1297 32.7706 72.1297 33.8722 71.4908 34.6203L65.2336 41.947C64.6301 42.6537 63.4731 42.2269 63.4731 41.2976L63.4731 25.3453C63.4731 24.416 64.6301 23.9892 65.2336 24.6958L71.4908 32.0226Z" fill="#4D4D4D"/>
</svg>
