<svg width="83" height="63" viewBox="0 0 83 63" fill="none" xmlns="http://www.w3.org/2000/svg">
<path d="M79.7227 31.3464C79.7227 37.7921 79.1465 43.6967 78.5029 48.2859C77.5315 55.2119 71.4156 59.7871 64.6865 59.6482L31.957 58.9724C28.4969 58.901 25.1966 57.5032 22.7373 55.0681L6.31445 38.8074C2.16539 34.6987 2.16539 27.9941 6.31445 23.8855L22.7373 7.62475C25.1966 5.18966 28.4969 3.7919 31.957 3.72046L64.6865 3.04468C71.4156 2.90573 77.5315 7.48097 78.5029 14.407C79.1465 18.9962 79.7227 24.9008 79.7227 31.3464Z" fill="#3A3C40" stroke="#999999" stroke-width="5"/>
<path d="M69.4908 30.0477C70.1297 30.7958 70.1297 31.8973 69.4908 32.6454L63.2336 39.9721C62.6301 40.6788 61.4731 40.252 61.4731 39.3227L61.4731 23.3704C61.4731 22.4411 62.6301 22.0143 63.2336 22.721L69.4908 30.0477Z" fill="#999999"/>
</svg>
