<svg width="86" height="67" viewBox="0 0 86 67" fill="none" xmlns="http://www.w3.org/2000/svg">
<path d="M3.55518 33.3464C3.55518 26.8434 4.13638 20.8911 4.78467 16.2683C5.83354 8.78933 12.4298 3.89638 19.6118 4.04468L52.3413 4.72046C56.0578 4.7972 59.6032 6.29834 62.2446 8.91383L78.6665 25.1746C83.2112 29.6746 83.2112 37.0183 78.6665 41.5183L62.2446 57.7791C59.6032 60.3945 56.0578 61.8957 52.3413 61.9724L19.6118 62.6482C12.4298 62.7965 5.83353 57.9035 4.78467 50.4246C4.13638 45.8017 3.55518 39.8495 3.55518 33.3464Z" fill="#3A3C40" stroke="#999999" stroke-width="7"/>
<path d="M14.787 34.6452C14.1481 33.8971 14.1481 32.7955 14.787 32.0475L21.0443 24.7207C21.6478 24.0141 22.8047 24.4409 22.8047 25.3702L22.8047 41.3225C22.8047 42.2518 21.6478 42.6786 21.0443 41.9719L14.787 34.6452Z" fill="#999999"/>
</svg>
