<svg width="82" height="63" viewBox="0 0 82 63" fill="none" xmlns="http://www.w3.org/2000/svg">
<path d="M2.55518 31.3464C2.55518 24.9008 3.13134 18.9962 3.77491 14.407C4.74633 7.48097 10.8622 2.90573 17.5913 3.04468L50.3208 3.72046C53.781 3.79191 57.0813 5.18967 59.5405 7.62476L75.9634 23.8855C80.1124 27.9942 80.1124 34.6987 75.9634 38.8074L59.5405 55.0681C57.0813 57.5032 53.7809 58.901 50.3208 58.9724L17.5913 59.6482C10.8622 59.7871 4.74632 55.2119 3.7749 48.2859C3.13133 43.6967 2.55518 37.7921 2.55518 31.3464Z" fill="#3A3C40" stroke="#999999" stroke-width="5"/>
<path d="M12.787 32.6452C12.1481 31.8971 12.1481 30.7955 12.787 30.0475L19.0443 22.7207C19.6478 22.0141 20.8047 22.4409 20.8047 23.3702L20.8047 39.3225C20.8047 40.2518 19.6478 40.6786 19.0443 39.9719L12.787 32.6452Z" fill="#999999"/>
</svg>
