<svg width="62" height="82" viewBox="0 0 62 82" fill="none" xmlns="http://www.w3.org/2000/svg">
<path d="M31.1724 2.49927C37.618 2.49927 43.5226 3.07542 48.1118 3.71899C55.0378 4.69041 59.6131 10.8063 59.4741 17.5354L58.7983 50.2649C58.7269 53.725 57.3291 57.0253 54.894 59.4846L38.6333 75.9075C34.5247 80.0565 27.8201 80.0565 23.7114 75.9075L7.45068 59.4846C5.01559 57.0253 3.61783 53.725 3.54639 50.2649L2.87061 17.5354C2.73166 10.8063 7.3069 4.69041 14.2329 3.71899C18.8221 3.07542 24.7267 2.49927 31.1724 2.49927Z" fill="#3A3C40" stroke="#999999" stroke-width="5"/>
<path d="M29.8734 12.7311C30.6215 12.0922 31.723 12.0922 32.4711 12.7311L39.7978 18.9884C40.5045 19.5919 40.0777 20.7488 39.1484 20.7488H23.1961C22.2668 20.7488 21.84 19.5919 22.5467 18.9884L29.8734 12.7311Z" fill="#999999"/>
</svg>
