<svg width="66" height="87" viewBox="0 0 66 87" fill="none" xmlns="http://www.w3.org/2000/svg">
<path d="M33.1724 4.47412C39.6754 4.47412 45.6277 5.05532 50.2505 5.70361C57.7295 6.75248 62.6224 13.3488 62.4741 20.5308L61.7983 53.2603C61.7216 56.9767 60.2205 60.5221 57.605 63.1636L41.3442 79.5854C36.8442 84.1301 29.5005 84.1301 25.0005 79.5854L8.73975 63.1636C6.12426 60.5221 4.62313 56.9767 4.54639 53.2603L3.87061 20.5308C3.72231 13.3488 8.61525 6.75248 16.0942 5.70361C20.7171 5.05532 26.6693 4.47412 33.1724 4.47412Z" fill="#CCCCCC" stroke="#4D4D4D" stroke-width="7"/>
<path d="M31.8734 15.7059C32.6215 15.0671 33.723 15.0671 34.4711 15.7059L41.7978 21.9632C42.5045 22.5667 42.0777 23.7236 41.1484 23.7236H25.1961C24.2668 23.7236 23.84 22.5667 24.5467 21.9632L31.8734 15.7059Z" fill="#4D4D4D"/>
</svg>
