<svg width="62" height="83" viewBox="0 0 62 83" fill="none" xmlns="http://www.w3.org/2000/svg">
<path d="M31.1724 79.8544C24.7267 79.8544 18.8221 79.2783 14.2329 78.6347C7.3069 77.6633 2.73166 71.5474 2.87061 64.8183L3.54639 32.0888C3.61784 28.6287 5.0156 25.3283 7.45069 22.8691L23.7114 6.44623C27.8201 2.29717 34.5247 2.29716 38.6333 6.44623L54.894 22.8691C57.3291 25.3284 58.7269 28.6287 58.7983 32.0888L59.4741 64.8183C59.6131 71.5474 55.0378 77.6633 48.1118 78.6347C43.5226 79.2783 37.618 79.8544 31.1724 79.8544Z" fill="#1C1D1F" stroke="#CBF262" stroke-width="5"/>
<path d="M32.4713 69.6226C31.7233 70.2615 30.6217 70.2615 29.8736 69.6226L22.5469 63.3653C21.8402 62.7618 22.267 61.6049 23.1963 61.6049L39.1486 61.6049C40.0779 61.6049 40.5047 62.7618 39.7981 63.3653L32.4713 69.6226Z" fill="#CBF262"/>
</svg>
