<svg width="161" height="75" viewBox="0 0 161 75" fill="none" xmlns="http://www.w3.org/2000/svg">
<path d="M4.34281 49.1237L3.79751 67.9574C3.74094 69.9112 5.52582 71.4062 7.43948 71.0078C16.5051 69.1206 40.7972 64.3226 67.0903 61.3081C88.965 58.8002 109.116 56.9504 120.373 55.9761C126.539 55.4424 132.556 53.7737 138.091 51.0061L154.618 42.7425C156.284 41.9099 157.149 40.0423 156.63 38.2544C155.591 34.6773 153.576 28.4136 150.548 21.8691C148.407 17.2423 146.133 12.9654 144.302 9.69572C142.088 5.74318 137.851 3.44579 133.323 3.60908C123.132 3.97666 103.443 4.98798 81.9409 7.69457C57.2999 10.7962 36.8214 17.1308 29.2601 19.6719C27.1718 20.3738 25.245 21.4457 23.4991 22.7895L14.0841 30.0359C8.13638 34.6136 4.56003 41.6214 4.34281 49.1237Z" fill="#3A3C40" stroke="#999999" stroke-width="7"/>
</svg>
