<svg width="157" height="71" viewBox="0 0 157 71" fill="none" xmlns="http://www.w3.org/2000/svg">
<path d="M2.34281 47.1237L1.79751 65.9574C1.74094 67.9112 3.52582 69.4062 5.43948 69.0078C14.5051 67.1206 38.7972 62.3226 65.0903 59.3081C86.965 56.8002 107.116 54.9504 118.373 53.9761C124.539 53.4424 130.556 51.7737 136.091 49.0061L152.618 40.7425C154.284 39.9099 155.149 38.0423 154.63 36.2544C153.591 32.6773 151.576 26.4136 148.548 19.8691C146.407 15.2423 144.133 10.9654 142.302 7.69572C140.088 3.74318 135.851 1.44579 131.323 1.60908C121.132 1.97666 101.443 2.98798 79.9409 5.69457C55.2999 8.79624 34.8214 15.1308 27.2601 17.6719C25.1718 18.3738 23.245 19.4457 21.4991 20.7895L12.0841 28.0359C6.13638 32.6136 2.56003 39.6214 2.34281 47.1237Z" fill="#3A3C40" stroke="#999999" stroke-width="3"/>
</svg>
