<svg width="161" height="75" viewBox="0 0 161 75" fill="none" xmlns="http://www.w3.org/2000/svg">
<path d="M4.34281 49.0986L3.79751 67.9322C3.74094 69.8861 5.52582 71.381 7.43948 70.9827C16.5051 69.0955 40.7972 64.2975 67.0903 61.283C88.965 58.775 109.116 56.9253 120.373 55.9509C126.539 55.4172 132.556 53.7485 138.091 50.9809L154.618 42.7174C156.284 41.8848 157.149 40.0172 156.63 38.2293C155.591 34.6522 153.576 28.3884 150.548 21.844C148.407 17.2172 146.133 12.9403 144.302 9.67057C142.088 5.71803 137.851 3.42064 133.323 3.58393C123.132 3.95151 103.443 4.96284 81.9409 7.66942C57.2999 10.7711 36.8214 17.1056 29.2601 19.6468C27.1718 20.3486 25.245 21.4206 23.4991 22.7643L14.0841 30.0107C8.13638 34.5885 4.56003 41.5963 4.34281 49.0986Z" fill="#CCCCCC" stroke="#4D4D4D" stroke-width="7"/>
</svg>
