<svg width="157" height="71" viewBox="0 0 157 71" fill="none" xmlns="http://www.w3.org/2000/svg">
<path d="M2.34281 47.0986L1.79751 65.9322C1.74094 67.8861 3.52582 69.381 5.43948 68.9827C14.5051 67.0955 38.7972 62.2975 65.0903 59.283C86.965 56.775 107.116 54.9253 118.373 53.9509C124.539 53.4172 130.556 51.7485 136.091 48.9809L152.618 40.7174C154.284 39.8848 155.149 38.0172 154.63 36.2293C153.591 32.6522 151.576 26.3884 148.548 19.844C146.407 15.2172 144.133 10.9403 142.302 7.67057C140.088 3.71803 135.851 1.42064 131.323 1.58393C121.132 1.95151 101.443 2.96284 79.9409 5.66942C55.2999 8.77109 34.8214 15.1056 27.2601 17.6468C25.1718 18.3486 23.245 19.4206 21.4991 20.7643L12.0841 28.0107C6.13638 32.5885 2.56003 39.5963 2.34281 47.0986Z" fill="#CCCCCC" stroke="#4D4D4D" stroke-width="3"/>
</svg>
