<svg width="157" height="71" viewBox="0 0 157 71" fill="none" xmlns="http://www.w3.org/2000/svg">
<path d="M2.34281 47.4369L1.79751 66.2705C1.74094 68.2244 3.52582 69.7194 5.43948 69.321C14.5051 67.4338 38.7972 62.6358 65.0903 59.6213C86.965 57.1133 107.116 55.2636 118.373 54.2892C124.539 53.7556 130.556 52.0869 136.091 49.3192L152.618 41.0557C154.284 40.2231 155.149 38.3555 154.63 36.5676C153.591 32.9905 151.576 26.7268 148.548 20.1823C146.407 15.5555 144.133 11.2786 142.302 8.00889C140.088 4.05635 135.851 1.75896 131.323 1.92225C121.132 2.28983 101.443 3.30115 79.9409 6.00774C55.2999 9.10941 34.8214 15.4439 27.2601 17.9851C25.1718 18.6869 23.245 19.7589 21.4991 21.1026L12.0841 28.349C6.13638 32.9268 2.56003 39.9346 2.34281 47.4369Z" fill="#F4F4F4" stroke="black" stroke-width="3"/>
</svg>
