<svg width="138" height="80" viewBox="0 0 138 80" fill="none" xmlns="http://www.w3.org/2000/svg">
<path d="M4.57679 42.1921L2.01013 74.5336C1.85463 76.493 3.57762 78.075 5.51385 77.7369C15.481 75.9964 43.2814 71.2369 68.2936 67.8388C87.7509 65.1954 109.94 63.4243 123.847 62.2399C126.26 62.0344 128.632 61.4581 130.777 60.3364C132.487 59.4426 133.9 58.5967 134.912 57.9544C135.98 57.2763 136.421 55.973 136.03 54.7694C134.927 51.3758 132.328 43.7858 127.791 32.7375C124.082 23.7056 119.267 15.7393 115.927 10.7059C113.45 6.97392 109.682 4.34663 105.286 3.48802C98.0463 2.07396 85.5948 0.50501 71.2936 2.39207C48.6354 5.38184 28.0304 17.1816 28.0304 17.1816L13.2559 27.2441C8.24788 30.6548 5.05614 36.152 4.57679 42.1921Z" fill="#3A3C40" stroke="#999999" stroke-width="3"/>
</svg>
