<svg width="142" height="84" viewBox="0 0 142 84" fill="none" xmlns="http://www.w3.org/2000/svg">
<path d="M6.57679 44.1921L4.01013 76.5336C3.85463 78.493 5.57762 80.075 7.51385 79.7369C17.481 77.9964 45.2814 73.2369 70.2936 69.8388C89.7509 67.1954 111.94 65.4243 125.847 64.2399C128.26 64.0344 130.632 63.4581 132.777 62.3364C134.487 61.4426 135.9 60.5967 136.912 59.9544C137.98 59.2763 138.421 57.973 138.03 56.7694C136.927 53.3758 134.328 45.7858 129.791 34.7375C126.082 25.7056 121.267 17.7393 117.927 12.7059C115.45 8.97392 111.682 6.34663 107.286 5.48802C100.046 4.07396 87.5948 2.50501 73.2936 4.39207C50.6354 7.38184 30.0304 19.1816 30.0304 19.1816L15.2559 29.2441C10.2479 32.6548 7.05614 38.152 6.57679 44.1921Z" fill="#3A3C40" stroke="#999999" stroke-width="7"/>
</svg>
