<svg width="138" height="80" viewBox="0 0 138 80" fill="none" xmlns="http://www.w3.org/2000/svg">
<path d="M4.57679 42.167L2.01013 74.5084C1.85463 76.4678 3.57762 78.0499 5.51385 77.7118C15.481 75.9712 43.2814 71.2118 68.2936 67.8137C87.7509 65.1703 109.94 63.3991 123.847 62.2148C126.26 62.0093 128.632 61.433 130.777 60.3112C132.487 59.4174 133.9 58.5715 134.912 57.9293C135.98 57.2512 136.421 55.9479 136.03 54.7442C134.927 51.3506 132.328 43.7606 127.791 32.7123C124.082 23.6804 119.267 15.7141 115.927 10.6808C113.45 6.94877 109.682 4.32149 105.286 3.46287C98.0463 2.04881 85.5948 0.479864 71.2936 2.36692C48.6354 5.3567 28.0304 17.1564 28.0304 17.1564L13.2559 27.2189C8.24788 30.6297 5.05614 36.1269 4.57679 42.167Z" fill="#CCCCCC" stroke="#4D4D4D" stroke-width="3"/>
</svg>
