<svg width="142" height="84" viewBox="0 0 142 84" fill="none" xmlns="http://www.w3.org/2000/svg">
<path d="M6.57679 44.167L4.01013 76.5084C3.85463 78.4678 5.57762 80.0499 7.51385 79.7118C17.481 77.9712 45.2814 73.2118 70.2936 69.8137C89.7509 67.1703 111.94 65.3991 125.847 64.2148C128.26 64.0093 130.632 63.433 132.777 62.3112C134.487 61.4174 135.9 60.5715 136.912 59.9293C137.98 59.2512 138.421 57.9479 138.03 56.7442C136.927 53.3506 134.328 45.7606 129.791 34.7123C126.082 25.6804 121.267 17.7141 117.927 12.6808C115.45 8.94877 111.682 6.32149 107.286 5.46287C100.046 4.04881 87.5948 2.47986 73.2936 4.36692C50.6354 7.3567 30.0304 19.1564 30.0304 19.1564L15.2559 29.2189C10.2479 32.6297 7.05614 38.1269 6.57679 44.167Z" fill="#CCCCCC" stroke="#4D4D4D" stroke-width="7"/>
</svg>
