<svg width="138" height="80" viewBox="0 0 138 80" fill="none" xmlns="http://www.w3.org/2000/svg">
<path d="M4.57679 42.5052L2.01013 74.8467C1.85463 76.8061 3.57762 78.3882 5.51385 78.05C15.481 76.3095 43.2814 71.55 68.2936 68.152C87.7509 65.5085 109.94 63.7374 123.847 62.553C126.26 62.3476 128.632 61.7712 130.777 60.6495C132.487 59.7557 133.9 58.9098 134.912 58.2675C135.98 57.5895 136.421 56.2861 136.03 55.0825C134.927 51.6889 132.328 44.0989 127.791 33.0506C124.082 24.0187 119.267 16.0524 115.927 11.019C113.45 7.28703 109.682 4.65974 105.286 3.80113C98.0463 2.38707 85.5948 0.818121 71.2936 2.70518C48.6354 5.69495 28.0304 17.4947 28.0304 17.4947L13.2559 27.5572C8.24788 30.9679 5.05614 36.4651 4.57679 42.5052Z" fill="#F4F4F4" stroke="black" stroke-width="3"/>
</svg>
