<svg width="188" height="67" viewBox="0 0 188 67" fill="none" xmlns="http://www.w3.org/2000/svg">
<path d="M80.3722 11.0335C53.7017 16.5116 33.3271 24.1998 24.1829 27.9927C20.6498 29.4583 17.4943 31.6642 14.9319 34.5041C13.238 36.3815 11.3084 38.63 9.80373 40.689C7.57037 43.7452 4.99516 47.9469 3.46551 50.5147C2.57333 52.0124 2.12061 53.7248 2.12061 55.4681V62.4998C2.12061 63.885 3.48332 64.8603 4.79203 64.4064C13.7125 61.3127 43.4937 51.3161 71.549 45.6794C96.4322 40.68 124.416 38.2457 137.151 37.3249C141.791 36.9895 146.434 37.3967 150.968 38.4364L175.21 43.9954C177.415 44.5012 179.742 43.7433 181.214 42.0256C184.012 38.7619 185.955 35.8487 185.805 28.3069C185.746 25.3374 185.531 22.695 185.262 20.4631C184.658 15.447 181.015 11.5397 176.278 9.78221L167.9 6.67379C156.907 2.59526 145.153 0.986013 133.517 2.42751C120.132 4.08573 100.644 6.86982 80.3722 11.0335Z" fill="#3A3C40" stroke="#999999" stroke-width="3"/>
</svg>
