<svg width="192" height="71" viewBox="0 0 192 71" fill="none" xmlns="http://www.w3.org/2000/svg">
<path d="M82.3722 13.0335C55.7017 18.5116 35.3271 26.1998 26.1829 29.9927C22.6498 31.4583 19.4943 33.6642 16.9319 36.5041C15.238 38.3815 13.3084 40.63 11.8037 42.689C9.57037 45.7452 6.99516 49.9469 5.46551 52.5147C4.57333 54.0124 4.12061 55.7248 4.12061 57.4681V64.4998C4.12061 65.885 5.48332 66.8603 6.79203 66.4064C15.7125 63.3127 45.4937 53.3161 73.549 47.6794C98.4322 42.68 126.416 40.2457 139.151 39.3249C143.791 38.9895 148.434 39.3967 152.968 40.4364L177.21 45.9954C179.415 46.5012 181.742 45.7433 183.214 44.0256C186.012 40.7619 187.955 37.8487 187.805 30.3069C187.746 27.3374 187.531 24.695 187.262 22.4631C186.658 17.447 183.015 13.5397 178.278 11.7822L169.9 8.67379C158.907 4.59526 147.153 2.98601 135.517 4.42751C122.132 6.08573 102.644 8.86982 82.3722 13.0335Z" fill="#3A3C40" stroke="#999999" stroke-width="7"/>
</svg>
