<svg width="192" height="70" viewBox="0 0 192 70" fill="none" xmlns="http://www.w3.org/2000/svg">
<path d="M82.3722 13.0084C55.7017 18.4864 35.3271 26.1746 26.1829 29.9676C22.6498 31.4331 19.4943 33.639 16.9319 36.4789C15.238 38.3563 13.3084 40.6048 11.8037 42.6639C9.57037 45.72 6.99516 49.9217 5.46551 52.4896C4.57333 53.9873 4.12061 55.6996 4.12061 57.4429V64.4747C4.12061 65.8598 5.48332 66.8352 6.79203 66.3813C15.7125 63.2876 45.4937 53.2909 73.549 47.6542C98.4322 42.6549 126.416 40.2206 139.151 39.2998C143.791 38.9644 148.434 39.3715 152.968 40.4112L177.21 45.9703C179.415 46.476 181.742 45.7182 183.214 44.0005C186.012 40.7368 187.955 37.8236 187.805 30.2817C187.746 27.3122 187.531 24.6699 187.262 22.4379C186.658 17.4218 183.015 13.5145 178.278 11.7571L169.9 8.64864C158.907 4.57012 147.153 2.96087 135.517 4.40236C122.132 6.06058 102.644 8.84468 82.3722 13.0084Z" fill="#CCCCCC" stroke="#4D4D4D" stroke-width="7"/>
</svg>
