<svg width="188" height="67" viewBox="0 0 188 67" fill="none" xmlns="http://www.w3.org/2000/svg">
<path d="M80.3722 11.3467C53.7017 16.8248 33.3271 24.513 24.1829 28.306C20.6498 29.7715 17.4943 31.9774 14.9319 34.8173C13.238 36.6947 11.3084 38.9432 9.80373 41.0022C7.57037 44.0584 4.99516 48.2601 3.46551 50.8279C2.57333 52.3256 2.12061 54.038 2.12061 55.7813V62.813C2.12061 64.1982 3.48332 65.1736 4.79203 64.7197C13.7125 61.626 43.4937 51.6293 71.549 45.9926C96.4322 40.9932 124.416 38.5589 137.151 37.6382C141.791 37.3027 146.434 37.7099 150.968 38.7496L175.21 44.3087C177.415 44.8144 179.742 44.0566 181.214 42.3389C184.012 39.0751 185.955 36.1619 185.805 28.6201C185.746 25.6506 185.531 23.0083 185.262 20.7763C184.658 15.7602 181.015 11.8529 176.278 10.0954L167.9 6.98702C156.907 2.9085 145.153 1.29924 133.517 2.74074C120.132 4.39896 100.644 7.18305 80.3722 11.3467Z" fill="#F4F4F4" stroke="black" stroke-width="3"/>
</svg>
