<svg width="188" height="66" viewBox="0 0 188 66" fill="none" xmlns="http://www.w3.org/2000/svg">
<path d="M80.3722 11.0084C53.7017 16.4864 33.3271 24.1746 24.1829 27.9676C20.6498 29.4331 17.4943 31.639 14.9319 34.4789C13.238 36.3563 11.3084 38.6048 9.80373 40.6639C7.57037 43.72 4.99516 47.9217 3.46551 50.4896C2.57333 51.9873 2.12061 53.6996 2.12061 55.4429V62.4747C2.12061 63.8598 3.48332 64.8352 4.79203 64.3813C13.7125 61.2876 43.4937 51.2909 71.549 45.6542C96.4322 40.6549 124.416 38.2206 137.151 37.2998C141.791 36.9644 146.434 37.3715 150.968 38.4112L175.21 43.9703C177.415 44.476 179.742 43.7182 181.214 42.0005C184.012 38.7368 185.955 35.8236 185.805 28.2817C185.746 25.3122 185.531 22.6699 185.262 20.4379C184.658 15.4218 181.015 11.5145 176.278 9.75707L167.9 6.64864C156.907 2.57012 145.153 0.960866 133.517 2.40236C120.132 4.06058 100.644 6.84468 80.3722 11.0084Z" fill="#CCCCCC" stroke="#4D4D4D" stroke-width="3"/>
</svg>
