<svg width="119" height="89" viewBox="0 0 119 89" fill="none" xmlns="http://www.w3.org/2000/svg">
<path d="M54.6233 65.3669C77.617 59.5242 116.504 56.3892 116.504 56.3892C116.504 56.3892 112.436 39.9196 105.654 25.1938C101.738 16.6905 97.0161 10.2163 93.7248 6.26323C91.2344 3.27198 87.5537 1.64573 83.6616 1.68203C79.0562 1.72497 72.5261 2.11767 66.7082 3.68653C61.6246 5.05741 56.3019 7.51071 52.2002 9.65319C47.405 12.1579 43.8266 16.3884 41.4486 21.2477C38.8557 26.5463 34.9512 34.2506 30.0876 43.0198C20.9263 59.5379 4.31738 84.2906 4.31738 84.2906C4.31738 84.2906 31.6297 71.2095 54.6233 65.3669Z" fill="#3A3C40" stroke="#999999" stroke-width="3"/>
</svg>
