<svg width="119" height="89" viewBox="0 0 119 89" fill="none" xmlns="http://www.w3.org/2000/svg">
<path d="M54.6233 65.68C77.617 59.8373 116.504 56.7023 116.504 56.7023C116.504 56.7023 112.436 40.2327 105.654 25.507C101.738 17.0036 97.0161 10.5294 93.7248 6.57634C91.2344 3.58509 87.5537 1.95884 83.6616 1.99514C79.0562 2.03808 72.5261 2.43078 66.7082 3.99964C61.6246 5.37052 56.3019 7.82382 52.2002 9.9663C47.405 12.471 43.8266 16.7015 41.4486 21.5608C38.8557 26.8594 34.9512 34.5637 30.0876 43.3329C20.9263 59.851 4.31738 84.6038 4.31738 84.6038C4.31738 84.6038 31.6297 71.5226 54.6233 65.68Z" fill="#1C1D1F" stroke="#CBF262" stroke-width="3"/>
</svg>
