<svg width="127" height="95" viewBox="0 0 127 95" fill="none" xmlns="http://www.w3.org/2000/svg">
<path d="M60.6233 67.3669C83.617 61.5242 122.504 58.3892 122.504 58.3892C122.504 58.3892 118.436 41.9196 111.654 27.1938C107.738 18.6905 103.016 12.2163 99.7248 8.26323C97.2344 5.27198 93.5537 3.64573 89.6616 3.68203C85.0562 3.72497 78.5261 4.11767 72.7082 5.68653C67.6246 7.05741 62.3019 9.51071 58.2002 11.6532C53.405 14.1579 49.8266 18.3884 47.4486 23.2477C44.8557 28.5463 40.9512 36.2506 36.0876 45.0198C26.9263 61.5379 10.3174 86.2906 10.3174 86.2906C10.3174 86.2906 37.6297 73.2095 60.6233 67.3669Z" fill="#3A3C40" stroke="#999999" stroke-width="7"/>
</svg>
