<svg width="119" height="88" viewBox="0 0 119 88" fill="none" xmlns="http://www.w3.org/2000/svg">
<path d="M54.6233 65.3417C77.617 59.499 116.504 56.364 116.504 56.364C116.504 56.364 112.436 39.8944 105.654 25.1686C101.738 16.6653 97.0161 10.1911 93.7248 6.23802C91.2344 3.24677 87.5537 1.62053 83.6616 1.65682C79.0562 1.69976 72.5261 2.09246 66.7082 3.66133C61.6246 5.0322 56.3019 7.48551 52.2002 9.62798C47.405 12.1327 43.8266 16.3632 41.4486 21.2225C38.8557 26.5211 34.9512 34.2254 30.0876 42.9946C20.9263 59.5127 4.31738 84.2654 4.31738 84.2654C4.31738 84.2654 31.6297 71.1843 54.6233 65.3417Z" fill="#CCCCCC" stroke="#4D4D4D" stroke-width="3"/>
</svg>
