<svg width="127" height="95" viewBox="0 0 127 95" fill="none" xmlns="http://www.w3.org/2000/svg">
<path d="M60.6233 67.3417C83.617 61.499 122.504 58.364 122.504 58.364C122.504 58.364 118.436 41.8944 111.654 27.1686C107.738 18.6653 103.016 12.1911 99.7248 8.23802C97.2344 5.24677 93.5537 3.62053 89.6616 3.65682C85.0562 3.69976 78.5261 4.09246 72.7082 5.66133C67.6246 7.0322 62.3019 9.48551 58.2002 11.628C53.405 14.1327 49.8266 18.3632 47.4486 23.2225C44.8557 28.5211 40.9512 36.2254 36.0876 44.9946C26.9263 61.5127 10.3174 86.2654 10.3174 86.2654C10.3174 86.2654 37.6297 73.1843 60.6233 67.3417Z" fill="#CCCCCC" stroke="#4D4D4D" stroke-width="7"/>
</svg>
