<svg width="157" height="71" viewBox="0 0 157 71" fill="none" xmlns="http://www.w3.org/2000/svg">
<path d="M154.836 47.1237L155.381 65.9574C155.438 67.9112 153.653 69.4062 151.739 69.0078C142.674 67.1206 118.382 62.3226 92.0884 59.3081C70.2137 56.8002 50.0624 54.9504 38.8057 53.9761C32.6402 53.4424 26.6226 51.7737 21.0874 49.0061L4.56026 40.7425C2.89505 39.9099 2.03006 38.0423 2.54909 36.2544C3.58748 32.6773 5.60281 26.4136 8.63084 19.8691C10.7716 15.2423 13.0453 10.9654 14.8766 7.69572C17.0903 3.74318 21.3282 1.44579 25.8555 1.60908C36.0471 1.97666 55.7355 2.98798 77.2378 5.69457C101.879 8.79624 122.357 15.1308 129.919 17.6719C132.007 18.3738 133.934 19.4457 135.68 20.7895L145.095 28.0359C151.042 32.6136 154.619 39.6214 154.836 47.1237Z" fill="#3A3C40" stroke="#999999" stroke-width="3"/>
</svg>
