<svg width="161" height="75" viewBox="0 0 161 75" fill="none" xmlns="http://www.w3.org/2000/svg">
<path d="M156.836 49.1237L157.381 67.9574C157.438 69.9112 155.653 71.4062 153.739 71.0078C144.674 69.1206 120.382 64.3226 94.0884 61.3081C72.2137 58.8002 52.0624 56.9504 40.8057 55.9761C34.6402 55.4424 28.6226 53.7737 23.0874 51.0061L6.56026 42.7425C4.89505 41.9099 4.03006 40.0423 4.54909 38.2544C5.58748 34.6773 7.60281 28.4136 10.6308 21.8691C12.7716 17.2423 15.0453 12.9654 16.8766 9.69572C19.0903 5.74318 23.3282 3.44579 27.8555 3.60908C38.0471 3.97666 57.7355 4.98798 79.2378 7.69457C103.879 10.7962 124.357 17.1308 131.919 19.6719C134.007 20.3738 135.934 21.4457 137.68 22.7895L147.095 30.0359C153.042 34.6136 156.619 41.6214 156.836 49.1237Z" fill="#3A3C40" stroke="#999999" stroke-width="7"/>
</svg>
