<svg width="157" height="71" viewBox="0 0 157 71" fill="none" xmlns="http://www.w3.org/2000/svg">
<path d="M154.836 47.0986L155.381 65.9322C155.438 67.8861 153.653 69.381 151.739 68.9827C142.674 67.0955 118.382 62.2975 92.0884 59.283C70.2137 56.775 50.0624 54.9253 38.8057 53.9509C32.6402 53.4172 26.6226 51.7485 21.0874 48.9809L4.56026 40.7174C2.89505 39.8848 2.03006 38.0172 2.54909 36.2293C3.58748 32.6522 5.60281 26.3884 8.63084 19.844C10.7716 15.2172 13.0453 10.9403 14.8766 7.67057C17.0903 3.71803 21.3282 1.42064 25.8555 1.58393C36.0471 1.95151 55.7355 2.96284 77.2378 5.66942C101.879 8.77109 122.357 15.1056 129.919 17.6468C132.007 18.3486 133.934 19.4206 135.68 20.7643L145.095 28.0107C151.042 32.5885 154.619 39.5963 154.836 47.0986Z" fill="#CCCCCC" stroke="#4D4D4D" stroke-width="3"/>
</svg>
