<svg width="157" height="71" viewBox="0 0 157 71" fill="none" xmlns="http://www.w3.org/2000/svg">
<path d="M154.836 47.4369L155.381 66.2705C155.438 68.2244 153.653 69.7194 151.739 69.321C142.674 67.4338 118.382 62.6358 92.0884 59.6213C70.2137 57.1133 50.0624 55.2636 38.8057 54.2892C32.6402 53.7556 26.6226 52.0869 21.0874 49.3192L4.56026 41.0557C2.89505 40.2231 2.03006 38.3555 2.54909 36.5676C3.58748 32.9905 5.60281 26.7268 8.63084 20.1823C10.7716 15.5555 13.0453 11.2786 14.8766 8.00889C17.0903 4.05635 21.3282 1.75896 25.8555 1.92225C36.0471 2.28983 55.7355 3.30115 77.2378 6.00774C101.879 9.10941 122.357 15.4439 129.919 17.9851C132.007 18.6869 133.934 19.7589 135.68 21.1026L145.095 28.349C151.042 32.9268 154.619 39.9346 154.836 47.4369Z" fill="#F4F4F4" stroke="black" stroke-width="3"/>
</svg>
