<svg width="161" height="75" viewBox="0 0 161 75" fill="none" xmlns="http://www.w3.org/2000/svg">
<path d="M156.836 49.0986L157.381 67.9322C157.438 69.8861 155.653 71.381 153.739 70.9827C144.674 69.0955 120.382 64.2975 94.0884 61.283C72.2137 58.775 52.0624 56.9253 40.8057 55.9509C34.6402 55.4172 28.6226 53.7485 23.0874 50.9809L6.56026 42.7174C4.89505 41.8848 4.03006 40.0172 4.54909 38.2293C5.58748 34.6522 7.60281 28.3884 10.6308 21.844C12.7716 17.2172 15.0453 12.9403 16.8766 9.67057C19.0903 5.71803 23.3282 3.42064 27.8555 3.58393C38.0471 3.95151 57.7355 4.96284 79.2378 7.66942C103.879 10.7711 124.357 17.1056 131.919 19.6468C134.007 20.3486 135.934 21.4206 137.68 22.7643L147.095 30.0107C153.042 34.5885 156.619 41.5963 156.836 49.0986Z" fill="#CCCCCC" stroke="#4D4D4D" stroke-width="7"/>
</svg>
