<svg width="142" height="84" viewBox="0 0 142 84" fill="none" xmlns="http://www.w3.org/2000/svg">
<path d="M135.602 44.1921L138.169 76.5336C138.324 78.493 136.601 80.075 134.665 79.7369C124.698 77.9964 96.8973 73.2369 71.8851 69.8388C52.4278 67.1954 30.2391 65.4243 16.3316 64.2399C13.919 64.0344 11.5471 63.4581 9.40126 62.3364C7.69141 61.4426 6.27917 60.5967 5.26703 59.9544C4.19846 59.2763 3.75787 57.973 4.14891 56.7694C5.25146 53.3758 7.85056 45.7858 12.3877 34.7375C16.0968 25.7056 20.9121 17.7393 24.252 12.7059C26.7284 8.97392 30.4971 6.34663 34.8929 5.48802C42.1324 4.07396 54.5839 2.50501 68.8851 4.39207C91.5433 7.38184 112.148 19.1816 112.148 19.1816L126.923 29.2441C131.931 32.6548 135.123 38.152 135.602 44.1921Z" fill="#3A3C40" stroke="#999999" stroke-width="7"/>
</svg>
