<svg width="138" height="80" viewBox="0 0 138 80" fill="none" xmlns="http://www.w3.org/2000/svg">
<path d="M133.602 42.5052L136.169 74.8467C136.324 76.8061 134.601 78.3882 132.665 78.05C122.698 76.3095 94.8973 71.55 69.8851 68.152C50.4278 65.5085 28.2391 63.7374 14.3316 62.553C11.919 62.3476 9.54715 61.7712 7.40126 60.6495C5.69141 59.7557 4.27917 58.9098 3.26703 58.2675C2.19846 57.5895 1.75787 56.2861 2.14891 55.0825C3.25146 51.6889 5.85056 44.0989 10.3877 33.0506C14.0968 24.0187 18.9121 16.0524 22.252 11.019C24.7284 7.28703 28.4971 4.65974 32.8929 3.80113C40.1324 2.38707 52.5839 0.818121 66.8851 2.70518C89.5433 5.69495 110.148 17.4947 110.148 17.4947L124.923 27.5572C129.931 30.9679 133.123 36.4651 133.602 42.5052Z" fill="#1C1D1F" stroke="#CBF262" stroke-width="3"/>
</svg>
