<svg width="138" height="80" viewBox="0 0 138 80" fill="none" xmlns="http://www.w3.org/2000/svg">
<path d="M133.602 42.1921L136.169 74.5336C136.324 76.493 134.601 78.075 132.665 77.7369C122.698 75.9964 94.8973 71.2369 69.8851 67.8388C50.4278 65.1954 28.2391 63.4243 14.3316 62.2399C11.919 62.0344 9.54715 61.4581 7.40126 60.3364C5.69141 59.4426 4.27917 58.5967 3.26703 57.9544C2.19846 57.2763 1.75787 55.973 2.14891 54.7694C3.25146 51.3758 5.85056 43.7858 10.3877 32.7375C14.0968 23.7056 18.9121 15.7393 22.252 10.7059C24.7284 6.97392 28.4971 4.34663 32.8929 3.48802C40.1324 2.07396 52.5839 0.50501 66.8851 2.39207C89.5433 5.38184 110.148 17.1816 110.148 17.1816L124.923 27.2441C129.931 30.6548 133.123 36.152 133.602 42.1921Z" fill="#3A3C40" stroke="#999999" stroke-width="3"/>
</svg>
