<svg width="142" height="84" viewBox="0 0 142 84" fill="none" xmlns="http://www.w3.org/2000/svg">
<path d="M135.602 44.167L138.169 76.5084C138.324 78.4678 136.601 80.0499 134.665 79.7118C124.698 77.9712 96.8973 73.2118 71.8851 69.8137C52.4278 67.1703 30.2391 65.3991 16.3316 64.2148C13.919 64.0093 11.5471 63.433 9.40126 62.3112C7.69141 61.4174 6.27917 60.5715 5.26703 59.9293C4.19846 59.2512 3.75787 57.9479 4.14891 56.7442C5.25146 53.3506 7.85056 45.7606 12.3877 34.7123C16.0968 25.6804 20.9121 17.7141 24.252 12.6808C26.7284 8.94877 30.4971 6.32149 34.8929 5.46287C42.1324 4.04881 54.5839 2.47986 68.8851 4.36692C91.5433 7.3567 112.148 19.1564 112.148 19.1564L126.923 29.2189C131.931 32.6297 135.123 38.1269 135.602 44.167Z" fill="#CCCCCC" stroke="#4D4D4D" stroke-width="7"/>
</svg>
