<svg width="138" height="80" viewBox="0 0 138 80" fill="none" xmlns="http://www.w3.org/2000/svg">
<path d="M133.602 42.167L136.169 74.5084C136.324 76.4678 134.601 78.0499 132.665 77.7118C122.698 75.9712 94.8973 71.2118 69.8851 67.8137C50.4278 65.1703 28.2391 63.3991 14.3316 62.2148C11.919 62.0093 9.54715 61.433 7.40126 60.3112C5.69141 59.4174 4.27917 58.5715 3.26703 57.9293C2.19846 57.2512 1.75787 55.9479 2.14891 54.7442C3.25146 51.3506 5.85056 43.7606 10.3877 32.7123C14.0968 23.6804 18.9121 15.7141 22.252 10.6808C24.7284 6.94877 28.4971 4.32149 32.8929 3.46287C40.1324 2.04881 52.5839 0.479864 66.8851 2.36692C89.5433 5.3567 110.148 17.1564 110.148 17.1564L124.923 27.2189C129.931 30.6297 133.123 36.1269 133.602 42.167Z" fill="#CCCCCC" stroke="#4D4D4D" stroke-width="3"/>
</svg>
