<svg width="188" height="67" viewBox="0 0 188 67" fill="none" xmlns="http://www.w3.org/2000/svg">
<path d="M107.561 11.0335C134.232 16.5116 154.607 24.1998 163.751 27.9927C167.284 29.4583 170.439 31.6642 173.002 34.5041C174.696 36.3815 176.625 38.63 178.13 40.689C180.363 43.7452 182.938 47.9469 184.468 50.5147C185.36 52.0124 185.813 53.7248 185.813 55.4681V62.4998C185.813 63.885 184.45 64.8603 183.142 64.4064C174.221 61.3127 144.44 51.3161 116.385 45.6794C91.5014 40.68 63.5174 38.2457 50.7821 37.3249C46.1428 36.9895 41.4995 37.3967 36.9657 38.4364L12.7241 43.9954C10.5188 44.5012 8.19188 43.7433 6.71925 42.0256C3.92125 38.7619 1.97868 35.8487 2.12849 28.3069C2.18748 25.3374 2.40268 22.695 2.67137 20.4631C3.27525 15.447 6.91882 11.5397 11.6556 9.78221L20.0336 6.67379C31.0262 2.59526 42.7807 0.986013 54.4166 2.42751C67.8019 4.08573 87.2899 6.86982 107.561 11.0335Z" fill="#3A3C40" stroke="#999999" stroke-width="3"/>
</svg>
