<svg width="192" height="71" viewBox="0 0 192 71" fill="none" xmlns="http://www.w3.org/2000/svg">
<path d="M109.561 13.0335C136.232 18.5116 156.607 26.1998 165.751 29.9927C169.284 31.4583 172.439 33.6642 175.002 36.5041C176.696 38.3815 178.625 40.63 180.13 42.689C182.363 45.7452 184.938 49.9469 186.468 52.5147C187.36 54.0124 187.813 55.7248 187.813 57.4681V64.4998C187.813 65.885 186.45 66.8603 185.142 66.4064C176.221 63.3127 146.44 53.3161 118.385 47.6794C93.5014 42.68 65.5174 40.2457 52.7821 39.3249C48.1428 38.9895 43.4995 39.3967 38.9657 40.4364L14.7241 45.9954C12.5188 46.5012 10.1919 45.7433 8.71925 44.0256C5.92125 40.7619 3.97868 37.8487 4.12849 30.3069C4.18748 27.3374 4.40268 24.695 4.67137 22.4631C5.27525 17.447 8.91882 13.5397 13.6556 11.7822L22.0336 8.67379C33.0262 4.59526 44.7807 2.98601 56.4166 4.42751C69.8019 6.08573 89.2899 8.86982 109.561 13.0335Z" fill="#3A3C40" stroke="#999999" stroke-width="7"/>
</svg>
