<svg width="188" height="66" viewBox="0 0 188 66" fill="none" xmlns="http://www.w3.org/2000/svg">
<path d="M107.561 11.0084C134.232 16.4864 154.607 24.1746 163.751 27.9676C167.284 29.4331 170.439 31.639 173.002 34.4789C174.696 36.3563 176.625 38.6048 178.13 40.6639C180.363 43.72 182.938 47.9217 184.468 50.4896C185.36 51.9873 185.813 53.6996 185.813 55.4429V62.4747C185.813 63.8598 184.45 64.8352 183.142 64.3813C174.221 61.2876 144.44 51.2909 116.385 45.6542C91.5014 40.6549 63.5174 38.2206 50.7821 37.2998C46.1428 36.9644 41.4995 37.3715 36.9657 38.4112L12.7241 43.9703C10.5188 44.476 8.19188 43.7182 6.71925 42.0005C3.92125 38.7368 1.97868 35.8236 2.12849 28.2817C2.18748 25.3122 2.40268 22.6699 2.67137 20.4379C3.27525 15.4218 6.91882 11.5145 11.6556 9.75707L20.0336 6.64864C31.0262 2.57012 42.7807 0.960866 54.4166 2.40236C67.8019 4.06058 87.2899 6.84468 107.561 11.0084Z" fill="#CCCCCC" stroke="#4D4D4D" stroke-width="3"/>
</svg>
