<svg width="192" height="70" viewBox="0 0 192 70" fill="none" xmlns="http://www.w3.org/2000/svg">
<path d="M109.561 13.0084C136.232 18.4864 156.607 26.1746 165.751 29.9676C169.284 31.4331 172.439 33.639 175.002 36.4789C176.696 38.3563 178.625 40.6048 180.13 42.6639C182.363 45.72 184.938 49.9217 186.468 52.4896C187.36 53.9873 187.813 55.6996 187.813 57.4429V64.4747C187.813 65.8598 186.45 66.8352 185.142 66.3813C176.221 63.2876 146.44 53.2909 118.385 47.6542C93.5014 42.6549 65.5174 40.2206 52.7821 39.2998C48.1428 38.9644 43.4995 39.3715 38.9657 40.4112L14.7241 45.9703C12.5188 46.476 10.1919 45.7182 8.71925 44.0005C5.92125 40.7368 3.97868 37.8236 4.12849 30.2817C4.18748 27.3122 4.40268 24.6699 4.67137 22.4379C5.27525 17.4218 8.91882 13.5145 13.6556 11.7571L22.0336 8.64864C33.0262 4.57012 44.7807 2.96087 56.4166 4.40236C69.8019 6.06058 89.2899 8.84468 109.561 13.0084Z" fill="#CCCCCC" stroke="#4D4D4D" stroke-width="7"/>
</svg>
