<svg width="188" height="67" viewBox="0 0 188 67" fill="none" xmlns="http://www.w3.org/2000/svg">
<path d="M107.561 11.3467C134.232 16.8248 154.607 24.513 163.751 28.306C167.284 29.7715 170.439 31.9774 173.002 34.8173C174.696 36.6947 176.625 38.9432 178.13 41.0022C180.363 44.0584 182.938 48.2601 184.468 50.8279C185.36 52.3256 185.813 54.038 185.813 55.7813V62.813C185.813 64.1982 184.45 65.1736 183.142 64.7197C174.221 61.626 144.44 51.6293 116.385 45.9926C91.5014 40.9932 63.5174 38.5589 50.7821 37.6382C46.1428 37.3027 41.4995 37.7099 36.9657 38.7496L12.7241 44.3087C10.5188 44.8144 8.19188 44.0566 6.71925 42.3389C3.92125 39.0751 1.97868 36.1619 2.12849 28.6201C2.18748 25.6506 2.40268 23.0083 2.67137 20.7763C3.27525 15.7602 6.91882 11.8529 11.6556 10.0954L20.0336 6.98702C31.0262 2.9085 42.7807 1.29924 54.4166 2.74074C67.8019 4.39896 87.2899 7.18305 107.561 11.3467Z" fill="#F4F4F4" stroke="black" stroke-width="3"/>
</svg>
