<svg width="127" height="95" viewBox="0 0 127 95" fill="none" xmlns="http://www.w3.org/2000/svg">
<path d="M66.3103 67.3669C43.3166 61.5242 4.42912 58.3892 4.42912 58.3892C4.42912 58.3892 8.49807 41.9196 15.2797 27.1938C19.1957 18.6905 23.9175 12.2163 27.2088 8.26323C29.6992 5.27198 33.3799 3.64573 37.272 3.68203C41.8774 3.72497 48.4075 4.11767 54.2254 5.68653C59.309 7.05741 64.6317 9.51071 68.7334 11.6532C73.5286 14.1579 77.107 18.3884 79.485 23.2477C82.0779 28.5463 85.9824 36.2506 90.846 45.0198C100.007 61.5379 116.616 86.2906 116.616 86.2906C116.616 86.2906 89.3039 73.2095 66.3103 67.3669Z" fill="#3A3C40" stroke="#999999" stroke-width="7"/>
</svg>
