<svg width="119" height="89" viewBox="0 0 119 89" fill="none" xmlns="http://www.w3.org/2000/svg">
<path d="M64.3103 65.3669C41.3166 59.5242 2.42912 56.3892 2.42912 56.3892C2.42912 56.3892 6.49807 39.9196 13.2797 25.1938C17.1957 16.6905 21.9175 10.2163 25.2088 6.26323C27.6992 3.27198 31.3799 1.64573 35.272 1.68203C39.8774 1.72497 46.4075 2.11767 52.2254 3.68653C57.309 5.05741 62.6317 7.51071 66.7334 9.65319C71.5286 12.1579 75.107 16.3884 77.485 21.2477C80.0779 26.5463 83.9824 34.2506 88.846 43.0198C98.0073 59.5379 114.616 84.2906 114.616 84.2906C114.616 84.2906 87.3039 71.2095 64.3103 65.3669Z" fill="#3A3C40" stroke="#999999" stroke-width="3"/>
</svg>
