<svg width="119" height="88" viewBox="0 0 119 88" fill="none" xmlns="http://www.w3.org/2000/svg">
<path d="M64.3103 65.3417C41.3166 59.499 2.42912 56.364 2.42912 56.364C2.42912 56.364 6.49807 39.8944 13.2797 25.1686C17.1957 16.6653 21.9175 10.1911 25.2088 6.23802C27.6992 3.24677 31.3799 1.62053 35.272 1.65682C39.8774 1.69976 46.4075 2.09246 52.2254 3.66133C57.309 5.0322 62.6317 7.48551 66.7334 9.62798C71.5286 12.1327 75.107 16.3632 77.485 21.2225C80.0779 26.5211 83.9824 34.2254 88.846 42.9946C98.0073 59.5127 114.616 84.2654 114.616 84.2654C114.616 84.2654 87.3039 71.1843 64.3103 65.3417Z" fill="#CCCCCC" stroke="#4D4D4D" stroke-width="3"/>
</svg>
