<svg width="119" height="89" viewBox="0 0 119 89" fill="none" xmlns="http://www.w3.org/2000/svg">
<path d="M64.3103 65.68C41.3166 59.8373 2.42912 56.7023 2.42912 56.7023C2.42912 56.7023 6.49807 40.2327 13.2797 25.507C17.1957 17.0036 21.9175 10.5294 25.2088 6.57634C27.6992 3.58509 31.3799 1.95884 35.272 1.99514C39.8774 2.03808 46.4075 2.43078 52.2254 3.99964C57.309 5.37052 62.6317 7.82382 66.7334 9.9663C71.5286 12.471 75.107 16.7015 77.485 21.5608C80.0779 26.8594 83.9824 34.5637 88.846 43.3329C98.0073 59.851 114.616 84.6038 114.616 84.6038C114.616 84.6038 87.3039 71.5226 64.3103 65.68Z" fill="#F4F4F4" stroke="black" stroke-width="3"/>
</svg>
