<svg width="127" height="95" viewBox="0 0 127 95" fill="none" xmlns="http://www.w3.org/2000/svg">
<path d="M66.3103 67.3417C43.3166 61.499 4.42912 58.364 4.42912 58.364C4.42912 58.364 8.49807 41.8944 15.2797 27.1686C19.1957 18.6653 23.9175 12.1911 27.2088 8.23802C29.6992 5.24677 33.3799 3.62053 37.272 3.65682C41.8774 3.69976 48.4075 4.09246 54.2254 5.66133C59.309 7.0322 64.6317 9.48551 68.7334 11.628C73.5286 14.1327 77.107 18.3632 79.485 23.2225C82.0779 28.5211 85.9824 36.2254 90.846 44.9946C100.007 61.5127 116.616 86.2654 116.616 86.2654C116.616 86.2654 89.3039 73.1843 66.3103 67.3417Z" fill="#CCCCCC" stroke="#4D4D4D" stroke-width="7"/>
</svg>
