<svg width="897" height="475" viewBox="0 0 897 475" fill="none" xmlns="http://www.w3.org/2000/svg">
<path d="M292.615 397.294C320.867 397.294 340.502 386.09 351.276 377.661C357.957 372.434 365.983 368.503 374.465 368.503H522.713C531.196 368.503 539.221 372.434 545.902 377.661C556.677 386.09 576.311 397.294 604.564 397.294C640.812 397.294 666.115 373.048 674.773 363.368C676.511 361.424 679.635 361.408 681.24 363.463C686.812 370.597 698.624 386.183 707.93 401.612C714.279 412.137 722.896 426.189 729.897 437.564C737.793 450.393 750.117 459.87 764.529 464.256L777.894 468.323C793.861 473.182 811.19 470.082 824.482 459.988L826.848 458.191C840.485 447.836 851.915 434.839 858.555 419.056C873.147 384.374 896.586 313.954 892.61 226.48C888.622 138.745 863.691 80.3429 849.025 53.1097C842.619 41.2127 831.42 33.2136 818.211 30.3653C777.478 21.5813 669.598 4.41418 448.589 4.41418C227.58 4.41418 119.701 21.5813 78.9669 30.3653C65.7582 33.2136 54.5596 41.2127 48.153 53.1097C33.4877 80.3429 8.55587 138.745 4.56801 226.48C0.591973 313.954 24.0317 384.374 38.623 419.056C45.2631 434.839 56.6932 447.836 70.3298 458.191L72.6964 459.988C85.9883 470.082 103.317 473.182 119.284 468.323L132.65 464.256C147.061 459.87 159.385 450.393 167.281 437.564C174.282 426.189 182.899 412.137 189.248 401.612C198.554 386.183 210.366 370.597 215.938 363.463C217.543 361.408 220.667 361.424 222.405 363.368C231.063 373.048 256.366 397.294 292.615 397.294Z" fill="#1C1D1F" fill-opacity="0.95" stroke="#555555" stroke-width="7"/>
<path d="M274.004 9.21863C274.004 9.21863 261.719 17.4961 252.979 26.2359C251.802 27.4133 250.611 28.7323 249.432 30.1333C238.743 42.8383 237.298 60.5199 241.778 76.5073L273.863 191.005C281.122 216.91 304.735 234.816 331.637 234.816H409.513H492.509H570.385C597.287 234.816 620.9 216.91 628.159 191.005L660.244 76.5073C664.724 60.5199 663.279 42.8383 652.59 30.1333C651.411 28.7323 650.221 27.4133 649.043 26.2359C640.303 17.4961 628.018 9.21863 628.018 9.21863" stroke="#555555" stroke-width="5"/>
<circle cx="294.347" cy="319.811" r="62.2145" stroke="#555555" stroke-width="5"/>
<circle cx="599.255" cy="319.811" r="62.2145" stroke="#555555" stroke-width="5"/>
</svg>
