<svg width="199" height="64" viewBox="0 0 199 64" fill="none" xmlns="http://www.w3.org/2000/svg">
<path d="M184.557 4.09766L185.046 4.11035C190.069 4.36503 194.052 8.51866 194.052 13.5977V26.9385H94.2632C71.7499 26.9386 50.6128 33.3792 35.0229 39.8896C27.2456 43.1375 20.8928 46.3845 16.4937 48.8135C14.2953 50.0273 12.5877 51.0356 11.437 51.7354C10.8618 52.0852 10.4252 52.3575 10.1372 52.54C9.99341 52.6312 9.8869 52.7005 9.81787 52.7451C9.78336 52.7674 9.75805 52.7839 9.74268 52.7939C9.73531 52.7988 9.72996 52.8018 9.72705 52.8037C9.72562 52.8046 9.72433 52.8055 9.72412 52.8057C9.72415 52.8056 9.72387 52.8059 9.72314 52.8047L4.30127 56.375V39.3896C4.30138 35.0828 6.35517 30.9198 10.1626 28.5127C21.1493 21.5668 52.1788 4.09767 87.0513 4.09766H184.557Z" fill="#414141" stroke="#1B1B1B" stroke-width="7"/>
</svg>
