<svg width="67" height="53" viewBox="0 0 67 53" fill="none" xmlns="http://www.w3.org/2000/svg">
<path d="M62.5024 41.3081C62.5024 45.4502 59.1446 48.8081 55.0024 48.8081L25.9194 48.8081C23.6172 48.8081 21.4133 47.8744 19.812 46.2202L7.99853 34.0151C4.05784 29.944 4.05784 23.4808 7.99853 19.4097L19.812 7.20459C21.4133 5.55043 23.6172 4.6167 25.9194 4.6167L55.0024 4.6167C59.1446 4.6167 62.5024 7.97456 62.5024 12.1167L62.5024 41.3081Z" fill="#8C8C8C" stroke="#191919" stroke-width="7"/>
<path d="M51.5147 24.9035C53.044 25.6246 53.044 27.8002 51.5147 28.5213L34.2715 36.6531C32.9449 37.2787 31.4185 36.3109 31.4185 34.8441L31.4185 18.5807C31.4185 17.1139 32.9449 16.1461 34.2715 16.7717L51.5147 24.9035Z" fill="#555555"/>
</svg>
