<svg width="53" height="67" viewBox="0 0 53 67" fill="none" xmlns="http://www.w3.org/2000/svg">
<path d="M11.4678 61.9529C7.32564 61.9529 3.96777 58.595 3.96777 54.4529L3.96778 25.3699C3.96778 23.0676 4.90151 20.8637 6.55567 19.2624L18.7607 7.44897C22.8319 3.50828 29.2951 3.50828 33.3662 7.44897L45.5713 19.2625C47.2255 20.8637 48.1592 23.0676 48.1592 25.3699L48.1592 54.4529C48.1592 58.595 44.8013 61.9529 40.6592 61.9529L11.4678 61.9529Z" fill="#808080" stroke="#191919" stroke-width="7"/>
<path d="M27.8724 50.9652C27.1512 52.4944 24.9757 52.4944 24.2545 50.9652L16.1228 33.722C15.4972 32.3953 16.465 30.8689 17.9318 30.8689L34.1952 30.8689C35.6619 30.8689 36.6298 32.3954 36.0041 33.722L27.8724 50.9652Z" fill="#555555"/>
</svg>
