<svg width="199" height="64" viewBox="0 0 199 64" fill="none" xmlns="http://www.w3.org/2000/svg">
<path d="M184.674 4.09766L185.164 4.11035C190.186 4.36503 194.169 8.51866 194.169 13.5977V26.9385H94.3804C71.8671 26.9386 50.73 33.3792 35.1401 39.8896C27.3628 43.1375 21.0099 46.3845 16.6108 48.8135C14.4125 50.0273 12.7049 51.0356 11.5542 51.7354C10.9789 52.0852 10.5424 52.3575 10.2544 52.54C10.1106 52.6312 10.0041 52.7005 9.93506 52.7451C9.90055 52.7674 9.87523 52.7839 9.85986 52.7939C9.8525 52.7988 9.84715 52.8018 9.84424 52.8037C9.84281 52.8046 9.84152 52.8055 9.84131 52.8057C9.84134 52.8056 9.84106 52.8059 9.84033 52.8047L4.41846 56.375V39.3896C4.41857 35.0828 6.47236 30.9198 10.2798 28.5127C21.2665 21.5668 52.296 4.09767 87.1685 4.09766H184.674Z" fill="#8E8E8E" stroke="#191919" stroke-width="7"/>
</svg>
