<svg width="814" height="346" viewBox="0 0 814 346" fill="none" xmlns="http://www.w3.org/2000/svg">
<mask id="path-1-outside-1_337_774" maskUnits="userSpaceOnUse" x="0.128906" y="0.909668" width="813" height="345" fill="black">
<rect fill="white" x="0.128906" y="0.909668" width="813" height="345"/>
<path d="M640.616 7.90967C732.012 7.90973 806.104 82.0011 806.104 173.397C806.103 264.793 732.012 338.883 640.616 338.883C610.578 338.883 582.409 330.88 558.125 316.889C547.298 323.131 534.738 326.703 521.343 326.704C500.652 326.704 481.951 318.184 468.558 304.46H343.097C329.703 318.184 311.003 326.703 290.312 326.704C277.241 326.704 264.965 323.302 254.318 317.337C230.214 331.049 202.33 338.883 172.616 338.883C81.2204 338.883 7.1291 264.793 7.12891 173.397C7.12891 82.0011 81.2203 7.90967 172.616 7.90967C175.1 7.90967 177.571 7.96737 180.028 8.07568H633.204C635.661 7.96738 638.132 7.90967 640.616 7.90967Z"/>
</mask>
<path d="M640.616 7.90967C732.012 7.90973 806.104 82.0011 806.104 173.397C806.103 264.793 732.012 338.883 640.616 338.883C610.578 338.883 582.409 330.88 558.125 316.889C547.298 323.131 534.738 326.703 521.343 326.704C500.652 326.704 481.951 318.184 468.558 304.46H343.097C329.703 318.184 311.003 326.703 290.312 326.704C277.241 326.704 264.965 323.302 254.318 317.337C230.214 331.049 202.33 338.883 172.616 338.883C81.2204 338.883 7.1291 264.793 7.12891 173.397C7.12891 82.0011 81.2203 7.90967 172.616 7.90967C175.1 7.90967 177.571 7.96737 180.028 8.07568H633.204C635.661 7.96738 638.132 7.90967 640.616 7.90967Z" fill="url(#paint0_linear_337_774)"/>
<path d="M640.616 7.90967V0.909668V7.90967ZM806.104 173.397L813.104 173.397V173.397H806.104ZM640.616 338.883V345.883V338.883ZM558.125 316.889L561.619 310.824L558.124 308.81L554.629 310.825L558.125 316.889ZM521.343 326.704V333.704H521.343L521.343 326.704ZM468.558 304.46L473.567 299.571L471.507 297.46H468.558V304.46ZM343.097 304.46V297.46H340.147L338.087 299.571L343.097 304.46ZM290.312 326.704V333.704H290.313L290.312 326.704ZM254.318 317.337L257.74 311.23L254.292 309.299L250.857 311.253L254.318 317.337ZM172.616 338.883V345.883H172.616L172.616 338.883ZM7.12891 173.397H0.128906V173.397L7.12891 173.397ZM172.616 7.90967L172.616 0.909668H172.616V7.90967ZM180.028 8.07568L179.72 15.0689L179.874 15.0757H180.028V8.07568ZM633.204 8.07568V15.0757H633.358L633.512 15.0689L633.204 8.07568ZM640.616 7.90967V14.9097C728.146 14.9097 799.104 85.8671 799.104 173.397H806.104H813.104C813.104 78.1351 735.878 0.909737 640.616 0.909668V7.90967ZM806.104 173.397L799.104 173.397C799.103 260.927 728.146 331.883 640.616 331.883V338.883V345.883C735.878 345.883 813.103 268.659 813.104 173.397L806.104 173.397ZM640.616 338.883V331.883C611.837 331.883 584.869 324.218 561.619 310.824L558.125 316.889L554.631 322.955C579.949 337.541 609.319 345.883 640.616 345.883V338.883ZM558.125 316.889L554.629 310.825C544.836 316.471 533.478 319.703 521.343 319.704L521.343 326.704L521.343 333.704C535.998 333.703 549.76 329.792 561.621 322.953L558.125 316.889ZM521.343 326.704V319.704C502.615 319.704 485.698 312 473.567 299.571L468.558 304.46L463.548 309.35C478.205 324.367 498.69 333.704 521.343 333.704V326.704ZM468.558 304.46V297.46H343.097V304.46V311.46H468.558V304.46ZM343.097 304.46L338.087 299.571C325.957 312 309.04 319.703 290.312 319.704L290.312 326.704L290.313 333.704C312.965 333.703 333.45 324.367 348.106 309.35L343.097 304.46ZM290.312 326.704V319.704C278.47 319.704 267.368 316.625 257.74 311.23L254.318 317.337L250.897 323.444C262.561 329.979 276.012 333.704 290.312 333.704V326.704ZM254.318 317.337L250.857 311.253C227.779 324.38 201.085 331.883 172.616 331.883L172.616 338.883L172.616 345.883C203.576 345.883 232.648 337.717 257.779 323.422L254.318 317.337ZM172.616 338.883V331.883C85.0864 331.883 14.1291 260.927 14.1289 173.397L7.12891 173.397L0.128906 173.397C0.129113 268.659 77.3545 345.883 172.616 345.883V338.883ZM7.12891 173.397H14.1289C14.1289 85.8671 85.0863 14.9097 172.616 14.9097V7.90967V0.909668C77.3543 0.909668 0.128906 78.1351 0.128906 173.397H7.12891ZM172.616 7.90967L172.616 14.9097C174.992 14.9097 177.36 14.9649 179.72 15.0689L180.028 8.07568L180.337 1.08247C177.782 0.969885 175.208 0.909674 172.616 0.909668L172.616 7.90967ZM180.028 8.07568V15.0757H633.204V8.07568V1.07568H180.028V8.07568ZM633.204 8.07568L633.512 15.0689C635.873 14.9649 638.241 14.9097 640.616 14.9097V7.90967V0.909668C638.024 0.909668 635.45 0.969895 632.896 1.08247L633.204 8.07568Z" fill="#191919" mask="url(#path-1-outside-1_337_774)"/>
<circle cx="640.616" cy="173.397" r="152.48" fill="#B2B2B2" stroke="#666666" stroke-width="4"/>
<circle cx="290.311" cy="252.952" r="76.2112" fill="#D9D9D9" stroke="#191919" stroke-width="5"/>
<circle cx="164.731" cy="277.201" r="17.0205" fill="#D9D9D9" stroke="#666666" stroke-width="4"/>
<circle cx="646.922" cy="277.201" r="17.0205" fill="#D9D9D9" stroke="#666666" stroke-width="4"/>
<circle cx="521.342" cy="252.952" r="76.2112" fill="#D9D9D9" stroke="#191919" stroke-width="5"/>
<circle cx="521.342" cy="252.952" r="46.5237" fill="#B2B2B2" stroke="#666666" stroke-width="5"/>
<circle cx="290.311" cy="252.952" r="46.5237" fill="#B2B2B2" stroke="#666666" stroke-width="5"/>
<rect x="515.745" y="126.205" width="174.343" height="78.0747" rx="39.0374" transform="rotate(-38.5444 515.745 126.205)" fill="#D9D9D9" stroke="#666666" stroke-width="4"/>
<rect x="593.319" y="186.778" width="174.343" height="78.0747" rx="39.0374" transform="rotate(-38.5444 593.319 186.778)" fill="#D9D9D9" stroke="#666666" stroke-width="4"/>
<circle cx="165.156" cy="132.62" r="89.8384" stroke="#B3B3B3" stroke-width="5"/>
<defs>
<linearGradient id="paint0_linear_337_774" x1="406.616" y1="7.90967" x2="406.616" y2="338.883" gradientUnits="userSpaceOnUse">
<stop stop-color="#E6E6E6"/>
<stop offset="1" stop-color="#D9D9D9"/>
</linearGradient>
</defs>
</svg>
