<svg width="53" height="67" viewBox="0 0 53 67" fill="none" xmlns="http://www.w3.org/2000/svg">
<path d="M41.6343 4.99097C45.7764 4.99097 49.1343 8.34883 49.1343 12.491V41.574C49.1343 43.8762 48.2005 46.0801 46.5464 47.6814L34.3413 59.4949C30.2702 63.4356 23.8069 63.4356 19.7358 59.4949L7.53076 47.6814C5.8766 46.0801 4.94287 43.8762 4.94287 41.574V12.491C4.94287 8.34883 8.30073 4.99097 12.4429 4.99097H41.6343Z" fill="#8C8C8C" stroke="#191919" stroke-width="7"/>
<path d="M25.2296 15.9787C25.9508 14.4494 28.1263 14.4494 28.8475 15.9787L36.9792 33.2219C37.6048 34.5485 36.637 36.075 35.1703 36.075H18.9069C17.4401 36.075 16.4723 34.5485 17.0979 33.2219L25.2296 15.9787Z" fill="#555555"/>
</svg>
