<svg width="68" height="54" viewBox="0 0 68 54" fill="none" xmlns="http://www.w3.org/2000/svg">
<path d="M6.35352 12.0635C6.35352 7.92134 9.71138 4.56348 13.8535 4.56348L42.9365 4.56348C45.2388 4.56348 47.4427 5.49721 49.044 7.15137L60.8574 19.3565C64.7981 23.4276 64.7981 29.8908 60.8574 33.9619L49.0439 46.167C47.4427 47.8212 45.2388 48.7549 42.9365 48.7549L13.8535 48.7549C9.71138 48.7549 6.35352 45.397 6.35352 41.2549L6.35352 12.0635Z" fill="#8C8C8C" stroke="#191919" stroke-width="7"/>
<path d="M17.3412 28.4681C15.812 27.747 15.812 25.5714 17.3412 24.8502L34.5844 16.7185C35.911 16.0929 37.4375 17.0607 37.4375 18.5275L37.4375 34.7909C37.4375 36.2576 35.911 37.2255 34.5844 36.5998L17.3412 28.4681Z" fill="#555555"/>
</svg>
