<svg width="813" height="346" viewBox="0 0 813 346" fill="none" xmlns="http://www.w3.org/2000/svg">
<mask id="path-1-outside-1_337_775" maskUnits="userSpaceOnUse" x="0.0117188" y="0.909668" width="813" height="345" fill="black">
<rect fill="white" x="0.0117188" y="0.909668" width="813" height="345"/>
<path d="M640.499 7.90967C731.895 7.90973 805.986 82.0011 805.986 173.397C805.986 264.793 731.895 338.883 640.499 338.883C610.461 338.883 582.292 330.88 558.008 316.889C547.181 323.131 534.621 326.703 521.226 326.704C500.535 326.704 481.834 318.184 468.44 304.46H342.979C329.586 318.184 310.886 326.703 290.195 326.704C277.124 326.704 264.848 323.302 254.201 317.337C230.097 331.049 202.213 338.883 172.499 338.883C81.1032 338.883 7.01192 264.793 7.01172 173.397C7.01172 82.0011 81.1031 7.90967 172.499 7.90967C174.983 7.90967 177.454 7.96737 179.911 8.07568H633.087C635.544 7.96738 638.015 7.90967 640.499 7.90967Z"/>
</mask>
<path d="M640.499 7.90967C731.895 7.90973 805.986 82.0011 805.986 173.397C805.986 264.793 731.895 338.883 640.499 338.883C610.461 338.883 582.292 330.88 558.008 316.889C547.181 323.131 534.621 326.703 521.226 326.704C500.535 326.704 481.834 318.184 468.44 304.46H342.979C329.586 318.184 310.886 326.703 290.195 326.704C277.124 326.704 264.848 323.302 254.201 317.337C230.097 331.049 202.213 338.883 172.499 338.883C81.1032 338.883 7.01192 264.793 7.01172 173.397C7.01172 82.0011 81.1031 7.90967 172.499 7.90967C174.983 7.90967 177.454 7.96737 179.911 8.07568H633.087C635.544 7.96738 638.015 7.90967 640.499 7.90967Z" fill="url(#paint0_linear_337_775)"/>
<path d="M640.499 7.90967L640.499 0.909668H640.499V7.90967ZM805.986 173.397L812.986 173.397V173.397H805.986ZM640.499 338.883L640.499 345.883L640.499 345.883L640.499 338.883ZM558.008 316.889L561.502 310.824L558.007 308.81L554.511 310.825L558.008 316.889ZM521.226 326.704L521.226 333.704L521.226 333.704L521.226 326.704ZM468.44 304.46L473.45 299.571L471.39 297.46H468.44V304.46ZM342.979 304.46V297.46H340.03L337.97 299.571L342.979 304.46ZM290.195 326.704L290.195 333.704L290.195 333.704L290.195 326.704ZM254.201 317.337L257.622 311.23L254.175 309.299L250.74 311.253L254.201 317.337ZM172.499 338.883L172.499 345.883L172.499 345.883L172.499 338.883ZM7.01172 173.397L0.0117187 173.397L0.0117188 173.397L7.01172 173.397ZM172.499 7.90967L172.499 0.909668H172.499V7.90967ZM179.911 8.07568L179.603 15.0689L179.757 15.0757H179.911V8.07568ZM633.087 8.07568V15.0757H633.241L633.395 15.0689L633.087 8.07568ZM640.499 7.90967L640.499 14.9097C728.029 14.9097 798.986 85.8671 798.986 173.397H805.986H812.986C812.986 78.1351 735.761 0.909737 640.499 0.909668L640.499 7.90967ZM805.986 173.397L798.986 173.397C798.986 260.927 728.029 331.883 640.499 331.883L640.499 338.883L640.499 345.883C735.761 345.883 812.986 268.659 812.986 173.397L805.986 173.397ZM640.499 338.883V331.883C611.72 331.883 584.752 324.218 561.502 310.824L558.008 316.889L554.513 322.955C579.832 337.541 609.202 345.883 640.499 345.883V338.883ZM558.008 316.889L554.511 310.825C544.719 316.471 533.36 319.703 521.225 319.704L521.226 326.704L521.226 333.704C535.881 333.703 549.643 329.792 561.504 322.953L558.008 316.889ZM521.226 326.704V319.704C502.497 319.704 485.58 312 473.45 299.571L468.44 304.46L463.431 309.35C478.087 324.367 498.573 333.704 521.226 333.704V326.704ZM468.44 304.46V297.46H342.979V304.46V311.46H468.44V304.46ZM342.979 304.46L337.97 299.571C325.84 312 308.923 319.703 290.195 319.704L290.195 326.704L290.195 333.704C312.848 333.703 333.333 324.367 347.989 309.35L342.979 304.46ZM290.195 326.704V319.704C278.353 319.704 267.251 316.625 257.622 311.23L254.201 317.337L250.78 323.444C262.444 329.979 275.895 333.704 290.195 333.704V326.704ZM254.201 317.337L250.74 311.253C227.662 324.38 200.968 331.883 172.499 331.883L172.499 338.883L172.499 345.883C203.459 345.883 232.531 337.717 257.662 323.422L254.201 317.337ZM172.499 338.883V331.883C84.9692 331.883 14.0119 260.927 14.0117 173.397L7.01172 173.397L0.0117188 173.397C0.0119251 268.659 77.2373 345.883 172.499 345.883V338.883ZM7.01172 173.397H14.0117C14.0117 85.8671 84.9691 14.9097 172.499 14.9097V7.90967V0.909668C77.2371 0.909668 0.0117188 78.1351 0.0117188 173.397H7.01172ZM172.499 7.90967L172.499 14.9097C174.875 14.9097 177.243 14.9649 179.603 15.0689L179.911 8.07568L180.219 1.08247C177.665 0.969885 175.091 0.909674 172.499 0.909668L172.499 7.90967ZM179.911 8.07568V15.0757H633.087V8.07568V1.07568H179.911V8.07568ZM633.087 8.07568L633.395 15.0689C635.755 14.9649 638.124 14.9097 640.499 14.9097V7.90967V0.909668C637.907 0.909668 635.333 0.969895 632.779 1.08247L633.087 8.07568Z" fill="#212121" mask="url(#path-1-outside-1_337_775)"/>
<circle cx="640.499" cy="173.397" r="152.48" fill="#404040" stroke="#252728" stroke-width="4"/>
<circle cx="290.194" cy="252.952" r="76.2112" fill="#414141" stroke="#212121" stroke-width="5"/>
<circle cx="164.614" cy="277.201" r="17.0205" fill="#3D3D3D" stroke="#2F2F2F" stroke-width="4"/>
<circle cx="646.805" cy="277.201" r="17.0205" fill="#3D3D3D" stroke="#2F2F2F" stroke-width="4"/>
<circle cx="521.224" cy="252.952" r="76.2112" fill="#414141" stroke="#212121" stroke-width="5"/>
<rect x="515.627" y="126.205" width="174.343" height="78.0747" rx="39.0374" transform="rotate(-38.5444 515.627 126.205)" fill="#3A3A3A" stroke="#2B2B2B" stroke-width="4"/>
<rect x="593.202" y="186.778" width="174.343" height="78.0747" rx="39.0374" transform="rotate(-38.5444 593.202 186.778)" fill="#3A3A3A" stroke="#2B2B2B" stroke-width="4"/>
<circle cx="165.039" cy="132.62" r="89.8384" fill="#3A3A3A" stroke="#252728" stroke-width="5"/>
<defs>
<linearGradient id="paint0_linear_337_775" x1="406.499" y1="7.90967" x2="406.499" y2="338.883" gradientUnits="userSpaceOnUse">
<stop stop-color="#464646"/>
<stop offset="1" stop-color="#3B3B3B"/>
</linearGradient>
</defs>
</svg>
