<svg width="68" height="54" viewBox="0 0 68 54" fill="none" xmlns="http://www.w3.org/2000/svg">
<path d="M5.47071 12.0635C5.47071 7.92134 8.82857 4.56348 12.9707 4.56348L42.0537 4.56348C44.356 4.56348 46.5599 5.49721 48.1611 7.15137L59.9746 19.3565C63.9153 23.4276 63.9153 29.8908 59.9746 33.9619L48.1611 46.167C46.5599 47.8212 44.356 48.7549 42.0537 48.7549L12.9707 48.7549C8.82857 48.7549 5.4707 45.397 5.4707 41.2549L5.47071 12.0635Z" fill="#808080" stroke="#191919" stroke-width="7"/>
<path d="M16.4584 28.4681C14.9292 27.747 14.9292 25.5714 16.4584 24.8502L33.7016 16.7185C35.0282 16.0929 36.5547 17.0607 36.5547 18.5275L36.5547 34.7909C36.5547 36.2576 35.0282 37.2255 33.7016 36.5998L16.4584 28.4681Z" fill="#555555"/>
</svg>
