<svg width="199" height="64" viewBox="0 0 199 64" fill="none" xmlns="http://www.w3.org/2000/svg">
<path d="M14.4409 4.09766L13.9517 4.11035C8.92918 4.36503 4.9458 8.51866 4.9458 13.5977V26.9385H104.735C127.248 26.9386 148.385 33.3792 163.975 39.8896C171.752 43.1375 178.105 46.3845 182.504 48.8135C184.703 50.0273 186.41 51.0356 187.561 51.7354C188.136 52.0852 188.573 52.3575 188.861 52.54C189.005 52.6312 189.111 52.7005 189.18 52.7451C189.215 52.7674 189.24 52.7839 189.255 52.7939C189.263 52.7988 189.268 52.8018 189.271 52.8037C189.272 52.8046 189.274 52.8055 189.274 52.8057C189.274 52.8056 189.274 52.8059 189.275 52.8047L194.697 56.375V39.3896C194.697 35.0828 192.643 30.9198 188.835 28.5127C177.849 21.5668 146.819 4.09767 111.947 4.09766H14.4409Z" fill="#141414" stroke="#565656" stroke-width="7"/>
</svg>
