<svg width="199" height="64" viewBox="0 0 199 64" fill="none" xmlns="http://www.w3.org/2000/svg">
<path d="M14.5581 4.09766L14.0688 4.11035C9.04637 4.36503 5.06299 8.51866 5.06299 13.5977V26.9385H104.852C127.365 26.9386 148.502 33.3792 164.092 39.8896C171.87 43.1375 178.222 46.3845 182.622 48.8135C184.82 50.0273 186.528 51.0356 187.678 51.7354C188.253 52.0852 188.69 52.3575 188.978 52.54C189.122 52.6312 189.228 52.7005 189.297 52.7451C189.332 52.7674 189.357 52.7839 189.373 52.7939C189.38 52.7988 189.385 52.8018 189.388 52.8037C189.39 52.8046 189.391 52.8055 189.391 52.8057C189.391 52.8056 189.391 52.8059 189.392 52.8047L194.814 56.375V39.3896C194.814 35.0828 192.76 30.9198 188.953 28.5127C177.966 21.5668 146.936 4.09767 112.064 4.09766H14.5581Z" fill="#8E8E8E" stroke="#191919" stroke-width="7"/>
</svg>
