<svg width="67" height="53" viewBox="0 0 67 53" fill="none" xmlns="http://www.w3.org/2000/svg">
<path d="M61.6196 41.3081C61.6196 45.4502 58.2618 48.8081 54.1196 48.8081L25.0366 48.8081C22.7344 48.8081 20.5305 47.8744 18.9292 46.2202L7.11572 34.0151C3.17503 29.944 3.17503 23.4808 7.11572 19.4097L18.9292 7.20459C20.5305 5.55043 22.7344 4.6167 25.0366 4.6167L54.1196 4.6167C58.2618 4.6167 61.6196 7.97456 61.6196 12.1167L61.6196 41.3081Z" fill="#808080" stroke="#191919" stroke-width="7"/>
<path d="M50.6319 24.9035C52.1612 25.6246 52.1612 27.8002 50.6319 28.5213L33.3887 36.6531C32.0621 37.2787 30.5356 36.3109 30.5356 34.8441L30.5356 18.5807C30.5356 17.1139 32.0621 16.1461 33.3887 16.7717L50.6319 24.9035Z" fill="#555555"/>
</svg>
