<svg width="53" height="67" viewBox="0 0 53 67" fill="none" xmlns="http://www.w3.org/2000/svg">
<path d="M11.3506 61.9529C7.20845 61.9529 3.85059 58.595 3.85059 54.4529L3.85059 25.3699C3.85059 23.0676 4.78432 20.8637 6.43848 19.2624L18.6436 7.44897C22.7147 3.50828 29.1779 3.50828 33.249 7.44897L45.4541 19.2625C47.1083 20.8637 48.042 23.0676 48.042 25.3699L48.042 54.4529C48.042 58.595 44.6841 61.9529 40.542 61.9529L11.3506 61.9529Z" fill="#8C8C8C" stroke="#191919" stroke-width="7"/>
<path d="M27.7552 50.9652C27.0341 52.4944 24.8585 52.4944 24.1374 50.9652L16.0056 33.722C15.38 32.3953 16.3478 30.8689 17.8146 30.8689L34.078 30.8689C35.5447 30.8689 36.5126 32.3954 35.8869 33.722L27.7552 50.9652Z" fill="#555555"/>
</svg>
