<svg width="53" height="67" viewBox="0 0 53 67" fill="none" xmlns="http://www.w3.org/2000/svg">
<path d="M40.7515 4.99097C44.8936 4.99097 48.2515 8.34883 48.2515 12.491V41.574C48.2515 43.8762 47.3177 46.0801 45.6636 47.6814L33.4585 59.4949C29.3874 63.4356 22.9241 63.4356 18.853 59.4949L6.64795 47.6814C4.99379 46.0801 4.06006 43.8762 4.06006 41.574V12.491C4.06006 8.34883 7.41792 4.99097 11.5601 4.99097H40.7515Z" fill="#808080" stroke="#191919" stroke-width="7"/>
<path d="M24.3468 15.9787C25.068 14.4494 27.2435 14.4494 27.9647 15.9787L36.0964 33.2219C36.722 34.5485 35.7542 36.075 34.2875 36.075H18.024C16.5573 36.075 15.5895 34.5485 16.2151 33.2219L24.3468 15.9787Z" fill="#555555"/>
</svg>
