<svg width="101" height="101" viewBox="0 0 101 101" fill="none" xmlns="http://www.w3.org/2000/svg">
<circle cx="50.1254" cy="50.2314" r="50" fill="#060308"/>
<g filter="url(#filter0_i_213_516)">
<circle cx="50.1254" cy="49.05" r="46.5227" fill="#817539"/>
</g>
<circle cx="50.1253" cy="45.5048" r="39.02" fill="#201F19"/>
<g filter="url(#filter1_dii_213_516)">
<circle cx="50.1254" cy="43.142" r="33.7553" fill="#3C4235"/>
</g>
<g filter="url(#filter2_d_213_516)">
<mask id="path-5-outside-1_213_516" maskUnits="userSpaceOnUse" x="25.1254" y="26.188" width="49" height="36" fill="black">
<rect fill="white" x="25.1254" y="26.188" width="49" height="36"/>
<path d="M28.8494 60.188L42.6214 28.42H58.2414L71.0894 60.188H57.7574L56.7014 57.064H43.1934L42.0494 60.188H28.8494ZM46.0974 49.232H53.9734L50.1454 38.056L46.0974 49.232Z"/>
</mask>
<path d="M28.8494 60.188L42.6214 28.42H58.2414L71.0894 60.188H57.7574L56.7014 57.064H43.1934L42.0494 60.188H28.8494ZM46.0974 49.232H53.9734L50.1454 38.056L46.0974 49.232Z" fill="#A7EFBF"/>
<path d="M28.8494 60.188L27.0144 59.3925L25.8025 62.188H28.8494V60.188ZM42.6214 28.42V26.42H41.3086L40.7864 27.6245L42.6214 28.42ZM58.2414 28.42L60.0955 27.6701L59.5899 26.42H58.2414V28.42ZM71.0894 60.188V62.188H74.0556L72.9435 59.4381L71.0894 60.188ZM57.7574 60.188L55.8627 60.8284L56.3223 62.188H57.7574V60.188ZM56.7014 57.064L58.596 56.4235L58.1365 55.064H56.7014V57.064ZM43.1934 57.064V55.064H41.7959L41.3153 56.3763L43.1934 57.064ZM42.0494 60.188V62.188H43.4469L43.9274 60.8757L42.0494 60.188ZM46.0974 49.232L44.2169 48.5509L43.2458 51.232H46.0974V49.232ZM53.9734 49.232V51.232H56.7725L55.8655 48.5839L53.9734 49.232ZM50.1454 38.056L52.0375 37.4079L50.1981 32.0377L48.2649 37.3749L50.1454 38.056ZM28.8494 60.188L30.6844 60.9835L44.4564 29.2155L42.6214 28.42L40.7864 27.6245L27.0144 59.3925L28.8494 60.188ZM42.6214 28.42V30.42H58.2414V28.42V26.42H42.6214V28.42ZM58.2414 28.42L56.3873 29.1698L69.2353 60.9378L71.0894 60.188L72.9435 59.4381L60.0955 27.6701L58.2414 28.42ZM71.0894 60.188V58.188H57.7574V60.188V62.188H71.0894V60.188ZM57.7574 60.188L59.652 59.5475L58.596 56.4235L56.7014 57.064L54.8067 57.7044L55.8627 60.8284L57.7574 60.188ZM56.7014 57.064V55.064H43.1934V57.064V59.064H56.7014V57.064ZM43.1934 57.064L41.3153 56.3763L40.1713 59.5003L42.0494 60.188L43.9274 60.8757L45.0714 57.7517L43.1934 57.064ZM42.0494 60.188V58.188H28.8494V60.188V62.188H42.0494V60.188ZM46.0974 49.232V51.232H53.9734V49.232V47.232H46.0974V49.232ZM53.9734 49.232L55.8655 48.5839L52.0375 37.4079L50.1454 38.056L48.2533 38.7041L52.0813 49.8801L53.9734 49.232ZM50.1454 38.056L48.2649 37.3749L44.2169 48.5509L46.0974 49.232L47.9778 49.9131L52.0258 38.7371L50.1454 38.056Z" fill="black" mask="url(#path-5-outside-1_213_516)"/>
</g>
<g filter="url(#filter3_f_213_516)">
<path d="M38.7277 14.5815C39.2506 15.4503 37.367 17.2484 35.4621 18.7722C33.5572 20.296 30.1116 20.8795 29.7473 20.296C29.383 19.7125 31.3536 17.2551 33.5572 15.8876C35.7607 14.5201 38.2048 13.7128 38.7277 14.5815Z" fill="#F7F7F8"/>
</g>
<path d="M79.6091 79.693L77.2218 74.4158C81.2006 70.6046 83.4203 67.254 85.8915 62.3955L92.048 63.2752C89.2838 69.6832 85.305 74.8766 79.6091 79.693Z" fill="#B4B066"/>
<path d="M12.5681 32.5574L7.92334 31.063C9.58569 25.0788 20.8898 6.60231 43.0121 3.46777V6.60231C29.8667 9.07256 17.8976 18.3819 12.5681 32.5574Z" fill="#C0BE72"/>
<path d="M18.561 77.5002L23.2876 74.2688C26.1814 77.1626 28.6893 78.9953 32.961 81.0389L30.5704 86.0851C24.6381 83.2395 21.7925 80.6834 18.561 77.5002Z" fill="#968947"/>
<defs>
<filter id="filter0_i_213_516" x="3.60266" y="2.52734" width="93.0454" height="93.0454" filterUnits="userSpaceOnUse" color-interpolation-filters="sRGB">
<feFlood flood-opacity="0" result="BackgroundImageFix"/>
<feBlend mode="normal" in="SourceGraphic" in2="BackgroundImageFix" result="shape"/>
<feColorMatrix in="SourceAlpha" type="matrix" values="0 0 0 0 0 0 0 0 0 0 0 0 0 0 0 0 0 0 127 0" result="hardAlpha"/>
<feOffset dy="-4"/>
<feComposite in2="hardAlpha" operator="arithmetic" k2="-1" k3="1"/>
<feColorMatrix type="matrix" values="0 0 0 0 0.282353 0 0 0 0 0.243137 0 0 0 0 0.129412 0 0 0 1 0"/>
<feBlend mode="normal" in2="shape" result="effect1_innerShadow_213_516"/>
</filter>
<filter id="filter1_dii_213_516" x="13.3701" y="6.38672" width="72.5105" height="75.5107" filterUnits="userSpaceOnUse" color-interpolation-filters="sRGB">
<feFlood flood-opacity="0" result="BackgroundImageFix"/>
<feColorMatrix in="SourceAlpha" type="matrix" values="0 0 0 0 0 0 0 0 0 0 0 0 0 0 0 0 0 0 127 0" result="hardAlpha"/>
<feMorphology radius="2" operator="dilate" in="SourceAlpha" result="effect1_dropShadow_213_516"/>
<feOffset dy="3"/>
<feComposite in2="hardAlpha" operator="out"/>
<feColorMatrix type="matrix" values="0 0 0 0 0.00392157 0 0 0 0 0.0117647 0 0 0 0 0 0 0 0 1 0"/>
<feBlend mode="normal" in2="BackgroundImageFix" result="effect1_dropShadow_213_516"/>
<feBlend mode="normal" in="SourceGraphic" in2="effect1_dropShadow_213_516" result="shape"/>
<feColorMatrix in="SourceAlpha" type="matrix" values="0 0 0 0 0 0 0 0 0 0 0 0 0 0 0 0 0 0 127 0" result="hardAlpha"/>
<feMorphology radius="7" operator="erode" in="SourceAlpha" result="effect2_innerShadow_213_516"/>
<feOffset dx="-3" dy="-3"/>
<feGaussianBlur stdDeviation="1.3"/>
<feComposite in2="hardAlpha" operator="arithmetic" k2="-1" k3="1"/>
<feColorMatrix type="matrix" values="0 0 0 0 0.211765 0 0 0 0 0.231373 0 0 0 0 0.180392 0 0 0 1 0"/>
<feBlend mode="normal" in2="shape" result="effect2_innerShadow_213_516"/>
<feColorMatrix in="SourceAlpha" type="matrix" values="0 0 0 0 0 0 0 0 0 0 0 0 0 0 0 0 0 0 127 0" result="hardAlpha"/>
<feOffset dx="-1.5" dy="-2"/>
<feGaussianBlur stdDeviation="1"/>
<feComposite in2="hardAlpha" operator="arithmetic" k2="-1" k3="1"/>
<feColorMatrix type="matrix" values="0 0 0 0 0.533333 0 0 0 0 0.545098 0 0 0 0 0.505882 0 0 0 1 0"/>
<feBlend mode="normal" in2="effect2_innerShadow_213_516" result="effect3_innerShadow_213_516"/>
</filter>
<filter id="filter2_d_213_516" x="24.8025" y="26.4199" width="50.2532" height="38.7681" filterUnits="userSpaceOnUse" color-interpolation-filters="sRGB">
<feFlood flood-opacity="0" result="BackgroundImageFix"/>
<feColorMatrix in="SourceAlpha" type="matrix" values="0 0 0 0 0 0 0 0 0 0 0 0 0 0 0 0 0 0 127 0" result="hardAlpha"/>
<feOffset dy="2"/>
<feGaussianBlur stdDeviation="0.5"/>
<feComposite in2="hardAlpha" operator="out"/>
<feColorMatrix type="matrix" values="0 0 0 0 0 0 0 0 0 0 0 0 0 0 0 0 0 0 1 0"/>
<feBlend mode="normal" in2="BackgroundImageFix" result="effect1_dropShadow_213_516"/>
<feBlend mode="normal" in="SourceGraphic" in2="effect1_dropShadow_213_516" result="shape"/>
</filter>
<filter id="filter3_f_213_516" x="28.7036" y="13.2212" width="11.1127" height="8.29736" filterUnits="userSpaceOnUse" color-interpolation-filters="sRGB">
<feFlood flood-opacity="0" result="BackgroundImageFix"/>
<feBlend mode="normal" in="SourceGraphic" in2="BackgroundImageFix" result="shape"/>
<feGaussianBlur stdDeviation="0.5" result="effect1_foregroundBlur_213_516"/>
</filter>
</defs>
</svg>
