<svg width="101" height="101" viewBox="0 0 101 101" fill="none" xmlns="http://www.w3.org/2000/svg">
<circle cx="50.8694" cy="50.291" r="50" fill="#060308"/>
<g filter="url(#filter0_i_213_517)">
<circle cx="50.8694" cy="49.1096" r="46.5227" fill="#817539"/>
</g>
<circle cx="50.8694" cy="45.5644" r="39.02" fill="#201F19"/>
<g filter="url(#filter1_dii_213_517)">
<circle cx="50.8694" cy="43.2016" r="33.7553" fill="#3C4235"/>
</g>
<g filter="url(#filter2_d_213_517)">
<mask id="path-5-outside-1_213_517" maskUnits="userSpaceOnUse" x="31.8694" y="26.2476" width="44" height="36" fill="black">
<rect fill="white" x="31.8694" y="26.2476" width="44" height="36"/>
<path d="M59.9094 28.4796C68.1814 28.4796 72.0974 30.3276 72.0974 36.3996C72.0974 39.5236 70.6454 41.8996 67.8734 43.3516C71.5254 44.5396 73.4174 47.2236 73.4174 51.1836C73.4174 57.2116 69.4574 60.2476 61.5374 60.2476H34.3454V28.4796H59.9094ZM46.6654 35.9156V40.4036H54.9374C57.8854 40.4036 59.2054 40.1836 59.2054 38.1596C59.2054 36.0036 57.8414 35.9156 54.9374 35.9156H46.6654ZM46.6654 52.3276H55.3774C58.5894 52.3276 60.1734 52.1076 60.1734 49.7316C60.1734 47.3996 58.6774 47.0916 55.3774 47.0916H46.6654V52.3276Z"/>
</mask>
<path d="M59.9094 28.4796C68.1814 28.4796 72.0974 30.3276 72.0974 36.3996C72.0974 39.5236 70.6454 41.8996 67.8734 43.3516C71.5254 44.5396 73.4174 47.2236 73.4174 51.1836C73.4174 57.2116 69.4574 60.2476 61.5374 60.2476H34.3454V28.4796H59.9094ZM46.6654 35.9156V40.4036H54.9374C57.8854 40.4036 59.2054 40.1836 59.2054 38.1596C59.2054 36.0036 57.8414 35.9156 54.9374 35.9156H46.6654ZM46.6654 52.3276H55.3774C58.5894 52.3276 60.1734 52.1076 60.1734 49.7316C60.1734 47.3996 58.6774 47.0916 55.3774 47.0916H46.6654V52.3276Z" fill="#E96464"/>
<path d="M67.8734 43.3516L66.9454 41.5799L62.7375 43.784L67.2547 45.2535L67.8734 43.3516ZM34.3454 60.2476H32.3454V62.2476H34.3454V60.2476ZM34.3454 28.4796V26.4796H32.3454V28.4796H34.3454ZM46.6654 35.9156V33.9156H44.6654V35.9156H46.6654ZM46.6654 40.4036H44.6654V42.4036H46.6654V40.4036ZM46.6654 52.3276H44.6654V54.3276H46.6654V52.3276ZM46.6654 47.0916V45.0916H44.6654V47.0916H46.6654ZM59.9094 28.4796V30.4796C64.0024 30.4796 66.5607 30.9582 68.0682 31.8726C69.3288 32.6372 70.0974 33.8605 70.0974 36.3996H72.0974H74.0974C74.0974 32.8666 72.908 30.1299 70.1426 28.4525C67.6241 26.9249 64.0883 26.4796 59.9094 26.4796V28.4796ZM72.0974 36.3996H70.0974C70.0974 38.7718 69.0653 40.4695 66.9454 41.5799L67.8734 43.3516L68.8014 45.1232C72.2255 43.3296 74.0974 40.2753 74.0974 36.3996H72.0974ZM67.8734 43.3516L67.2547 45.2535C68.7466 45.7388 69.7435 46.4799 70.3819 47.3828C71.0242 48.2911 71.4174 49.5246 71.4174 51.1836H73.4174H75.4174C75.4174 48.8826 74.8646 46.794 73.6479 45.0734C72.4273 43.3472 70.6522 42.1524 68.4921 41.4497L67.8734 43.3516ZM73.4174 51.1836H71.4174C71.4174 53.721 70.612 55.3336 69.2333 56.3867C67.7534 57.5172 65.2977 58.2476 61.5374 58.2476V60.2476V62.2476C65.697 62.2476 69.1813 61.46 71.6615 59.5654C74.2428 57.5935 75.4174 54.6741 75.4174 51.1836H73.4174ZM61.5374 60.2476V58.2476H34.3454V60.2476V62.2476H61.5374V60.2476ZM34.3454 60.2476H36.3454V28.4796H34.3454H32.3454V60.2476H34.3454ZM34.3454 28.4796V30.4796H59.9094V28.4796V26.4796H34.3454V28.4796ZM46.6654 35.9156H44.6654V40.4036H46.6654H48.6654V35.9156H46.6654ZM46.6654 40.4036V42.4036H54.9374V40.4036V38.4036H46.6654V40.4036ZM54.9374 40.4036V42.4036C55.6853 42.4036 56.4013 42.3903 57.0412 42.3282C57.669 42.2673 58.3526 42.1489 58.9838 41.8705C59.6619 41.5715 60.2849 41.084 60.7008 40.3363C61.0936 39.6303 61.2054 38.8638 61.2054 38.1596H59.2054H57.2054C57.2054 38.4673 57.1522 38.4873 57.2053 38.3918C57.2816 38.2546 57.3904 38.2016 57.37 38.2106C57.3027 38.2402 57.1035 38.3034 56.6547 38.3469C56.218 38.3893 55.6635 38.4036 54.9374 38.4036V40.4036ZM59.2054 38.1596H61.2054C61.2054 37.4339 61.0947 36.6462 60.6947 35.9271C60.266 35.1565 59.6204 34.6689 58.9255 34.3812C58.2858 34.1163 57.5979 34.017 56.9853 33.9691C56.3603 33.9202 55.6562 33.9156 54.9374 33.9156V35.9156V37.9156C55.6706 37.9156 56.226 37.9219 56.6735 37.9569C57.1334 37.9929 57.331 38.0503 57.3953 38.0769C57.4044 38.0807 57.2813 38.0194 57.1991 37.8716C57.1456 37.7754 57.2054 37.8072 57.2054 38.1596H59.2054ZM54.9374 35.9156V33.9156H46.6654V35.9156V37.9156H54.9374V35.9156ZM46.6654 52.3276V54.3276H55.3774V52.3276V50.3276H46.6654V52.3276ZM55.3774 52.3276V54.3276C56.1888 54.3276 56.9714 54.3144 57.6734 54.2469C58.3645 54.1804 59.1063 54.0509 59.7875 53.7503C60.5143 53.4294 61.1763 52.9103 61.6207 52.1169C62.043 51.3628 62.1734 50.5301 62.1734 49.7316H60.1734H58.1734C58.1734 50.121 58.1058 50.2068 58.1307 50.1622C58.1778 50.0783 58.243 50.0597 58.1723 50.0909C58.056 50.1422 57.7996 50.2162 57.2903 50.2653C56.7919 50.3132 56.172 50.3276 55.3774 50.3276V52.3276ZM60.1734 49.7316H62.1734C62.1734 48.9527 62.0513 48.1353 61.6497 47.3883C61.2261 46.6003 60.5863 46.0656 59.8614 45.726C58.6032 45.1365 56.9408 45.0916 55.3774 45.0916V47.0916V49.0916C56.1848 49.0916 56.81 49.1111 57.304 49.1645C57.8089 49.2191 58.0571 49.2979 58.1643 49.3481C58.226 49.377 58.1665 49.3566 58.1265 49.2822C58.1085 49.2488 58.1734 49.3445 58.1734 49.7316H60.1734ZM55.3774 47.0916V45.0916H46.6654V47.0916V49.0916H55.3774V47.0916ZM46.6654 47.0916H44.6654V52.3276H46.6654H48.6654V47.0916H46.6654Z" fill="black" mask="url(#path-5-outside-1_213_517)"/>
</g>
<g filter="url(#filter3_f_213_517)">
<path d="M39.4717 14.6411C39.9946 15.5099 38.111 17.308 36.2061 18.8318C34.3012 20.3556 30.8556 20.939 30.4913 20.3556C30.127 19.7721 32.0977 17.3147 34.3012 15.9472C36.5047 14.5797 38.9488 13.7723 39.4717 14.6411Z" fill="#F7F7F8"/>
</g>
<path d="M80.3531 79.7526L77.9658 74.4754C81.9446 70.6642 84.1644 67.3136 86.6355 62.4551L92.792 63.3348C90.0278 69.7427 86.049 74.9361 80.3531 79.7526Z" fill="#B4B066"/>
<path d="M13.3121 32.617L8.66736 31.1225C10.3297 25.1384 21.6339 6.66188 43.7561 3.52734V6.66188C30.6107 9.13213 18.6416 18.4414 13.3121 32.617Z" fill="#C0BE72"/>
<path d="M19.3051 77.5597L24.0316 74.3284C26.9254 77.2222 29.4334 79.0549 33.705 81.0985L31.3144 86.1447C25.3821 83.2991 22.5365 80.743 19.3051 77.5597Z" fill="#968947"/>
<defs>
<filter id="filter0_i_213_517" x="4.34668" y="2.58691" width="93.0454" height="93.0454" filterUnits="userSpaceOnUse" color-interpolation-filters="sRGB">
<feFlood flood-opacity="0" result="BackgroundImageFix"/>
<feBlend mode="normal" in="SourceGraphic" in2="BackgroundImageFix" result="shape"/>
<feColorMatrix in="SourceAlpha" type="matrix" values="0 0 0 0 0 0 0 0 0 0 0 0 0 0 0 0 0 0 127 0" result="hardAlpha"/>
<feOffset dy="-4"/>
<feComposite in2="hardAlpha" operator="arithmetic" k2="-1" k3="1"/>
<feColorMatrix type="matrix" values="0 0 0 0 0.282353 0 0 0 0 0.243137 0 0 0 0 0.129412 0 0 0 1 0"/>
<feBlend mode="normal" in2="shape" result="effect1_innerShadow_213_517"/>
</filter>
<filter id="filter1_dii_213_517" x="14.1141" y="6.44629" width="72.5106" height="75.5107" filterUnits="userSpaceOnUse" color-interpolation-filters="sRGB">
<feFlood flood-opacity="0" result="BackgroundImageFix"/>
<feColorMatrix in="SourceAlpha" type="matrix" values="0 0 0 0 0 0 0 0 0 0 0 0 0 0 0 0 0 0 127 0" result="hardAlpha"/>
<feMorphology radius="2" operator="dilate" in="SourceAlpha" result="effect1_dropShadow_213_517"/>
<feOffset dy="3"/>
<feComposite in2="hardAlpha" operator="out"/>
<feColorMatrix type="matrix" values="0 0 0 0 0.00392157 0 0 0 0 0.0117647 0 0 0 0 0 0 0 0 1 0"/>
<feBlend mode="normal" in2="BackgroundImageFix" result="effect1_dropShadow_213_517"/>
<feBlend mode="normal" in="SourceGraphic" in2="effect1_dropShadow_213_517" result="shape"/>
<feColorMatrix in="SourceAlpha" type="matrix" values="0 0 0 0 0 0 0 0 0 0 0 0 0 0 0 0 0 0 127 0" result="hardAlpha"/>
<feMorphology radius="7" operator="erode" in="SourceAlpha" result="effect2_innerShadow_213_517"/>
<feOffset dx="-3" dy="-3"/>
<feGaussianBlur stdDeviation="1.3"/>
<feComposite in2="hardAlpha" operator="arithmetic" k2="-1" k3="1"/>
<feColorMatrix type="matrix" values="0 0 0 0 0.211765 0 0 0 0 0.231373 0 0 0 0 0.180392 0 0 0 1 0"/>
<feBlend mode="normal" in2="shape" result="effect2_innerShadow_213_517"/>
<feColorMatrix in="SourceAlpha" type="matrix" values="0 0 0 0 0 0 0 0 0 0 0 0 0 0 0 0 0 0 127 0" result="hardAlpha"/>
<feOffset dx="-1.5" dy="-2"/>
<feGaussianBlur stdDeviation="1"/>
<feComposite in2="hardAlpha" operator="arithmetic" k2="-1" k3="1"/>
<feColorMatrix type="matrix" values="0 0 0 0 0.533333 0 0 0 0 0.545098 0 0 0 0 0.505882 0 0 0 1 0"/>
<feBlend mode="normal" in2="effect2_innerShadow_213_517" result="effect3_innerShadow_213_517"/>
</filter>
<filter id="filter2_d_213_517" x="31.3453" y="26.4795" width="45.072" height="38.7681" filterUnits="userSpaceOnUse" color-interpolation-filters="sRGB">
<feFlood flood-opacity="0" result="BackgroundImageFix"/>
<feColorMatrix in="SourceAlpha" type="matrix" values="0 0 0 0 0 0 0 0 0 0 0 0 0 0 0 0 0 0 127 0" result="hardAlpha"/>
<feOffset dy="2"/>
<feGaussianBlur stdDeviation="0.5"/>
<feComposite in2="hardAlpha" operator="out"/>
<feColorMatrix type="matrix" values="0 0 0 0 0 0 0 0 0 0 0 0 0 0 0 0 0 0 1 0"/>
<feBlend mode="normal" in2="BackgroundImageFix" result="effect1_dropShadow_213_517"/>
<feBlend mode="normal" in="SourceGraphic" in2="effect1_dropShadow_213_517" result="shape"/>
</filter>
<filter id="filter3_f_213_517" x="29.4476" y="13.2808" width="11.1127" height="8.29736" filterUnits="userSpaceOnUse" color-interpolation-filters="sRGB">
<feFlood flood-opacity="0" result="BackgroundImageFix"/>
<feBlend mode="normal" in="SourceGraphic" in2="BackgroundImageFix" result="shape"/>
<feGaussianBlur stdDeviation="0.5" result="effect1_foregroundBlur_213_517"/>
</filter>
</defs>
</svg>
