<svg width="801" height="351" viewBox="0 0 801 351" fill="none" xmlns="http://www.w3.org/2000/svg">
<path d="M0.113586 97.1388C0.113586 43.6885 53.057 0.358398 118.366 0.358398H681.861C747.17 0.358398 800.114 43.6885 800.114 97.1388V253.578C800.114 307.028 747.17 350.358 681.861 350.358H118.366C53.0569 350.358 0.113586 307.028 0.113586 253.578V97.1388Z" fill="#000715"/>
<path d="M121.22 4.69873H679.007C742.8 4.69873 793.562 46.3572 793.562 96.688V249.423C793.562 299.754 742.8 341.413 679.007 341.413H121.22C57.4266 341.413 6.66531 299.754 6.66531 249.423V96.688C6.66531 46.3572 57.4266 4.69873 121.22 4.69873Z" stroke="#2E3339" stroke-width="5"/>
</svg>
