<svg width="101" height="101" viewBox="0 0 101 101" fill="none" xmlns="http://www.w3.org/2000/svg">
<circle cx="50.4336" cy="50.8896" r="50" fill="#060308"/>
<g filter="url(#filter0_i_222_629)">
<circle cx="50.4336" cy="49.7082" r="46.5227" fill="#817539"/>
</g>
<circle cx="50.4336" cy="46.1631" r="39.02" fill="#201F19"/>
<g filter="url(#filter1_dii_222_629)">
<circle cx="50.4336" cy="43.8002" r="33.7553" fill="#3C4235"/>
</g>
<g filter="url(#filter2_f_222_629)">
<path d="M39.0359 15.2397C39.5588 16.1085 37.6752 17.9066 35.7703 19.4304C33.8654 20.9542 30.4198 21.5377 30.0555 20.9542C29.6912 20.3707 31.6619 17.9133 33.8654 16.5458C36.0689 15.1783 38.5131 14.371 39.0359 15.2397Z" fill="#F7F7F8"/>
</g>
<path d="M79.9173 80.3512L77.53 75.0741C81.5088 71.2628 83.7286 67.9122 86.1997 63.0537L92.3563 63.9334C89.592 70.3414 85.6132 75.5348 79.9173 80.3512Z" fill="#B4B066"/>
<path d="M12.8763 33.2156L8.23157 31.7212C9.89392 25.7371 21.1981 7.26051 43.3203 4.12598V7.26051C30.1749 9.73077 18.2058 19.0401 12.8763 33.2156Z" fill="#C0BE72"/>
<path d="M18.8693 78.1584L23.5958 74.927C26.4896 77.8208 28.9976 79.6535 33.2692 81.6971L30.8786 86.7433C24.9463 83.8977 22.1007 81.3416 18.8693 78.1584Z" fill="#968947"/>
<g filter="url(#filter3_d_222_629)">
<path d="M64.7747 23.026C66.0229 21.7778 68.0461 21.7778 69.2943 23.026C70.5424 24.2742 70.5425 26.2975 69.2943 27.5457L54.9737 41.8654L69.2943 56.186C70.5425 57.4342 70.5425 59.4583 69.2943 60.7065C68.0462 61.9543 66.0228 61.9542 64.7747 60.7065L50.4541 46.3851L36.1382 60.7018C34.89 61.9499 32.8667 61.9499 31.6185 60.7018C30.3703 59.4536 30.3703 57.4303 31.6185 56.1821L45.9344 41.8654L31.6185 27.5496C30.3703 26.3014 30.3703 24.2781 31.6185 23.0299C32.8667 21.7818 34.89 21.7817 36.1382 23.0299L50.4541 37.3458L64.7747 23.026Z" fill="#B4C0F6"/>
<path d="M64.0671 22.3193C65.7059 20.6806 68.363 20.6806 70.0017 22.3193C71.6399 23.958 71.6403 26.6143 70.0017 28.2529L56.3875 41.8652L70.0017 55.4785C71.6403 57.1171 71.64 59.7743 70.0017 61.4131V61.4141C68.3632 63.0522 65.7068 63.0517 64.0681 61.4141L64.0671 61.4131L50.4539 47.7988L36.8455 61.4092C35.2068 63.0477 32.5506 63.0474 30.9119 61.4092C29.2731 59.7705 29.2732 57.1133 30.9119 55.4746L44.5203 41.8652L30.9119 28.2568C29.2731 26.6181 29.2731 23.962 30.9119 22.3232V22.3223C32.5506 20.6842 35.2069 20.6847 36.8455 22.3232L50.4539 35.9316L64.0671 22.3193Z" stroke="black" stroke-width="2" stroke-linecap="round"/>
</g>
<defs>
<filter id="filter0_i_222_629" x="3.91089" y="3.18555" width="93.0454" height="93.0454" filterUnits="userSpaceOnUse" color-interpolation-filters="sRGB">
<feFlood flood-opacity="0" result="BackgroundImageFix"/>
<feBlend mode="normal" in="SourceGraphic" in2="BackgroundImageFix" result="shape"/>
<feColorMatrix in="SourceAlpha" type="matrix" values="0 0 0 0 0 0 0 0 0 0 0 0 0 0 0 0 0 0 127 0" result="hardAlpha"/>
<feOffset dy="-4"/>
<feComposite in2="hardAlpha" operator="arithmetic" k2="-1" k3="1"/>
<feColorMatrix type="matrix" values="0 0 0 0 0.282353 0 0 0 0 0.243137 0 0 0 0 0.129412 0 0 0 1 0"/>
<feBlend mode="normal" in2="shape" result="effect1_innerShadow_222_629"/>
</filter>
<filter id="filter1_dii_222_629" x="13.6783" y="7.04492" width="72.5106" height="75.5107" filterUnits="userSpaceOnUse" color-interpolation-filters="sRGB">
<feFlood flood-opacity="0" result="BackgroundImageFix"/>
<feColorMatrix in="SourceAlpha" type="matrix" values="0 0 0 0 0 0 0 0 0 0 0 0 0 0 0 0 0 0 127 0" result="hardAlpha"/>
<feMorphology radius="2" operator="dilate" in="SourceAlpha" result="effect1_dropShadow_222_629"/>
<feOffset dy="3"/>
<feComposite in2="hardAlpha" operator="out"/>
<feColorMatrix type="matrix" values="0 0 0 0 0.00392157 0 0 0 0 0.0117647 0 0 0 0 0 0 0 0 1 0"/>
<feBlend mode="normal" in2="BackgroundImageFix" result="effect1_dropShadow_222_629"/>
<feBlend mode="normal" in="SourceGraphic" in2="effect1_dropShadow_222_629" result="shape"/>
<feColorMatrix in="SourceAlpha" type="matrix" values="0 0 0 0 0 0 0 0 0 0 0 0 0 0 0 0 0 0 127 0" result="hardAlpha"/>
<feMorphology radius="7" operator="erode" in="SourceAlpha" result="effect2_innerShadow_222_629"/>
<feOffset dx="-3" dy="-3"/>
<feGaussianBlur stdDeviation="1.3"/>
<feComposite in2="hardAlpha" operator="arithmetic" k2="-1" k3="1"/>
<feColorMatrix type="matrix" values="0 0 0 0 0.211765 0 0 0 0 0.231373 0 0 0 0 0.180392 0 0 0 1 0"/>
<feBlend mode="normal" in2="shape" result="effect2_innerShadow_222_629"/>
<feColorMatrix in="SourceAlpha" type="matrix" values="0 0 0 0 0 0 0 0 0 0 0 0 0 0 0 0 0 0 127 0" result="hardAlpha"/>
<feOffset dx="-1.5" dy="-2"/>
<feGaussianBlur stdDeviation="1"/>
<feComposite in2="hardAlpha" operator="arithmetic" k2="-1" k3="1"/>
<feColorMatrix type="matrix" values="0 0 0 0 0.533333 0 0 0 0 0.545098 0 0 0 0 0.505882 0 0 0 1 0"/>
<feBlend mode="normal" in2="effect2_innerShadow_222_629" result="effect3_innerShadow_222_629"/>
</filter>
<filter id="filter2_f_222_629" x="29.0118" y="13.8794" width="11.1127" height="8.29736" filterUnits="userSpaceOnUse" color-interpolation-filters="sRGB">
<feFlood flood-opacity="0" result="BackgroundImageFix"/>
<feBlend mode="normal" in="SourceGraphic" in2="BackgroundImageFix" result="shape"/>
<feGaussianBlur stdDeviation="0.5" result="effect1_foregroundBlur_222_629"/>
</filter>
<filter id="filter3_d_222_629" x="28.6824" y="20.0898" width="43.5481" height="46.5522" filterUnits="userSpaceOnUse" color-interpolation-filters="sRGB">
<feFlood flood-opacity="0" result="BackgroundImageFix"/>
<feColorMatrix in="SourceAlpha" type="matrix" values="0 0 0 0 0 0 0 0 0 0 0 0 0 0 0 0 0 0 127 0" result="hardAlpha"/>
<feOffset dy="3"/>
<feComposite in2="hardAlpha" operator="out"/>
<feColorMatrix type="matrix" values="0 0 0 0 0 0 0 0 0 0 0 0 0 0 0 0 0 0 1 0"/>
<feBlend mode="normal" in2="BackgroundImageFix" result="effect1_dropShadow_222_629"/>
<feBlend mode="normal" in="SourceGraphic" in2="effect1_dropShadow_222_629" result="shape"/>
</filter>
</defs>
</svg>
