<svg width="241" height="272" viewBox="0 0 241 272" fill="none" xmlns="http://www.w3.org/2000/svg">
<g filter="url(#filter0_di_216_1064)">
<ellipse cx="120.516" cy="145.358" rx="106.883" ry="110" fill="url(#paint0_radial_216_1064)"/>
<path d="M120.516 33.8584C180.415 33.8585 228.899 83.8197 228.899 145.358C228.899 206.897 180.415 256.858 120.516 256.858C60.6181 256.858 12.1337 206.897 12.1337 145.358C12.1337 83.8196 60.6181 33.8584 120.516 33.8584Z" stroke="black" stroke-width="3"/>
</g>
<g filter="url(#filter1_di_216_1064)">
<path d="M161.212 95.3956C161.212 97.0524 162.555 98.3956 164.212 98.3956H225.116C231.743 98.3956 237.116 103.768 237.116 110.396V176.994C237.116 183.621 231.743 188.994 225.116 188.994H164.212C162.555 188.994 161.212 190.337 161.212 191.994V253.358C161.212 259.986 155.839 265.358 149.212 265.358H91.8209C85.1935 265.358 79.8209 259.986 79.8209 253.358V191.994C79.8209 190.337 78.4777 188.994 76.8209 188.994H15.9171C9.28969 188.994 3.91711 183.621 3.91711 176.994V110.396C3.91711 103.768 9.2897 98.3956 15.9171 98.3956H76.8209C78.4777 98.3956 79.8209 97.0524 79.8209 95.3956V37.3584C79.8209 30.731 85.1935 25.3584 91.8209 25.3584H149.212C155.839 25.3584 161.212 30.731 161.212 37.3584V95.3956Z" fill="#817446"/>
<path d="M149.212 23.8584C156.668 23.8586 162.712 29.9027 162.712 37.3584V95.3955C162.712 96.2239 163.384 96.8955 164.212 96.8955H225.115C232.571 96.8955 238.615 102.94 238.615 110.396V176.994C238.615 184.45 232.571 190.494 225.115 190.494H164.212C163.384 190.494 162.712 191.166 162.712 191.994V253.358C162.712 260.814 156.668 266.858 149.212 266.858H91.8204C84.3648 266.858 78.3204 260.814 78.3204 253.358V191.994C78.3204 191.166 77.6489 190.494 76.8204 190.494H15.9171C8.46141 190.494 2.41735 184.45 2.41711 176.994V110.396C2.41714 102.94 8.46128 96.8955 15.9171 96.8955H76.8204C77.6489 96.8955 78.3204 96.2239 78.3204 95.3955V37.3584C78.3204 29.9027 84.3648 23.8586 91.8204 23.8584H149.212Z" stroke="black" stroke-width="3"/>
</g>
<path d="M153.438 114.552C153.438 116.209 154.781 117.552 156.438 117.552H219.413C224.936 117.552 229.413 122.029 229.413 127.552V171.871C229.413 177.393 224.936 181.871 219.413 181.871H156.438C154.781 181.871 153.438 183.214 153.438 184.871V246.087C153.438 251.61 148.961 256.087 143.438 256.087H97.5947C92.0719 256.087 87.5947 251.61 87.5947 246.087V184.871C87.5947 183.214 86.2516 181.871 84.5947 181.871H21.6191C16.0963 181.871 11.6191 177.393 11.6191 171.871V127.552C11.6191 122.029 16.0963 117.552 21.6191 117.552H84.5947C86.2516 117.552 87.5947 116.209 87.5947 114.552V53.3354C87.5947 47.8126 92.0719 43.3354 97.5947 43.3354H143.438C148.961 43.3354 153.438 47.8126 153.438 53.3354V114.552Z" fill="#3C3D33"/>
<g filter="url(#filter2_i_216_1064)">
<path d="M153.438 97.442C153.438 99.0989 154.781 100.442 156.438 100.442H219.413C224.936 100.442 229.413 104.919 229.413 110.442V154.761C229.413 160.284 224.936 164.761 219.413 164.761H156.438C154.781 164.761 153.438 166.104 153.438 167.761V228.977C153.438 234.5 148.961 238.977 143.438 238.977H97.5947C92.0719 238.977 87.5947 234.5 87.5947 228.977V167.761C87.5947 166.104 86.2516 164.761 84.5947 164.761H21.6191C16.0963 164.761 11.6191 160.284 11.6191 154.761V110.442C11.6191 104.919 16.0963 100.442 21.6191 100.442H84.5947C86.2516 100.442 87.5947 99.0989 87.5947 97.442V36.2256C87.5947 30.7027 92.0719 26.2256 97.5947 26.2256H143.438C148.961 26.2256 153.438 30.7027 153.438 36.2256V97.442Z" fill="url(#paint1_linear_216_1064)"/>
</g>
<path d="M54.7862 180.859C54.7862 180.859 48.8009 173.965 46.7673 164.773H84.6202C86.277 164.773 87.6202 166.117 87.6202 167.773V180.859H54.7862Z" fill="#4D5340"/>
<path d="M183.36 180.859C183.36 180.859 189.76 173.762 187.932 164.773H218.495V175.859C218.495 178.621 216.257 180.859 213.495 180.859H183.36Z" fill="#4D5340"/>
<path d="M91.7031 162.164V219.174C91.7031 224.697 96.1803 229.174 101.703 229.174H139.358C144.881 229.174 149.358 224.697 149.358 219.174V162.164C132.772 152.752 108.941 152.419 91.7031 162.164Z" fill="#373D30"/>
<path d="M91.7031 95.9316V39.9215C91.7031 33.8464 96.628 28.9215 102.703 28.9215H138.358C144.434 28.9215 149.358 33.8464 149.358 39.9215V84.906C133.604 82.4455 105.749 86.3534 91.7031 95.9316Z" fill="#262D24"/>
<defs>
<filter id="filter0_di_216_1064" x="9.63367" y="29.3584" width="221.765" height="233" filterUnits="userSpaceOnUse" color-interpolation-filters="sRGB">
<feFlood flood-opacity="0" result="BackgroundImageFix"/>
<feColorMatrix in="SourceAlpha" type="matrix" values="0 0 0 0 0 0 0 0 0 0 0 0 0 0 0 0 0 0 127 0" result="hardAlpha"/>
<feMorphology radius="1" operator="dilate" in="SourceAlpha" result="effect1_dropShadow_216_1064"/>
<feOffset dy="3"/>
<feComposite in2="hardAlpha" operator="out"/>
<feColorMatrix type="matrix" values="0 0 0 0 0 0 0 0 0 0 0 0 0 0 0 0 0 0 1 0"/>
<feBlend mode="normal" in2="BackgroundImageFix" result="effect1_dropShadow_216_1064"/>
<feBlend mode="normal" in="SourceGraphic" in2="effect1_dropShadow_216_1064" result="shape"/>
<feColorMatrix in="SourceAlpha" type="matrix" values="0 0 0 0 0 0 0 0 0 0 0 0 0 0 0 0 0 0 127 0" result="hardAlpha"/>
<feMorphology radius="6" operator="erode" in="SourceAlpha" result="effect2_innerShadow_216_1064"/>
<feOffset dy="-3"/>
<feGaussianBlur stdDeviation="1"/>
<feComposite in2="hardAlpha" operator="arithmetic" k2="-1" k3="1"/>
<feColorMatrix type="matrix" values="0 0 0 0 0.389423 0 0 0 0 0.389423 0 0 0 0 0.389423 0 0 0 1 0"/>
<feBlend mode="normal" in2="shape" result="effect2_innerShadow_216_1064"/>
</filter>
<filter id="filter1_di_216_1064" x="0.917114" y="22.3584" width="239.198" height="249" filterUnits="userSpaceOnUse" color-interpolation-filters="sRGB">
<feFlood flood-opacity="0" result="BackgroundImageFix"/>
<feColorMatrix in="SourceAlpha" type="matrix" values="0 0 0 0 0 0 0 0 0 0 0 0 0 0 0 0 0 0 127 0" result="hardAlpha"/>
<feOffset dy="3"/>
<feComposite in2="hardAlpha" operator="out"/>
<feColorMatrix type="matrix" values="0 0 0 0 0 0 0 0 0 0 0 0 0 0 0 0 0 0 1 0"/>
<feBlend mode="normal" in2="BackgroundImageFix" result="effect1_dropShadow_216_1064"/>
<feBlend mode="normal" in="SourceGraphic" in2="effect1_dropShadow_216_1064" result="shape"/>
<feColorMatrix in="SourceAlpha" type="matrix" values="0 0 0 0 0 0 0 0 0 0 0 0 0 0 0 0 0 0 127 0" result="hardAlpha"/>
<feOffset dy="-6"/>
<feComposite in2="hardAlpha" operator="arithmetic" k2="-1" k3="1"/>
<feColorMatrix type="matrix" values="0 0 0 0 0.360577 0 0 0 0 0.340533 0 0 0 0 0.232295 0 0 0 1 0"/>
<feBlend mode="normal" in2="shape" result="effect2_innerShadow_216_1064"/>
</filter>
<filter id="filter2_i_216_1064" x="11.6191" y="26.2256" width="217.794" height="212.751" filterUnits="userSpaceOnUse" color-interpolation-filters="sRGB">
<feFlood flood-opacity="0" result="BackgroundImageFix"/>
<feBlend mode="normal" in="SourceGraphic" in2="BackgroundImageFix" result="shape"/>
<feColorMatrix in="SourceAlpha" type="matrix" values="0 0 0 0 0 0 0 0 0 0 0 0 0 0 0 0 0 0 127 0" result="hardAlpha"/>
<feOffset dy="-4"/>
<feComposite in2="hardAlpha" operator="arithmetic" k2="-1" k3="1"/>
<feColorMatrix type="matrix" values="0 0 0 0 0.396078 0 0 0 0 0.411765 0 0 0 0 0.364706 0 0 0 1 0"/>
<feBlend mode="normal" in2="shape" result="effect1_innerShadow_216_1064"/>
</filter>
<radialGradient id="paint0_radial_216_1064" cx="0" cy="0" r="1" gradientUnits="userSpaceOnUse" gradientTransform="translate(120.516 145.358) rotate(90) scale(110 106.883)">
<stop offset="0.649038" stop-color="#2D2421"/>
<stop offset="1" stop-color="#505050"/>
</radialGradient>
<linearGradient id="paint1_linear_216_1064" x1="120.516" y1="26.2256" x2="120.516" y2="238.977" gradientUnits="userSpaceOnUse">
<stop stop-color="#2E3229"/>
<stop offset="1" stop-color="#363A32"/>
</linearGradient>
</defs>
</svg>
