<svg width="241" height="243" viewBox="0 0 241 243" fill="none" xmlns="http://www.w3.org/2000/svg">
<g filter="url(#filter0_di_216_1064)">
<circle cx="120.538" cy="120.29" r="106.883" fill="url(#paint0_radial_216_1064)"/>
<circle cx="120.538" cy="120.29" r="108.383" stroke="black" stroke-width="3"/>
</g>
<g filter="url(#filter1_di_216_1064)">
<path d="M161.234 71.6587C161.234 73.3155 162.577 74.6587 164.234 74.6587H225.137C231.765 74.6587 237.137 80.0313 237.137 86.6587V150.689C237.137 157.317 231.765 162.689 225.137 162.689H164.234C162.577 162.689 161.234 164.032 161.234 165.689V224.89C161.234 231.517 155.861 236.89 149.234 236.89H91.8429C85.2154 236.89 79.8429 231.517 79.8429 224.89V165.689C79.8429 164.032 78.4997 162.689 76.8429 162.689H15.9391C9.31166 162.689 3.93909 157.317 3.93909 150.689V86.6587C3.93909 80.0313 9.31167 74.6587 15.9391 74.6587H76.8429C78.4997 74.6587 79.8429 73.3155 79.8429 71.6587V15.6914C79.8429 9.06399 85.2154 3.69141 91.8429 3.69141H149.234C155.861 3.69141 161.234 9.06399 161.234 15.6914V71.6587Z" fill="#817446"/>
<path d="M149.234 2.19141C156.69 2.19157 162.734 8.23566 162.734 15.6914V71.6582C162.734 72.4866 163.406 73.1582 164.234 73.1582H225.137C232.593 73.1582 238.637 79.2026 238.637 86.6582V150.689C238.637 158.145 232.593 164.189 225.137 164.189H164.234C163.406 164.189 162.734 164.861 162.734 165.689V224.89C162.734 232.345 156.69 238.389 149.234 238.39H91.8424C84.3868 238.389 78.3424 232.345 78.3424 224.89V165.689C78.3424 164.861 77.6708 164.189 76.8424 164.189H15.9391C8.4833 164.189 2.43918 158.145 2.43909 150.689V86.6582C2.43935 79.2026 8.4834 73.1582 15.9391 73.1582H76.8424C77.6708 73.1582 78.3424 72.4866 78.3424 71.6582V15.6914C78.3424 8.23572 84.3868 2.19165 91.8424 2.19141H149.234Z" stroke="black" stroke-width="3"/>
</g>
<path d="M153.46 90.2718C153.46 91.9287 154.803 93.2718 156.46 93.2718H219.435C224.958 93.2718 229.435 97.749 229.435 103.272V145.768C229.435 151.291 224.958 155.768 219.435 155.768H156.46C154.803 155.768 153.46 157.111 153.46 158.768V217.881C153.46 223.404 148.983 227.881 143.46 227.881H97.6167C92.0938 227.881 87.6167 223.404 87.6167 217.881V158.768C87.6167 157.111 86.2735 155.768 84.6167 155.768H21.6411C16.1183 155.768 11.6411 151.291 11.6411 145.768V103.272C11.6411 97.749 16.1183 93.2718 21.6411 93.2718H84.6167C86.2735 93.2718 87.6167 91.9287 87.6167 90.2718V31.1587C87.6167 25.6359 92.0938 21.1587 97.6167 21.1587H143.46C148.983 21.1587 153.46 25.6358 153.46 31.1587V90.2718Z" fill="#3C3D33"/>
<g filter="url(#filter2_i_216_1064)">
<path d="M153.46 73.6468C153.46 75.3037 154.803 76.6468 156.46 76.6468H219.435C224.958 76.6468 229.435 81.124 229.435 86.6468V129.143C229.435 134.666 224.958 139.143 219.435 139.143H156.46C154.803 139.143 153.46 140.486 153.46 142.143V201.256C153.46 206.779 148.983 211.256 143.46 211.256H97.6167C92.0938 211.256 87.6167 206.779 87.6167 201.256V142.143C87.6167 140.486 86.2735 139.143 84.6167 139.143H21.6411C16.1183 139.143 11.6411 134.666 11.6411 129.143V86.6469C11.6411 81.124 16.1183 76.6468 21.6411 76.6468H84.6167C86.2735 76.6468 87.6167 75.3037 87.6167 73.6468V14.5337C87.6167 9.01086 92.0938 4.53369 97.6167 4.53369H143.46C148.983 4.53369 153.46 9.01084 153.46 14.5337V73.6468Z" fill="url(#paint1_linear_216_1064)"/>
</g>
<path d="M54.8082 154.785C54.8082 154.785 48.8228 148.086 46.7892 139.155H84.6421C86.2989 139.155 87.6421 140.498 87.6421 142.155V154.785H54.8082Z" fill="#4D5340"/>
<path d="M183.382 154.785C183.382 154.785 189.782 147.889 187.954 139.155H218.517V149.785C218.517 152.547 216.279 154.785 213.517 154.785H183.382Z" fill="#4D5340"/>
<path d="M91.725 136.62V191.731C91.725 197.254 96.2022 201.731 101.725 201.731H139.38C144.903 201.731 149.38 197.254 149.38 191.731V136.62C132.794 127.475 108.963 127.151 91.725 136.62Z" fill="#373D30"/>
<path d="M91.725 72.2646V18.1536C91.725 12.0785 96.6499 7.15361 102.725 7.15361H138.38C144.455 7.15361 149.38 12.0785 149.38 18.1536V61.5515C133.626 59.1607 105.77 62.9578 91.725 72.2646Z" fill="#262D24"/>
<defs>
<filter id="filter0_di_216_1064" x="9.6557" y="7.40771" width="221.765" height="226.765" filterUnits="userSpaceOnUse" color-interpolation-filters="sRGB">
<feFlood flood-opacity="0" result="BackgroundImageFix"/>
<feColorMatrix in="SourceAlpha" type="matrix" values="0 0 0 0 0 0 0 0 0 0 0 0 0 0 0 0 0 0 127 0" result="hardAlpha"/>
<feMorphology radius="1" operator="dilate" in="SourceAlpha" result="effect1_dropShadow_216_1064"/>
<feOffset dy="3"/>
<feComposite in2="hardAlpha" operator="out"/>
<feColorMatrix type="matrix" values="0 0 0 0 0 0 0 0 0 0 0 0 0 0 0 0 0 0 1 0"/>
<feBlend mode="normal" in2="BackgroundImageFix" result="effect1_dropShadow_216_1064"/>
<feBlend mode="normal" in="SourceGraphic" in2="effect1_dropShadow_216_1064" result="shape"/>
<feColorMatrix in="SourceAlpha" type="matrix" values="0 0 0 0 0 0 0 0 0 0 0 0 0 0 0 0 0 0 127 0" result="hardAlpha"/>
<feMorphology radius="6" operator="erode" in="SourceAlpha" result="effect2_innerShadow_216_1064"/>
<feOffset dy="-3"/>
<feGaussianBlur stdDeviation="1"/>
<feComposite in2="hardAlpha" operator="arithmetic" k2="-1" k3="1"/>
<feColorMatrix type="matrix" values="0 0 0 0 0.389423 0 0 0 0 0.389423 0 0 0 0 0.389423 0 0 0 1 0"/>
<feBlend mode="normal" in2="shape" result="effect2_innerShadow_216_1064"/>
</filter>
<filter id="filter1_di_216_1064" x="0.939087" y="0.691406" width="239.198" height="242.198" filterUnits="userSpaceOnUse" color-interpolation-filters="sRGB">
<feFlood flood-opacity="0" result="BackgroundImageFix"/>
<feColorMatrix in="SourceAlpha" type="matrix" values="0 0 0 0 0 0 0 0 0 0 0 0 0 0 0 0 0 0 127 0" result="hardAlpha"/>
<feOffset dy="3"/>
<feComposite in2="hardAlpha" operator="out"/>
<feColorMatrix type="matrix" values="0 0 0 0 0 0 0 0 0 0 0 0 0 0 0 0 0 0 1 0"/>
<feBlend mode="normal" in2="BackgroundImageFix" result="effect1_dropShadow_216_1064"/>
<feBlend mode="normal" in="SourceGraphic" in2="effect1_dropShadow_216_1064" result="shape"/>
<feColorMatrix in="SourceAlpha" type="matrix" values="0 0 0 0 0 0 0 0 0 0 0 0 0 0 0 0 0 0 127 0" result="hardAlpha"/>
<feOffset dy="-6"/>
<feComposite in2="hardAlpha" operator="arithmetic" k2="-1" k3="1"/>
<feColorMatrix type="matrix" values="0 0 0 0 0.360577 0 0 0 0 0.340533 0 0 0 0 0.232295 0 0 0 1 0"/>
<feBlend mode="normal" in2="shape" result="effect2_innerShadow_216_1064"/>
</filter>
<filter id="filter2_i_216_1064" x="11.6411" y="4.53369" width="217.794" height="206.722" filterUnits="userSpaceOnUse" color-interpolation-filters="sRGB">
<feFlood flood-opacity="0" result="BackgroundImageFix"/>
<feBlend mode="normal" in="SourceGraphic" in2="BackgroundImageFix" result="shape"/>
<feColorMatrix in="SourceAlpha" type="matrix" values="0 0 0 0 0 0 0 0 0 0 0 0 0 0 0 0 0 0 127 0" result="hardAlpha"/>
<feOffset dy="-4"/>
<feComposite in2="hardAlpha" operator="arithmetic" k2="-1" k3="1"/>
<feColorMatrix type="matrix" values="0 0 0 0 0.396078 0 0 0 0 0.411765 0 0 0 0 0.364706 0 0 0 1 0"/>
<feBlend mode="normal" in2="shape" result="effect1_innerShadow_216_1064"/>
</filter>
<radialGradient id="paint0_radial_216_1064" cx="0" cy="0" r="1" gradientUnits="userSpaceOnUse" gradientTransform="translate(120.538 120.29) rotate(90) scale(106.883)">
<stop offset="0.649038" stop-color="#2D2421"/>
<stop offset="1" stop-color="#505050"/>
</radialGradient>
<linearGradient id="paint1_linear_216_1064" x1="120.538" y1="4.53369" x2="120.538" y2="211.256" gradientUnits="userSpaceOnUse">
<stop stop-color="#2E3229"/>
<stop offset="1" stop-color="#363A32"/>
</linearGradient>
</defs>
</svg>
