<svg width="151" height="71" viewBox="0 0 151 71" fill="none" xmlns="http://www.w3.org/2000/svg">
<path d="M145.098 70.4883H33.0982C14.8728 70.4883 0.0982056 55.7137 0.0982056 37.4883V6.48828C0.0982056 3.17457 2.7845 0.488281 6.09821 0.488281H144.098C147.412 0.488281 150.098 3.17457 150.098 6.48828V65.4883C150.098 68.2497 147.86 70.4883 145.098 70.4883Z" fill="#060308"/>
<g filter="url(#filter0_i_213_563)">
<path d="M144.601 64.9994H32.1122C16.0959 64.9994 3.11218 52.0156 3.11218 35.9994V7.51367C3.11218 4.75225 5.35076 2.51367 8.11219 2.51367H142.601C145.362 2.51367 147.601 4.75225 147.601 7.51367V61.9994C147.601 63.6562 146.258 64.9994 144.601 64.9994Z" fill="#635A30"/>
</g>
<path d="M136.843 54.4288H33.8895C20.0823 54.4288 8.88947 43.2359 8.88947 29.4288V11.2739C8.88947 9.61707 10.2326 8.27393 11.8895 8.27393H136.843C138.5 8.27393 139.843 9.61707 139.843 11.2739V51.4288C139.843 53.0856 138.5 54.4288 136.843 54.4288Z" fill="#111515"/>
<path d="M32.5629 7.3585L31.5726 2.94971L8.60474 2.94973L11.4986 7.3585L32.5629 7.3585Z" fill="#8A8D77"/>
<path d="M126.167 7.35848L128.206 2.94971L142.771 2.94971L138.402 7.35848L126.167 7.35848Z" fill="#7E7753"/>
<path d="M133.839 49.6745H37.8737C24.6189 49.6745 13.8737 38.9293 13.8737 25.6745V11.7754C13.8737 9.01397 16.1123 6.77539 18.8737 6.77539H130.839C134.153 6.77539 136.839 9.46169 136.839 12.7754V46.6745C136.839 48.3313 135.496 49.6745 133.839 49.6745Z" fill="#323330"/>
<path d="M134.24 12.1284V39.9381C134.24 43.2518 131.553 45.9381 128.24 45.9381H39.9271C27.7768 45.9381 17.9271 36.0884 17.9271 23.9381V12.1284C17.9271 10.4716 19.2702 9.12842 20.9271 9.12842H131.24C132.896 9.12842 134.24 10.4716 134.24 12.1284Z" fill="#4D5149"/>
<path d="M105.75 43.5742C107.246 44.98 107.366 46.7756 107.366 46.7756L109.64 46.2665C109.64 46.2665 108.245 44.5251 105.75 43.5742Z" fill="#323330"/>
<path d="M35.6933 31.3074C35.6933 31.3074 33.2684 31.3278 32.258 31.9519C31.4094 32.5974 31.2379 33.3545 31.2379 33.3545L35.6933 31.3074Z" fill="#323330"/>
<path d="M8.18635 20.9854L3.63885 20.9854L3.63887 7.3584L8.18635 10.164V20.9854Z" fill="#766F4F"/>
<path d="M37.7654 59.4291L42.8644 55.377H133.538L137.498 59.4291H37.7654Z" fill="#9B884C"/>
<defs>
<filter id="filter0_i_213_563" x="3.11218" y="2.51367" width="144.489" height="62.4858" filterUnits="userSpaceOnUse" color-interpolation-filters="sRGB">
<feFlood flood-opacity="0" result="BackgroundImageFix"/>
<feBlend mode="normal" in="SourceGraphic" in2="BackgroundImageFix" result="shape"/>
<feColorMatrix in="SourceAlpha" type="matrix" values="0 0 0 0 0 0 0 0 0 0 0 0 0 0 0 0 0 0 127 0" result="hardAlpha"/>
<feOffset dy="-5"/>
<feComposite in2="hardAlpha" operator="arithmetic" k2="-1" k3="1"/>
<feColorMatrix type="matrix" values="0 0 0 0 0.152941 0 0 0 0 0.133333 0 0 0 0 0.0823529 0 0 0 1 0"/>
<feBlend mode="normal" in2="shape" result="effect1_innerShadow_213_563"/>
</filter>
</defs>
</svg>
