<svg width="151" height="71" viewBox="0 0 151 71" fill="none" xmlns="http://www.w3.org/2000/svg">
<path d="M145.162 70.292H33.1617C14.9363 70.292 0.161743 55.5174 0.161743 37.292V6.29199C0.161743 2.97828 2.84804 0.291992 6.16175 0.291992H144.162C147.475 0.291992 150.162 2.97828 150.162 6.29199V65.292C150.162 68.0534 147.923 70.292 145.162 70.292Z" fill="#060308"/>
<g filter="url(#filter0_i_222_537)">
<path d="M144.665 64.8031H32.1758C16.1595 64.8031 3.17578 51.8194 3.17578 35.8031V7.31738C3.17578 4.55596 5.41436 2.31738 8.17579 2.31738H142.665C145.426 2.31738 147.665 4.55596 147.665 7.31738V61.8031C147.665 63.46 146.321 64.8031 144.665 64.8031Z" fill="#635A30"/>
</g>
<path d="M136.907 54.2325H33.953C20.1459 54.2325 8.953 43.0396 8.953 29.2325V11.0776C8.953 9.42078 10.2961 8.07764 11.953 8.07764H136.907C138.564 8.07764 139.907 9.42078 139.907 11.0776V51.2325C139.907 52.8893 138.564 54.2325 136.907 54.2325Z" fill="#111515"/>
<path d="M32.6264 7.16221L31.6361 2.75342L8.66821 2.75344L11.5621 7.16221L32.6264 7.16221Z" fill="#8A8D77"/>
<path d="M126.23 7.16219L128.269 2.75342L142.835 2.75342L138.465 7.16219L126.23 7.16219Z" fill="#7E7753"/>
<path d="M133.903 49.4782H37.9373C24.6824 49.4782 13.9373 38.733 13.9373 25.4782V11.5791C13.9373 8.81768 16.1758 6.5791 18.9373 6.5791H130.903C134.217 6.5791 136.903 9.2654 136.903 12.5791V46.4782C136.903 48.1351 135.56 49.4782 133.903 49.4782Z" fill="#323330"/>
<path d="M134.303 11.9321V39.7418C134.303 43.0555 131.617 45.7418 128.303 45.7418H39.9906C27.8403 45.7418 17.9906 35.8921 17.9906 23.7418V11.9321C17.9906 10.2753 19.3337 8.93213 20.9906 8.93213H131.303C132.96 8.93213 134.303 10.2753 134.303 11.9321Z" fill="#4D5149"/>
<g filter="url(#filter1_d_222_537)">
<mask id="path-8-outside-1_222_537" maskUnits="userSpaceOnUse" x="47.0884" y="11.981" width="49" height="28" fill="black">
<rect fill="white" x="47.0884" y="11.981" width="49" height="28"/>
<path d="M49.882 37.981V14.877H58.842V31.645H72.954V37.981H49.882ZM85.485 37.981V23.421C83.981 23.901 82.541 24.189 81.101 24.253V18.589C83.917 18.109 85.869 17.085 87.053 15.453H93.485V37.981H85.485Z"/>
</mask>
<path d="M49.882 37.981V14.877H58.842V31.645H72.954V37.981H49.882ZM85.485 37.981V23.421C83.981 23.901 82.541 24.189 81.101 24.253V18.589C83.917 18.109 85.869 17.085 87.053 15.453H93.485V37.981H85.485Z" fill="#EEEEEC"/>
<path d="M49.882 37.981H47.882V39.981H49.882V37.981ZM49.882 14.877V12.877H47.882V14.877H49.882ZM58.842 14.877H60.842V12.877H58.842V14.877ZM58.842 31.645H56.842V33.645H58.842V31.645ZM72.954 31.645H74.954V29.645H72.954V31.645ZM72.954 37.981V39.981H74.954V37.981H72.954ZM49.882 37.981H51.882V14.877H49.882H47.882V37.981H49.882ZM49.882 14.877V16.877H58.842V14.877V12.877H49.882V14.877ZM58.842 14.877H56.842V31.645H58.842H60.842V14.877H58.842ZM58.842 31.645V33.645H72.954V31.645V29.645H58.842V31.645ZM72.954 31.645H70.954V37.981H72.954H74.954V31.645H72.954ZM72.954 37.981V35.981H49.882V37.981V39.981H72.954V37.981ZM85.485 37.981H83.485V39.981H85.485V37.981ZM85.485 23.421H87.485V20.6833L84.8769 21.5156L85.485 23.421ZM81.101 24.253H79.101V26.3438L81.1898 26.251L81.101 24.253ZM81.101 18.589L80.7649 16.6174L79.101 16.901V18.589H81.101ZM87.053 15.453V13.453H86.0331L85.4342 14.2785L87.053 15.453ZM93.485 15.453H95.485V13.453H93.485V15.453ZM93.485 37.981V39.981H95.485V37.981H93.485ZM85.485 37.981H87.485V23.421H85.485H83.485V37.981H85.485ZM85.485 23.421L84.8769 21.5156C83.5053 21.9534 82.2418 22.2003 81.0122 22.2549L81.101 24.253L81.1898 26.251C82.8402 26.1776 84.4567 25.8485 86.0931 25.3263L85.485 23.421ZM81.101 24.253H83.101V18.589H81.101H79.101V24.253H81.101ZM81.101 18.589L81.4371 20.5605C84.5477 20.0303 87.0706 18.8345 88.6718 16.6274L87.053 15.453L85.4342 14.2785C84.6674 15.3354 83.2863 16.1876 80.7649 16.6174L81.101 18.589ZM87.053 15.453V17.453H93.485V15.453V13.453H87.053V15.453ZM93.485 15.453H91.485V37.981H93.485H95.485V15.453H93.485ZM93.485 37.981V35.981H85.485V37.981V39.981H93.485V37.981Z" fill="black" mask="url(#path-8-outside-1_222_537)"/>
</g>
<path d="M105.814 43.3779C107.31 44.7838 107.43 46.5793 107.43 46.5793L109.704 46.0702C109.704 46.0702 108.308 44.3288 105.814 43.3779Z" fill="#323330"/>
<path d="M35.7569 31.1111C35.7569 31.1111 33.332 31.1315 32.3216 31.7557C31.473 32.4011 31.3015 33.1582 31.3015 33.1582L35.7569 31.1111Z" fill="#323330"/>
<path d="M8.24989 20.7892L3.70239 20.7891L3.70241 7.16211L8.24989 9.96772V20.7892Z" fill="#766F4F"/>
<path d="M37.8289 59.2328L42.9279 55.1807H133.602L137.562 59.2328H37.8289Z" fill="#9B884C"/>
<defs>
<filter id="filter0_i_222_537" x="3.17578" y="2.31738" width="144.489" height="62.4858" filterUnits="userSpaceOnUse" color-interpolation-filters="sRGB">
<feFlood flood-opacity="0" result="BackgroundImageFix"/>
<feBlend mode="normal" in="SourceGraphic" in2="BackgroundImageFix" result="shape"/>
<feColorMatrix in="SourceAlpha" type="matrix" values="0 0 0 0 0 0 0 0 0 0 0 0 0 0 0 0 0 0 127 0" result="hardAlpha"/>
<feOffset dy="-5"/>
<feComposite in2="hardAlpha" operator="arithmetic" k2="-1" k3="1"/>
<feColorMatrix type="matrix" values="0 0 0 0 0.152941 0 0 0 0 0.133333 0 0 0 0 0.0823529 0 0 0 1 0"/>
<feBlend mode="normal" in2="shape" result="effect1_innerShadow_222_537"/>
</filter>
<filter id="filter1_d_222_537" x="46.882" y="12.877" width="49.603" height="30.104" filterUnits="userSpaceOnUse" color-interpolation-filters="sRGB">
<feFlood flood-opacity="0" result="BackgroundImageFix"/>
<feColorMatrix in="SourceAlpha" type="matrix" values="0 0 0 0 0 0 0 0 0 0 0 0 0 0 0 0 0 0 127 0" result="hardAlpha"/>
<feOffset dy="2"/>
<feGaussianBlur stdDeviation="0.5"/>
<feComposite in2="hardAlpha" operator="out"/>
<feColorMatrix type="matrix" values="0 0 0 0 0 0 0 0 0 0 0 0 0 0 0 0 0 0 1 0"/>
<feBlend mode="normal" in2="BackgroundImageFix" result="effect1_dropShadow_222_537"/>
<feBlend mode="normal" in="SourceGraphic" in2="effect1_dropShadow_222_537" result="shape"/>
</filter>
</defs>
</svg>
