<svg width="151" height="71" viewBox="0 0 151 71" fill="none" xmlns="http://www.w3.org/2000/svg">
<path d="M145.098 70.4883H33.0982C14.8728 70.4883 0.0982056 55.7137 0.0982056 37.4883V6.48828C0.0982056 3.17457 2.7845 0.488281 6.09821 0.488281H144.098C147.412 0.488281 150.098 3.17457 150.098 6.48828V65.4883C150.098 68.2497 147.86 70.4883 145.098 70.4883Z" fill="#060308"/>
<g filter="url(#filter0_i_213_563)">
<path d="M144.601 64.9994H32.1122C16.0959 64.9994 3.11218 52.0156 3.11218 35.9994V7.51367C3.11218 4.75225 5.35076 2.51367 8.11219 2.51367H142.601C145.362 2.51367 147.601 4.75225 147.601 7.51367V61.9994C147.601 63.6562 146.258 64.9994 144.601 64.9994Z" fill="#635A30"/>
</g>
<path d="M136.843 54.4288H33.8895C20.0823 54.4288 8.88947 43.2359 8.88947 29.4288V11.2739C8.88947 9.61707 10.2326 8.27393 11.8895 8.27393H136.843C138.5 8.27393 139.843 9.61707 139.843 11.2739V51.4288C139.843 53.0856 138.5 54.4288 136.843 54.4288Z" fill="#111515"/>
<path d="M32.5629 7.3585L31.5726 2.94971L8.60474 2.94973L11.4986 7.3585L32.5629 7.3585Z" fill="#8A8D77"/>
<path d="M126.167 7.35848L128.206 2.94971L142.771 2.94971L138.402 7.35848L126.167 7.35848Z" fill="#7E7753"/>
<path d="M133.839 49.6745H37.8737C24.6189 49.6745 13.8737 38.9293 13.8737 25.6745V11.7754C13.8737 9.01397 16.1123 6.77539 18.8737 6.77539H130.839C134.153 6.77539 136.839 9.46169 136.839 12.7754V46.6745C136.839 48.3313 135.496 49.6745 133.839 49.6745Z" fill="#323330"/>
<path d="M134.24 12.1284V39.9381C134.24 43.2518 131.553 45.9381 128.24 45.9381H39.9271C27.7768 45.9381 17.9271 36.0884 17.9271 23.9381V12.1284C17.9271 10.4716 19.2702 9.12842 20.9271 9.12842H131.24C132.896 9.12842 134.24 10.4716 134.24 12.1284Z" fill="#4D5149"/>
<g filter="url(#filter1_d_213_563)">
<mask id="path-8-outside-1_213_563" maskUnits="userSpaceOnUse" x="46.0248" y="12.1772" width="60" height="28" fill="black">
<rect fill="white" x="46.0248" y="12.1772" width="60" height="28"/>
<path d="M49.006 38.1772V15.0732H57.966V31.8412H72.078V38.1772H49.006ZM93.473 15.0732C99.489 15.0732 102.337 16.4172 102.337 20.8332C102.337 23.1052 101.281 24.8332 99.265 25.8892C101.921 26.7532 103.297 28.7052 103.297 31.5852C103.297 35.9692 100.417 38.1772 94.657 38.1772H74.881V15.0732H93.473ZM83.841 20.4812V23.7452H89.857C92.001 23.7452 92.961 23.5852 92.961 22.1132C92.961 20.5452 91.969 20.4812 89.857 20.4812H83.841ZM83.841 32.4172H90.177C92.513 32.4172 93.665 32.2572 93.665 30.5292C93.665 28.8332 92.577 28.6092 90.177 28.6092H83.841V32.4172Z"/>
</mask>
<path d="M49.006 38.1772V15.0732H57.966V31.8412H72.078V38.1772H49.006ZM93.473 15.0732C99.489 15.0732 102.337 16.4172 102.337 20.8332C102.337 23.1052 101.281 24.8332 99.265 25.8892C101.921 26.7532 103.297 28.7052 103.297 31.5852C103.297 35.9692 100.417 38.1772 94.657 38.1772H74.881V15.0732H93.473ZM83.841 20.4812V23.7452H89.857C92.001 23.7452 92.961 23.5852 92.961 22.1132C92.961 20.5452 91.969 20.4812 89.857 20.4812H83.841ZM83.841 32.4172H90.177C92.513 32.4172 93.665 32.2572 93.665 30.5292C93.665 28.8332 92.577 28.6092 90.177 28.6092H83.841V32.4172Z" fill="#EEEEEC"/>
<path d="M49.006 38.1772H47.006V40.1772H49.006V38.1772ZM49.006 15.0732V13.0732H47.006V15.0732H49.006ZM57.966 15.0732H59.966V13.0732H57.966V15.0732ZM57.966 31.8412H55.966V33.8412H57.966V31.8412ZM72.078 31.8412H74.078V29.8412H72.078V31.8412ZM72.078 38.1772V40.1772H74.078V38.1772H72.078ZM49.006 38.1772H51.006V15.0732H49.006H47.006V38.1772H49.006ZM49.006 15.0732V17.0732H57.966V15.0732V13.0732H49.006V15.0732ZM57.966 15.0732H55.966V31.8412H57.966H59.966V15.0732H57.966ZM57.966 31.8412V33.8412H72.078V31.8412V29.8412H57.966V31.8412ZM72.078 31.8412H70.078V38.1772H72.078H74.078V31.8412H72.078ZM72.078 38.1772V36.1772H49.006V38.1772V40.1772H72.078V38.1772ZM99.265 25.8892L98.337 24.1176L94.1291 26.3217L98.6463 27.7911L99.265 25.8892ZM74.881 38.1772H72.881V40.1772H74.881V38.1772ZM74.881 15.0732V13.0732H72.881V15.0732H74.881ZM83.841 20.4812V18.4812H81.841V20.4812H83.841ZM83.841 23.7452H81.841V25.7452H83.841V23.7452ZM83.841 32.4172H81.841V34.4172H83.841V32.4172ZM83.841 28.6092V26.6092H81.841V28.6092H83.841ZM93.473 15.0732V17.0732C96.438 17.0732 98.1653 17.4259 99.1237 18.0073C99.8354 18.4389 100.337 19.1222 100.337 20.8332H102.337H104.337C104.337 18.1283 103.415 15.9316 101.198 14.5872C99.2287 13.3926 96.5239 13.0732 93.473 13.0732V15.0732ZM102.337 20.8332H100.337C100.337 22.3535 99.7008 23.4032 98.337 24.1176L99.265 25.8892L100.193 27.6609C102.861 26.2633 104.337 23.857 104.337 20.8332H102.337ZM99.265 25.8892L98.6463 27.7911C99.6401 28.1145 100.259 28.5916 100.644 29.136C101.033 29.6858 101.297 30.4663 101.297 31.5852H103.297H105.297C105.297 29.8242 104.873 28.1887 103.91 26.8265C102.943 25.4589 101.546 24.528 99.8837 23.9873L99.265 25.8892ZM103.297 31.5852H101.297C101.297 33.3007 100.762 34.2953 99.9229 34.9359C98.983 35.6539 97.3373 36.1772 94.657 36.1772V38.1772V40.1772C97.7366 40.1772 100.411 39.5966 102.351 38.1146C104.392 36.5552 105.297 34.2538 105.297 31.5852H103.297ZM94.657 38.1772V36.1772H74.881V38.1772V40.1772H94.657V38.1772ZM74.881 38.1772H76.881V15.0732H74.881H72.881V38.1772H74.881ZM74.881 15.0732V17.0732H93.473V15.0732V13.0732H74.881V15.0732ZM83.841 20.4812H81.841V23.7452H83.841H85.841V20.4812H83.841ZM83.841 23.7452V25.7452H89.857V23.7452V21.7452H83.841V23.7452ZM89.857 23.7452V25.7452C90.4039 25.7452 90.9466 25.7357 91.4397 25.6879C91.9208 25.6412 92.4839 25.5476 93.0199 25.3112C93.6028 25.0542 94.1556 24.626 94.5252 23.9615C94.8717 23.3388 94.961 22.6795 94.961 22.1132H92.961H90.961C90.961 22.283 90.9303 22.1957 91.0297 22.017C91.1523 21.7965 91.3312 21.6843 91.406 21.6513C91.434 21.6389 91.3552 21.6773 91.0533 21.7066C90.7633 21.7347 90.382 21.7452 89.857 21.7452V23.7452ZM92.961 22.1132H94.961C94.961 21.5346 94.8735 20.8586 94.5207 20.2245C94.1393 19.5388 93.5649 19.1093 92.9661 18.8614C92.4223 18.6362 91.8552 18.5583 91.3889 18.5218C90.9101 18.4844 90.3778 18.4812 89.857 18.4812V20.4812V22.4812C90.3922 22.4812 90.7758 22.4861 91.077 22.5097C91.3907 22.5342 91.4676 22.5702 91.4358 22.5571C91.4066 22.545 91.3335 22.5102 91.2465 22.4368C91.1555 22.3601 91.0795 22.2666 91.0252 22.169C90.9244 21.9878 90.961 21.9079 90.961 22.1132H92.961ZM89.857 20.4812V18.4812H83.841V20.4812V22.4812H89.857V20.4812ZM83.841 32.4172V34.4172H90.177V32.4172V30.4172H83.841V32.4172ZM90.177 32.4172V34.4172C90.7694 34.4172 91.3607 34.4079 91.899 34.3561C92.4264 34.3053 93.0321 34.2036 93.6046 33.9509C94.2227 33.6781 94.8032 33.2272 95.1934 32.5306C95.5616 31.8733 95.665 31.1658 95.665 30.5292H93.665H91.665C91.665 30.7567 91.6244 30.7172 91.7035 30.5759C91.8047 30.3953 91.9513 30.3084 91.9894 30.2915C91.9937 30.2896 91.9632 30.3034 91.8794 30.3218C91.7959 30.3401 91.6783 30.3588 91.5159 30.3744C91.1813 30.4066 90.7526 30.4172 90.177 30.4172V32.4172ZM93.665 30.5292H95.665C95.665 29.9093 95.5683 29.2165 95.2191 28.5668C94.8478 27.8761 94.2871 27.4116 93.6695 27.1222C92.6258 26.6331 91.2904 26.6092 90.177 26.6092V28.6092V30.6092C90.7594 30.6092 91.1903 30.6236 91.5196 30.6592C91.6797 30.6765 91.794 30.6966 91.8735 30.7155C91.9531 30.7344 91.9799 30.7478 91.9724 30.7443C91.9268 30.7229 91.7882 30.6324 91.6959 30.4607C91.6256 30.33 91.665 30.3012 91.665 30.5292H93.665ZM90.177 28.6092V26.6092H83.841V28.6092V30.6092H90.177V28.6092ZM83.841 28.6092H81.841V32.4172H83.841H85.841V28.6092H83.841Z" fill="black" mask="url(#path-8-outside-1_213_563)"/>
</g>
<path d="M105.75 43.5742C107.246 44.98 107.366 46.7756 107.366 46.7756L109.64 46.2665C109.64 46.2665 108.245 44.5251 105.75 43.5742Z" fill="#323330"/>
<path d="M35.6933 31.3074C35.6933 31.3074 33.2684 31.3278 32.258 31.9519C31.4094 32.5974 31.2379 33.3545 31.2379 33.3545L35.6933 31.3074Z" fill="#323330"/>
<path d="M8.18635 20.9854L3.63885 20.9854L3.63887 7.3584L8.18635 10.164V20.9854Z" fill="#766F4F"/>
<path d="M37.7654 59.4291L42.8644 55.377H133.538L137.498 59.4291H37.7654Z" fill="#9B884C"/>
<defs>
<filter id="filter0_i_213_563" x="3.11218" y="2.51367" width="144.489" height="62.4858" filterUnits="userSpaceOnUse" color-interpolation-filters="sRGB">
<feFlood flood-opacity="0" result="BackgroundImageFix"/>
<feBlend mode="normal" in="SourceGraphic" in2="BackgroundImageFix" result="shape"/>
<feColorMatrix in="SourceAlpha" type="matrix" values="0 0 0 0 0 0 0 0 0 0 0 0 0 0 0 0 0 0 127 0" result="hardAlpha"/>
<feOffset dy="-5"/>
<feComposite in2="hardAlpha" operator="arithmetic" k2="-1" k3="1"/>
<feColorMatrix type="matrix" values="0 0 0 0 0.152941 0 0 0 0 0.133333 0 0 0 0 0.0823529 0 0 0 1 0"/>
<feBlend mode="normal" in2="shape" result="effect1_innerShadow_213_563"/>
</filter>
<filter id="filter1_d_213_563" x="46.006" y="13.0732" width="60.291" height="30.104" filterUnits="userSpaceOnUse" color-interpolation-filters="sRGB">
<feFlood flood-opacity="0" result="BackgroundImageFix"/>
<feColorMatrix in="SourceAlpha" type="matrix" values="0 0 0 0 0 0 0 0 0 0 0 0 0 0 0 0 0 0 127 0" result="hardAlpha"/>
<feOffset dy="2"/>
<feGaussianBlur stdDeviation="0.5"/>
<feComposite in2="hardAlpha" operator="out"/>
<feColorMatrix type="matrix" values="0 0 0 0 0 0 0 0 0 0 0 0 0 0 0 0 0 0 1 0"/>
<feBlend mode="normal" in2="BackgroundImageFix" result="effect1_dropShadow_213_563"/>
<feBlend mode="normal" in="SourceGraphic" in2="effect1_dropShadow_213_563" result="shape"/>
</filter>
</defs>
</svg>
