<svg width="151" height="71" viewBox="0 0 151 71" fill="none" xmlns="http://www.w3.org/2000/svg">
<path d="M4.02484 70.4882H146.025C148.234 70.4882 150.025 68.6973 150.025 66.4882V32.9116C150.025 15.7908 136.146 1.91162 119.025 1.91162H21.0248C9.42686 1.91162 0.0248413 11.3136 0.0248413 22.9116V66.4882C0.0248413 68.6973 1.8157 70.4882 4.02484 70.4882Z" fill="#060308"/>
<g filter="url(#filter0_i_213_579)">
<path d="M5.52202 64.8806H144.011C145.668 64.8806 147.011 63.5374 147.011 61.8806V32.0005C147.011 15.9842 134.027 3.00049 118.011 3.00049H22.522C11.4763 3.00049 2.52202 11.9548 2.52202 23.0005V61.8806C2.52202 63.5374 3.86516 64.8806 5.52202 64.8806Z" fill="#635A30"/>
</g>
<path d="M23.0616 4.11787L21.9173 3.17725C16.3056 3.17714 11.9178 6.14158 9.4104 8.1423L13.7054 11.109C15.8181 8.30345 19.8113 4.92275 23.0616 4.11787Z" fill="#7E7753"/>
<path d="M13.2798 53.0997H134.273C135.929 53.0997 137.273 51.7565 137.273 50.0997V32.0005C137.273 15.9842 124.289 3.00049 108.273 3.00049H30.2798C19.2341 3.00049 10.2798 11.9548 10.2798 23.0005V50.0997C10.2798 51.7565 11.6229 53.0997 13.2798 53.0997Z" fill="#111515"/>
<path d="M19.2543 48.2419H128.298C129.955 48.2419 131.298 46.8988 131.298 45.2419V29.4883C131.298 13.472 118.314 0.488281 102.298 0.488281H36.2543C25.2086 0.488281 16.2543 9.44258 16.2543 20.4883V45.2419C16.2543 46.8988 17.5975 48.2419 19.2543 48.2419Z" fill="#323330"/>
<path d="M18.8542 20.9116V35.8978C18.8542 38.6131 20.6774 40.9725 23.3376 41.5168C30.9829 43.0812 48.03 45.9016 71.5641 45.9016C95.0983 45.9016 112.145 43.0812 119.791 41.5168C122.451 40.9725 124.274 38.6131 124.274 35.8978V28.9116C124.274 13.9999 112.186 1.91162 97.2741 1.91162H37.8542C27.3608 1.91162 18.8542 10.4182 18.8542 20.9116Z" fill="#4D5149"/>
<path d="M44.3726 42.0093C42.877 43.4456 42.7568 45.2802 42.7568 45.2802L40.4829 44.76C40.4829 44.76 41.8782 42.9808 44.3726 42.0093Z" fill="#323330"/>
<path d="M114.43 29.4759C114.43 29.4759 116.855 29.4967 117.865 30.1344C118.714 30.7938 118.885 31.5674 118.885 31.5674L114.43 29.4759Z" fill="#323330"/>
<path d="M135.622 20.1841C140.407 19.2796 144.474 20.184 144.474 20.184C141.239 13.9545 137.287 9.35697 130.54 6.0874C130.54 6.0874 127.39 6.0874 124.507 6.83541C128.755 9.35058 132.621 13.8353 135.622 20.1841Z" fill="#BAB582"/>
<path d="M127.211 58.208L122.112 54.0679H16.5849L12.6248 58.208H127.211Z" fill="#9B884C"/>
<defs>
<filter id="filter0_i_213_579" x="2.52203" y="3.00049" width="144.489" height="61.8799" filterUnits="userSpaceOnUse" color-interpolation-filters="sRGB">
<feFlood flood-opacity="0" result="BackgroundImageFix"/>
<feBlend mode="normal" in="SourceGraphic" in2="BackgroundImageFix" result="shape"/>
<feColorMatrix in="SourceAlpha" type="matrix" values="0 0 0 0 0 0 0 0 0 0 0 0 0 0 0 0 0 0 127 0" result="hardAlpha"/>
<feOffset dy="-5"/>
<feComposite in2="hardAlpha" operator="arithmetic" k2="-1" k3="1"/>
<feColorMatrix type="matrix" values="0 0 0 0 0.152941 0 0 0 0 0.133333 0 0 0 0 0.0823529 0 0 0 1 0"/>
<feBlend mode="normal" in2="shape" result="effect1_innerShadow_213_579"/>
</filter>
</defs>
</svg>
