<svg width="151" height="71" viewBox="0 0 151 71" fill="none" xmlns="http://www.w3.org/2000/svg">
<path d="M4.08838 70.2919H146.088C148.298 70.2919 150.088 68.5011 150.088 66.2919V32.7153C150.088 15.5945 136.209 1.71533 119.088 1.71533H21.0884C9.4904 1.71533 0.0883789 11.1174 0.0883789 22.7153V66.2919C0.0883789 68.5011 1.87924 70.2919 4.08838 70.2919Z" fill="#060308"/>
<g filter="url(#filter0_i_222_525)">
<path d="M5.58549 64.6843H144.074C145.731 64.6843 147.074 63.3411 147.074 61.6843V31.8042C147.074 15.7879 134.091 2.8042 118.074 2.8042H22.5855C11.5398 2.8042 2.58549 11.7585 2.58549 22.8042V61.6843C2.58549 63.3411 3.92863 64.6843 5.58549 64.6843Z" fill="#635A30"/>
</g>
<path d="M23.1251 3.92158L21.9807 2.98096C16.3691 2.98085 11.9812 5.94529 9.47388 7.94601L13.7689 10.9128C15.8816 8.10716 19.8748 4.72646 23.1251 3.92158Z" fill="#7E7753"/>
<path d="M13.3433 52.9034H134.336C135.993 52.9034 137.336 51.5602 137.336 49.9034V31.8042C137.336 15.7879 124.352 2.8042 108.336 2.8042H30.3433C19.2976 2.8042 10.3433 11.7585 10.3433 22.8042V49.9034C10.3433 51.5602 11.6864 52.9034 13.3433 52.9034Z" fill="#111515"/>
<path d="M19.3178 48.0456H128.362C130.019 48.0456 131.362 46.7025 131.362 45.0456V29.292C131.362 13.2757 118.378 0.291992 102.362 0.291992H36.3179C25.2722 0.291992 16.3179 9.24629 16.3179 20.292V45.0456C16.3179 46.7025 17.661 48.0456 19.3178 48.0456Z" fill="#323330"/>
<path d="M18.9177 20.7153V35.7015C18.9177 38.4168 20.7409 40.7762 23.4011 41.3205C31.0464 42.8849 48.0934 45.7053 71.6276 45.7053C95.1618 45.7053 112.209 42.8849 119.854 41.3205C122.514 40.7762 124.338 38.4168 124.338 35.7015V28.7153C124.338 13.8036 112.249 1.71533 97.3375 1.71533H37.9177C27.4243 1.71533 18.9177 10.2219 18.9177 20.7153Z" fill="#4D5149"/>
<path d="M44.4362 41.813C42.9406 43.2493 42.8204 45.0839 42.8204 45.0839L40.5465 44.5637C40.5465 44.5637 41.9418 42.7845 44.4362 41.813Z" fill="#323330"/>
<path d="M114.493 29.2796C114.493 29.2796 116.918 29.3005 117.929 29.9381C118.777 30.5975 118.949 31.3711 118.949 31.3711L114.493 29.2796Z" fill="#323330"/>
<path d="M135.686 19.9878C140.471 19.0833 144.537 19.9877 144.537 19.9877C141.303 13.7582 137.351 9.16068 130.604 5.89111C130.604 5.89111 127.454 5.89111 124.571 6.63912C128.819 9.15429 132.684 13.639 135.686 19.9878Z" fill="#BAB582"/>
<path d="M127.275 58.0117L122.176 53.8716H16.6485L12.6884 58.0117H127.275Z" fill="#9B884C"/>
<g filter="url(#filter1_d_222_525)">
<mask id="path-11-outside-1_222_525" maskUnits="userSpaceOnUse" x="44.0635" y="7.98096" width="58" height="28" fill="black">
<rect fill="white" x="44.0635" y="7.98096" width="58" height="28"/>
<path d="M46.8571 33.981V10.877H55.8171V27.645H69.9291V33.981H46.8571ZM70.7801 33.981C71.1321 26.557 74.4601 23.197 82.1401 21.373C87.2281 20.157 90.0121 20.157 90.0121 18.397C90.0121 17.213 88.7321 16.573 86.2041 16.573C82.8441 16.573 81.2761 17.501 81.2761 19.645V19.709H71.6121C71.8681 13.789 76.4761 10.877 85.5001 10.877C94.7481 10.877 99.4201 13.373 99.4201 18.269C99.4201 22.173 97.0521 24.029 91.8041 25.181C86.3641 26.365 82.3641 26.525 80.5401 28.253H98.9401V33.981H70.7801Z"/>
</mask>
<path d="M46.8571 33.981V10.877H55.8171V27.645H69.9291V33.981H46.8571ZM70.7801 33.981C71.1321 26.557 74.4601 23.197 82.1401 21.373C87.2281 20.157 90.0121 20.157 90.0121 18.397C90.0121 17.213 88.7321 16.573 86.2041 16.573C82.8441 16.573 81.2761 17.501 81.2761 19.645V19.709H71.6121C71.8681 13.789 76.4761 10.877 85.5001 10.877C94.7481 10.877 99.4201 13.373 99.4201 18.269C99.4201 22.173 97.0521 24.029 91.8041 25.181C86.3641 26.365 82.3641 26.525 80.5401 28.253H98.9401V33.981H70.7801Z" fill="#EEEEEC"/>
<path d="M46.8571 33.981H44.8571V35.981H46.8571V33.981ZM46.8571 10.877V8.87696H44.8571V10.877H46.8571ZM55.8171 10.877H57.8171V8.87696H55.8171V10.877ZM55.8171 27.645H53.8171V29.645H55.8171V27.645ZM69.9291 27.645H71.9291V25.645H69.9291V27.645ZM69.9291 33.981V35.981H71.9291V33.981H69.9291ZM46.8571 33.981H48.8571V10.877H46.8571H44.8571V33.981H46.8571ZM46.8571 10.877V12.877H55.8171V10.877V8.87696H46.8571V10.877ZM55.8171 10.877H53.8171V27.645H55.8171H57.8171V10.877H55.8171ZM55.8171 27.645V29.645H69.9291V27.645V25.645H55.8171V27.645ZM69.9291 27.645H67.9291V33.981H69.9291H71.9291V27.645H69.9291ZM69.9291 33.981V31.981H46.8571V33.981V35.981H69.9291V33.981ZM70.7801 33.981L68.7823 33.8862L68.683 35.981H70.7801V33.981ZM82.1401 21.373L82.6022 23.3188L82.605 23.3182L82.1401 21.373ZM81.2761 19.709V21.709H83.2761V19.709H81.2761ZM71.6121 19.709L69.614 19.6226L69.5237 21.709H71.6121V19.709ZM91.8041 25.181L92.2294 27.1352L92.2329 27.1344L91.8041 25.181ZM80.5401 28.253L79.1646 26.8011L75.5209 30.253H80.5401V28.253ZM98.9401 28.253H100.94V26.253H98.9401V28.253ZM98.9401 33.981V35.981H100.94V33.981H98.9401ZM70.7801 33.981L72.7779 34.0757C72.9406 30.6432 73.7736 28.4644 75.1841 26.9309C76.6288 25.3603 78.929 24.1912 82.6022 23.3188L82.1401 21.373L81.678 19.4271C77.6712 20.3787 74.4674 21.8016 72.2401 24.223C69.9786 26.6816 68.9716 29.8947 68.7823 33.8862L70.7801 33.981ZM82.1401 21.373L82.605 23.3182C83.8392 23.0232 84.9353 22.8015 85.915 22.6024C86.8698 22.4083 87.7724 22.2246 88.5221 22.0152C89.2375 21.8154 90.0651 21.529 90.7303 21.0084C91.5235 20.3876 92.0121 19.4911 92.0121 18.397H90.0121H88.0121C88.0121 18.1828 88.1527 17.9463 88.2649 17.8585C88.2741 17.8513 88.2293 17.8876 88.0808 17.9507C87.9348 18.0127 87.7302 18.0833 87.4461 18.1627C86.8638 18.3253 86.1164 18.4796 85.1182 18.6825C84.1449 18.8804 82.985 19.1147 81.6752 19.4277L82.1401 21.373ZM90.0121 18.397H92.0121C92.0121 17.7184 91.8213 17.048 91.4078 16.4609C91.0073 15.8922 90.4709 15.5039 89.9278 15.2409C88.8883 14.7375 87.578 14.573 86.2041 14.573V16.573V18.573C87.3582 18.573 87.9519 18.7284 88.1844 18.841C88.2773 18.886 88.2189 18.8797 88.1374 18.764C88.0429 18.6299 88.0121 18.4835 88.0121 18.397H90.0121ZM86.2041 16.573V14.573C84.4203 14.573 82.7271 14.8041 81.4314 15.6019C79.94 16.5203 79.2761 17.989 79.2761 19.645H81.2761H83.2761C83.2761 19.3516 83.3292 19.2199 83.3527 19.1741C83.3699 19.1407 83.4035 19.0851 83.5288 19.008C83.8571 18.8058 84.6279 18.573 86.2041 18.573V16.573ZM81.2761 19.645H79.2761V19.709H81.2761H83.2761V19.645H81.2761ZM81.2761 19.709V17.709H71.6121V19.709V21.709H81.2761V19.709ZM71.6121 19.709L73.6102 19.7954C73.7127 17.4254 74.6315 15.8463 76.3402 14.7614C78.1844 13.5903 81.1443 12.877 85.5001 12.877V10.877V8.87696C80.8319 8.87696 76.9758 9.61957 74.1961 11.3846C71.2807 13.2356 69.7675 16.0725 69.614 19.6226L71.6121 19.709ZM85.5001 10.877V12.877C90.0076 12.877 93.0959 13.4959 94.989 14.5028C95.9071 14.991 96.4925 15.543 96.8545 16.1163C97.2116 16.6818 97.4201 17.3762 97.4201 18.269H99.4201H101.42C101.42 16.7137 101.045 15.2601 100.237 13.9806C99.4337 12.7089 98.2731 11.7189 96.8672 10.9712C94.1123 9.50597 90.2406 8.87696 85.5001 8.87696V10.877ZM99.4201 18.269H97.4201C97.4201 19.7543 97.0004 20.6042 96.2604 21.2542C95.4007 22.0091 93.9042 22.6723 91.3753 23.2275L91.8041 25.181L92.2329 27.1344C94.952 26.5376 97.2635 25.6968 98.8998 24.2597C100.656 22.7177 101.42 20.6876 101.42 18.269H99.4201ZM91.8041 25.181L91.3788 23.2267C90.0576 23.5143 88.8185 23.7408 87.6543 23.9486C86.5047 24.1537 85.3958 24.3459 84.4018 24.5563C82.5084 24.9573 80.5283 25.5091 79.1646 26.8011L80.5401 28.253L81.9156 29.7049C82.3759 29.2688 83.3078 28.8767 85.2304 28.4696C86.1444 28.276 87.1695 28.0982 88.3569 27.8864C89.5297 27.6771 90.8306 27.4397 92.2294 27.1352L91.8041 25.181ZM80.5401 28.253V30.253H98.9401V28.253V26.253H80.5401V28.253ZM98.9401 28.253H96.9401V33.981H98.9401H100.94V28.253H98.9401ZM98.9401 33.981V31.981H70.7801V33.981V35.981H98.9401V33.981Z" fill="black" mask="url(#path-11-outside-1_222_525)"/>
</g>
<defs>
<filter id="filter0_i_222_525" x="2.58545" y="2.8042" width="144.489" height="61.8799" filterUnits="userSpaceOnUse" color-interpolation-filters="sRGB">
<feFlood flood-opacity="0" result="BackgroundImageFix"/>
<feBlend mode="normal" in="SourceGraphic" in2="BackgroundImageFix" result="shape"/>
<feColorMatrix in="SourceAlpha" type="matrix" values="0 0 0 0 0 0 0 0 0 0 0 0 0 0 0 0 0 0 127 0" result="hardAlpha"/>
<feOffset dy="-5"/>
<feComposite in2="hardAlpha" operator="arithmetic" k2="-1" k3="1"/>
<feColorMatrix type="matrix" values="0 0 0 0 0.152941 0 0 0 0 0.133333 0 0 0 0 0.0823529 0 0 0 1 0"/>
<feBlend mode="normal" in2="shape" result="effect1_innerShadow_222_525"/>
</filter>
<filter id="filter1_d_222_525" x="43.8571" y="8.87695" width="58.563" height="30.104" filterUnits="userSpaceOnUse" color-interpolation-filters="sRGB">
<feFlood flood-opacity="0" result="BackgroundImageFix"/>
<feColorMatrix in="SourceAlpha" type="matrix" values="0 0 0 0 0 0 0 0 0 0 0 0 0 0 0 0 0 0 127 0" result="hardAlpha"/>
<feOffset dy="2"/>
<feGaussianBlur stdDeviation="0.5"/>
<feComposite in2="hardAlpha" operator="out"/>
<feColorMatrix type="matrix" values="0 0 0 0 0 0 0 0 0 0 0 0 0 0 0 0 0 0 1 0"/>
<feBlend mode="normal" in2="BackgroundImageFix" result="effect1_dropShadow_222_525"/>
<feBlend mode="normal" in="SourceGraphic" in2="effect1_dropShadow_222_525" result="shape"/>
</filter>
</defs>
</svg>
