<svg width="151" height="71" viewBox="0 0 151 71" fill="none" xmlns="http://www.w3.org/2000/svg">
<path d="M146.869 70.4882H4.86938C2.66025 70.4882 0.869385 68.6973 0.869385 66.4882V32.9116C0.869385 15.7908 14.7486 1.91162 31.8694 1.91162H129.869C141.467 1.91162 150.869 11.3136 150.869 22.9116V66.4882C150.869 68.6973 149.079 70.4882 146.869 70.4882Z" fill="#060308"/>
<g filter="url(#filter0_i_213_562)">
<path d="M145.372 64.8806H6.88342C5.22657 64.8806 3.88342 63.5374 3.88342 61.8806V32.0005C3.88342 15.9842 16.8672 3.00049 32.8834 3.00049H128.372C139.418 3.00049 148.372 11.9548 148.372 23.0005V61.8806C148.372 63.5374 147.029 64.8806 145.372 64.8806Z" fill="#635A30"/>
</g>
<path d="M127.833 4.11787L128.977 3.17725C134.589 3.17714 138.976 6.14158 141.484 8.1423L137.189 11.109C135.076 8.30345 131.083 4.92275 127.833 4.11787Z" fill="#7E7753"/>
<path d="M137.615 53.0997H16.6217C14.9648 53.0997 13.6217 51.7565 13.6217 50.0997V32.0005C13.6217 15.9842 26.6054 3.00049 42.6217 3.00049H120.615C131.66 3.00049 140.615 11.9548 140.615 23.0005V50.0997C140.615 51.7565 139.271 53.0997 137.615 53.0997Z" fill="#111515"/>
<path d="M131.64 48.2419H22.5961C20.9392 48.2419 19.5961 46.8988 19.5961 45.2419V29.4883C19.5961 13.472 32.5798 0.488281 48.596 0.488281H114.64C125.686 0.488281 134.64 9.44258 134.64 20.4883V45.2419C134.64 46.8988 133.297 48.2419 131.64 48.2419Z" fill="#323330"/>
<path d="M132.04 20.9116V35.8978C132.04 38.6131 130.217 40.9725 127.557 41.5168C119.911 43.0812 102.864 45.9016 79.3301 45.9016C55.796 45.9016 38.749 43.0812 31.1036 41.5168C28.4434 40.9725 26.6202 38.6131 26.6202 35.8978V28.9116C26.6202 13.9999 38.7085 1.91162 53.6202 1.91162H113.04C123.533 1.91162 132.04 10.4182 132.04 20.9116Z" fill="#4D5149"/>
<g filter="url(#filter1_d_213_562)">
<mask id="path-7-outside-1_213_562" maskUnits="userSpaceOnUse" x="51.9761" y="8.17725" width="60" height="28" fill="black">
<rect fill="white" x="51.9761" y="8.17725" width="60" height="28"/>
<path d="M63.8264 21.0572H69.0424C71.5065 21.0572 72.7544 20.6092 72.7544 18.9452C72.7544 17.1852 71.4424 16.9292 68.8185 16.9292H63.8264V21.0572ZM72.3384 11.0732C75.9865 11.0732 78.5145 11.3612 79.9865 12.2572C81.7145 13.2812 82.6425 15.0412 82.6425 17.2812C82.6425 20.0012 81.2345 22.2092 78.8344 23.1372C81.2985 24.1612 81.5865 25.4412 81.7145 28.0652C81.8745 31.3932 81.8745 33.2812 82.9625 33.8252V34.1772H73.0105C72.3064 33.0572 72.6264 31.3932 72.4025 29.4412C72.2104 27.7132 71.3785 27.1372 69.1705 27.1372H63.8264V34.1772H54.7384V11.0732H72.3384ZM92.3452 34.1772V16.9292H83.9932V11.0732H109.689V16.9292H101.305V34.1772H92.3452Z"/>
</mask>
<path d="M63.8264 21.0572H69.0424C71.5065 21.0572 72.7544 20.6092 72.7544 18.9452C72.7544 17.1852 71.4424 16.9292 68.8185 16.9292H63.8264V21.0572ZM72.3384 11.0732C75.9865 11.0732 78.5145 11.3612 79.9865 12.2572C81.7145 13.2812 82.6425 15.0412 82.6425 17.2812C82.6425 20.0012 81.2345 22.2092 78.8344 23.1372C81.2985 24.1612 81.5865 25.4412 81.7145 28.0652C81.8745 31.3932 81.8745 33.2812 82.9625 33.8252V34.1772H73.0105C72.3064 33.0572 72.6264 31.3932 72.4025 29.4412C72.2104 27.7132 71.3785 27.1372 69.1705 27.1372H63.8264V34.1772H54.7384V11.0732H72.3384ZM92.3452 34.1772V16.9292H83.9932V11.0732H109.689V16.9292H101.305V34.1772H92.3452Z" fill="#EEEEEC"/>
<path d="M63.8264 21.0572H61.8264V23.0572H63.8264V21.0572ZM63.8264 16.9292V14.9292H61.8264V16.9292H63.8264ZM79.9865 12.2572L78.9466 13.9656L78.9567 13.9718L78.9668 13.9778L79.9865 12.2572ZM78.8344 23.1372L78.1132 21.2718L73.4619 23.0703L78.0669 24.9841L78.8344 23.1372ZM81.7145 28.0652L83.7121 27.9692L83.7121 27.9678L81.7145 28.0652ZM82.9625 33.8252H84.9625V32.5892L83.8569 32.0364L82.9625 33.8252ZM82.9625 34.1772V36.1772H84.9625V34.1772H82.9625ZM73.0105 34.1772L71.3172 35.2416L71.9053 36.1772H73.0105V34.1772ZM72.4025 29.4412L70.4147 29.6621L70.4155 29.6693L72.4025 29.4412ZM63.8264 27.1372V25.1372H61.8264V27.1372H63.8264ZM63.8264 34.1772V36.1772H65.8264V34.1772H63.8264ZM54.7384 34.1772H52.7384V36.1772H54.7384V34.1772ZM54.7384 11.0732V9.07324H52.7384V11.0732H54.7384ZM63.8264 21.0572V23.0572H69.0424V21.0572V19.0572H63.8264V21.0572ZM69.0424 21.0572V23.0572C70.2916 23.0572 71.6537 22.963 72.7397 22.4025C73.3412 22.092 73.8879 21.6254 74.2634 20.959C74.6299 20.3085 74.7544 19.6076 74.7544 18.9452H72.7544H70.7544C70.7544 19.1149 70.723 19.094 70.7785 18.9955C70.843 18.8811 70.9237 18.8384 70.9052 18.848C70.8604 18.8711 70.7091 18.9329 70.3716 18.9824C70.0409 19.031 69.6071 19.0572 69.0424 19.0572V21.0572ZM72.7544 18.9452H74.7544C74.7544 18.2661 74.6285 17.5294 74.2204 16.8537C73.7989 16.156 73.1918 15.7132 72.565 15.4419C71.469 14.9674 70.0663 14.9292 68.8185 14.9292V16.9292V18.9292C69.4535 18.9292 69.945 18.9453 70.3322 18.9859C70.73 19.0275 70.913 19.0854 70.9759 19.1126C71.0051 19.1253 70.89 19.0765 70.7965 18.9218C70.7164 18.7891 70.7544 18.7444 70.7544 18.9452H72.7544ZM68.8185 16.9292V14.9292H63.8264V16.9292V18.9292H68.8185V16.9292ZM63.8264 16.9292H61.8264V21.0572H63.8264H65.8264V16.9292H63.8264ZM72.3384 11.0732V13.0732C74.1236 13.0732 75.5583 13.1446 76.6921 13.3086C77.8444 13.4753 78.5408 13.7187 78.9466 13.9656L79.9865 12.2572L81.0263 10.5488C79.9601 9.89981 78.6565 9.55116 77.2648 9.34985C75.8546 9.14586 74.2013 9.07324 72.3384 9.07324V11.0732ZM79.9865 12.2572L78.9668 13.9778C80.0053 14.5932 80.6425 15.6471 80.6425 17.2812H82.6425H84.6425C84.6425 14.4354 83.4236 11.9693 81.0061 10.5367L79.9865 12.2572ZM82.6425 17.2812H80.6425C80.6425 19.2633 79.6634 20.6724 78.1132 21.2718L78.8344 23.1372L79.5557 25.0027C82.8055 23.7461 84.6425 20.7392 84.6425 17.2812H82.6425ZM78.8344 23.1372L78.0669 24.9841C79.0435 25.3899 79.2646 25.7057 79.369 25.9103C79.5438 26.2528 79.651 26.8122 79.7168 28.1627L81.7145 28.0652L83.7121 27.9678C83.65 26.6942 83.5491 25.3017 82.9319 24.0922C82.2443 22.7448 81.0894 21.9086 79.602 21.2904L78.8344 23.1372ZM81.7145 28.0652L79.7168 28.1613C79.7925 29.7358 79.8367 31.2091 80.0166 32.3113C80.1848 33.3425 80.5831 34.8717 82.068 35.6141L82.9625 33.8252L83.8569 32.0364C84.2538 32.2348 84.1081 32.548 83.9643 31.6671C83.8322 30.8574 83.7964 29.7227 83.7121 27.9692L81.7145 28.0652ZM82.9625 33.8252H80.9625V34.1772H82.9625H84.9625V33.8252H82.9625ZM82.9625 34.1772V32.1772H73.0105V34.1772V36.1772H82.9625V34.1772ZM73.0105 34.1772L74.7037 33.1129C74.6504 33.028 74.5588 32.7954 74.5244 32.0313C74.4972 31.4258 74.5107 30.2699 74.3894 29.2132L72.4025 29.4412L70.4155 29.6693C70.5182 30.5646 70.4837 31.2167 70.5285 32.2112C70.5661 33.0471 70.6665 34.2065 71.3172 35.2416L73.0105 34.1772ZM72.4025 29.4412L74.3902 29.2204C74.2644 28.088 73.8718 26.8407 72.6988 26.0094C71.6542 25.2691 70.3498 25.1372 69.1705 25.1372V27.1372V29.1372C69.6471 29.1372 69.9652 29.1694 70.1747 29.2128C70.3786 29.2549 70.4171 29.2951 70.3861 29.273C70.3373 29.2385 70.3127 29.194 70.3167 29.2025C70.3324 29.236 70.3815 29.3632 70.4147 29.6621L72.4025 29.4412ZM69.1705 27.1372V25.1372H63.8264V27.1372V29.1372H69.1705V27.1372ZM63.8264 27.1372H61.8264V34.1772H63.8264H65.8264V27.1372H63.8264ZM63.8264 34.1772V32.1772H54.7384V34.1772V36.1772H63.8264V34.1772ZM54.7384 34.1772H56.7384V11.0732H54.7384H52.7384V34.1772H54.7384ZM54.7384 11.0732V13.0732H72.3384V11.0732V9.07324H54.7384V11.0732ZM92.3452 34.1772H90.3452V36.1772H92.3452V34.1772ZM92.3452 16.9292H94.3452V14.9292H92.3452V16.9292ZM83.9932 16.9292H81.9932V18.9292H83.9932V16.9292ZM83.9932 11.0732V9.07324H81.9932V11.0732H83.9932ZM109.689 11.0732H111.689V9.07324H109.689V11.0732ZM109.689 16.9292V18.9292H111.689V16.9292H109.689ZM101.305 16.9292V14.9292H99.3052V16.9292H101.305ZM101.305 34.1772V36.1772H103.305V34.1772H101.305ZM92.3452 34.1772H94.3452V16.9292H92.3452H90.3452V34.1772H92.3452ZM92.3452 16.9292V14.9292H83.9932V16.9292V18.9292H92.3452V16.9292ZM83.9932 16.9292H85.9932V11.0732H83.9932H81.9932V16.9292H83.9932ZM83.9932 11.0732V13.0732H109.689V11.0732V9.07324H83.9932V11.0732ZM109.689 11.0732H107.689V16.9292H109.689H111.689V11.0732H109.689ZM109.689 16.9292V14.9292H101.305V16.9292V18.9292H109.689V16.9292ZM101.305 16.9292H99.3052V34.1772H101.305H103.305V16.9292H101.305ZM101.305 34.1772V32.1772H92.3452V34.1772V36.1772H101.305V34.1772Z" fill="black" mask="url(#path-7-outside-1_213_562)"/>
</g>
<path d="M106.522 42.0088C108.017 43.4451 108.137 45.2797 108.137 45.2797L110.411 44.7595C110.411 44.7595 109.016 42.9803 106.522 42.0088Z" fill="#323330"/>
<path d="M36.4644 29.4759C36.4644 29.4759 34.0395 29.4967 33.0291 30.1344C32.1805 30.7938 32.009 31.5674 32.009 31.5674L36.4644 29.4759Z" fill="#323330"/>
<path d="M15.272 20.1841C10.4872 19.2796 6.42053 20.184 6.42053 20.184C9.65512 13.9545 13.6072 9.35697 20.3539 6.0874C20.3539 6.0874 23.5041 6.0874 26.3869 6.83541C22.139 9.35058 18.2736 13.8353 15.272 20.1841Z" fill="#BAB582"/>
<path d="M23.6829 58.208L28.7819 54.0679H134.309L138.269 58.208H23.6829Z" fill="#9B884C"/>
<defs>
<filter id="filter0_i_213_562" x="3.88342" y="3.00049" width="144.489" height="61.8799" filterUnits="userSpaceOnUse" color-interpolation-filters="sRGB">
<feFlood flood-opacity="0" result="BackgroundImageFix"/>
<feBlend mode="normal" in="SourceGraphic" in2="BackgroundImageFix" result="shape"/>
<feColorMatrix in="SourceAlpha" type="matrix" values="0 0 0 0 0 0 0 0 0 0 0 0 0 0 0 0 0 0 127 0" result="hardAlpha"/>
<feOffset dy="-5"/>
<feComposite in2="hardAlpha" operator="arithmetic" k2="-1" k3="1"/>
<feColorMatrix type="matrix" values="0 0 0 0 0.152941 0 0 0 0 0.133333 0 0 0 0 0.0823529 0 0 0 1 0"/>
<feBlend mode="normal" in2="shape" result="effect1_innerShadow_213_562"/>
</filter>
<filter id="filter1_d_213_562" x="51.7384" y="9.07324" width="60.9508" height="30.104" filterUnits="userSpaceOnUse" color-interpolation-filters="sRGB">
<feFlood flood-opacity="0" result="BackgroundImageFix"/>
<feColorMatrix in="SourceAlpha" type="matrix" values="0 0 0 0 0 0 0 0 0 0 0 0 0 0 0 0 0 0 127 0" result="hardAlpha"/>
<feOffset dy="2"/>
<feGaussianBlur stdDeviation="0.5"/>
<feComposite in2="hardAlpha" operator="out"/>
<feColorMatrix type="matrix" values="0 0 0 0 0 0 0 0 0 0 0 0 0 0 0 0 0 0 1 0"/>
<feBlend mode="normal" in2="BackgroundImageFix" result="effect1_dropShadow_213_562"/>
<feBlend mode="normal" in="SourceGraphic" in2="effect1_dropShadow_213_562" result="shape"/>
</filter>
</defs>
</svg>
