<svg width="151" height="71" viewBox="0 0 151 71" fill="none" xmlns="http://www.w3.org/2000/svg">
<path d="M5.5072 70.4883H117.507C135.733 70.4883 150.507 55.7137 150.507 37.4883V6.48828C150.507 3.17457 147.821 0.488281 144.507 0.488281H6.5072C3.1935 0.488281 0.507202 3.17457 0.507202 6.48828V65.4883C0.507202 68.2497 2.74579 70.4883 5.5072 70.4883Z" fill="#060308"/>
<g filter="url(#filter0_i_213_591)">
<path d="M6.00432 64.9994H118.493C134.509 64.9994 147.493 52.0156 147.493 35.9994V7.51367C147.493 4.75225 145.255 2.51367 142.493 2.51367H8.00432C5.24289 2.51367 3.00432 4.75225 3.00432 7.51367V61.9994C3.00432 63.6562 4.34746 64.9994 6.00432 64.9994Z" fill="#635A30"/>
</g>
<path d="M13.7621 54.4288H116.716C130.523 54.4288 141.716 43.2359 141.716 29.4288V11.2739C141.716 9.61707 140.373 8.27393 138.716 8.27393H13.7621C12.1052 8.27393 10.7621 9.61707 10.7621 11.2739V51.4288C10.7621 53.0856 12.1052 54.4288 13.7621 54.4288Z" fill="#111515"/>
<path d="M118.043 7.3585L119.033 2.94971L142.001 2.94973L139.107 7.3585L118.043 7.3585Z" fill="#8A8D77"/>
<path d="M24.4388 7.35848L22.3996 2.94971L7.83398 2.94971L12.2037 7.35848L24.4388 7.35848Z" fill="#7E7753"/>
<path d="M16.7659 49.6745H112.732C125.987 49.6745 136.732 38.9293 136.732 25.6745V11.7754C136.732 9.01397 134.493 6.77539 131.732 6.77539H19.7659C16.4522 6.77539 13.7659 9.46169 13.7659 12.7754V46.6745C13.7659 48.3313 15.1091 49.6745 16.7659 49.6745Z" fill="#323330"/>
<path d="M16.3657 12.1284V39.9381C16.3657 43.2518 19.052 45.9381 22.3657 45.9381H110.678C122.828 45.9381 132.678 36.0884 132.678 23.9381V12.1284C132.678 10.4716 131.335 9.12842 129.678 9.12842H19.3657C17.7089 9.12842 16.3657 10.4716 16.3657 12.1284Z" fill="#4D5149"/>
<path d="M44.855 43.5742C43.3594 44.98 43.2392 46.7756 43.2392 46.7756L40.9653 46.2665C40.9653 46.2665 42.3606 44.5251 44.855 43.5742Z" fill="#323330"/>
<path d="M114.912 31.3074C114.912 31.3074 117.337 31.3278 118.347 31.9519C119.196 32.5974 119.368 33.3545 119.368 33.3545L114.912 31.3074Z" fill="#323330"/>
<path d="M142.419 20.9854L146.967 20.9854L146.967 7.3584L142.419 10.164V20.9854Z" fill="#766F4F"/>
<path d="M112.84 59.4291L107.741 55.377H17.0674L13.1073 59.4291H112.84Z" fill="#9B884C"/>
<defs>
<filter id="filter0_i_213_591" x="3.00427" y="2.51367" width="144.489" height="62.4858" filterUnits="userSpaceOnUse" color-interpolation-filters="sRGB">
<feFlood flood-opacity="0" result="BackgroundImageFix"/>
<feBlend mode="normal" in="SourceGraphic" in2="BackgroundImageFix" result="shape"/>
<feColorMatrix in="SourceAlpha" type="matrix" values="0 0 0 0 0 0 0 0 0 0 0 0 0 0 0 0 0 0 127 0" result="hardAlpha"/>
<feOffset dy="-5"/>
<feComposite in2="hardAlpha" operator="arithmetic" k2="-1" k3="1"/>
<feColorMatrix type="matrix" values="0 0 0 0 0.152941 0 0 0 0 0.133333 0 0 0 0 0.0823529 0 0 0 1 0"/>
<feBlend mode="normal" in2="shape" result="effect1_innerShadow_213_591"/>
</filter>
</defs>
</svg>
