<svg width="151" height="71" viewBox="0 0 151 71" fill="none" xmlns="http://www.w3.org/2000/svg">
<path d="M146.933 70.2919H4.93286C2.72372 70.2919 0.932861 68.5011 0.932861 66.2919V32.7153C0.932861 15.5945 14.812 1.71533 31.9329 1.71533H129.933C141.531 1.71533 150.933 11.1174 150.933 22.7153V66.2919C150.933 68.5011 149.142 70.2919 146.933 70.2919Z" fill="#060308"/>
<g filter="url(#filter0_i_222_513)">
<path d="M145.436 64.6843H6.94678C5.28992 64.6843 3.94678 63.3411 3.94678 61.6843V31.8042C3.94678 15.7879 16.9305 2.8042 32.9468 2.8042H128.436C139.481 2.8042 148.436 11.7585 148.436 22.8042V61.6843C148.436 63.3411 147.092 64.6843 145.436 64.6843Z" fill="#635A30"/>
</g>
<path d="M127.896 3.92158L129.04 2.98096C134.652 2.98085 139.04 5.94529 141.547 7.94601L137.252 10.9128C135.14 8.10716 131.146 4.72646 127.896 3.92158Z" fill="#7E7753"/>
<path d="M137.678 52.9034H16.6851C15.0282 52.9034 13.6851 51.5602 13.6851 49.9034V31.8042C13.6851 15.7879 26.6688 2.8042 42.685 2.8042H120.678C131.724 2.8042 140.678 11.7585 140.678 22.8042V49.9034C140.678 51.5602 139.335 52.9034 137.678 52.9034Z" fill="#111515"/>
<path d="M131.704 48.0456H22.6597C21.0028 48.0456 19.6597 46.7025 19.6597 45.0456V29.292C19.6597 13.2757 32.6434 0.291992 48.6596 0.291992H114.704C125.749 0.291992 134.704 9.24629 134.704 20.292V45.0456C134.704 46.7025 133.36 48.0456 131.704 48.0456Z" fill="#323330"/>
<path d="M132.103 20.7153V35.7015C132.103 38.4168 130.28 40.7762 127.62 41.3205C119.975 42.8849 102.928 45.7053 79.3935 45.7053C55.8593 45.7053 38.8123 42.8849 31.167 41.3205C28.5068 40.7762 26.6836 38.4168 26.6836 35.7015V28.7153C26.6836 13.8036 38.7719 1.71533 53.6836 1.71533H113.103C123.597 1.71533 132.103 10.2219 132.103 20.7153Z" fill="#4D5149"/>
<g filter="url(#filter1_d_222_513)">
<mask id="path-7-outside-1_222_513" maskUnits="userSpaceOnUse" x="50.0396" y="7.98096" width="64" height="28" fill="black">
<rect fill="white" x="50.0396" y="7.98096" width="64" height="28"/>
<path d="M61.9993 20.861H67.2153C69.6793 20.861 70.9273 20.413 70.9273 18.749C70.9273 16.989 69.6153 16.733 66.9913 16.733H61.9993V20.861ZM70.5113 10.877C74.1593 10.877 76.6873 11.165 78.1593 12.061C79.8873 13.085 80.8153 14.845 80.8153 17.085C80.8153 19.805 79.4073 22.013 77.0073 22.941C79.4713 23.965 79.7593 25.245 79.8873 27.869C80.0473 31.197 80.0473 33.085 81.1353 33.629V33.981H71.1833C70.4793 32.861 70.7993 31.197 70.5753 29.245C70.3833 27.517 69.5513 26.941 67.3433 26.941H61.9993V33.981H52.9113V10.877H70.5113ZM82.6781 33.981C83.0301 26.557 86.3581 23.197 94.0381 21.373C99.1261 20.157 101.91 20.157 101.91 18.397C101.91 17.213 100.63 16.573 98.1021 16.573C94.7421 16.573 93.1741 17.501 93.1741 19.645V19.709H83.5101C83.7661 13.789 88.3741 10.877 97.3981 10.877C106.646 10.877 111.318 13.373 111.318 18.269C111.318 22.173 108.95 24.029 103.702 25.181C98.2621 26.365 94.2621 26.525 92.4381 28.253H110.838V33.981H82.6781Z"/>
</mask>
<path d="M61.9993 20.861H67.2153C69.6793 20.861 70.9273 20.413 70.9273 18.749C70.9273 16.989 69.6153 16.733 66.9913 16.733H61.9993V20.861ZM70.5113 10.877C74.1593 10.877 76.6873 11.165 78.1593 12.061C79.8873 13.085 80.8153 14.845 80.8153 17.085C80.8153 19.805 79.4073 22.013 77.0073 22.941C79.4713 23.965 79.7593 25.245 79.8873 27.869C80.0473 31.197 80.0473 33.085 81.1353 33.629V33.981H71.1833C70.4793 32.861 70.7993 31.197 70.5753 29.245C70.3833 27.517 69.5513 26.941 67.3433 26.941H61.9993V33.981H52.9113V10.877H70.5113ZM82.6781 33.981C83.0301 26.557 86.3581 23.197 94.0381 21.373C99.1261 20.157 101.91 20.157 101.91 18.397C101.91 17.213 100.63 16.573 98.1021 16.573C94.7421 16.573 93.1741 17.501 93.1741 19.645V19.709H83.5101C83.7661 13.789 88.3741 10.877 97.3981 10.877C106.646 10.877 111.318 13.373 111.318 18.269C111.318 22.173 108.95 24.029 103.702 25.181C98.2621 26.365 94.2621 26.525 92.4381 28.253H110.838V33.981H82.6781Z" fill="#EEEEEC"/>
<path d="M61.9993 20.861H59.9993V22.861H61.9993V20.861ZM61.9993 16.733V14.733H59.9993V16.733H61.9993ZM78.1593 12.061L77.1194 13.7694L77.1295 13.7755L77.1397 13.7815L78.1593 12.061ZM77.0073 22.941L76.286 21.0755L71.6347 22.874L76.2398 24.7878L77.0073 22.941ZM79.8873 27.869L81.885 27.7729L81.8849 27.7715L79.8873 27.869ZM81.1353 33.629H83.1353V32.3929L82.0297 31.8401L81.1353 33.629ZM81.1353 33.981V35.981H83.1353V33.981H81.1353ZM71.1833 33.981L69.49 35.0453L70.0782 35.981H71.1833V33.981ZM70.5753 29.245L68.5875 29.4658L68.5883 29.473L70.5753 29.245ZM61.9993 26.941V24.941H59.9993V26.941H61.9993ZM61.9993 33.981V35.981H63.9993V33.981H61.9993ZM52.9113 33.981H50.9113V35.981H52.9113V33.981ZM52.9113 10.877V8.87696H50.9113V10.877H52.9113ZM61.9993 20.861V22.861H67.2153V20.861V18.861H61.9993V20.861ZM67.2153 20.861V22.861C68.4644 22.861 69.8266 22.7667 70.9126 22.2062C71.5141 21.8958 72.0608 21.4291 72.4363 20.7627C72.8028 20.1122 72.9273 19.4113 72.9273 18.749H70.9273H68.9273C68.9273 18.9186 68.8958 18.8977 68.9513 18.7992C69.0158 18.6848 69.0965 18.6422 69.078 18.6517C69.0333 18.6748 68.882 18.7366 68.5445 18.7861C68.2137 18.8347 67.7799 18.861 67.2153 18.861V20.861ZM70.9273 18.749H72.9273C72.9273 18.0698 72.8014 17.3331 72.3932 16.6574C71.9718 15.9597 71.3646 15.5169 70.7379 15.2456C69.6418 14.7711 68.2391 14.733 66.9913 14.733V16.733V18.733C67.6263 18.733 68.1179 18.7491 68.5051 18.7896C68.9028 18.8312 69.0858 18.8891 69.1487 18.9163C69.178 18.929 69.0628 18.8802 68.9694 18.7255C68.8892 18.5928 68.9273 18.5481 68.9273 18.749H70.9273ZM66.9913 16.733V14.733H61.9993V16.733V18.733H66.9913V16.733ZM61.9993 16.733H59.9993V20.861H61.9993H63.9993V16.733H61.9993ZM70.5113 10.877V12.877C72.2964 12.877 73.7311 12.9483 74.865 13.1124C76.0173 13.279 76.7137 13.5224 77.1194 13.7694L78.1593 12.061L79.1992 10.3526C78.1329 9.70352 76.8293 9.35487 75.4376 9.15356C74.0275 8.94957 72.3742 8.87696 70.5113 8.87696V10.877ZM78.1593 12.061L77.1397 13.7815C78.1781 14.3969 78.8153 15.4508 78.8153 17.085H80.8153H82.8153C82.8153 14.2391 81.5965 11.773 79.1789 10.3404L78.1593 12.061ZM80.8153 17.085H78.8153C78.8153 19.067 77.8362 20.4761 76.286 21.0755L77.0073 22.941L77.7286 24.8064C80.9784 23.5498 82.8153 20.5429 82.8153 17.085H80.8153ZM77.0073 22.941L76.2398 24.7878C77.2163 25.1937 77.4374 25.5094 77.5419 25.714C77.7166 26.0565 77.8238 26.616 77.8897 27.9664L79.8873 27.869L81.8849 27.7715C81.8228 26.498 81.722 25.1054 81.1047 23.8959C80.4172 22.5485 79.2623 21.7123 77.7748 21.0941L77.0073 22.941ZM79.8873 27.869L77.8896 27.965C77.9653 29.5395 78.0095 31.0128 78.1894 32.1151C78.3577 33.1462 78.756 34.6754 80.2409 35.4178L81.1353 33.629L82.0297 31.8401C82.4266 32.0385 82.2809 32.3517 82.1372 31.4709C82.0051 30.6611 81.9693 29.5264 81.885 27.7729L79.8873 27.869ZM81.1353 33.629H79.1353V33.981H81.1353H83.1353V33.629H81.1353ZM81.1353 33.981V31.981H71.1833V33.981V35.981H81.1353V33.981ZM71.1833 33.981L72.8766 32.9166C72.8232 32.8317 72.7317 32.5991 72.6973 31.835C72.67 31.2295 72.6835 30.0736 72.5623 29.0169L70.5753 29.245L68.5883 29.473C68.6911 30.3683 68.6566 31.0204 68.7013 32.0149C68.7389 32.8508 68.8394 34.0102 69.49 35.0453L71.1833 33.981ZM70.5753 29.245L72.5631 29.0241C72.4372 27.8917 72.0447 26.6444 70.8717 25.8132C69.827 25.0728 68.5227 24.941 67.3433 24.941V26.941V28.941C67.82 28.941 68.1381 28.9731 68.3476 29.0165C68.5514 29.0586 68.59 29.0988 68.5589 29.0768C68.5101 29.0422 68.4855 28.9977 68.4895 29.0062C68.5052 29.0397 68.5543 29.1669 68.5875 29.4658L70.5753 29.245ZM67.3433 26.941V24.941H61.9993V26.941V28.941H67.3433V26.941ZM61.9993 26.941H59.9993V33.981H61.9993H63.9993V26.941H61.9993ZM61.9993 33.981V31.981H52.9113V33.981V35.981H61.9993V33.981ZM52.9113 33.981H54.9113V10.877H52.9113H50.9113V33.981H52.9113ZM52.9113 10.877V12.877H70.5113V10.877V8.87696H52.9113V10.877ZM82.6781 33.981L80.6803 33.8862L80.581 35.981H82.6781V33.981ZM94.0381 21.373L94.5002 23.3188L94.5029 23.3182L94.0381 21.373ZM93.1741 19.709V21.709H95.1741V19.709H93.1741ZM83.5101 19.709L81.5119 19.6226L81.4217 21.709H83.5101V19.709ZM103.702 25.181L104.127 27.1352L104.131 27.1344L103.702 25.181ZM92.4381 28.253L91.0626 26.8011L87.4189 30.253H92.4381V28.253ZM110.838 28.253H112.838V26.253H110.838V28.253ZM110.838 33.981V35.981H112.838V33.981H110.838ZM82.6781 33.981L84.6758 34.0757C84.8386 30.6432 85.6715 28.4644 87.082 26.9309C88.5268 25.3603 90.8269 24.1912 94.5002 23.3188L94.0381 21.373L93.5759 19.4271C89.5692 20.3787 86.3653 21.8016 84.1381 24.223C81.8766 26.6816 80.8695 29.8947 80.6803 33.8862L82.6781 33.981ZM94.0381 21.373L94.5029 23.3182C95.7371 23.0232 96.8332 22.8015 97.813 22.6024C98.7678 22.4083 99.6704 22.2246 100.42 22.0152C101.135 21.8154 101.963 21.529 102.628 21.0084C103.421 20.3876 103.91 19.4911 103.91 18.397H101.91H99.9101C99.9101 18.1828 100.051 17.9463 100.163 17.8585C100.172 17.8513 100.127 17.8876 99.9787 17.9507C99.8327 18.0127 99.6281 18.0833 99.3441 18.1627C98.7617 18.3253 98.0143 18.4796 97.0161 18.6825C96.0429 18.8804 94.883 19.1147 93.5732 19.4277L94.0381 21.373ZM101.91 18.397H103.91C103.91 17.7184 103.719 17.048 103.306 16.4609C102.905 15.8922 102.369 15.5039 101.826 15.2409C100.786 14.7375 99.476 14.573 98.1021 14.573V16.573V18.573C99.2561 18.573 99.8498 18.7284 100.082 18.841C100.175 18.886 100.117 18.8797 100.035 18.764C99.9409 18.6299 99.9101 18.4835 99.9101 18.397H101.91ZM98.1021 16.573V14.573C96.3183 14.573 94.6251 14.8041 93.3294 15.6019C91.8379 16.5203 91.1741 17.989 91.1741 19.645H93.1741H95.1741C95.1741 19.3516 95.2271 19.2199 95.2507 19.1741C95.2678 19.1407 95.3014 19.0851 95.4267 19.008C95.755 18.8058 96.5258 18.573 98.1021 18.573V16.573ZM93.1741 19.645H91.1741V19.709H93.1741H95.1741V19.645H93.1741ZM93.1741 19.709V17.709H83.5101V19.709V21.709H93.1741V19.709ZM83.5101 19.709L85.5082 19.7954C85.6107 17.4254 86.5295 15.8463 88.2381 14.7614C90.0824 13.5903 93.0423 12.877 97.3981 12.877V10.877V8.87696C92.7298 8.87696 88.8737 9.61957 86.094 11.3846C83.1786 13.2356 81.6654 16.0725 81.5119 19.6226L83.5101 19.709ZM97.3981 10.877V12.877C101.906 12.877 104.994 13.4959 106.887 14.5028C107.805 14.991 108.39 15.543 108.752 16.1163C109.11 16.6818 109.318 17.3762 109.318 18.269H111.318H113.318C113.318 16.7137 112.943 15.2601 112.135 13.9806C111.332 12.7089 110.171 11.7189 108.765 10.9712C106.01 9.50597 102.139 8.87696 97.3981 8.87696V10.877ZM111.318 18.269H109.318C109.318 19.7543 108.898 20.6042 108.158 21.2542C107.299 22.0091 105.802 22.6723 103.273 23.2275L103.702 25.181L104.131 27.1344C106.85 26.5376 109.161 25.6968 110.798 24.2597C112.554 22.7177 113.318 20.6876 113.318 18.269H111.318ZM103.702 25.181L103.277 23.2267C101.956 23.5143 100.716 23.7408 99.5522 23.9486C98.4026 24.1537 97.2938 24.3459 96.2998 24.5563C94.4063 24.9573 92.4262 25.5091 91.0626 26.8011L92.4381 28.253L93.8135 29.7049C94.2739 29.2688 95.2058 28.8767 97.1283 28.4696C98.0423 28.276 99.0675 28.0982 100.255 27.8864C101.428 27.6771 102.729 27.4397 104.127 27.1352L103.702 25.181ZM92.4381 28.253V30.253H110.838V28.253V26.253H92.4381V28.253ZM110.838 28.253H108.838V33.981H110.838H112.838V28.253H110.838ZM110.838 33.981V31.981H82.6781V33.981V35.981H110.838V33.981Z" fill="black" mask="url(#path-7-outside-1_222_513)"/>
</g>
<path d="M106.585 41.8125C108.081 43.2488 108.201 45.0834 108.201 45.0834L110.475 44.5632C110.475 44.5632 109.079 42.784 106.585 41.8125Z" fill="#323330"/>
<path d="M36.5278 29.2796C36.5278 29.2796 34.103 29.3005 33.0926 29.9381C32.244 30.5975 32.0725 31.3711 32.0725 31.3711L36.5278 29.2796Z" fill="#323330"/>
<path d="M15.3354 19.9878C10.5506 19.0833 6.48389 19.9877 6.48389 19.9877C9.71847 13.7582 13.6706 9.16068 20.4173 5.89111C20.4173 5.89111 23.5675 5.89111 26.4502 6.63912C22.2023 9.15429 18.337 13.639 15.3354 19.9878Z" fill="#BAB582"/>
<path d="M23.7463 58.0117L28.8453 53.8716H134.373L138.333 58.0117H23.7463Z" fill="#9B884C"/>
<defs>
<filter id="filter0_i_222_513" x="3.94678" y="2.8042" width="144.489" height="61.8799" filterUnits="userSpaceOnUse" color-interpolation-filters="sRGB">
<feFlood flood-opacity="0" result="BackgroundImageFix"/>
<feBlend mode="normal" in="SourceGraphic" in2="BackgroundImageFix" result="shape"/>
<feColorMatrix in="SourceAlpha" type="matrix" values="0 0 0 0 0 0 0 0 0 0 0 0 0 0 0 0 0 0 127 0" result="hardAlpha"/>
<feOffset dy="-5"/>
<feComposite in2="hardAlpha" operator="arithmetic" k2="-1" k3="1"/>
<feColorMatrix type="matrix" values="0 0 0 0 0.152941 0 0 0 0 0.133333 0 0 0 0 0.0823529 0 0 0 1 0"/>
<feBlend mode="normal" in2="shape" result="effect1_innerShadow_222_513"/>
</filter>
<filter id="filter1_d_222_513" x="49.9114" y="8.87695" width="64.4067" height="30.104" filterUnits="userSpaceOnUse" color-interpolation-filters="sRGB">
<feFlood flood-opacity="0" result="BackgroundImageFix"/>
<feColorMatrix in="SourceAlpha" type="matrix" values="0 0 0 0 0 0 0 0 0 0 0 0 0 0 0 0 0 0 127 0" result="hardAlpha"/>
<feOffset dy="2"/>
<feGaussianBlur stdDeviation="0.5"/>
<feComposite in2="hardAlpha" operator="out"/>
<feColorMatrix type="matrix" values="0 0 0 0 0 0 0 0 0 0 0 0 0 0 0 0 0 0 1 0"/>
<feBlend mode="normal" in2="BackgroundImageFix" result="effect1_dropShadow_222_513"/>
<feBlend mode="normal" in="SourceGraphic" in2="effect1_dropShadow_222_513" result="shape"/>
</filter>
</defs>
</svg>
