<svg width="151" height="71" viewBox="0 0 151 71" fill="none" xmlns="http://www.w3.org/2000/svg">
<path d="M5.5072 70.4883H117.507C135.733 70.4883 150.507 55.7137 150.507 37.4883V6.48828C150.507 3.17457 147.821 0.488281 144.507 0.488281H6.5072C3.1935 0.488281 0.507202 3.17457 0.507202 6.48828V65.4883C0.507202 68.2497 2.74579 70.4883 5.5072 70.4883Z" fill="#060308"/>
<g filter="url(#filter0_i_213_591)">
<path d="M6.00432 64.9994H118.493C134.509 64.9994 147.493 52.0156 147.493 35.9994V7.51367C147.493 4.75225 145.255 2.51367 142.493 2.51367H8.00432C5.24289 2.51367 3.00432 4.75225 3.00432 7.51367V61.9994C3.00432 63.6562 4.34746 64.9994 6.00432 64.9994Z" fill="#635A30"/>
</g>
<path d="M13.7621 54.4288H116.716C130.523 54.4288 141.716 43.2359 141.716 29.4288V11.2739C141.716 9.61707 140.373 8.27393 138.716 8.27393H13.7621C12.1052 8.27393 10.7621 9.61707 10.7621 11.2739V51.4288C10.7621 53.0856 12.1052 54.4288 13.7621 54.4288Z" fill="#111515"/>
<path d="M118.043 7.3585L119.033 2.94971L142.001 2.94973L139.107 7.3585L118.043 7.3585Z" fill="#8A8D77"/>
<path d="M24.4388 7.35848L22.3996 2.94971L7.83398 2.94971L12.2037 7.35848L24.4388 7.35848Z" fill="#7E7753"/>
<path d="M16.7659 49.6745H112.732C125.987 49.6745 136.732 38.9293 136.732 25.6745V11.7754C136.732 9.01397 134.493 6.77539 131.732 6.77539H19.7659C16.4522 6.77539 13.7659 9.46169 13.7659 12.7754V46.6745C13.7659 48.3313 15.1091 49.6745 16.7659 49.6745Z" fill="#323330"/>
<path d="M16.3657 12.1284V39.9381C16.3657 43.2518 19.052 45.9381 22.3657 45.9381H110.678C122.828 45.9381 132.678 36.0884 132.678 23.9381V12.1284C132.678 10.4716 131.335 9.12842 129.678 9.12842H19.3657C17.7089 9.12842 16.3657 10.4716 16.3657 12.1284Z" fill="#4D5149"/>
<g filter="url(#filter1_d_213_591)">
<mask id="path-8-outside-1_213_591" maskUnits="userSpaceOnUse" x="43.0249" y="12.1772" width="65" height="28" fill="black">
<rect fill="white" x="43.0249" y="12.1772" width="65" height="28"/>
<path d="M54.6722 25.0572H59.8882C62.3522 25.0572 63.6002 24.6092 63.6002 22.9452C63.6002 21.1852 62.2882 20.9292 59.6642 20.9292H54.6722V25.0572ZM63.1842 15.0732C66.8322 15.0732 69.3602 15.3612 70.8322 16.2572C72.5602 17.2812 73.4882 19.0412 73.4882 21.2812C73.4882 24.0012 72.0802 26.2092 69.6802 27.1372C72.1442 28.1612 72.4322 29.4412 72.5602 32.0652C72.7202 35.3932 72.7202 37.2812 73.8082 37.8252V38.1772H63.8562C63.1522 37.0572 63.4722 35.3932 63.2482 33.4412C63.0562 31.7132 62.2242 31.1372 60.0162 31.1372H54.6722V38.1772H45.5842V15.0732H63.1842ZM95.8949 15.0732C101.911 15.0732 104.759 16.4172 104.759 20.8332C104.759 23.1052 103.703 24.8332 101.687 25.8892C104.343 26.7532 105.719 28.7052 105.719 31.5852C105.719 35.9692 102.839 38.1772 97.0789 38.1772H77.3029V15.0732H95.8949ZM86.2629 20.4812V23.7452H92.2789C94.4229 23.7452 95.3829 23.5852 95.3829 22.1132C95.3829 20.5452 94.3909 20.4812 92.2789 20.4812H86.2629ZM86.2629 32.4172H92.5989C94.9349 32.4172 96.0869 32.2572 96.0869 30.5292C96.0869 28.8332 94.9989 28.6092 92.5989 28.6092H86.2629V32.4172Z"/>
</mask>
<path d="M54.6722 25.0572H59.8882C62.3522 25.0572 63.6002 24.6092 63.6002 22.9452C63.6002 21.1852 62.2882 20.9292 59.6642 20.9292H54.6722V25.0572ZM63.1842 15.0732C66.8322 15.0732 69.3602 15.3612 70.8322 16.2572C72.5602 17.2812 73.4882 19.0412 73.4882 21.2812C73.4882 24.0012 72.0802 26.2092 69.6802 27.1372C72.1442 28.1612 72.4322 29.4412 72.5602 32.0652C72.7202 35.3932 72.7202 37.2812 73.8082 37.8252V38.1772H63.8562C63.1522 37.0572 63.4722 35.3932 63.2482 33.4412C63.0562 31.7132 62.2242 31.1372 60.0162 31.1372H54.6722V38.1772H45.5842V15.0732H63.1842ZM95.8949 15.0732C101.911 15.0732 104.759 16.4172 104.759 20.8332C104.759 23.1052 103.703 24.8332 101.687 25.8892C104.343 26.7532 105.719 28.7052 105.719 31.5852C105.719 35.9692 102.839 38.1772 97.0789 38.1772H77.3029V15.0732H95.8949ZM86.2629 20.4812V23.7452H92.2789C94.4229 23.7452 95.3829 23.5852 95.3829 22.1132C95.3829 20.5452 94.3909 20.4812 92.2789 20.4812H86.2629ZM86.2629 32.4172H92.5989C94.9349 32.4172 96.0869 32.2572 96.0869 30.5292C96.0869 28.8332 94.9989 28.6092 92.5989 28.6092H86.2629V32.4172Z" fill="#EEEEEC"/>
<path d="M54.6722 25.0572H52.6722V27.0572H54.6722V25.0572ZM54.6722 20.9292V18.9292H52.6722V20.9292H54.6722ZM70.8322 16.2572L69.7923 17.9656L69.8024 17.9718L69.8125 17.9778L70.8322 16.2572ZM69.6802 27.1372L68.9589 25.2718L64.3076 27.0703L68.9126 28.9841L69.6802 27.1372ZM72.5602 32.0652L74.5578 31.9692L74.5578 31.9678L72.5602 32.0652ZM73.8082 37.8252H75.8082V36.5892L74.7026 36.0364L73.8082 37.8252ZM73.8082 38.1772V40.1772H75.8082V38.1772H73.8082ZM63.8562 38.1772L62.1629 39.2416L62.751 40.1772H63.8562V38.1772ZM63.2482 33.4412L61.2604 33.6621L61.2612 33.6693L63.2482 33.4412ZM54.6722 31.1372V29.1372H52.6722V31.1372H54.6722ZM54.6722 38.1772V40.1772H56.6722V38.1772H54.6722ZM45.5842 38.1772H43.5842V40.1772H45.5842V38.1772ZM45.5842 15.0732V13.0732H43.5842V15.0732H45.5842ZM54.6722 25.0572V27.0572H59.8882V25.0572V23.0572H54.6722V25.0572ZM59.8882 25.0572V27.0572C61.1373 27.0572 62.4994 26.963 63.5854 26.4025C64.1869 26.092 64.7336 25.6254 65.1091 24.959C65.4756 24.3085 65.6002 23.6076 65.6002 22.9452H63.6002H61.6002C61.6002 23.1149 61.5687 23.094 61.6242 22.9955C61.6887 22.8811 61.7694 22.8384 61.7509 22.848C61.7061 22.8711 61.5549 22.9329 61.2173 22.9824C60.8866 23.031 60.4528 23.0572 59.8882 23.0572V25.0572ZM63.6002 22.9452H65.6002C65.6002 22.2661 65.4742 21.5294 65.0661 20.8537C64.6446 20.156 64.0375 19.7132 63.4107 19.4419C62.3147 18.9674 60.912 18.9292 59.6642 18.9292V20.9292V22.9292C60.2992 22.9292 60.7907 22.9453 61.1779 22.9859C61.5757 23.0275 61.7587 23.0854 61.8216 23.1126C61.8508 23.1253 61.7357 23.0765 61.6422 22.9218C61.5621 22.7891 61.6002 22.7444 61.6002 22.9452H63.6002ZM59.6642 20.9292V18.9292H54.6722V20.9292V22.9292H59.6642V20.9292ZM54.6722 20.9292H52.6722V25.0572H54.6722H56.6722V20.9292H54.6722ZM63.1842 15.0732V17.0732C64.9693 17.0732 66.404 17.1446 67.5378 17.3086C68.6901 17.4753 69.3865 17.7187 69.7923 17.9656L70.8322 16.2572L71.872 14.5488C70.8058 13.8998 69.5022 13.5512 68.1105 13.3498C66.7003 13.1459 65.047 13.0732 63.1842 13.0732V15.0732ZM70.8322 16.2572L69.8125 17.9778C70.851 18.5932 71.4882 19.6471 71.4882 21.2812H73.4882H75.4882C75.4882 18.4354 74.2693 15.9693 71.8518 14.5367L70.8322 16.2572ZM73.4882 21.2812H71.4882C71.4882 23.2633 70.5091 24.6724 68.9589 25.2718L69.6802 27.1372L70.4014 29.0027C73.6512 27.7461 75.4882 24.7392 75.4882 21.2812H73.4882ZM69.6802 27.1372L68.9126 28.9841C69.8892 29.3899 70.1103 29.7057 70.2147 29.9103C70.3895 30.2528 70.4967 30.8122 70.5625 32.1627L72.5602 32.0652L74.5578 31.9678C74.4957 30.6942 74.3949 29.3017 73.7776 28.0922C73.09 26.7448 71.9351 25.9086 70.4477 25.2904L69.6802 27.1372ZM72.5602 32.0652L70.5625 32.1613C70.6382 33.7358 70.6824 35.2091 70.8623 36.3113C71.0305 37.3425 71.4288 38.8717 72.9137 39.6141L73.8082 37.8252L74.7026 36.0364C75.0995 36.2348 74.9538 36.548 74.81 35.6671C74.6779 34.8574 74.6421 33.7227 74.5578 31.9692L72.5602 32.0652ZM73.8082 37.8252H71.8082V38.1772H73.8082H75.8082V37.8252H73.8082ZM73.8082 38.1772V36.1772H63.8562V38.1772V40.1772H73.8082V38.1772ZM63.8562 38.1772L65.5494 37.1129C65.4961 37.028 65.4045 36.7954 65.3701 36.0313C65.3429 35.4258 65.3564 34.2699 65.2351 33.2132L63.2482 33.4412L61.2612 33.6693C61.3639 34.5646 61.3294 35.2167 61.3742 36.2112C61.4118 37.0471 61.5122 38.2065 62.1629 39.2416L63.8562 38.1772ZM63.2482 33.4412L65.2359 33.2204C65.1101 32.088 64.7175 30.8407 63.5445 30.0094C62.4999 29.2691 61.1955 29.1372 60.0162 29.1372V31.1372V33.1372C60.4928 33.1372 60.8109 33.1694 61.0204 33.2128C61.2243 33.2549 61.2628 33.2951 61.2318 33.273C61.183 33.2385 61.1584 33.194 61.1624 33.2025C61.1781 33.236 61.2272 33.3632 61.2604 33.6621L63.2482 33.4412ZM60.0162 31.1372V29.1372H54.6722V31.1372V33.1372H60.0162V31.1372ZM54.6722 31.1372H52.6722V38.1772H54.6722H56.6722V31.1372H54.6722ZM54.6722 38.1772V36.1772H45.5842V38.1772V40.1772H54.6722V38.1772ZM45.5842 38.1772H47.5842V15.0732H45.5842H43.5842V38.1772H45.5842ZM45.5842 15.0732V17.0732H63.1842V15.0732V13.0732H45.5842V15.0732ZM101.687 25.8892L100.759 24.1176L96.551 26.3217L101.068 27.7911L101.687 25.8892ZM77.3029 38.1772H75.3029V40.1772H77.3029V38.1772ZM77.3029 15.0732V13.0732H75.3029V15.0732H77.3029ZM86.2629 20.4812V18.4812H84.2629V20.4812H86.2629ZM86.2629 23.7452H84.2629V25.7452H86.2629V23.7452ZM86.2629 32.4172H84.2629V34.4172H86.2629V32.4172ZM86.2629 28.6092V26.6092H84.2629V28.6092H86.2629ZM95.8949 15.0732V17.0732C98.86 17.0732 100.587 17.4259 101.546 18.0073C102.257 18.4389 102.759 19.1222 102.759 20.8332H104.759H106.759C106.759 18.1283 105.836 15.9316 103.62 14.5872C101.651 13.3926 98.9458 13.0732 95.8949 13.0732V15.0732ZM104.759 20.8332H102.759C102.759 22.3535 102.123 23.4032 100.759 24.1176L101.687 25.8892L102.615 27.6609C105.283 26.2633 106.759 23.857 106.759 20.8332H104.759ZM101.687 25.8892L101.068 27.7911C102.062 28.1145 102.681 28.5916 103.066 29.136C103.455 29.6858 103.719 30.4663 103.719 31.5852H105.719H107.719C107.719 29.8242 107.295 28.1887 106.332 26.8265C105.365 25.4589 103.968 24.528 102.306 23.9873L101.687 25.8892ZM105.719 31.5852H103.719C103.719 33.3007 103.183 34.2953 102.345 34.9359C101.405 35.6539 99.7593 36.1772 97.0789 36.1772V38.1772V40.1772C100.159 40.1772 102.833 39.5966 104.773 38.1146C106.814 36.5552 107.719 34.2538 107.719 31.5852H105.719ZM97.0789 38.1772V36.1772H77.3029V38.1772V40.1772H97.0789V38.1772ZM77.3029 38.1772H79.3029V15.0732H77.3029H75.3029V38.1772H77.3029ZM77.3029 15.0732V17.0732H95.8949V15.0732V13.0732H77.3029V15.0732ZM86.2629 20.4812H84.2629V23.7452H86.2629H88.2629V20.4812H86.2629ZM86.2629 23.7452V25.7452H92.2789V23.7452V21.7452H86.2629V23.7452ZM92.2789 23.7452V25.7452C92.8258 25.7452 93.3686 25.7357 93.8616 25.6879C94.3427 25.6412 94.9058 25.5476 95.4418 25.3112C96.0247 25.0542 96.5775 24.626 96.9472 23.9615C97.2936 23.3388 97.3829 22.6795 97.3829 22.1132H95.3829H93.3829C93.3829 22.283 93.3522 22.1957 93.4516 22.017C93.5743 21.7965 93.7531 21.6843 93.828 21.6513C93.856 21.6389 93.7771 21.6773 93.4752 21.7066C93.1853 21.7347 92.804 21.7452 92.2789 21.7452V23.7452ZM95.3829 22.1132H97.3829C97.3829 21.5346 97.2955 20.8586 96.9427 20.2245C96.5612 19.5388 95.9869 19.1093 95.388 18.8614C94.8443 18.6362 94.2772 18.5583 93.8108 18.5218C93.3321 18.4844 92.7997 18.4812 92.2789 18.4812V20.4812V22.4812C92.8141 22.4812 93.1977 22.4861 93.499 22.5097C93.8126 22.5342 93.8895 22.5702 93.8578 22.5571C93.8285 22.545 93.7555 22.5102 93.6684 22.4368C93.5775 22.3601 93.5014 22.2666 93.4471 22.169C93.3464 21.9878 93.3829 21.9079 93.3829 22.1132H95.3829ZM92.2789 20.4812V18.4812H86.2629V20.4812V22.4812H92.2789V20.4812ZM86.2629 32.4172V34.4172H92.5989V32.4172V30.4172H86.2629V32.4172ZM92.5989 32.4172V34.4172C93.1913 34.4172 93.7826 34.4079 94.321 34.3561C94.8484 34.3053 95.454 34.2036 96.0265 33.9509C96.6446 33.6781 97.2252 33.2272 97.6154 32.5306C97.9835 31.8733 98.0869 31.1658 98.0869 30.5292H96.0869H94.0869C94.0869 30.7567 94.0463 30.7172 94.1254 30.5759C94.2266 30.3953 94.3732 30.3084 94.4113 30.2915C94.4157 30.2896 94.3851 30.3034 94.3014 30.3218C94.2178 30.3401 94.1003 30.3588 93.9378 30.3744C93.6032 30.4066 93.1745 30.4172 92.5989 30.4172V32.4172ZM96.0869 30.5292H98.0869C98.0869 29.9093 97.9903 29.2165 97.641 28.5668C97.2697 27.8761 96.7091 27.4116 96.0914 27.1222C95.0477 26.6331 93.7123 26.6092 92.5989 26.6092V28.6092V30.6092C93.1813 30.6092 93.6122 30.6236 93.9415 30.6592C94.1016 30.6765 94.2159 30.6966 94.2954 30.7155C94.375 30.7344 94.4018 30.7478 94.3944 30.7443C94.3487 30.7229 94.2101 30.6324 94.1178 30.4607C94.0475 30.33 94.0869 30.3012 94.0869 30.5292H96.0869ZM92.5989 28.6092V26.6092H86.2629V28.6092V30.6092H92.5989V28.6092ZM86.2629 28.6092H84.2629V32.4172H86.2629H88.2629V28.6092H86.2629Z" fill="black" mask="url(#path-8-outside-1_213_591)"/>
</g>
<path d="M44.855 43.5742C43.3594 44.98 43.2392 46.7756 43.2392 46.7756L40.9653 46.2665C40.9653 46.2665 42.3606 44.5251 44.855 43.5742Z" fill="#323330"/>
<path d="M114.912 31.3074C114.912 31.3074 117.337 31.3278 118.347 31.9519C119.196 32.5974 119.368 33.3545 119.368 33.3545L114.912 31.3074Z" fill="#323330"/>
<path d="M142.419 20.9854L146.967 20.9854L146.967 7.3584L142.419 10.164V20.9854Z" fill="#766F4F"/>
<path d="M112.84 59.4291L107.741 55.377H17.0674L13.1073 59.4291H112.84Z" fill="#9B884C"/>
<defs>
<filter id="filter0_i_213_591" x="3.00427" y="2.51367" width="144.489" height="62.4858" filterUnits="userSpaceOnUse" color-interpolation-filters="sRGB">
<feFlood flood-opacity="0" result="BackgroundImageFix"/>
<feBlend mode="normal" in="SourceGraphic" in2="BackgroundImageFix" result="shape"/>
<feColorMatrix in="SourceAlpha" type="matrix" values="0 0 0 0 0 0 0 0 0 0 0 0 0 0 0 0 0 0 127 0" result="hardAlpha"/>
<feOffset dy="-5"/>
<feComposite in2="hardAlpha" operator="arithmetic" k2="-1" k3="1"/>
<feColorMatrix type="matrix" values="0 0 0 0 0.152941 0 0 0 0 0.133333 0 0 0 0 0.0823529 0 0 0 1 0"/>
<feBlend mode="normal" in2="shape" result="effect1_innerShadow_213_591"/>
</filter>
<filter id="filter1_d_213_591" x="42.5841" y="13.0732" width="66.1348" height="30.104" filterUnits="userSpaceOnUse" color-interpolation-filters="sRGB">
<feFlood flood-opacity="0" result="BackgroundImageFix"/>
<feColorMatrix in="SourceAlpha" type="matrix" values="0 0 0 0 0 0 0 0 0 0 0 0 0 0 0 0 0 0 127 0" result="hardAlpha"/>
<feOffset dy="2"/>
<feGaussianBlur stdDeviation="0.5"/>
<feComposite in2="hardAlpha" operator="out"/>
<feColorMatrix type="matrix" values="0 0 0 0 0 0 0 0 0 0 0 0 0 0 0 0 0 0 1 0"/>
<feBlend mode="normal" in2="BackgroundImageFix" result="effect1_dropShadow_213_591"/>
<feBlend mode="normal" in="SourceGraphic" in2="effect1_dropShadow_213_591" result="shape"/>
</filter>
</defs>
</svg>
