<svg width="151" height="71" viewBox="0 0 151 71" fill="none" xmlns="http://www.w3.org/2000/svg">
<path d="M5.5708 70.292H117.571C135.796 70.292 150.571 55.5174 150.571 37.292V6.29199C150.571 2.97828 147.885 0.291992 144.571 0.291992H6.5708C3.2571 0.291992 0.570801 2.97828 0.570801 6.29199V65.292C0.570801 68.0534 2.80939 70.292 5.5708 70.292Z" fill="#060308"/>
<g filter="url(#filter0_i_222_550)">
<path d="M6.06779 64.8031H118.557C134.573 64.8031 147.557 51.8194 147.557 35.8031V7.31738C147.557 4.55596 145.318 2.31738 142.557 2.31738H8.06779C5.30637 2.31738 3.06779 4.55596 3.06779 7.31738V61.8031C3.06779 63.46 4.41093 64.8031 6.06779 64.8031Z" fill="#635A30"/>
</g>
<path d="M13.8257 54.2325H116.78C130.587 54.2325 141.78 43.0396 141.78 29.2325V11.0776C141.78 9.42078 140.436 8.07764 138.78 8.07764H13.8257C12.1688 8.07764 10.8257 9.42078 10.8257 11.0776V51.2325C10.8257 52.8893 12.1688 54.2325 13.8257 54.2325Z" fill="#111515"/>
<path d="M118.106 7.16221L119.097 2.75342L142.064 2.75344L139.171 7.16221L118.106 7.16221Z" fill="#8A8D77"/>
<path d="M24.5022 7.16219L22.4631 2.75342L7.89746 2.75342L12.2672 7.16219L24.5022 7.16219Z" fill="#7E7753"/>
<path d="M16.8296 49.4782H112.795C126.05 49.4782 136.795 38.733 136.795 25.4782V11.5791C136.795 8.81768 134.557 6.5791 131.795 6.5791H19.8296C16.5159 6.5791 13.8296 9.2654 13.8296 12.5791V46.4782C13.8296 48.1351 15.1728 49.4782 16.8296 49.4782Z" fill="#323330"/>
<path d="M16.4292 11.9321V39.7418C16.4292 43.0555 19.1155 45.7418 22.4292 45.7418H110.742C122.892 45.7418 132.742 35.8921 132.742 23.7418V11.9321C132.742 10.2753 131.399 8.93213 129.742 8.93213H19.4292C17.7724 8.93213 16.4292 10.2753 16.4292 11.9321Z" fill="#4D5149"/>
<g filter="url(#filter1_d_222_550)">
<mask id="path-8-outside-1_222_550" maskUnits="userSpaceOnUse" x="44.0884" y="11.981" width="55" height="28" fill="black">
<rect fill="white" x="44.0884" y="11.981" width="55" height="28"/>
<path d="M56.0481 24.861H61.2641C63.7281 24.861 64.9761 24.413 64.9761 22.749C64.9761 20.989 63.6641 20.733 61.0401 20.733H56.0481V24.861ZM64.5601 14.877C68.2081 14.877 70.7361 15.165 72.2081 16.061C73.9361 17.085 74.8641 18.845 74.8641 21.085C74.8641 23.805 73.4561 26.013 71.0561 26.941C73.5201 27.965 73.8081 29.245 73.9361 31.869C74.0961 35.197 74.0961 37.085 75.1841 37.629V37.981H65.2321C64.5281 36.861 64.8481 35.197 64.6241 33.245C64.4321 31.517 63.6001 30.941 61.3921 30.941H56.0481V37.981H46.9601V14.877H64.5601ZM88.4069 37.981V23.421C86.9029 23.901 85.4629 24.189 84.0229 24.253V18.589C86.8389 18.109 88.7909 17.085 89.9749 15.453H96.4069V37.981H88.4069Z"/>
</mask>
<path d="M56.0481 24.861H61.2641C63.7281 24.861 64.9761 24.413 64.9761 22.749C64.9761 20.989 63.6641 20.733 61.0401 20.733H56.0481V24.861ZM64.5601 14.877C68.2081 14.877 70.7361 15.165 72.2081 16.061C73.9361 17.085 74.8641 18.845 74.8641 21.085C74.8641 23.805 73.4561 26.013 71.0561 26.941C73.5201 27.965 73.8081 29.245 73.9361 31.869C74.0961 35.197 74.0961 37.085 75.1841 37.629V37.981H65.2321C64.5281 36.861 64.8481 35.197 64.6241 33.245C64.4321 31.517 63.6001 30.941 61.3921 30.941H56.0481V37.981H46.9601V14.877H64.5601ZM88.4069 37.981V23.421C86.9029 23.901 85.4629 24.189 84.0229 24.253V18.589C86.8389 18.109 88.7909 17.085 89.9749 15.453H96.4069V37.981H88.4069Z" fill="#EEEEEC"/>
<path d="M56.0481 24.861H54.0481V26.861H56.0481V24.861ZM56.0481 20.733V18.733H54.0481V20.733H56.0481ZM72.2081 16.061L71.1682 17.7694L71.1783 17.7755L71.1885 17.7815L72.2081 16.061ZM71.0561 26.941L70.3348 25.0755L65.6836 26.874L70.2886 28.7878L71.0561 26.941ZM73.9361 31.869L75.9338 31.7729L75.9338 31.7715L73.9361 31.869ZM75.1841 37.629H77.1841V36.3929L76.0786 35.8401L75.1841 37.629ZM75.1841 37.981V39.981H77.1841V37.981H75.1841ZM65.2321 37.981L63.5389 39.0453L64.127 39.981H65.2321V37.981ZM64.6241 33.245L62.6364 33.4658L62.6372 33.473L64.6241 33.245ZM56.0481 30.941V28.941H54.0481V30.941H56.0481ZM56.0481 37.981V39.981H58.0481V37.981H56.0481ZM46.9601 37.981H44.9601V39.981H46.9601V37.981ZM46.9601 14.877V12.877H44.9601V14.877H46.9601ZM56.0481 24.861V26.861H61.2641V24.861V22.861H56.0481V24.861ZM61.2641 24.861V26.861C62.5133 26.861 63.8754 26.7667 64.9614 26.2062C65.5629 25.8958 66.1096 25.4291 66.4851 24.7627C66.8516 24.1122 66.9761 23.4113 66.9761 22.749H64.9761H62.9761C62.9761 22.9186 62.9447 22.8977 63.0002 22.7992C63.0646 22.6848 63.1454 22.6422 63.1268 22.6517C63.0821 22.6748 62.9308 22.7366 62.5933 22.7861C62.2625 22.8347 61.8287 22.861 61.2641 22.861V24.861ZM64.9761 22.749H66.9761C66.9761 22.0698 66.8502 21.3331 66.442 20.6574C66.0206 19.9597 65.4135 19.5169 64.7867 19.2456C63.6907 18.7711 62.288 18.733 61.0401 18.733V20.733V22.733C61.6751 22.733 62.1667 22.7491 62.5539 22.7896C62.9517 22.8312 63.1347 22.8891 63.1975 22.9163C63.2268 22.929 63.1117 22.8802 63.0182 22.7255C62.938 22.5928 62.9761 22.5481 62.9761 22.749H64.9761ZM61.0401 20.733V18.733H56.0481V20.733V22.733H61.0401V20.733ZM56.0481 20.733H54.0481V24.861H56.0481H58.0481V20.733H56.0481ZM64.5601 14.877V16.877C66.3453 16.877 67.7799 16.9483 68.9138 17.1124C70.0661 17.279 70.7625 17.5224 71.1682 17.7694L72.2081 16.061L73.248 14.3526C72.1818 13.7035 70.8782 13.3549 69.4865 13.1536C68.0763 12.9496 66.423 12.877 64.5601 12.877V14.877ZM72.2081 16.061L71.1885 17.7815C72.227 18.3969 72.8641 19.4508 72.8641 21.085H74.8641H76.8641C76.8641 18.2391 75.6453 15.773 73.2277 14.3404L72.2081 16.061ZM74.8641 21.085H72.8641C72.8641 23.067 71.885 24.4761 70.3348 25.0755L71.0561 26.941L71.7774 28.8064C75.0272 27.5498 76.8641 24.5429 76.8641 21.085H74.8641ZM71.0561 26.941L70.2886 28.7878C71.2651 29.1937 71.4862 29.5094 71.5907 29.714C71.7654 30.0565 71.8726 30.616 71.9385 31.9664L73.9361 31.869L75.9338 31.7715C75.8716 30.498 75.7708 29.1054 75.1536 27.8959C74.466 26.5485 73.3111 25.7123 71.8237 25.0941L71.0561 26.941ZM73.9361 31.869L71.9384 31.965C72.0141 33.5395 72.0584 35.0128 72.2382 36.1151C72.4065 37.1462 72.8048 38.6754 74.2897 39.4178L75.1841 37.629L76.0786 35.8401C76.4754 36.0385 76.3298 36.3517 76.186 35.4709C76.0539 34.6611 76.0181 33.5264 75.9338 31.7729L73.9361 31.869ZM75.1841 37.629H73.1841V37.981H75.1841H77.1841V37.629H75.1841ZM75.1841 37.981V35.981H65.2321V37.981V39.981H75.1841V37.981ZM65.2321 37.981L66.9254 36.9166C66.872 36.8317 66.7805 36.5991 66.7461 35.835C66.7189 35.2295 66.7323 34.0736 66.6111 33.0169L64.6241 33.245L62.6372 33.473C62.7399 34.3683 62.7054 35.0204 62.7502 36.0149C62.7878 36.8508 62.8882 38.0102 63.5389 39.0453L65.2321 37.981ZM64.6241 33.245L66.6119 33.0241C66.4861 31.8917 66.0935 30.6444 64.9205 29.8132C63.8758 29.0728 62.5715 28.941 61.3921 28.941V30.941V32.941C61.8688 32.941 62.1869 32.9731 62.3964 33.0165C62.6002 33.0586 62.6388 33.0988 62.6077 33.0768C62.559 33.0422 62.5344 32.9977 62.5384 33.0062C62.5541 33.0397 62.6032 33.1669 62.6364 33.4658L64.6241 33.245ZM61.3921 30.941V28.941H56.0481V30.941V32.941H61.3921V30.941ZM56.0481 30.941H54.0481V37.981H56.0481H58.0481V30.941H56.0481ZM56.0481 37.981V35.981H46.9601V37.981V39.981H56.0481V37.981ZM46.9601 37.981H48.9601V14.877H46.9601H44.9601V37.981H46.9601ZM46.9601 14.877V16.877H64.5601V14.877V12.877H46.9601V14.877ZM88.4069 37.981H86.4069V39.981H88.4069V37.981ZM88.4069 23.421H90.4069V20.6833L87.7988 21.5156L88.4069 23.421ZM84.0229 24.253H82.0229V26.3438L84.1117 26.251L84.0229 24.253ZM84.0229 18.589L83.6868 16.6174L82.0229 16.901V18.589H84.0229ZM89.9749 15.453V13.453H88.955L88.356 14.2785L89.9749 15.453ZM96.4069 15.453H98.4069V13.453H96.4069V15.453ZM96.4069 37.981V39.981H98.4069V37.981H96.4069ZM88.4069 37.981H90.4069V23.421H88.4069H86.4069V37.981H88.4069ZM88.4069 23.421L87.7988 21.5156C86.4272 21.9534 85.1637 22.2003 83.9341 22.2549L84.0229 24.253L84.1117 26.251C85.7621 26.1776 87.3786 25.8485 89.015 25.3263L88.4069 23.421ZM84.0229 24.253H86.0229V18.589H84.0229H82.0229V24.253H84.0229ZM84.0229 18.589L84.3589 20.5605C87.4696 20.0303 89.9925 18.8345 91.5937 16.6274L89.9749 15.453L88.356 14.2785C87.5893 15.3354 86.2081 16.1876 83.6868 16.6174L84.0229 18.589ZM89.9749 15.453V17.453H96.4069V15.453V13.453H89.9749V15.453ZM96.4069 15.453H94.4069V37.981H96.4069H98.4069V15.453H96.4069ZM96.4069 37.981V35.981H88.4069V37.981V39.981H96.4069V37.981Z" fill="black" mask="url(#path-8-outside-1_222_550)"/>
</g>
<path d="M44.9185 43.3779C43.4229 44.7838 43.3027 46.5793 43.3027 46.5793L41.0288 46.0702C41.0288 46.0702 42.4241 44.3288 44.9185 43.3779Z" fill="#323330"/>
<path d="M114.976 31.1111C114.976 31.1111 117.401 31.1315 118.411 31.7557C119.26 32.4011 119.431 33.1582 119.431 33.1582L114.976 31.1111Z" fill="#323330"/>
<path d="M142.483 20.7892L147.03 20.7891L147.03 7.16211L142.483 9.96772V20.7892Z" fill="#766F4F"/>
<path d="M112.904 59.2328L107.805 55.1807H17.1311L13.171 59.2328H112.904Z" fill="#9B884C"/>
<defs>
<filter id="filter0_i_222_550" x="3.06787" y="2.31738" width="144.489" height="62.4858" filterUnits="userSpaceOnUse" color-interpolation-filters="sRGB">
<feFlood flood-opacity="0" result="BackgroundImageFix"/>
<feBlend mode="normal" in="SourceGraphic" in2="BackgroundImageFix" result="shape"/>
<feColorMatrix in="SourceAlpha" type="matrix" values="0 0 0 0 0 0 0 0 0 0 0 0 0 0 0 0 0 0 127 0" result="hardAlpha"/>
<feOffset dy="-5"/>
<feComposite in2="hardAlpha" operator="arithmetic" k2="-1" k3="1"/>
<feColorMatrix type="matrix" values="0 0 0 0 0.152941 0 0 0 0 0.133333 0 0 0 0 0.0823529 0 0 0 1 0"/>
<feBlend mode="normal" in2="shape" result="effect1_innerShadow_222_550"/>
</filter>
<filter id="filter1_d_222_550" x="43.9602" y="12.877" width="55.4468" height="30.104" filterUnits="userSpaceOnUse" color-interpolation-filters="sRGB">
<feFlood flood-opacity="0" result="BackgroundImageFix"/>
<feColorMatrix in="SourceAlpha" type="matrix" values="0 0 0 0 0 0 0 0 0 0 0 0 0 0 0 0 0 0 127 0" result="hardAlpha"/>
<feOffset dy="2"/>
<feGaussianBlur stdDeviation="0.5"/>
<feComposite in2="hardAlpha" operator="out"/>
<feColorMatrix type="matrix" values="0 0 0 0 0 0 0 0 0 0 0 0 0 0 0 0 0 0 1 0"/>
<feBlend mode="normal" in2="BackgroundImageFix" result="effect1_dropShadow_222_550"/>
<feBlend mode="normal" in="SourceGraphic" in2="effect1_dropShadow_222_550" result="shape"/>
</filter>
</defs>
</svg>
