<svg width="151" height="71" viewBox="0 0 151 71" fill="none" xmlns="http://www.w3.org/2000/svg">
<path d="M146.869 70.4882H4.86938C2.66025 70.4882 0.869385 68.6973 0.869385 66.4882V32.9116C0.869385 15.7908 14.7486 1.91162 31.8694 1.91162H129.869C141.467 1.91162 150.869 11.3136 150.869 22.9116V66.4882C150.869 68.6973 149.079 70.4882 146.869 70.4882Z" fill="#060308"/>
<g filter="url(#filter0_i_213_562)">
<path d="M145.372 64.8806H6.88342C5.22657 64.8806 3.88342 63.5374 3.88342 61.8806V32.0005C3.88342 15.9842 16.8672 3.00049 32.8834 3.00049H128.372C139.418 3.00049 148.372 11.9548 148.372 23.0005V61.8806C148.372 63.5374 147.029 64.8806 145.372 64.8806Z" fill="#635A30"/>
</g>
<path d="M127.833 4.11787L128.977 3.17725C134.589 3.17714 138.976 6.14158 141.484 8.1423L137.189 11.109C135.076 8.30345 131.083 4.92275 127.833 4.11787Z" fill="#7E7753"/>
<path d="M137.615 53.0997H16.6217C14.9648 53.0997 13.6217 51.7565 13.6217 50.0997V32.0005C13.6217 15.9842 26.6054 3.00049 42.6217 3.00049H120.615C131.66 3.00049 140.615 11.9548 140.615 23.0005V50.0997C140.615 51.7565 139.271 53.0997 137.615 53.0997Z" fill="#111515"/>
<path d="M131.64 48.2419H22.5961C20.9392 48.2419 19.5961 46.8988 19.5961 45.2419V29.4883C19.5961 13.472 32.5798 0.488281 48.596 0.488281H114.64C125.686 0.488281 134.64 9.44258 134.64 20.4883V45.2419C134.64 46.8988 133.297 48.2419 131.64 48.2419Z" fill="#323330"/>
<path d="M132.04 20.9116V35.8978C132.04 38.6131 130.217 40.9725 127.557 41.5168C119.911 43.0812 102.864 45.9016 79.3301 45.9016C55.796 45.9016 38.749 43.0812 31.1036 41.5168C28.4434 40.9725 26.6202 38.6131 26.6202 35.8978V28.9116C26.6202 13.9999 38.7085 1.91162 53.6202 1.91162H113.04C123.533 1.91162 132.04 10.4182 132.04 20.9116Z" fill="#4D5149"/>
<path d="M106.522 42.0088C108.017 43.4451 108.137 45.2797 108.137 45.2797L110.411 44.7595C110.411 44.7595 109.016 42.9803 106.522 42.0088Z" fill="#323330"/>
<path d="M36.4644 29.4759C36.4644 29.4759 34.0395 29.4967 33.0291 30.1344C32.1805 30.7938 32.009 31.5674 32.009 31.5674L36.4644 29.4759Z" fill="#323330"/>
<path d="M15.272 20.1841C10.4872 19.2796 6.42053 20.184 6.42053 20.184C9.65512 13.9545 13.6072 9.35697 20.3539 6.0874C20.3539 6.0874 23.5041 6.0874 26.3869 6.83541C22.139 9.35058 18.2736 13.8353 15.272 20.1841Z" fill="#BAB582"/>
<path d="M23.6829 58.208L28.7819 54.0679H134.309L138.269 58.208H23.6829Z" fill="#9B884C"/>
<defs>
<filter id="filter0_i_213_562" x="3.88342" y="3.00049" width="144.489" height="61.8799" filterUnits="userSpaceOnUse" color-interpolation-filters="sRGB">
<feFlood flood-opacity="0" result="BackgroundImageFix"/>
<feBlend mode="normal" in="SourceGraphic" in2="BackgroundImageFix" result="shape"/>
<feColorMatrix in="SourceAlpha" type="matrix" values="0 0 0 0 0 0 0 0 0 0 0 0 0 0 0 0 0 0 127 0" result="hardAlpha"/>
<feOffset dy="-5"/>
<feComposite in2="hardAlpha" operator="arithmetic" k2="-1" k3="1"/>
<feColorMatrix type="matrix" values="0 0 0 0 0.152941 0 0 0 0 0.133333 0 0 0 0 0.0823529 0 0 0 1 0"/>
<feBlend mode="normal" in2="shape" result="effect1_innerShadow_213_562"/>
</filter>
</defs>
</svg>
