<svg width="101" height="101" viewBox="0 0 101 101" fill="none" xmlns="http://www.w3.org/2000/svg">
<circle cx="50.0288" cy="50.6934" r="50" fill="#060308"/>
<g filter="url(#filter0_i_222_651)">
<circle cx="50.0288" cy="49.512" r="46.5227" fill="#817539"/>
</g>
<circle cx="50.0288" cy="45.9668" r="39.02" fill="#201F19"/>
<g filter="url(#filter1_dii_222_651)">
<circle cx="50.0287" cy="43.6039" r="33.7553" fill="#3C4235"/>
</g>
<g filter="url(#filter2_f_222_651)">
<path d="M38.6312 15.0435C39.1541 15.9122 37.2705 17.7103 35.3655 19.2341C33.4606 20.7579 30.0151 21.3414 29.6507 20.7579C29.2864 20.1745 31.2571 17.717 33.4606 16.3495C35.6641 14.9821 38.1083 14.1747 38.6312 15.0435Z" fill="#F7F7F8"/>
</g>
<path d="M79.5125 80.1549L77.1252 74.8778C81.104 71.0665 83.3238 67.7159 85.7949 62.8574L91.9515 63.7371C89.1873 70.1451 85.2085 75.3385 79.5125 80.1549Z" fill="#B4B066"/>
<path d="M12.4714 33.0194L7.82666 31.5249C9.48902 25.5408 20.7932 7.06422 42.9154 3.92969V7.06422C29.77 9.53448 17.8009 18.8438 12.4714 33.0194Z" fill="#C0BE72"/>
<path d="M18.4646 77.9621L23.1911 74.7307C26.0849 77.6245 28.5929 79.4572 32.8645 81.5008L30.4739 86.547C24.5416 83.7014 21.696 81.1453 18.4646 77.9621Z" fill="#968947"/>
<g filter="url(#filter3_d_222_651)">
<path d="M46.7193 19.3378C48.3443 16.9187 51.9989 16.9994 53.4886 19.5797L73.2247 53.7635C74.7625 56.427 72.8403 59.7572 69.7647 59.7572H30.2926C27.2171 59.7572 25.295 56.4278 26.8326 53.7643L46.5687 19.5797L46.7193 19.3378ZM34.444 53.3648H65.6134L50.0287 26.3709L34.444 53.3648Z" fill="#F5D869"/>
<path d="M45.8892 18.7803C47.9225 15.7533 52.4915 15.8524 54.355 19.0801L74.0903 53.2637C76.0128 56.5935 73.6105 60.7565 69.7651 60.7568H30.2925C26.4473 60.7567 24.0443 56.5946 25.9663 53.2646L45.7026 19.0801L45.7202 19.0508L45.8706 18.8096L45.8794 18.7949L45.8892 18.7803ZM36.1763 52.3652H63.8813L50.0288 28.3711L36.1763 52.3652Z" stroke="black" stroke-width="2"/>
</g>
<defs>
<filter id="filter0_i_222_651" x="3.5061" y="2.98926" width="93.0454" height="93.0454" filterUnits="userSpaceOnUse" color-interpolation-filters="sRGB">
<feFlood flood-opacity="0" result="BackgroundImageFix"/>
<feBlend mode="normal" in="SourceGraphic" in2="BackgroundImageFix" result="shape"/>
<feColorMatrix in="SourceAlpha" type="matrix" values="0 0 0 0 0 0 0 0 0 0 0 0 0 0 0 0 0 0 127 0" result="hardAlpha"/>
<feOffset dy="-4"/>
<feComposite in2="hardAlpha" operator="arithmetic" k2="-1" k3="1"/>
<feColorMatrix type="matrix" values="0 0 0 0 0.282353 0 0 0 0 0.243137 0 0 0 0 0.129412 0 0 0 1 0"/>
<feBlend mode="normal" in2="shape" result="effect1_innerShadow_222_651"/>
</filter>
<filter id="filter1_dii_222_651" x="13.2734" y="6.84863" width="72.5105" height="75.5107" filterUnits="userSpaceOnUse" color-interpolation-filters="sRGB">
<feFlood flood-opacity="0" result="BackgroundImageFix"/>
<feColorMatrix in="SourceAlpha" type="matrix" values="0 0 0 0 0 0 0 0 0 0 0 0 0 0 0 0 0 0 127 0" result="hardAlpha"/>
<feMorphology radius="2" operator="dilate" in="SourceAlpha" result="effect1_dropShadow_222_651"/>
<feOffset dy="3"/>
<feComposite in2="hardAlpha" operator="out"/>
<feColorMatrix type="matrix" values="0 0 0 0 0.00392157 0 0 0 0 0.0117647 0 0 0 0 0 0 0 0 1 0"/>
<feBlend mode="normal" in2="BackgroundImageFix" result="effect1_dropShadow_222_651"/>
<feBlend mode="normal" in="SourceGraphic" in2="effect1_dropShadow_222_651" result="shape"/>
<feColorMatrix in="SourceAlpha" type="matrix" values="0 0 0 0 0 0 0 0 0 0 0 0 0 0 0 0 0 0 127 0" result="hardAlpha"/>
<feMorphology radius="7" operator="erode" in="SourceAlpha" result="effect2_innerShadow_222_651"/>
<feOffset dx="-3" dy="-3"/>
<feGaussianBlur stdDeviation="1.3"/>
<feComposite in2="hardAlpha" operator="arithmetic" k2="-1" k3="1"/>
<feColorMatrix type="matrix" values="0 0 0 0 0.211765 0 0 0 0 0.231373 0 0 0 0 0.180392 0 0 0 1 0"/>
<feBlend mode="normal" in2="shape" result="effect2_innerShadow_222_651"/>
<feColorMatrix in="SourceAlpha" type="matrix" values="0 0 0 0 0 0 0 0 0 0 0 0 0 0 0 0 0 0 127 0" result="hardAlpha"/>
<feOffset dx="-1.5" dy="-2"/>
<feGaussianBlur stdDeviation="1"/>
<feComposite in2="hardAlpha" operator="arithmetic" k2="-1" k3="1"/>
<feColorMatrix type="matrix" values="0 0 0 0 0.533333 0 0 0 0 0.545098 0 0 0 0 0.505882 0 0 0 1 0"/>
<feBlend mode="normal" in2="effect2_innerShadow_222_651" result="effect3_innerShadow_222_651"/>
</filter>
<filter id="filter2_f_222_651" x="28.6069" y="13.6831" width="11.1128" height="8.29736" filterUnits="userSpaceOnUse" color-interpolation-filters="sRGB">
<feFlood flood-opacity="0" result="BackgroundImageFix"/>
<feBlend mode="normal" in="SourceGraphic" in2="BackgroundImageFix" result="shape"/>
<feGaussianBlur stdDeviation="0.5" result="effect1_foregroundBlur_222_651"/>
</filter>
<filter id="filter3_d_222_651" x="24.2886" y="15.582" width="51.4802" height="49.1753" filterUnits="userSpaceOnUse" color-interpolation-filters="sRGB">
<feFlood flood-opacity="0" result="BackgroundImageFix"/>
<feColorMatrix in="SourceAlpha" type="matrix" values="0 0 0 0 0 0 0 0 0 0 0 0 0 0 0 0 0 0 127 0" result="hardAlpha"/>
<feOffset dy="3"/>
<feComposite in2="hardAlpha" operator="out"/>
<feColorMatrix type="matrix" values="0 0 0 0 0 0 0 0 0 0 0 0 0 0 0 0 0 0 1 0"/>
<feBlend mode="normal" in2="BackgroundImageFix" result="effect1_dropShadow_222_651"/>
<feBlend mode="normal" in="SourceGraphic" in2="effect1_dropShadow_222_651" result="shape"/>
</filter>
</defs>
</svg>
