<svg width="150" height="150" viewBox="0 0 150 150" fill="none" xmlns="http://www.w3.org/2000/svg">
<g filter="url(#filter0_d_194_504)">
<mask id="path-1-inside-1_194_504" fill="white">
<path d="M143.399 75.0004L103.937 114.461V92.0668H46.6021V57.933H103.937V35.5385L143.399 75.0004Z"/>
</mask>
<path d="M143.399 75.0004L103.937 114.461V92.0668H46.6021V57.933H103.937V35.5385L143.399 75.0004Z" fill="black" fill-opacity="0.5" shape-rendering="crispEdges"/>
<path d="M143.399 75.0004L146.934 78.5359L150.47 75.0004L146.934 71.4648L143.399 75.0004ZM103.937 114.461H98.937V126.532L107.473 117.997L103.937 114.461ZM103.937 92.0668H108.937V87.0668H103.937V92.0668ZM46.6021 92.0668H41.6021V97.0668H46.6021V92.0668ZM46.6021 57.933V52.933H41.6021V57.933H46.6021ZM103.937 57.933V62.933H108.937V57.933H103.937ZM103.937 35.5385L107.473 32.0029L98.937 23.4674V35.5385H103.937ZM143.399 75.0004L139.863 71.4648L100.402 110.926L103.937 114.461L107.473 117.997L146.934 78.5359L143.399 75.0004ZM103.937 114.461H108.937V92.0668H103.937H98.937V114.461H103.937ZM103.937 92.0668V87.0668H46.6021V92.0668V97.0668H103.937V92.0668ZM46.6021 92.0668H51.6021V57.933H46.6021H41.6021V92.0668H46.6021ZM46.6021 57.933V62.933H103.937V57.933V52.933H46.6021V57.933ZM103.937 57.933H108.937V35.5385H103.937H98.937V57.933H103.937ZM103.937 35.5385L100.401 39.074L139.863 78.5359L143.399 75.0004L146.934 71.4648L107.473 32.0029L103.937 35.5385Z" fill="white" mask="url(#path-1-inside-1_194_504)"/>
</g>
<defs>
<filter id="filter0_d_194_504" x="42.6021" y="31.5385" width="104.797" height="86.9229" filterUnits="userSpaceOnUse" color-interpolation-filters="sRGB">
<feFlood flood-opacity="0" result="BackgroundImageFix"/>
<feColorMatrix in="SourceAlpha" type="matrix" values="0 0 0 0 0 0 0 0 0 0 0 0 0 0 0 0 0 0 127 0" result="hardAlpha"/>
<feOffset/>
<feGaussianBlur stdDeviation="2"/>
<feComposite in2="hardAlpha" operator="out"/>
<feColorMatrix type="matrix" values="0 0 0 0 0 0 0 0 0 0 0 0 0 0 0 0 0 0 0.5 0"/>
<feBlend mode="normal" in2="BackgroundImageFix" result="effect1_dropShadow_194_504"/>
<feBlend mode="normal" in="SourceGraphic" in2="effect1_dropShadow_194_504" result="shape"/>
</filter>
</defs>
</svg>
