<svg width="150" height="150" viewBox="0 0 150 150" fill="none" xmlns="http://www.w3.org/2000/svg">
<g filter="url(#filter0_d_194_504)">
<mask id="path-1-inside-1_194_504" fill="white">
<path d="M145.028 74.9999L88.7456 131.281V99.3417H6.97314V50.6581H88.7456V18.7187L145.028 74.9999Z"/>
</mask>
<path d="M145.028 74.9999L88.7456 131.281V99.3417H6.97314V50.6581H88.7456V18.7187L145.028 74.9999Z" fill="black" fill-opacity="0.5" shape-rendering="crispEdges"/>
<path d="M145.028 74.9999L148.563 78.5355L152.099 74.9999L148.563 71.4644L145.028 74.9999ZM88.7456 131.281H83.7456V143.352L92.2811 134.817L88.7456 131.281ZM88.7456 99.3417H93.7456V94.3417H88.7456V99.3417ZM6.97314 99.3417H1.97314V104.342H6.97314V99.3417ZM6.97314 50.6581V45.6581H1.97314V50.6581H6.97314ZM88.7456 50.6581V55.6581H93.7456V50.6581H88.7456ZM88.7456 18.7187L92.2811 15.1831L83.7456 6.64777V18.7187H88.7456ZM145.028 74.9999L141.492 71.4644L85.2101 127.746L88.7456 131.281L92.2811 134.817L148.563 78.5355L145.028 74.9999ZM88.7456 131.281H93.7456V99.3417H88.7456H83.7456V131.281H88.7456ZM88.7456 99.3417V94.3417H6.97314V99.3417V104.342H88.7456V99.3417ZM6.97314 99.3417H11.9731V50.6581H6.97314H1.97314V99.3417H6.97314ZM6.97314 50.6581V55.6581H88.7456V50.6581V45.6581H6.97314V50.6581ZM88.7456 50.6581H93.7456V18.7187H88.7456H83.7456V50.6581H88.7456ZM88.7456 18.7187L85.2101 22.2543L141.492 78.5355L145.028 74.9999L148.563 71.4644L92.2811 15.1831L88.7456 18.7187Z" fill="white" mask="url(#path-1-inside-1_194_504)"/>
</g>
<defs>
<filter id="filter0_d_194_504" x="2.97314" y="14.7187" width="146.055" height="120.562" filterUnits="userSpaceOnUse" color-interpolation-filters="sRGB">
<feFlood flood-opacity="0" result="BackgroundImageFix"/>
<feColorMatrix in="SourceAlpha" type="matrix" values="0 0 0 0 0 0 0 0 0 0 0 0 0 0 0 0 0 0 127 0" result="hardAlpha"/>
<feOffset/>
<feGaussianBlur stdDeviation="2"/>
<feComposite in2="hardAlpha" operator="out"/>
<feColorMatrix type="matrix" values="0 0 0 0 0 0 0 0 0 0 0 0 0 0 0 0 0 0 0.5 0"/>
<feBlend mode="normal" in2="BackgroundImageFix" result="effect1_dropShadow_194_504"/>
<feBlend mode="normal" in="SourceGraphic" in2="effect1_dropShadow_194_504" result="shape"/>
</filter>
</defs>
</svg>
