<svg width="101" height="100" viewBox="0 0 101 100" fill="none" xmlns="http://www.w3.org/2000/svg">
<g opacity="0.8">
<g filter="url(#filter0_d_207_17)">
<mask id="path-1-inside-1_207_17" fill="white">
<path d="M50.7096 83.2656L24.402 56.958L39.3317 56.958L39.3317 18.7344L62.0875 18.7344L62.0875 56.958L77.0172 56.958L50.7096 83.2656Z"/>
</mask>
<path d="M50.7096 83.2656L24.402 56.958L39.3317 56.958L39.3317 18.7344L62.0875 18.7344L62.0875 56.958L77.0172 56.958L50.7096 83.2656Z" fill="#FEF6FA" fill-opacity="0.5" shape-rendering="crispEdges"/>
<path d="M50.7096 83.2656L47.1741 86.8012L50.7096 90.3367L54.2451 86.8012L50.7096 83.2656ZM24.402 56.958L24.402 51.958L12.3309 51.958L20.8664 60.4935L24.402 56.958ZM39.3317 56.958L39.3317 61.958L44.3317 61.958L44.3317 56.958L39.3317 56.958ZM39.3317 18.7344L39.3317 13.7344L34.3317 13.7344L34.3317 18.7344L39.3317 18.7344ZM62.0875 18.7344L67.0875 18.7344L67.0875 13.7344L62.0875 13.7344L62.0875 18.7344ZM62.0875 56.958L57.0875 56.958L57.0875 61.958L62.0875 61.958L62.0875 56.958ZM77.0172 56.958L80.5528 60.4935L89.0883 51.958L77.0172 51.958L77.0172 56.958ZM50.7096 83.2656L54.2451 79.7301L27.9375 53.4225L24.402 56.958L20.8664 60.4935L47.1741 86.8012L50.7096 83.2656ZM24.402 56.958L24.402 61.958L39.3317 61.958L39.3317 56.958L39.3317 51.958L24.402 51.958L24.402 56.958ZM39.3317 56.958L44.3317 56.958L44.3317 18.7344L39.3317 18.7344L34.3317 18.7344L34.3317 56.958L39.3317 56.958ZM39.3317 18.7344L39.3317 23.7344L62.0875 23.7344L62.0875 18.7344L62.0875 13.7344L39.3317 13.7344L39.3317 18.7344ZM62.0875 18.7344L57.0875 18.7344L57.0875 56.958L62.0875 56.958L67.0875 56.958L67.0875 18.7344L62.0875 18.7344ZM62.0875 56.958L62.0875 61.958L77.0172 61.958L77.0172 56.958L77.0172 51.958L62.0875 51.958L62.0875 56.958ZM77.0172 56.958L73.4817 53.4225L47.1741 79.7301L50.7096 83.2656L54.2451 86.8012L80.5528 60.4935L77.0172 56.958Z" fill="white" mask="url(#path-1-inside-1_207_17)"/>
</g>
</g>
<defs>
<filter id="filter0_d_207_17" x="20.402" y="14.7344" width="60.6152" height="72.5312" filterUnits="userSpaceOnUse" color-interpolation-filters="sRGB">
<feFlood flood-opacity="0" result="BackgroundImageFix"/>
<feColorMatrix in="SourceAlpha" type="matrix" values="0 0 0 0 0 0 0 0 0 0 0 0 0 0 0 0 0 0 127 0" result="hardAlpha"/>
<feOffset/>
<feGaussianBlur stdDeviation="2"/>
<feComposite in2="hardAlpha" operator="out"/>
<feColorMatrix type="matrix" values="0 0 0 0 0 0 0 0 0 0 0 0 0 0 0 0 0 0 0.5 0"/>
<feBlend mode="normal" in2="BackgroundImageFix" result="effect1_dropShadow_207_17"/>
<feBlend mode="normal" in="SourceGraphic" in2="effect1_dropShadow_207_17" result="shape"/>
</filter>
</defs>
</svg>
