<svg width="151" height="151" viewBox="0 0 151 151" fill="none" xmlns="http://www.w3.org/2000/svg">
<path d="M150.921 76.2824V14.7715C150.921 14.7715 96.9364 70.5069 92.2271 74.5122C87.5177 78.5175 84.0282 82.699 80.098 81.1488C73.9858 78.7378 48.7307 66.2297 43.4431 60.7963C38.1554 55.3629 34.7586 50.1636 32.1109 45.1551C30.8768 42.8207 22.8804 44.6148 20.6646 49.1929C18.7103 53.2306 18.9116 58.012 21.2604 61.7695C23.6091 65.5269 28.2937 69.0929 29.9527 71.4206C31.2689 73.2674 28.415 82.6827 34.1925 90.893C39.9699 99.1033 57.1167 105.968 59.0423 109.346C61.5479 113.743 60.8482 124.966 65.3183 129.056C72.6734 135.786 81.7553 135 87.1038 130.671C92.9587 125.932 97.6842 112.987 98.9464 111.521C106.546 102.693 150.921 76.2824 150.921 76.2824Z" fill="white" fill-opacity="0.3"/>
</svg>
