<svg width="151" height="151" viewBox="0 0 151 151" fill="none" xmlns="http://www.w3.org/2000/svg">
<path d="M55.832 63.135C56.628 62.6801 57.6356 63.0712 57.9277 63.9485L63.0176 79.2336C63.583 80.9317 62.8622 82.7954 61.3086 83.6526L60.4688 84.1164C58.9308 84.9648 58.4471 86.9473 59.4219 88.4084L62.3486 92.7951C57.2453 100.186 49.0467 105.273 39.624 106.183L36.9766 100.69C36.2288 99.1392 34.3325 98.5349 32.8252 99.3664L31.8721 99.8918C30.5017 100.648 28.7869 100.176 27.9824 98.8215L25.2168 94.1662L51.3125 78.7082L50.1065 76.5696C49.7072 75.8619 48.8166 75.6161 48.1182 76.0207L40.6445 80.3508C39.6804 80.9094 38.4563 80.6463 37.7988 79.7395L35.544 76.6291C35.027 75.916 35.2414 74.9059 36.002 74.4709L55.832 63.135ZM15.1514 66.343C15.819 65.9479 16.6752 66.1504 17.1016 66.8039L29.9512 86.4992C30.4125 87.2066 30.1919 88.1614 29.4688 88.5881L23.7236 91.9768C23.0638 92.366 22.2191 92.1729 21.7881 91.5344L8.62599 72.0354C8.14897 71.3285 8.36393 70.3599 9.09376 69.9279L15.1514 66.343ZM25.6865 60.1086C26.3681 59.7054 27.243 59.9253 27.6592 60.6047L35.165 72.8596L33.0127 74.133C32.2549 74.5819 32.0582 75.6032 32.5938 76.3078L38.0713 83.5149L33.9766 85.9299C33.2951 86.3315 32.4215 86.1106 32.0059 85.4319L19.7315 65.3869C19.2997 64.6814 19.527 63.754 20.2344 63.3352L25.6865 60.1086ZM36.0752 53.9612C36.7976 53.5339 37.7256 53.8092 38.1065 54.5637L44.5381 67.3117L37.2949 71.5979L30.3086 59.0569C29.9174 58.3545 30.1554 57.4636 30.8428 57.0569L36.0752 53.9612ZM46.1611 47.9934C46.9215 47.5437 47.899 47.8748 48.2393 48.6975L53.6963 61.8899L47.5225 65.5442L41.0518 52.6242C40.7029 51.9276 40.9495 51.0759 41.6152 50.6819L46.1611 47.9934Z" fill="white" fill-opacity="0.45"/>
<path d="M85.9386 58.2295C87.0942 55.8419 91.2643 54.9058 91.9083 56.1231C93.2893 58.7354 95.0616 61.4474 97.8194 64.2813C100.578 67.1153 113.75 73.6391 116.938 74.8965C118.987 75.7049 120.808 73.5236 123.264 71.4346C124.32 70.5363 130.116 64.658 136.387 58.2461C139.315 63.0084 141.005 68.6138 141.005 74.6143C141.005 76.7058 140.798 78.749 140.406 80.7256C134.549 84.5113 128.604 88.6069 126.769 90.7383C126.11 91.5033 123.645 98.2536 120.592 100.726C117.802 102.984 113.065 103.394 109.229 99.8838C106.897 97.7504 107.262 91.8967 105.955 89.6036C104.951 87.8412 96.0076 84.2607 92.9942 79.9786C89.9811 75.6963 91.4698 70.7855 90.7833 69.8223C89.918 68.6083 87.4742 66.7488 86.2491 64.7891C85.0242 62.8294 84.9195 60.3354 85.9386 58.2295Z" fill="white" fill-opacity="0.45"/>
<path d="M78.1808 71.9887H85.2452V78.0854H78.1808V85.1498H72.0831V78.0854H65.0187V71.9887H72.0831V64.9233H78.1808V71.9887Z" fill="white" fill-opacity="0.45"/>
</svg>
