<svg width="100" height="100" viewBox="0 0 100 100" fill="none" xmlns="http://www.w3.org/2000/svg">
<g opacity="0.8">
<g filter="url(#filter0_d_207_21)">
<mask id="path-1-inside-1_207_21" fill="white">
<path d="M83.2656 49.9999L56.958 76.3075L56.958 61.3779L18.7344 61.3779L18.7344 38.622L56.958 38.622L56.958 23.6923L83.2656 49.9999Z"/>
</mask>
<path d="M83.2656 49.9999L56.958 76.3075L56.958 61.3779L18.7344 61.3779L18.7344 38.622L56.958 38.622L56.958 23.6923L83.2656 49.9999Z" fill="#FEF6FA" fill-opacity="0.5" shape-rendering="crispEdges"/>
<path d="M83.2656 49.9999L86.8012 53.5355L90.3367 49.9999L86.8012 46.4644L83.2656 49.9999ZM56.958 76.3075L51.958 76.3076L51.958 88.3786L60.4936 79.8431L56.958 76.3075ZM56.958 61.3779L61.958 61.3779L61.958 56.3779L56.958 56.3779L56.958 61.3779ZM18.7344 61.3779L13.7344 61.3779L13.7344 66.3779L18.7344 66.3779L18.7344 61.3779ZM18.7344 38.622L18.7344 33.622L13.7344 33.622L13.7344 38.622L18.7344 38.622ZM56.958 38.622L56.958 43.622L61.958 43.622L61.958 38.622L56.958 38.622ZM56.958 23.6923L60.4935 20.1568L51.958 11.6212L51.958 23.6923L56.958 23.6923ZM83.2656 49.9999L79.7301 46.4644L53.4225 72.772L56.958 76.3075L60.4936 79.8431L86.8012 53.5355L83.2656 49.9999ZM56.958 76.3075L61.958 76.3075L61.958 61.3779L56.958 61.3779L51.958 61.3779L51.958 76.3076L56.958 76.3075ZM56.958 61.3779L56.958 56.3779L18.7344 56.3779L18.7344 61.3779L18.7344 66.3779L56.958 66.3779L56.958 61.3779ZM18.7344 61.3779L23.7344 61.3779L23.7344 38.622L18.7344 38.622L13.7344 38.622L13.7344 61.3779L18.7344 61.3779ZM18.7344 38.622L18.7344 43.622L56.958 43.622L56.958 38.622L56.958 33.622L18.7344 33.622L18.7344 38.622ZM56.958 38.622L61.958 38.622L61.958 23.6923L56.958 23.6923L51.958 23.6923L51.958 38.622L56.958 38.622ZM56.958 23.6923L53.4225 27.2278L79.7301 53.5355L83.2656 49.9999L86.8012 46.4644L60.4935 20.1568L56.958 23.6923Z" fill="white" mask="url(#path-1-inside-1_207_21)"/>
</g>
</g>
<defs>
<filter id="filter0_d_207_21" x="14.7344" y="19.6923" width="72.5312" height="60.6152" filterUnits="userSpaceOnUse" color-interpolation-filters="sRGB">
<feFlood flood-opacity="0" result="BackgroundImageFix"/>
<feColorMatrix in="SourceAlpha" type="matrix" values="0 0 0 0 0 0 0 0 0 0 0 0 0 0 0 0 0 0 127 0" result="hardAlpha"/>
<feOffset/>
<feGaussianBlur stdDeviation="2"/>
<feComposite in2="hardAlpha" operator="out"/>
<feColorMatrix type="matrix" values="0 0 0 0 0 0 0 0 0 0 0 0 0 0 0 0 0 0 0.5 0"/>
<feBlend mode="normal" in2="BackgroundImageFix" result="effect1_dropShadow_207_21"/>
<feBlend mode="normal" in="SourceGraphic" in2="effect1_dropShadow_207_21" result="shape"/>
</filter>
</defs>
</svg>
