<svg width="101" height="100" viewBox="0 0 101 100" fill="none" xmlns="http://www.w3.org/2000/svg">
<g opacity="0.8">
<g filter="url(#filter0_d_207_9)">
<mask id="path-1-inside-1_207_9" fill="white">
<path d="M50.128 16.7344L76.4357 43.042L61.506 43.042L61.506 81.2656L38.7501 81.2656L38.7501 43.042L23.8204 43.042L50.128 16.7344Z"/>
</mask>
<path d="M50.128 16.7344L76.4357 43.042L61.506 43.042L61.506 81.2656L38.7501 81.2656L38.7501 43.042L23.8204 43.042L50.128 16.7344Z" fill="#FEF6FA" fill-opacity="0.5" shape-rendering="crispEdges"/>
<path d="M50.128 16.7344L53.6636 13.1988L50.128 9.66331L46.5925 13.1988L50.128 16.7344ZM76.4357 43.042L76.4357 48.042L88.5067 48.042L79.9712 39.5065L76.4357 43.042ZM61.506 43.042L61.506 38.042L56.506 38.042L56.506 43.042L61.506 43.042ZM61.506 81.2656L61.506 86.2656L66.506 86.2656L66.506 81.2656L61.506 81.2656ZM38.7501 81.2656L33.7501 81.2656L33.7501 86.2656L38.7501 86.2656L38.7501 81.2656ZM38.7501 43.042L43.7501 43.042L43.7501 38.042L38.7501 38.042L38.7501 43.042ZM23.8204 43.042L20.2849 39.5065L11.7494 48.042L23.8204 48.042L23.8204 43.042ZM50.128 16.7344L46.5925 20.2699L72.9001 46.5775L76.4357 43.042L79.9712 39.5065L53.6636 13.1988L50.128 16.7344ZM76.4357 43.042L76.4357 38.042L61.506 38.042L61.506 43.042L61.506 48.042L76.4357 48.042L76.4357 43.042ZM61.506 43.042L56.506 43.042L56.506 81.2656L61.506 81.2656L66.506 81.2656L66.506 43.042L61.506 43.042ZM61.506 81.2656L61.506 76.2656L38.7501 76.2656L38.7501 81.2656L38.7501 86.2656L61.506 86.2656L61.506 81.2656ZM38.7501 81.2656L43.7501 81.2656L43.7501 43.042L38.7501 43.042L33.7501 43.042L33.7501 81.2656L38.7501 81.2656ZM38.7501 43.042L38.7501 38.042L23.8204 38.042L23.8204 43.042L23.8204 48.042L38.7501 48.042L38.7501 43.042ZM23.8204 43.042L27.356 46.5775L53.6636 20.2699L50.128 16.7344L46.5925 13.1988L20.2849 39.5065L23.8204 43.042Z" fill="white" mask="url(#path-1-inside-1_207_9)"/>
</g>
</g>
<defs>
<filter id="filter0_d_207_9" x="19.8204" y="12.7344" width="60.6152" height="72.5312" filterUnits="userSpaceOnUse" color-interpolation-filters="sRGB">
<feFlood flood-opacity="0" result="BackgroundImageFix"/>
<feColorMatrix in="SourceAlpha" type="matrix" values="0 0 0 0 0 0 0 0 0 0 0 0 0 0 0 0 0 0 127 0" result="hardAlpha"/>
<feOffset/>
<feGaussianBlur stdDeviation="2"/>
<feComposite in2="hardAlpha" operator="out"/>
<feColorMatrix type="matrix" values="0 0 0 0 0 0 0 0 0 0 0 0 0 0 0 0 0 0 0.5 0"/>
<feBlend mode="normal" in2="BackgroundImageFix" result="effect1_dropShadow_207_9"/>
<feBlend mode="normal" in="SourceGraphic" in2="effect1_dropShadow_207_9" result="shape"/>
</filter>
</defs>
</svg>
