<svg width="100" height="101" viewBox="0 0 100 101" fill="none" xmlns="http://www.w3.org/2000/svg">
<path d="M80.4135 41.211L62.0905 56.5387C60.4318 57.9262 59.8531 60.223 60.6564 62.2309L63.0329 68.1714C63.7923 70.0696 65.6308 71.3143 67.6752 71.3143H69.9143C72.2865 71.3143 74.5796 72.1667 76.3758 73.7163C77.9598 75.0828 78.8706 77.0713 78.8706 79.1634V81.7479H52.6847C49.4253 81.7479 46.3338 80.3025 44.2438 77.8014L23.6133 53.1129L62.881 20.2566L80.4135 41.211Z" fill="white"/>
<path d="M22.0918 49.1685H19.585V42.895H29.5889L22.0918 49.1685ZM36.1484 37.4067H19.585V31.1362H43.6426L36.1484 37.4067ZM50.2021 25.6479H19.585V19.3735H57.7012L50.2021 25.6479Z" fill="white"/>
</svg>
