<svg width="101" height="101" viewBox="0 0 101 101" fill="none" xmlns="http://www.w3.org/2000/svg">
<path d="M81.3627 41.6033L63.0398 56.931C61.381 58.3186 60.8023 60.6153 61.6056 62.6232L63.9821 68.5638C64.7415 70.4619 66.58 71.7066 68.6244 71.7066H70.8636C73.2357 71.7066 75.5289 72.5591 77.325 74.1086C78.9091 75.4752 79.8198 77.4636 79.8198 79.5557V82.1403H53.6339C50.3745 82.1403 47.283 80.6948 45.193 78.1937L24.5625 53.5053L63.8302 20.6489L81.3627 41.6033Z" fill="black"/>
<path d="M23.041 49.5608H20.5342V43.2874H30.5381L23.041 49.5608ZM37.0977 37.7991H20.5342V31.5286H44.5918L37.0977 37.7991ZM51.1514 26.0403H20.5342V19.7659H58.6504L51.1514 26.0403Z" fill="black"/>
</svg>
